<svg id="svg" xmlns="http://www.w3.org/2000/svg" xmlns:xlink="http://www.w3.org/1999/xlink" width="400" height="147.75800711743773" viewBox="0, 0, 400,147.75800711743773"><g id="svgg"><path id="path0" d="M190.605 5.790 C 176.979 6.780,169.960 13.979,169.951 26.975 C 169.945 35.033,172.827 41.224,178.320 44.953 C 185.687 49.953,199.514 49.959,211.210 44.966 L 211.815 44.708 211.815 34.952 L 211.815 25.196 203.274 25.196 L 194.733 25.196 194.733 28.752 L 194.733 32.307 197.687 32.346 L 200.641 32.384 200.680 34.115 L 200.720 35.846 199.399 36.167 C 196.746 36.810,192.978 36.572,191.150 35.646 C 187.249 33.669,186.209 25.086,189.358 20.842 C 192.288 16.892,199.630 17.193,202.093 21.363 L 202.339 21.779 206.509 21.779 L 210.679 21.779 210.642 15.409 L 210.605 9.039 208.897 8.352 C 203.907 6.345,196.757 5.343,190.605 5.790 M80.854 12.517 C 80.854 17.944,80.871 18.349,81.103 18.416 C 81.240 18.456,81.929 18.591,82.633 18.717 C 83.338 18.843,84.027 18.979,84.164 19.020 C 84.389 19.087,84.413 19.335,84.413 21.575 L 84.413 24.057 77.295 24.057 L 70.178 24.057 70.178 21.575 C 70.178 19.334,70.202 19.087,70.427 19.022 C 70.564 18.982,71.253 18.847,71.957 18.721 C 72.662 18.595,73.351 18.459,73.488 18.418 C 73.719 18.349,73.737 17.947,73.737 12.588 L 73.737 6.833 61.352 6.833 L 48.968 6.833 48.968 12.588 C 48.968 17.947,48.985 18.349,49.217 18.418 C 49.354 18.459,50.043 18.595,50.747 18.721 C 51.452 18.847,52.141 18.982,52.278 19.022 C 52.511 19.089,52.527 19.615,52.527 27.473 L 52.527 35.852 51.779 36.007 C 51.368 36.092,50.584 36.244,50.036 36.345 L 49.039 36.529 49.002 42.393 L 48.965 48.256 61.352 48.256 L 73.740 48.256 73.703 42.393 L 73.665 36.529 72.669 36.345 C 72.121 36.244,71.336 36.092,70.925 36.007 L 70.178 35.852 70.178 33.371 L 70.178 30.890 77.295 30.890 L 84.413 30.890 84.413 33.381 C 84.413 34.751,84.388 35.872,84.357 35.872 C 84.288 35.872,81.607 36.413,81.174 36.514 L 80.854 36.589 80.854 42.423 L 80.854 48.256 93.240 48.256 L 105.626 48.256 105.589 42.386 L 105.552 36.516 104.555 36.337 C 104.007 36.239,103.222 36.089,102.811 36.005 L 102.064 35.852 102.064 27.466 L 102.064 19.080 102.384 19.011 C 102.560 18.974,103.249 18.840,103.915 18.715 C 104.580 18.589,105.237 18.454,105.374 18.415 C 105.606 18.349,105.623 17.944,105.623 12.517 L 105.623 6.690 93.238 6.690 L 80.854 6.690 80.854 12.517 M4.840 14.306 L 4.840 21.779 7.260 21.779 C 9.601 21.779,9.680 21.770,9.680 21.489 C 9.680 19.749,14.118 17.030,15.864 17.700 C 16.147 17.808,16.208 35.637,15.926 35.812 C 15.838 35.866,15.053 36.047,14.182 36.214 L 12.598 36.517 12.561 42.387 L 12.524 48.256 24.840 48.256 L 37.156 48.256 37.119 42.390 L 37.082 36.523 36.085 36.334 C 35.537 36.230,34.753 36.078,34.342 35.998 L 33.594 35.852 33.594 26.751 L 33.594 17.651 34.057 17.654 C 36.710 17.668,40.000 19.791,40.000 21.489 C 40.000 21.770,40.079 21.779,42.420 21.779 L 44.840 21.779 44.840 14.306 L 44.840 6.833 24.840 6.833 L 4.840 6.833 4.840 14.306 M111.493 12.630 L 111.530 18.427 112.883 18.675 C 113.626 18.812,114.379 18.959,114.555 19.002 L 114.875 19.080 114.875 27.464 L 114.875 35.848 114.199 35.991 C 113.827 36.069,113.107 36.211,112.598 36.307 C 112.089 36.402,111.621 36.526,111.558 36.583 C 111.494 36.639,111.430 39.289,111.415 42.471 L 111.388 48.256 129.573 48.256 L 147.758 48.256 147.758 40.712 L 147.758 33.167 145.801 33.168 C 143.854 33.168,143.840 33.171,143.203 33.603 C 140.925 35.147,137.484 36.201,134.088 36.395 L 132.527 36.485 132.527 33.189 C 132.527 30.567,132.565 29.893,132.713 29.893 C 132.816 29.893,134.657 30.277,136.806 30.747 C 138.954 31.217,140.728 31.601,140.747 31.601 C 140.767 31.601,140.783 29.744,140.783 27.473 C 140.783 25.203,140.752 23.345,140.714 23.345 C 140.677 23.345,138.850 23.730,136.655 24.199 C 134.460 24.669,132.633 25.053,132.595 25.053 C 132.558 25.053,132.527 23.577,132.527 21.772 L 132.527 18.490 133.772 18.581 C 137.318 18.840,140.458 19.746,142.814 21.189 L 143.777 21.779 145.768 21.779 L 147.758 21.779 147.758 14.306 L 147.758 6.833 129.607 6.833 L 111.456 6.833 111.493 12.630 M216.370 12.573 L 216.370 18.332 216.690 18.405 C 216.867 18.445,217.635 18.591,218.399 18.731 L 219.786 18.985 219.786 27.416 L 219.786 35.848 219.039 36.009 C 218.628 36.097,217.859 36.244,217.331 36.334 L 216.370 36.499 216.370 42.378 L 216.370 48.256 226.904 48.256 L 237.438 48.256 237.438 40.783 L 237.438 33.310 237.980 33.310 L 238.522 33.310 238.977 34.960 C 239.821 38.025,241.449 41.914,243.752 46.370 L 244.727 48.256 253.467 48.256 L 262.206 48.256 262.206 44.837 L 262.206 41.418 260.336 39.250 C 256.774 35.119,253.612 30.869,253.906 30.604 C 253.969 30.546,254.598 30.248,255.302 29.940 C 260.421 27.706,262.135 25.087,262.135 19.502 C 262.135 11.504,258.770 8.502,248.310 7.169 C 246.743 6.969,244.293 6.926,231.423 6.875 L 216.370 6.814 216.370 12.573 M267.331 12.595 L 267.331 18.358 267.651 18.433 C 268.084 18.534,270.764 19.075,270.834 19.075 C 270.865 19.075,270.890 22.850,270.890 27.463 L 270.890 35.852 270.142 36.005 C 269.731 36.089,268.947 36.239,268.399 36.337 L 267.402 36.516 267.365 42.386 L 267.328 48.256 285.479 48.256 L 303.630 48.256 303.630 40.712 L 303.630 33.167 301.698 33.167 C 299.805 33.167,299.755 33.175,299.172 33.576 C 296.908 35.129,293.513 36.179,290.071 36.391 L 288.541 36.485 288.541 33.189 C 288.541 31.182,288.594 29.893,288.677 29.893 C 288.793 29.893,295.372 31.300,296.335 31.530 L 296.655 31.607 296.655 27.461 L 296.655 23.314 296.335 23.394 C 296.158 23.437,294.487 23.797,292.619 24.193 C 290.752 24.589,289.071 24.951,288.883 24.998 L 288.541 25.084 288.541 21.795 C 288.541 18.755,288.560 18.506,288.790 18.509 C 292.313 18.561,296.733 19.797,299.029 21.371 C 299.615 21.773,299.656 21.779,301.627 21.779 L 303.630 21.779 303.630 14.306 L 303.630 6.833 285.480 6.833 L 267.331 6.833 267.331 12.595 M318.645 7.011 C 318.610 7.109,316.782 13.175,314.583 20.491 C 310.005 35.728,310.609 33.965,309.930 34.081 C 309.636 34.131,308.899 34.276,308.292 34.402 L 307.189 34.632 307.189 41.444 L 307.189 48.256 314.992 48.256 L 322.795 48.256 323.483 44.947 C 323.861 43.126,324.200 41.557,324.236 41.459 C 324.331 41.200,335.883 41.200,335.977 41.459 C 336.012 41.557,336.353 43.126,336.735 44.947 L 337.429 48.256 345.227 48.256 L 353.025 48.256 353.025 41.434 L 353.025 34.611 352.278 34.459 C 351.867 34.375,351.118 34.224,350.614 34.124 L 349.698 33.941 345.907 21.419 C 343.822 14.532,341.974 8.432,341.801 7.865 L 341.486 6.833 330.098 6.833 C 321.117 6.833,318.696 6.870,318.645 7.011 M353.452 14.309 L 353.452 21.786 355.814 21.747 L 358.176 21.708 358.362 21.167 C 358.990 19.339,361.124 17.965,363.737 17.707 L 364.698 17.612 364.698 26.662 C 364.698 33.655,364.658 35.737,364.523 35.821 C 364.427 35.880,363.642 36.061,362.779 36.222 L 361.210 36.516 361.173 42.386 L 361.136 48.256 373.452 48.256 L 385.768 48.256 385.731 42.390 L 385.694 36.523 384.698 36.334 C 384.149 36.230,383.365 36.078,382.954 35.998 L 382.206 35.852 382.206 26.751 L 382.206 17.651 382.669 17.654 C 385.322 17.668,388.612 19.791,388.612 21.489 C 388.612 21.770,388.691 21.779,391.032 21.779 L 393.452 21.779 393.452 14.306 L 393.452 6.833 373.452 6.833 L 353.452 6.833 353.452 14.309 M240.560 14.813 C 243.419 15.277,244.624 16.836,244.624 20.071 C 244.624 23.863,243.266 25.116,238.826 25.419 L 237.438 25.514 237.438 20.088 L 237.438 14.662 238.541 14.663 C 239.148 14.664,240.056 14.731,240.560 14.813 M332.153 23.780 C 333.220 28.129,334.093 31.765,334.093 31.858 C 334.093 31.986,333.105 32.028,330.107 32.028 C 327.013 32.028,326.121 31.989,326.122 31.851 C 326.123 31.753,326.540 29.975,327.049 27.900 C 327.558 25.826,328.437 22.225,329.003 19.898 C 329.569 17.572,330.072 15.714,330.122 15.770 C 330.172 15.826,331.086 19.430,332.153 23.780 M6.263 70.462 L 6.263 76.441 8.149 76.440 L 10.036 76.439 11.015 75.444 C 12.134 74.306,13.416 73.590,14.523 73.484 L 15.231 73.416 15.231 81.538 C 15.231 89.151,15.216 89.665,14.982 89.734 C 14.752 89.802,12.422 90.249,12.297 90.249 C 12.267 90.249,12.242 92.523,12.242 95.302 L 12.242 100.356 22.708 100.356 L 33.173 100.356 33.164 95.378 C 33.158 92.640,33.100 90.367,33.034 90.326 C 32.968 90.285,32.443 90.155,31.866 90.037 C 31.290 89.919,30.674 89.789,30.498 89.749 L 30.178 89.674 30.178 81.545 L 30.178 73.416 30.861 73.481 C 31.990 73.590,33.063 74.184,34.271 75.368 L 35.365 76.441 37.257 76.441 L 39.149 76.441 39.112 70.498 L 39.075 64.555 22.669 64.519 L 6.263 64.483 6.263 70.462 M57.367 66.773 C 46.219 67.827,40.572 73.844,40.897 84.321 C 41.264 96.170,50.061 102.135,64.769 100.508 C 75.210 99.354,81.188 91.573,79.868 80.854 C 78.652 70.971,70.028 65.574,57.367 66.773 M141.495 66.778 C 130.467 67.752,124.740 73.799,125.023 84.170 C 125.350 96.161,134.056 102.118,148.897 100.505 C 157.394 99.582,162.844 94.520,163.921 86.548 C 165.708 73.320,156.757 65.430,141.495 66.778 M81.599 72.061 L 81.637 76.649 83.326 76.889 C 84.255 77.021,85.065 77.183,85.126 77.248 C 85.719 77.885,94.642 90.323,94.559 90.397 C 94.498 90.451,94.128 90.571,93.737 90.664 C 93.345 90.757,92.785 90.897,92.491 90.974 L 91.957 91.114 91.957 95.735 L 91.957 100.356 102.491 100.356 L 113.025 100.356 113.025 95.736 L 113.025 91.117 112.491 90.967 C 112.198 90.885,111.589 90.741,111.139 90.648 C 110.093 90.429,109.953 90.755,112.693 87.013 C 113.999 85.231,115.555 83.100,116.152 82.278 C 119.673 77.432,119.881 77.171,120.261 77.096 C 120.470 77.056,121.153 76.952,121.779 76.866 C 122.406 76.779,123.030 76.676,123.167 76.637 C 123.398 76.570,123.416 76.226,123.416 72.019 L 123.416 67.473 114.091 67.473 L 104.765 67.473 104.802 72.062 L 104.840 76.651 105.836 76.878 C 106.384 77.003,106.833 77.180,106.833 77.271 C 106.833 77.449,102.609 83.970,102.491 83.973 C 102.370 83.976,98.149 77.459,98.149 77.268 C 98.149 77.161,98.552 76.999,99.146 76.868 L 100.142 76.649 100.180 72.061 L 100.217 67.473 90.890 67.473 L 81.562 67.473 81.599 72.061 M166.548 73.452 L 166.548 79.431 168.439 79.431 L 170.329 79.431 170.517 78.795 C 170.898 77.504,172.730 76.318,174.542 76.188 L 175.516 76.118 175.516 83.326 C 175.516 87.290,175.488 90.534,175.454 90.534 C 175.384 90.534,173.479 90.921,172.989 91.034 L 172.669 91.109 172.669 95.732 L 172.669 100.356 182.420 100.356 L 192.171 100.356 192.171 95.739 C 192.171 91.464,192.152 91.117,191.922 91.051 C 191.785 91.012,191.288 90.908,190.819 90.819 C 190.349 90.729,189.852 90.625,189.715 90.586 C 189.482 90.519,189.466 90.050,189.466 83.316 L 189.466 76.118 190.376 76.191 C 192.302 76.345,194.448 77.899,194.448 79.139 C 194.448 79.419,194.528 79.431,196.370 79.431 L 198.292 79.431 198.292 73.452 L 198.292 67.473 182.420 67.473 L 166.548 67.473 166.548 73.452 M204.569 78.114 C 202.815 83.966,201.310 88.825,201.224 88.911 C 201.138 88.997,200.507 89.182,199.822 89.321 L 198.577 89.574 198.577 94.965 L 198.577 100.356 204.766 100.356 L 210.955 100.356 211.028 100.036 C 211.256 99.036,212.099 95.001,212.099 94.911 C 212.100 94.852,214.198 94.804,216.763 94.804 L 221.426 94.804 221.998 97.544 L 222.571 100.285 228.794 100.322 L 235.018 100.359 235.018 94.963 L 235.018 89.568 233.668 89.313 L 232.319 89.059 232.109 88.409 C 231.994 88.051,230.740 83.915,229.322 79.217 C 227.904 74.520,226.521 69.956,226.250 69.075 L 225.755 67.473 216.757 67.474 L 207.758 67.474 204.569 78.114 M251.246 72.026 L 251.246 76.578 251.566 76.652 C 251.742 76.693,252.488 76.820,253.223 76.936 C 254.837 77.189,254.304 76.351,256.572 82.210 C 257.632 84.948,259.639 90.135,261.033 93.737 L 263.566 100.285 271.344 100.321 L 279.123 100.358 281.231 94.027 C 282.391 90.545,283.381 87.742,283.431 87.798 C 283.482 87.854,284.085 89.598,284.771 91.673 C 285.457 93.747,286.401 96.550,286.869 97.902 L 287.720 100.358 295.481 100.321 L 303.242 100.285 307.695 88.778 C 310.144 82.449,312.180 77.239,312.219 77.200 C 312.257 77.161,312.983 77.022,313.831 76.890 L 315.374 76.650 315.411 72.062 L 315.449 67.473 307.475 67.473 L 299.502 67.473 299.502 72.080 L 299.502 76.686 300.582 76.871 C 301.981 77.110,301.977 76.837,300.642 81.162 C 298.420 88.359,298.053 89.457,297.937 89.244 C 297.501 88.441,294.223 77.249,294.393 77.143 C 294.498 77.078,295.017 76.948,295.545 76.853 L 296.505 76.682 296.544 72.077 L 296.584 67.473 285.943 67.473 L 275.302 67.473 275.305 71.922 C 275.307 76.989,275.224 76.630,276.451 76.859 C 277.939 77.136,277.939 76.747,276.457 81.519 C 274.280 88.529,273.991 89.412,273.902 89.323 C 273.791 89.212,270.062 77.240,270.118 77.174 C 270.141 77.146,270.661 77.018,271.272 76.889 L 272.384 76.654 272.422 72.064 L 272.459 67.473 261.853 67.473 L 251.246 67.473 251.246 72.026 M321.002 77.117 C 319.407 82.422,317.936 87.273,317.734 87.897 C 317.324 89.163,317.540 89.014,315.552 89.399 L 314.733 89.558 314.733 94.957 L 314.733 100.356 320.925 100.356 C 324.331 100.356,327.117 100.331,327.117 100.301 C 327.117 100.271,327.374 99.047,327.687 97.580 C 328.000 96.113,328.256 94.888,328.256 94.857 C 328.256 94.826,330.354 94.817,332.918 94.838 L 337.580 94.875 338.146 97.616 L 338.712 100.356 344.943 100.356 L 351.174 100.356 351.174 94.962 L 351.174 89.568 349.825 89.313 L 348.476 89.059 348.194 88.195 C 348.039 87.720,346.626 83.071,345.054 77.865 C 343.482 72.658,342.130 68.190,342.048 67.936 L 341.900 67.473 332.901 67.473 L 323.903 67.473 321.002 77.117 M354.767 72.058 L 354.804 76.642 355.302 76.742 C 355.577 76.796,356.169 76.916,356.619 77.007 L 357.438 77.173 357.438 83.844 C 357.438 90.075,357.421 90.519,357.189 90.586 C 357.052 90.625,356.555 90.729,356.085 90.819 C 355.616 90.908,355.119 91.012,354.982 91.051 C 354.752 91.117,354.733 91.464,354.733 95.739 L 354.733 100.356 363.060 100.356 L 371.388 100.356 371.388 94.448 L 371.388 88.541 371.851 88.543 L 372.313 88.545 372.783 90.144 C 373.455 92.429,374.541 95.076,375.951 97.865 L 377.174 100.285 384.103 100.322 L 391.032 100.359 391.032 97.642 L 391.032 94.924 389.357 92.978 C 386.810 90.018,384.476 86.891,384.487 86.452 C 384.488 86.387,385.177 86.004,386.017 85.600 C 389.736 83.810,390.879 82.066,390.993 78.007 C 391.123 73.422,389.974 71.139,386.738 69.550 C 383.127 67.776,380.002 67.484,364.589 67.477 L 354.729 67.473 354.767 72.058 M375.054 74.159 C 376.554 74.811,377.131 75.854,377.141 77.936 C 377.157 81.052,375.523 82.465,372.151 82.250 L 371.459 82.206 371.421 77.953 L 371.384 73.699 372.845 73.767 C 373.943 73.818,374.492 73.915,375.054 74.159 M218.417 80.996 C 219.250 84.402,219.931 87.269,219.930 87.367 C 219.929 87.548,213.813 87.645,213.635 87.467 C 213.593 87.424,213.736 86.671,213.953 85.794 C 214.171 84.917,214.879 82.035,215.526 79.391 C 216.174 76.746,216.748 74.632,216.803 74.693 C 216.857 74.754,217.584 77.591,218.417 80.996 M334.571 81.068 C 335.409 84.512,336.093 87.379,336.090 87.438 C 336.088 87.496,334.643 87.544,332.880 87.544 L 329.674 87.544 329.751 87.224 C 329.793 87.048,330.499 84.157,331.319 80.799 C 332.140 77.441,332.811 74.658,332.811 74.614 C 332.811 74.054,333.301 75.849,334.571 81.068 M62.592 76.796 C 65.383 77.633,66.801 81.743,65.852 86.246 C 65.052 90.041,61.080 91.859,57.543 90.050 C 55.214 88.858,54.067 84.498,55.019 80.458 C 55.784 77.214,58.923 75.695,62.592 76.796 M145.819 76.592 C 149.092 77.198,150.300 79.297,150.145 84.117 C 149.998 88.714,148.399 90.564,144.555 90.580 C 140.376 90.597,138.839 88.510,138.965 82.989 C 139.080 77.925,141.386 75.773,145.819 76.592 M133.665 126.406 L 133.665 135.231 131.260 135.231 L 128.854 135.231 128.792 131.708 C 128.711 127.104,128.352 125.918,126.675 124.703 C 124.922 123.433,121.345 123.110,118.090 123.927 L 117.177 124.157 116.953 125.388 C 116.427 128.277,116.318 131.870,116.674 134.564 L 116.765 135.248 111.799 135.204 C 107.020 135.162,106.811 135.148,106.244 134.851 L 105.655 134.541 105.141 135.288 C 104.503 136.214,104.491 136.134,105.326 136.494 C 106.140 136.844,107.565 137.075,108.932 137.079 C 110.035 137.082,110.019 137.053,109.739 138.586 C 109.429 140.278,108.459 141.421,107.031 141.780 C 105.715 142.110,96.147 141.904,95.210 141.526 C 92.663 140.495,92.136 139.123,92.667 134.893 C 92.841 133.504,92.961 132.345,92.933 132.318 C 92.905 132.292,92.459 132.225,91.942 132.170 L 91.002 132.071 90.737 133.971 C 90.301 137.112,90.358 138.938,90.929 140.098 C 91.761 141.790,93.536 143.075,95.708 143.558 C 97.262 143.904,107.094 143.813,108.043 143.444 C 110.241 142.589,111.548 140.739,111.812 138.106 L 111.915 137.082 134.000 137.081 C 157.355 137.081,157.780 137.070,159.637 136.414 C 161.098 135.899,161.145 135.895,161.920 136.227 C 163.480 136.896,164.188 136.969,169.786 137.040 L 175.089 137.108 175.089 127.344 L 175.089 117.580 174.094 117.580 L 173.098 117.580 173.062 126.370 L 173.025 135.160 169.401 135.198 C 166.083 135.233,163.619 135.054,163.322 134.757 C 163.285 134.721,163.916 134.028,164.724 133.217 C 166.999 130.934,167.927 129.106,168.075 126.614 L 168.152 125.327 167.172 124.877 C 163.224 123.067,159.043 123.060,155.025 124.856 L 154.021 125.305 154.024 126.176 C 154.031 128.803,155.323 131.352,157.804 133.638 C 158.385 134.174,158.861 134.649,158.861 134.694 C 158.861 135.000,157.116 135.159,153.737 135.159 L 150.107 135.160 150.019 131.886 C 149.866 126.128,148.557 124.025,144.835 123.559 C 141.789 123.177,139.548 124.075,137.031 126.685 C 136.349 127.393,135.761 127.972,135.725 127.972 C 135.688 127.972,135.658 125.633,135.658 122.776 L 135.658 117.580 134.662 117.580 L 133.665 117.580 133.665 126.406 M179.929 127.331 L 179.929 137.082 180.925 137.082 L 181.922 137.082 181.922 127.331 L 181.922 117.580 180.925 117.580 L 179.929 117.580 179.929 127.331 M199.288 127.331 L 199.288 137.082 204.484 137.082 L 209.680 137.082 209.680 130.249 L 209.680 123.416 208.685 123.416 L 207.690 123.416 207.653 129.288 L 207.616 135.160 204.448 135.198 L 201.281 135.237 201.281 126.408 L 201.281 117.580 200.285 117.580 L 199.288 117.580 199.288 127.331 M141.210 119.715 L 141.210 120.854 142.206 120.854 L 143.203 120.854 143.203 119.715 L 143.203 118.577 142.206 118.577 L 141.210 118.577 141.210 119.715 M205.836 119.715 L 205.836 120.854 206.833 120.854 L 207.829 120.854 207.829 119.715 L 207.829 118.577 206.833 118.577 L 205.836 118.577 205.836 119.715 M209.537 119.715 L 209.537 120.854 210.534 120.854 L 211.530 120.854 211.530 119.715 L 211.530 118.577 210.534 118.577 L 209.537 118.577 209.537 119.715 M251.957 119.715 L 251.957 120.854 252.954 120.854 L 253.950 120.854 253.950 119.715 L 253.950 118.577 252.954 118.577 L 251.957 118.577 251.957 119.715 M255.658 119.715 L 255.658 120.854 256.726 120.854 L 257.794 120.854 257.794 119.715 L 257.794 118.577 256.726 118.577 L 255.658 118.577 255.658 119.715 M217.722 123.554 C 214.330 123.946,213.167 125.655,213.167 130.249 C 213.167 135.632,214.411 136.876,219.958 137.043 C 222.972 137.134,222.775 137.033,222.616 138.405 C 222.339 140.794,220.114 141.588,215.288 141.020 L 214.277 140.901 214.127 141.660 C 213.942 142.596,213.869 142.547,215.908 142.855 C 221.287 143.669,224.343 142.000,224.718 138.043 L 224.810 137.082 228.775 137.082 L 232.740 137.082 232.740 130.249 L 232.740 123.416 231.745 123.416 L 230.750 123.416 230.713 129.288 L 230.676 135.160 227.722 135.199 L 224.769 135.237 224.769 129.327 L 224.769 123.416 221.673 123.436 C 219.970 123.447,218.192 123.500,217.722 123.554 M240.641 123.577 C 237.217 124.007,235.691 126.864,236.261 131.781 C 236.757 136.069,238.230 137.082,243.967 137.082 L 245.877 137.082 245.792 138.001 C 245.533 140.775,243.572 141.579,238.424 141.022 L 237.347 140.906 237.203 141.697 C 237.035 142.626,236.903 142.539,238.932 142.844 C 244.349 143.660,247.476 141.990,247.787 138.114 L 247.870 137.082 251.835 137.082 L 255.801 137.082 255.801 130.249 L 255.801 123.416 254.804 123.416 L 253.808 123.416 253.808 129.324 L 253.808 135.231 250.819 135.231 L 247.829 135.231 247.829 129.324 L 247.829 123.416 244.733 123.434 C 243.030 123.444,241.189 123.509,240.641 123.577 M287.402 129.338 L 287.402 135.260 282.171 135.193 C 273.609 135.083,272.663 134.383,273.592 128.840 C 273.948 126.716,273.966 126.772,272.850 126.586 C 271.892 126.426,272.017 126.225,271.591 128.612 C 270.863 132.685,271.644 134.894,274.241 136.109 C 275.950 136.909,276.516 136.967,283.310 137.042 L 289.537 137.111 289.537 130.264 L 289.537 123.416 288.470 123.416 L 287.402 123.416 287.402 129.338 M294.917 131.068 C 294.876 138.697,294.875 138.721,294.550 139.425 C 293.940 140.748,293.204 141.202,291.657 141.207 L 290.715 141.210 290.620 142.018 C 290.500 143.042,290.568 143.088,292.100 143.022 C 294.990 142.898,296.940 140.731,296.940 137.644 L 296.940 137.082 305.206 137.082 L 313.472 137.082 313.423 132.349 C 313.359 126.305,313.042 125.401,310.588 124.246 C 308.325 123.180,301.617 123.347,301.843 124.462 C 301.877 124.631,301.941 124.995,301.986 125.273 L 302.066 125.777 303.453 125.592 C 306.958 125.124,309.240 125.376,310.318 126.349 C 311.296 127.233,311.388 127.690,311.388 131.673 L 311.388 135.160 304.199 135.160 L 297.011 135.160 296.974 129.288 L 296.936 123.416 295.947 123.416 L 294.958 123.416 294.917 131.068 M124.385 125.621 C 126.349 126.221,126.749 127.278,126.756 131.886 L 126.762 135.160 122.815 135.198 L 118.868 135.236 118.795 134.913 C 118.304 132.750,118.438 126.203,118.984 125.657 C 119.392 125.249,123.086 125.224,124.385 125.621 M145.680 125.679 C 147.557 126.528,148.083 128.073,148.013 132.527 L 147.972 135.160 141.805 135.197 L 135.639 135.234 135.684 132.983 L 135.730 130.731 136.674 129.600 C 139.790 125.869,143.005 124.469,145.680 125.679 M163.906 125.691 C 165.871 126.195,166.057 126.333,166.010 127.260 C 165.909 129.203,163.653 132.300,161.487 133.466 C 160.104 134.211,156.228 129.647,156.228 127.273 L 156.228 126.335 157.377 125.949 C 159.567 125.214,161.712 125.129,163.906 125.691 M222.650 125.445 C 222.678 125.731,222.678 125.971,222.655 130.712 L 222.633 135.231 220.534 135.228 C 215.862 135.222,215.100 134.514,215.093 130.178 C 215.088 127.040,215.689 125.850,217.470 125.467 C 218.608 125.223,222.628 125.205,222.650 125.445 M245.803 130.285 L 245.840 135.231 243.729 135.231 C 239.312 135.231,238.589 134.760,238.264 131.667 C 237.719 126.485,238.733 125.269,243.559 125.316 L 245.765 125.338 245.803 130.285 M13.559 129.573 L 13.598 130.463 17.689 130.500 L 21.779 130.538 21.779 129.611 L 21.779 128.683 17.650 128.683 L 13.520 128.683 13.559 129.573 M25.480 129.609 L 25.480 130.534 29.609 130.534 L 33.737 130.534 33.737 129.609 L 33.737 128.683 29.609 128.683 L 25.480 128.683 25.480 129.609 M37.438 129.609 L 37.438 130.534 41.495 130.534 L 45.552 130.534 45.552 129.609 L 45.552 128.683 41.495 128.683 L 37.438 128.683 37.438 129.609 M49.395 129.609 L 49.395 130.534 53.452 130.534 L 57.509 130.534 57.509 129.609 L 57.509 128.683 53.452 128.683 L 49.395 128.683 49.395 129.609 M61.210 129.609 L 61.210 130.534 65.338 130.534 L 69.466 130.534 69.466 129.609 L 69.466 128.683 65.338 128.683 L 61.210 128.683 61.210 129.609 M73.167 129.609 L 73.167 130.534 77.224 130.534 L 81.281 130.534 81.281 129.609 L 81.281 128.683 77.224 128.683 L 73.167 128.683 73.167 129.609 M322.989 129.609 L 322.989 130.534 327.117 130.534 L 331.246 130.534 331.246 129.609 L 331.246 128.683 327.117 128.683 L 322.989 128.683 322.989 129.609 M334.947 129.609 L 334.947 130.534 339.004 130.534 L 343.060 130.534 343.060 129.609 L 343.060 128.683 339.004 128.683 L 334.947 128.683 334.947 129.609 M346.904 129.609 L 346.904 130.534 350.961 130.534 L 355.018 130.534 355.018 129.609 L 355.018 128.683 350.961 128.683 L 346.904 128.683 346.904 129.609 M358.719 129.609 L 358.719 130.534 362.847 130.534 L 366.975 130.534 366.975 129.609 L 366.975 128.683 362.847 128.683 L 358.719 128.683 358.719 129.609 M370.676 129.609 L 370.676 130.534 374.733 130.534 L 378.790 130.534 378.790 129.609 L 378.790 128.683 374.733 128.683 L 370.676 128.683 370.676 129.609 M382.633 129.609 L 382.633 130.534 386.690 130.534 L 390.747 130.534 390.747 129.609 L 390.747 128.683 386.690 128.683 L 382.633 128.683 382.633 129.609 M228.897 140.783 L 228.897 141.922 229.893 141.922 L 230.890 141.922 230.890 140.783 L 230.890 139.644 229.893 139.644 L 228.897 139.644 228.897 140.783 M232.598 140.783 L 232.598 141.922 233.594 141.922 L 234.591 141.922 234.591 140.783 L 234.591 139.644 233.594 139.644 L 232.598 139.644 232.598 140.783 M279.431 140.783 L 279.431 141.922 280.427 141.922 L 281.423 141.922 281.423 140.783 L 281.423 139.644 280.427 139.644 L 279.431 139.644 279.431 140.783 " stroke="none" fill="#000000" fill-rule="evenodd"></path></g></svg>