<svg id="svg" xmlns="http://www.w3.org/2000/svg" xmlns:xlink="http://www.w3.org/1999/xlink" width="400" height="144.27694025683977" viewBox="0, 0, 400,144.27694025683977"><g id="svgg"><path id="path0" d="M195.924 12.953 C 186.548 13.117,175.472 13.681,172.870 14.128 C 169.605 14.689,167.555 16.307,166.898 18.840 C 166.674 19.706,166.671 20.101,166.890 20.101 C 167.141 20.101,167.140 70.698,166.890 72.115 C 166.800 72.624,166.692 73.592,166.652 74.265 L 166.577 75.489 165.775 75.489 C 163.334 75.489,160.427 77.479,159.170 80.011 L 158.667 81.025 158.510 83.756 C 158.423 85.259,158.351 86.626,158.350 86.795 L 158.347 87.102 167.780 87.102 L 177.212 87.102 176.978 87.498 C 176.270 88.699,177.497 90.197,178.829 89.758 L 179.341 89.590 179.341 94.557 L 179.341 99.524 179.090 99.456 C 178.952 99.419,177.749 99.388,176.417 99.387 L 173.996 99.386 173.961 95.394 L 173.925 91.401 173.631 90.774 C 173.217 89.891,172.626 89.286,171.766 88.862 L 171.026 88.498 167.504 88.498 L 163.982 88.498 163.242 88.862 C 162.382 89.286,161.791 89.891,161.377 90.774 L 161.083 91.401 161.083 113.124 L 161.083 134.846 161.447 135.585 C 161.871 136.446,162.476 137.036,163.359 137.450 L 163.987 137.744 167.504 137.744 L 171.022 137.744 171.649 137.450 C 172.532 137.036,173.138 136.445,173.561 135.585 L 173.925 134.846 173.957 125.156 L 173.988 115.466 175.883 115.466 L 177.778 115.466 177.778 116.359 L 177.778 117.251 183.668 117.280 L 189.559 117.309 189.589 119.280 L 189.620 121.251 189.282 121.588 C 188.832 122.039,188.828 122.514,189.271 122.957 L 189.598 123.283 191.960 123.283 L 194.322 123.283 194.648 122.957 C 195.091 122.514,195.088 122.039,194.639 121.590 C 194.454 121.405,194.341 121.273,194.388 121.297 C 199.314 123.816,201.919 123.458,208.096 119.412 C 213.331 115.983,213.031 116.037,224.615 116.420 C 229.164 116.570,232.949 116.693,233.026 116.694 C 233.134 116.694,233.166 117.248,233.166 119.087 L 233.166 121.479 232.831 121.814 C 232.383 122.262,232.380 122.738,232.822 123.180 L 233.149 123.506 235.399 123.506 L 237.650 123.506 237.976 123.180 C 238.369 122.787,238.403 122.324,238.071 121.902 C 237.872 121.649,237.702 116.968,237.888 116.858 C 237.901 116.851,240.694 116.938,244.094 117.053 L 250.275 117.262 251.258 116.364 L 252.240 115.466 253.308 115.466 L 254.376 115.466 254.407 125.209 L 254.439 134.953 254.735 135.583 C 255.111 136.386,255.797 137.072,256.600 137.449 L 257.231 137.744 260.972 137.744 L 264.712 137.744 265.343 137.449 C 266.146 137.072,266.832 136.386,267.208 135.583 L 267.504 134.953 267.504 113.121 L 267.504 91.290 267.208 90.659 C 266.832 89.856,266.146 89.170,265.343 88.794 L 264.712 88.498 260.972 88.498 L 257.231 88.498 256.600 88.794 C 255.797 89.170,255.111 89.856,254.735 90.659 L 254.439 91.290 254.403 95.153 L 254.368 99.017 252.683 99.090 C 251.756 99.130,250.553 99.162,250.010 99.162 L 249.023 99.162 249.023 94.422 L 249.023 89.682 249.432 89.853 C 250.842 90.442,252.178 88.779,251.315 87.509 L 251.040 87.102 260.501 87.102 L 269.962 87.102 269.817 84.171 C 269.655 80.909,269.581 80.586,268.673 79.181 C 267.461 77.306,264.674 75.489,263.012 75.489 L 262.346 75.489 262.270 74.176 C 262.228 73.455,262.132 72.513,262.057 72.083 C 261.967 71.566,261.931 70.311,261.950 68.385 L 261.980 65.468 262.426 65.689 C 262.974 65.960,263.497 65.889,263.987 65.476 C 264.600 64.961,264.657 64.730,264.657 62.764 L 264.657 60.972 264.098 60.972 C 263.586 60.972,263.540 60.950,263.540 60.709 C 263.540 60.564,263.766 57.366,264.042 53.601 C 264.319 49.837,264.545 46.723,264.545 46.682 C 264.545 46.641,265.057 46.547,265.684 46.474 C 268.059 46.195,268.301 45.758,268.416 41.541 C 268.514 37.931,268.205 36.206,267.372 35.716 C 266.738 35.343,264.219 35.093,262.786 35.261 L 261.977 35.357 261.977 27.729 L 261.977 20.101 262.266 20.101 C 262.551 20.101,262.555 20.090,262.482 19.514 C 262.110 16.561,260.073 14.565,256.634 13.783 C 254.880 13.385,252.631 13.308,240.704 13.238 C 234.930 13.204,227.594 13.130,224.400 13.073 C 215.460 12.912,201.621 12.854,195.924 12.953 M224.735 13.746 C 228.420 13.809,236.586 13.903,242.881 13.955 C 255.286 14.058,255.566 14.072,257.482 14.697 C 259.713 15.425,261.416 17.145,261.707 18.962 L 261.782 19.430 214.643 19.430 L 167.504 19.430 167.504 19.164 C 167.504 18.656,168.362 17.152,168.991 16.557 C 170.384 15.239,171.967 14.776,176.127 14.467 C 188.077 13.580,202.438 13.367,224.735 13.746 M261.307 27.806 C 261.307 35.391,261.303 35.511,261.087 35.511 C 260.054 35.511,259.594 37.133,259.583 40.815 C 259.572 44.561,259.967 46.047,261.027 46.247 C 261.160 46.272,261.266 46.395,261.288 46.550 L 261.325 46.810 260.004 46.737 L 258.682 46.664 255.641 48.821 L 252.599 50.977 252.598 52.066 L 252.596 53.155 214.627 53.155 L 176.657 53.155 176.709 52.903 C 176.738 52.765,176.791 52.275,176.826 51.815 L 176.890 50.977 173.639 48.814 L 170.388 46.650 169.058 46.730 L 167.728 46.809 167.728 33.455 L 167.728 20.101 214.517 20.101 L 261.307 20.101 261.307 27.806 M197.655 20.624 L 196.482 20.903 185.427 20.952 C 176.039 20.994,174.212 21.028,173.311 21.178 L 172.250 21.355 171.442 22.147 C 170.513 23.058,170.320 23.498,169.953 25.531 C 169.620 27.377,169.629 39.639,169.964 41.484 L 170.187 42.712 171.085 43.614 L 171.983 44.517 173.457 45.029 L 174.930 45.542 186.767 45.616 L 198.604 45.690 199.665 46.140 C 200.248 46.387,200.851 46.658,201.005 46.741 C 201.242 46.869,199.585 46.893,190.173 46.897 C 176.517 46.903,177.834 46.604,177.834 49.693 C 177.834 51.677,177.904 51.894,178.679 52.289 C 179.041 52.474,180.729 52.484,209.224 52.484 L 239.386 52.485 239.766 52.231 C 240.965 51.430,240.871 47.727,239.635 47.097 C 239.275 46.913,238.163 46.902,221.148 46.901 L 203.044 46.901 201.885 46.389 C 201.247 46.108,200.685 45.839,200.635 45.791 C 200.585 45.743,201.364 45.722,202.366 45.744 C 203.368 45.766,215.117 45.866,228.476 45.967 L 252.764 46.151 254.104 45.846 L 255.444 45.540 256.156 44.797 C 256.702 44.228,256.999 43.781,257.425 42.889 L 257.980 41.724 257.759 33.174 L 257.538 24.623 257.162 23.639 C 256.641 22.278,255.768 21.586,253.951 21.094 L 252.764 20.772 244.082 20.771 C 235.447 20.771,235.399 20.769,235.399 20.545 C 235.399 20.368,235.345 20.332,235.148 20.378 C 235.010 20.410,234.545 20.520,234.115 20.622 C 233.409 20.790,231.686 20.812,216.224 20.851 L 199.114 20.894 199.042 20.609 C 199.003 20.452,198.939 20.329,198.899 20.335 C 198.860 20.341,198.300 20.471,197.655 20.624 M253.832 21.754 C 255.384 22.206,256.128 22.798,256.554 23.917 L 256.865 24.735 257.086 33.166 L 257.307 41.597 256.791 42.658 C 255.936 44.416,255.461 44.832,253.904 45.191 L 252.635 45.483 225.731 45.258 L 198.827 45.034 196.507 43.995 C 195.116 43.372,194.146 42.996,194.087 43.058 C 193.740 43.418,193.903 43.559,195.460 44.256 L 197.006 44.947 195.181 44.975 C 194.177 44.990,189.160 44.959,184.031 44.907 L 174.707 44.811 173.590 44.393 C 172.564 44.010,172.405 43.908,171.624 43.139 L 170.774 42.303 170.591 41.201 C 170.289 39.385,170.320 27.203,170.631 25.574 C 170.980 23.743,171.135 23.365,171.834 22.648 C 172.822 21.633,172.641 21.648,183.410 21.687 L 192.336 21.720 189.496 22.303 L 186.655 22.887 181.882 22.963 L 177.108 23.039 177.108 23.370 L 177.108 23.701 182.970 23.631 C 186.195 23.593,191.471 23.531,194.696 23.493 L 200.558 23.424 200.558 23.086 L 200.558 22.748 195.394 22.829 C 192.553 22.874,190.254 22.887,190.285 22.858 C 190.315 22.829,191.726 22.523,193.418 22.178 L 196.496 21.551 212.878 21.580 L 229.260 21.608 226.104 22.251 L 222.948 22.895 218.118 22.967 L 213.289 23.039 213.289 23.370 L 213.289 23.701 219.179 23.631 C 222.419 23.593,227.695 23.531,230.905 23.493 L 236.739 23.424 236.739 23.085 L 236.739 22.747 231.686 22.815 C 228.907 22.853,226.683 22.861,226.745 22.834 C 226.847 22.789,232.404 21.630,233.054 21.519 C 233.208 21.492,237.705 21.465,243.049 21.457 L 252.764 21.443 253.832 21.754 M21.636 44.188 L 21.608 63.809 17.791 64.725 C 13.427 65.772,12.995 65.945,11.837 67.109 C 10.236 68.719,10.054 69.502,10.052 74.791 L 10.050 78.839 9.045 78.839 L 8.040 78.839 8.040 80.960 C 8.040 82.300,8.081 83.082,8.152 83.082 C 8.226 83.082,8.264 92.490,8.264 111.083 C 8.264 142.409,8.189 139.634,9.045 140.061 C 9.640 140.358,18.054 140.358,18.649 140.061 C 19.469 139.651,19.430 140.150,19.430 130.055 L 19.430 121.025 21.580 121.092 C 22.762 121.129,25.068 121.191,26.703 121.229 L 29.676 121.298 29.750 120.197 C 29.790 119.591,29.850 118.913,29.883 118.690 L 29.942 118.285 30.800 118.219 C 31.272 118.182,32.889 118.140,34.394 118.124 L 37.130 118.096 37.088 120.690 L 37.047 123.283 37.507 123.283 L 37.968 123.283 37.968 123.841 L 37.968 124.400 39.866 124.400 L 41.764 124.400 41.764 123.841 C 41.764 123.295,41.772 123.283,42.099 123.283 L 42.434 123.283 42.434 120.744 L 42.434 118.204 43.035 119.096 C 46.239 123.855,50.828 126.174,54.880 125.083 C 57.063 124.495,58.564 123.465,61.457 120.568 C 64.844 117.176,65.150 117.075,71.078 117.407 C 72.797 117.503,75.712 117.635,77.554 117.699 C 79.397 117.764,81.464 117.846,82.147 117.880 L 83.390 117.943 83.331 120.613 L 83.273 123.283 83.847 123.283 L 84.422 123.283 84.422 123.841 L 84.422 124.400 86.209 124.400 L 87.996 124.400 87.996 123.841 C 87.996 123.295,88.003 123.283,88.331 123.283 L 88.666 123.283 88.666 120.659 L 88.666 118.035 91.262 118.030 L 93.858 118.026 95.254 119.468 L 96.650 120.909 100.112 120.818 C 102.016 120.768,104.290 120.711,105.165 120.691 L 106.756 120.656 106.756 129.870 C 106.756 138.419,106.770 139.113,106.952 139.475 C 107.338 140.248,107.396 140.256,112.339 140.256 C 117.283 140.256,117.341 140.248,117.727 139.475 C 117.912 139.106,117.923 137.518,117.923 111.083 C 117.923 92.490,117.960 83.082,118.035 83.082 C 118.105 83.082,118.146 82.300,118.146 80.960 L 118.146 78.839 117.141 78.839 L 116.136 78.839 116.136 74.786 C 116.136 69.509,115.973 68.846,114.242 67.103 C 113.050 65.901,112.661 65.746,108.237 64.698 L 104.524 63.819 104.524 44.193 L 104.523 24.567 63.094 24.567 L 21.664 24.567 21.636 44.188 M103.853 43.787 L 103.853 62.336 103.369 61.679 C 102.388 60.346,100.774 59.267,99.204 58.894 C 98.450 58.714,30.031 58.841,27.973 59.026 C 25.838 59.218,23.690 60.451,22.650 62.082 L 22.334 62.579 22.334 43.908 L 22.334 25.237 63.093 25.237 L 103.853 25.237 103.853 43.787 M23.004 38.749 L 23.004 51.815 62.982 51.815 L 102.959 51.815 102.959 38.749 L 102.959 25.684 62.982 25.684 L 23.004 25.684 23.004 38.749 M102.289 38.749 L 102.289 51.145 62.982 51.145 L 23.674 51.145 23.674 38.749 L 23.674 26.354 62.982 26.354 L 102.289 26.354 102.289 38.749 M24.567 38.749 L 24.567 50.698 43.439 50.698 L 62.312 50.698 62.312 38.749 L 62.312 26.801 43.439 26.801 L 24.567 26.801 24.567 38.749 M63.875 38.749 L 63.875 50.698 82.747 50.698 L 101.619 50.698 101.619 38.749 L 101.619 26.801 82.747 26.801 L 63.875 26.801 63.875 38.749 M61.642 38.749 C 61.642 51.237,61.693 50.509,60.892 49.326 C 55.593 41.500,43.193 41.470,37.968 49.271 L 37.465 50.021 31.351 50.024 L 25.237 50.028 25.237 38.749 L 25.237 27.471 43.439 27.471 L 61.642 27.471 61.642 38.749 M100.949 38.749 L 100.949 50.028 82.747 50.028 L 64.545 50.028 64.545 38.749 L 64.545 27.471 82.747 27.471 L 100.949 27.471 100.949 38.749 M266.296 36.081 C 267.481 36.287,267.652 36.780,267.747 40.257 C 267.837 43.545,267.573 45.255,266.930 45.548 C 266.597 45.700,264.786 45.951,264.693 45.858 C 264.653 45.818,264.680 44.944,264.752 43.915 C 264.824 42.886,264.882 41.378,264.881 40.564 L 264.880 39.084 264.545 39.084 L 264.210 39.084 264.211 40.564 C 264.211 41.378,264.152 42.917,264.079 43.985 L 263.945 45.926 262.933 45.853 C 260.812 45.698,260.632 45.561,260.401 43.926 C 260.088 41.708,260.264 37.484,260.706 36.609 C 261.044 35.938,263.911 35.667,266.296 36.081 M263.456 36.906 L 263.093 37.063 263.093 39.526 L 263.093 41.988 263.426 41.988 L 263.759 41.988 263.789 39.726 L 263.819 37.465 264.433 37.465 L 265.047 37.465 265.078 39.726 L 265.108 41.988 265.441 41.988 L 265.773 41.988 265.773 39.525 L 265.773 37.063 265.386 36.901 C 264.898 36.697,263.931 36.699,263.456 36.906 M50.865 44.113 C 53.799 44.445,56.489 45.704,58.613 47.737 C 59.446 48.534,60.525 49.791,60.525 49.964 C 60.525 49.999,55.525 50.028,49.414 50.028 C 43.303 50.028,38.303 49.997,38.303 49.960 C 38.303 49.810,39.443 48.476,40.162 47.785 C 43.036 45.024,46.975 43.673,50.865 44.113 M263.851 46.623 C 263.868 46.636,263.654 49.743,263.376 53.527 C 263.098 57.311,262.870 60.533,262.870 60.689 C 262.870 60.944,262.827 60.972,262.423 60.972 L 261.977 60.972 261.977 53.717 L 261.977 46.461 262.898 46.529 C 263.405 46.567,263.833 46.609,263.851 46.623 M241.884 47.097 C 241.130 47.481,241.042 47.727,241.007 49.561 C 240.948 52.542,240.847 52.485,246.164 52.484 C 251.600 52.484,251.424 52.578,251.424 49.693 C 251.424 46.812,251.590 46.902,246.231 46.902 C 242.677 46.902,242.227 46.922,241.884 47.097 M173.219 49.330 L 176.202 51.312 176.145 51.982 C 176.114 52.351,176.066 52.765,176.038 52.903 L 175.987 53.155 171.969 53.155 L 167.951 53.155 167.951 50.313 L 167.951 47.472 168.481 47.430 C 168.773 47.407,169.287 47.379,169.624 47.368 L 170.236 47.348 173.219 49.330 M260.329 47.421 L 261.083 47.492 261.083 50.323 L 261.083 53.155 257.175 53.155 L 253.266 53.155 253.269 52.233 L 253.272 51.312 256.085 49.330 C 259.121 47.190,258.907 47.286,260.329 47.421 M239.592 47.845 C 239.857 48.110,239.866 48.171,239.866 49.693 C 239.866 51.215,239.857 51.275,239.592 51.541 L 239.318 51.815 209.157 51.815 L 178.996 51.815 178.722 51.541 C 178.457 51.275,178.448 51.215,178.448 49.693 C 178.448 48.171,178.457 48.110,178.722 47.845 L 178.996 47.571 209.157 47.571 L 239.318 47.571 239.592 47.845 M250.536 47.845 C 250.801 48.110,250.810 48.171,250.810 49.693 C 250.810 51.215,250.801 51.275,250.536 51.541 L 250.261 51.815 246.231 51.815 L 242.201 51.815 241.927 51.541 C 241.662 51.275,241.653 51.215,241.653 49.693 C 241.653 48.171,241.662 48.110,241.927 47.845 L 242.201 47.571 246.231 47.571 L 250.261 47.571 250.536 47.845 M176.041 53.964 C 176.065 54.041,176.109 54.316,176.138 54.575 L 176.192 55.046 173.272 56.540 L 170.352 58.035 169.151 58.115 L 167.951 58.195 167.951 56.010 L 167.951 53.825 171.974 53.825 C 175.096 53.825,176.008 53.856,176.041 53.964 M252.596 54.650 L 252.596 55.475 255.653 57.106 C 258.116 58.421,258.796 58.738,259.154 58.738 C 259.398 58.738,259.982 58.771,260.452 58.810 L 261.307 58.883 261.301 63.919 L 261.296 68.956 261.028 68.261 C 258.320 61.225,251.999 56.224,244.481 55.171 C 243.137 54.983,234.656 54.645,224.232 54.363 C 212.983 54.060,186.551 54.250,184.310 54.650 C 176.902 55.975,170.981 60.753,168.106 67.728 L 167.737 68.621 167.732 63.746 L 167.728 58.872 169.040 58.802 L 170.352 58.733 173.618 57.117 C 177.235 55.327,176.950 55.570,176.785 54.411 L 176.701 53.825 214.649 53.825 L 252.596 53.825 252.596 54.650 M261.307 56.012 L 261.307 58.199 260.059 58.118 L 258.811 58.037 256.066 56.568 L 253.322 55.099 253.289 54.462 L 253.255 53.825 257.281 53.825 L 261.307 53.825 261.307 56.012 M218.425 54.941 C 225.675 55.063,231.010 55.208,236.963 55.447 C 239.204 55.537,241.264 55.611,241.540 55.611 L 242.042 55.611 238.582 59.073 L 235.121 62.535 214.071 62.532 L 193.021 62.529 189.419 58.857 L 185.818 55.185 186.739 55.114 C 189.719 54.886,208.919 54.781,218.425 54.941 M188.547 58.910 L 192.099 62.543 191.205 63.889 C 190.713 64.630,190.285 65.193,190.254 65.142 C 190.007 64.727,184.818 55.722,184.715 55.528 C 184.261 54.671,185.301 55.590,188.547 58.910 M186.860 60.593 C 188.509 63.452,189.840 65.807,189.820 65.827 C 189.799 65.846,186.848 66.419,183.262 67.099 C 179.676 67.779,176.729 68.349,176.712 68.367 C 176.554 68.534,176.546 69.905,176.704 69.905 C 176.865 69.905,176.884 70.200,176.884 72.697 L 176.884 75.489 172.083 75.489 L 167.281 75.489 167.282 74.902 C 167.293 67.721,172.063 60.381,178.839 57.118 C 180.360 56.385,183.126 55.427,183.808 55.396 C 183.839 55.395,185.212 57.733,186.860 60.593 M243.328 55.787 C 243.328 55.982,238.253 65.097,238.185 65.024 C 238.140 64.975,237.650 64.397,237.096 63.740 L 236.089 62.543 239.513 59.135 C 242.434 56.227,243.328 55.443,243.328 55.787 M245.698 56.063 C 254.509 57.859,261.131 65.421,261.608 74.232 L 261.676 75.489 256.466 75.489 L 251.256 75.489 251.256 72.697 C 251.256 70.910,251.296 69.905,251.368 69.905 C 251.635 69.905,251.496 68.482,251.222 68.413 C 251.080 68.377,248.329 67.768,245.108 67.058 C 241.887 66.349,239.140 65.732,239.004 65.687 C 238.792 65.617,242.502 58.457,244.037 55.974 C 244.154 55.785,244.394 55.797,245.698 56.063 M212.842 59.520 L 212.842 61.865 213.177 61.865 L 213.512 61.865 213.512 59.855 L 213.512 57.845 214.070 57.845 L 214.629 57.845 214.629 59.687 L 214.629 61.530 214.964 61.530 L 215.299 61.530 215.299 59.352 L 215.299 57.175 214.070 57.175 L 212.842 57.175 212.842 59.520 M179.829 57.996 C 176.157 59.905,173.266 62.511,171.001 65.954 C 170.007 67.466,169.983 67.245,171.237 68.137 L 172.283 68.881 172.845 67.962 C 175.060 64.337,178.171 61.487,181.959 59.614 C 182.693 59.252,183.308 58.941,183.325 58.923 C 183.375 58.873,181.388 57.286,181.280 57.289 C 181.227 57.291,180.574 57.609,179.829 57.996 M246.184 58.263 C 245.122 59.185,245.123 59.175,246.008 59.519 C 249.674 60.944,253.491 64.080,255.863 67.616 C 256.234 68.169,256.554 68.641,256.575 68.665 C 256.630 68.731,258.626 67.187,258.626 67.078 C 258.626 66.922,257.519 65.323,256.805 64.448 C 254.539 61.671,251.222 59.151,248.061 57.805 L 247.155 57.420 246.184 58.263 M181.686 58.414 C 181.901 58.601,182.022 58.777,181.955 58.805 C 178.857 60.108,174.752 63.740,172.593 67.088 L 172.069 67.899 171.573 67.543 C 170.961 67.103,170.953 67.194,171.705 66.089 C 173.847 62.943,176.673 60.407,180.013 58.635 C 181.260 57.973,181.189 57.982,181.686 58.414 M248.806 58.909 C 251.127 60.075,252.842 61.317,254.728 63.198 C 255.866 64.333,257.733 66.626,257.733 66.889 C 257.733 67.059,256.828 67.705,256.732 67.603 C 256.680 67.549,256.253 66.985,255.783 66.350 C 253.668 63.494,250.921 61.192,247.695 59.571 L 246.423 58.932 246.856 58.569 C 247.353 58.151,247.268 58.136,248.806 58.909 M99.657 59.714 C 101.105 60.260,102.427 61.333,103.149 62.548 C 103.922 63.848,103.732 63.868,102.484 62.617 C 101.485 61.616,100.615 61.106,99.497 60.867 C 99.033 60.768,90.148 60.744,62.926 60.770 L 26.968 60.804 26.298 61.072 C 25.325 61.461,24.531 62.001,23.729 62.819 C 23.044 63.517,22.559 63.770,22.718 63.345 C 23.245 61.938,24.708 60.636,26.496 59.982 L 27.303 59.687 33.613 59.654 C 62.131 59.502,77.552 59.445,87.437 59.454 L 98.995 59.464 99.657 59.714 M100.279 61.822 C 101.034 62.183,102.289 63.112,102.105 63.173 C 102.047 63.193,100.620 62.873,98.934 62.462 C 96.236 61.806,95.741 61.717,94.807 61.719 C 92.359 61.725,89.973 63.204,88.884 65.390 C 88.672 65.816,88.482 66.189,88.462 66.219 C 88.442 66.249,88.371 66.177,88.304 66.058 C 88.019 65.547,87.266 64.877,86.569 64.511 C 84.982 63.680,85.568 63.722,74.958 63.680 C 68.956 63.657,65.438 63.604,65.438 63.536 C 65.438 63.477,65.489 63.428,65.550 63.428 C 65.614 63.428,65.662 63.093,65.662 62.647 L 65.662 61.865 62.982 61.865 L 60.302 61.865 60.302 62.647 C 60.302 63.354,60.323 63.428,60.525 63.428 C 60.648 63.428,60.748 63.477,60.748 63.536 C 60.748 63.603,57.437 63.656,51.843 63.678 C 43.036 63.712,42.927 63.715,42.057 63.960 C 40.318 64.450,38.586 65.553,38.085 66.488 C 37.866 66.897,37.811 66.860,37.589 66.157 C 37.126 64.689,35.685 63.118,34.115 62.372 C 32.225 61.474,31.222 61.481,27.374 62.416 C 25.815 62.794,24.519 63.082,24.492 63.055 C 24.421 62.985,25.338 62.262,25.796 62.027 C 27.058 61.379,23.904 61.427,63.484 61.452 L 99.553 61.474 100.279 61.822 M263.987 63.068 C 263.987 64.616,263.898 64.904,263.353 65.111 C 262.531 65.423,262.255 64.954,262.154 63.065 L 262.077 61.642 263.032 61.642 L 263.987 61.642 263.987 63.068 M32.293 62.472 C 34.594 62.883,36.537 64.689,37.131 66.969 C 37.257 67.452,37.298 68.290,37.298 70.431 L 37.298 73.255 35.470 73.255 L 33.642 73.255 33.793 72.613 C 34.619 69.104,31.932 65.735,28.308 65.735 C 24.669 65.735,21.994 69.089,22.823 72.613 L 22.975 73.255 22.645 73.255 L 22.316 73.255 22.359 70.045 C 22.406 66.575,22.471 66.153,23.175 64.761 C 23.549 64.022,23.468 64.055,26.979 63.214 C 31.257 62.190,30.950 62.233,32.293 62.472 M99.180 63.213 C 100.982 63.645,102.550 64.025,102.663 64.059 C 103.445 64.291,103.853 66.394,103.853 70.192 L 103.853 73.255 103.505 73.255 C 103.194 73.255,103.165 73.228,103.237 73.004 C 104.040 70.508,102.661 67.424,100.223 66.264 C 95.846 64.180,91.182 68.169,92.408 72.948 L 92.487 73.255 90.576 73.255 L 88.666 73.255 88.671 72.501 C 88.722 65.717,89.698 63.608,93.249 62.606 C 94.681 62.202,95.170 62.252,99.180 63.213 M64.992 62.647 C 64.992 62.708,64.941 62.758,64.880 62.758 C 64.819 62.758,64.768 62.959,64.768 63.205 L 64.768 63.652 63.093 63.652 L 61.418 63.652 61.418 63.205 C 61.418 62.833,61.381 62.758,61.195 62.758 C 61.072 62.758,60.972 62.708,60.972 62.647 C 60.972 62.576,61.716 62.535,62.982 62.535 C 64.247 62.535,64.992 62.576,64.992 62.647 M237.011 64.671 C 238.493 66.444,237.572 66.084,244.556 67.622 C 247.781 68.332,250.507 68.938,250.614 68.970 C 251.387 69.196,249.982 69.235,241.121 69.235 L 231.432 69.235 231.235 68.681 C 230.632 66.983,229.162 66.287,225.349 65.892 C 214.341 64.751,202.542 65.170,198.916 66.830 C 198.195 67.160,197.213 68.114,196.928 68.761 L 196.719 69.235 186.973 69.235 C 178.514 69.235,177.235 69.214,177.288 69.073 C 177.323 68.985,177.610 68.860,177.927 68.796 C 178.244 68.732,181.165 68.174,184.419 67.556 C 187.672 66.938,190.337 66.422,190.341 66.410 C 190.345 66.397,190.819 65.671,191.393 64.796 L 192.438 63.205 214.114 63.208 L 235.790 63.211 237.011 64.671 M22.515 64.619 L 22.343 64.936 22.338 64.638 C 22.336 64.474,22.397 64.318,22.473 64.290 C 22.692 64.213,22.700 64.277,22.515 64.619 M85.116 64.613 C 86.608 65.080,87.673 65.970,87.984 67.009 C 88.074 67.308,88.048 71.682,87.884 83.429 C 87.762 92.236,87.662 99.530,87.661 99.637 C 87.661 99.823,86.403 99.832,62.813 99.832 L 37.965 99.832 37.994 83.948 L 38.023 68.063 38.325 67.418 C 39.016 65.944,40.928 64.762,43.158 64.431 C 44.726 64.198,84.339 64.370,85.116 64.613 M21.664 68.900 L 21.664 73.255 21.091 73.255 L 20.518 73.255 20.590 72.718 C 20.735 71.620,20.298 70.356,19.484 69.517 C 16.885 66.843,12.176 69.097,12.730 72.750 L 12.807 73.255 11.763 73.255 L 10.720 73.255 10.720 71.994 C 10.720 69.407,11.845 67.372,13.757 66.502 C 14.277 66.265,20.956 64.578,21.468 64.554 C 21.651 64.546,21.664 64.823,21.664 68.900 M108.221 65.382 C 112.218 66.336,112.769 66.548,113.735 67.504 C 114.962 68.718,115.466 70.042,115.466 72.050 L 115.466 73.255 114.433 73.255 L 113.400 73.255 113.400 72.275 C 113.399 68.098,107.799 66.797,105.915 70.537 C 105.623 71.117,105.587 71.303,105.585 72.222 L 105.583 73.255 105.053 73.255 L 104.523 73.255 104.523 68.900 C 104.523 66.505,104.566 64.545,104.619 64.545 C 104.672 64.545,106.293 64.922,108.221 65.382 M220.882 66.156 C 226.248 66.585,228.216 66.858,229.046 67.287 C 229.732 67.642,230.709 68.751,230.709 69.175 C 230.709 69.208,223.220 69.235,214.067 69.235 L 197.426 69.235 197.596 68.905 C 198.348 67.451,200.099 66.836,205.081 66.277 C 208.841 65.856,216.398 65.797,220.882 66.156 M29.090 66.442 C 32.039 66.921,33.919 69.951,33.057 72.836 L 32.932 73.255 28.314 73.255 L 23.696 73.255 23.565 72.892 C 22.351 69.530,25.496 65.858,29.090 66.442 M98.667 66.453 C 101.589 66.986,103.595 70.358,102.532 72.948 L 102.406 73.255 97.822 73.255 L 93.238 73.255 93.119 72.948 C 91.806 69.563,95.030 65.788,98.667 66.453 M60.601 67.731 C 57.239 68.366,57.295 70.153,60.692 70.692 C 61.122 70.760,61.641 70.840,61.844 70.869 L 62.214 70.923 61.844 71.169 C 61.641 71.304,61.361 71.638,61.223 71.912 L 60.972 72.409 60.972 84.645 L 60.972 96.882 61.223 97.379 C 61.963 98.845,64.000 98.845,64.740 97.379 L 64.992 96.882 64.992 84.645 L 64.992 72.409 64.740 71.912 C 64.602 71.638,64.323 71.304,64.121 71.170 L 63.753 70.925 64.288 70.858 C 67.788 70.422,69.059 69.223,67.089 68.218 C 65.965 67.644,62.452 67.380,60.601 67.731 M65.260 68.399 C 67.597 68.806,67.805 69.491,65.734 69.962 C 62.439 70.712,57.037 69.653,59.452 68.731 C 60.724 68.246,63.477 68.088,65.260 68.399 M18.212 69.372 C 19.334 70.035,19.917 71.025,19.921 72.277 C 19.924 73.319,20.122 73.263,16.576 73.229 L 13.456 73.199 13.391 72.708 C 13.042 70.098,15.989 68.059,18.212 69.372 M110.832 69.277 C 112.176 69.911,112.951 71.322,112.737 72.748 L 112.661 73.255 109.487 73.255 L 106.314 73.255 106.241 72.966 C 105.613 70.463,108.472 68.164,110.832 69.277 M179.304 73.171 C 179.263 74.968,179.230 77.693,179.230 79.228 L 179.229 82.017 178.397 81.126 L 177.565 80.235 177.560 75.070 L 177.554 69.905 178.466 69.905 L 179.377 69.905 179.304 73.171 M248.310 74.176 C 248.272 76.526,248.210 80.498,248.172 83.004 L 248.103 87.561 243.091 91.429 L 238.079 95.297 238.079 96.560 L 238.079 97.822 214.187 97.822 L 190.295 97.822 190.240 97.460 C 190.209 97.260,190.144 96.673,190.095 96.156 L 190.006 95.215 185.036 91.612 C 182.212 89.564,180.049 87.922,180.026 87.807 C 180.004 87.696,179.939 87.575,179.882 87.540 C 179.820 87.500,179.824 84.250,179.894 79.220 C 179.958 74.680,180.010 70.727,180.010 70.436 L 180.011 69.905 214.194 69.905 L 248.377 69.905 248.310 74.176 M250.586 75.050 L 250.586 80.195 249.777 81.146 L 248.967 82.097 248.931 80.161 C 248.911 79.096,248.930 76.353,248.972 74.065 L 249.049 69.905 249.818 69.905 L 250.586 69.905 250.586 75.050 M42.044 71.008 C 41.512 71.252,41.274 71.501,41.043 72.055 C 40.892 72.417,40.871 73.941,40.871 84.674 L 40.871 96.882 41.122 97.379 C 41.863 98.845,43.900 98.845,44.640 97.379 L 44.891 96.882 44.889 84.650 C 44.886 73.019,44.876 72.396,44.681 71.971 C 44.211 70.947,43.078 70.534,42.044 71.008 M46.957 71.008 C 46.426 71.252,46.188 71.501,45.956 72.055 C 45.805 72.417,45.784 73.941,45.784 84.674 L 45.784 96.882 46.036 97.379 C 46.776 98.845,48.813 98.845,49.553 97.379 L 49.805 96.882 49.802 84.650 C 49.800 73.019,49.790 72.396,49.595 71.971 C 49.124 70.947,47.991 70.534,46.957 71.008 M52.094 71.008 C 51.562 71.252,51.324 71.501,51.093 72.055 C 50.942 72.417,50.921 73.941,50.921 84.674 L 50.921 96.882 51.173 97.379 C 51.913 98.845,53.950 98.845,54.690 97.379 L 54.941 96.882 54.939 84.650 C 54.937 73.019,54.926 72.396,54.731 71.971 C 54.261 70.947,53.128 70.534,52.094 71.008 M57.007 71.008 C 56.476 71.252,56.238 71.501,56.006 72.055 C 55.855 72.417,55.835 73.941,55.835 84.674 L 55.835 96.882 56.086 97.379 C 56.224 97.653,56.506 97.989,56.713 98.126 C 57.739 98.808,59.053 98.468,59.604 97.379 L 59.855 96.882 59.852 84.650 C 59.850 73.019,59.840 72.396,59.645 71.971 C 59.175 70.947,58.041 70.534,57.007 71.008 M67.169 71.009 C 66.629 71.259,66.288 71.613,66.058 72.164 C 65.768 72.859,65.804 96.575,66.096 97.208 C 66.715 98.550,68.366 98.892,69.444 97.901 C 70.164 97.239,70.124 98.020,70.124 84.645 C 70.124 73.102,70.114 72.508,69.917 72.083 C 69.412 70.988,68.222 70.523,67.169 71.009 M72.194 71.008 C 71.663 71.252,71.425 71.501,71.194 72.055 C 71.043 72.417,71.022 73.941,71.022 84.674 L 71.022 96.882 71.273 97.379 C 71.411 97.653,71.693 97.989,71.900 98.126 C 72.926 98.808,74.240 98.468,74.791 97.379 L 75.042 96.882 75.039 84.650 C 75.037 73.019,75.027 72.396,74.832 71.971 C 74.362 70.947,73.228 70.534,72.194 71.008 M77.219 71.009 C 76.679 71.259,76.339 71.613,76.108 72.164 C 75.818 72.859,75.854 96.575,76.146 97.208 C 76.766 98.550,78.416 98.892,79.494 97.901 C 80.214 97.239,80.174 98.020,80.174 84.645 C 80.174 73.102,80.164 72.508,79.968 72.083 C 79.462 70.988,78.272 70.523,77.219 71.009 M82.245 71.008 C 81.713 71.252,81.475 71.501,81.244 72.055 C 81.093 72.417,81.072 73.941,81.072 84.674 L 81.072 96.882 81.323 97.379 C 81.461 97.653,81.743 97.989,81.950 98.126 C 82.976 98.808,84.291 98.468,84.841 97.379 L 85.092 96.882 85.090 84.650 C 85.087 73.019,85.077 72.396,84.882 71.971 C 84.412 70.947,83.279 70.534,82.245 71.008 M43.820 71.909 L 44.165 72.254 44.165 84.645 L 44.165 97.036 43.800 97.402 C 43.486 97.716,43.358 97.767,42.881 97.767 C 42.404 97.767,42.276 97.716,41.962 97.402 L 41.597 97.036 41.597 84.652 L 41.597 72.268 41.876 71.968 C 42.448 71.352,43.239 71.328,43.820 71.909 M48.733 71.909 L 49.079 72.254 49.079 84.645 L 49.079 97.036 48.714 97.402 C 48.399 97.716,48.271 97.767,47.795 97.767 C 47.318 97.767,47.190 97.716,46.875 97.402 L 46.510 97.036 46.510 84.652 L 46.510 72.268 46.790 71.968 C 47.362 71.352,48.153 71.328,48.733 71.909 M53.870 71.909 L 54.216 72.254 54.216 84.645 L 54.216 97.036 53.850 97.402 C 53.536 97.716,53.408 97.767,52.931 97.767 C 52.454 97.767,52.326 97.716,52.012 97.402 L 51.647 97.036 51.647 84.652 L 51.647 72.268 51.926 71.968 C 52.498 71.352,53.289 71.328,53.870 71.909 M58.784 71.909 L 59.129 72.254 59.129 84.645 L 59.129 97.036 58.764 97.402 C 58.450 97.716,58.322 97.767,57.845 97.767 C 57.368 97.767,57.240 97.716,56.926 97.402 L 56.561 97.036 56.561 84.652 L 56.561 72.268 56.840 71.968 C 57.412 71.352,58.203 71.328,58.784 71.909 M63.920 71.909 L 64.266 72.254 64.266 84.645 L 64.266 97.036 63.901 97.402 C 63.586 97.716,63.458 97.767,62.982 97.767 C 62.505 97.767,62.377 97.716,62.062 97.402 L 61.697 97.036 61.697 84.652 L 61.697 72.268 61.977 71.968 C 62.549 71.352,63.340 71.328,63.920 71.909 M68.858 71.746 C 69.486 72.158,69.464 71.658,69.432 84.805 C 69.403 96.890,69.402 96.913,69.169 97.228 C 68.626 97.962,67.388 97.962,66.844 97.228 C 66.506 96.772,66.416 72.916,66.750 72.250 C 67.118 71.516,68.135 71.273,68.858 71.746 M73.971 71.909 L 74.316 72.254 74.316 84.645 L 74.316 97.036 73.951 97.402 C 73.637 97.716,73.509 97.767,73.032 97.767 C 72.555 97.767,72.427 97.716,72.113 97.402 L 71.748 97.036 71.748 84.652 L 71.748 72.268 72.027 71.968 C 72.599 71.352,73.390 71.328,73.971 71.909 M78.908 71.746 C 79.536 72.158,79.514 71.658,79.482 84.805 C 79.453 96.890,79.452 96.913,79.219 97.228 C 78.676 97.962,77.438 97.962,76.895 97.228 C 76.557 96.772,76.466 72.916,76.800 72.250 C 77.168 71.516,78.186 71.273,78.908 71.746 M84.021 71.909 L 84.366 72.254 84.366 84.645 L 84.366 97.036 84.001 97.402 C 83.687 97.716,83.559 97.767,83.082 97.767 C 82.605 97.767,82.477 97.716,82.163 97.402 L 81.798 97.036 81.798 84.652 L 81.798 72.268 82.077 71.968 C 82.649 71.352,83.440 71.328,84.021 71.909 M197.465 72.278 C 196.433 74.040,196.528 75.216,197.935 78.082 C 199.277 80.815,199.306 81.580,198.170 84.140 C 197.004 86.765,196.813 88.220,197.453 89.587 L 197.754 90.229 214.168 90.229 L 230.582 90.229 230.799 89.922 C 231.909 88.346,231.886 87.035,230.701 84.347 C 229.387 81.366,229.378 80.831,230.586 77.961 C 231.656 75.419,231.762 74.153,231.024 72.705 L 230.651 71.971 214.164 71.943 L 197.677 71.914 197.465 72.278 M187.437 72.187 C 181.150 73.429,178.803 80.977,183.300 85.492 C 187.505 89.713,194.502 88.038,196.395 82.356 C 198.240 76.817,193.165 71.055,187.437 72.187 M237.427 72.582 C 230.325 74.498,229.463 84.301,236.125 87.385 C 242.978 90.558,249.891 83.185,246.370 76.458 C 244.767 73.394,240.797 71.674,237.427 72.582 M230.489 73.116 C 230.751 73.670,230.906 74.910,230.777 75.424 L 230.705 75.712 214.132 75.712 L 197.559 75.712 197.483 75.099 C 197.393 74.382,197.476 73.849,197.790 73.116 L 198.017 72.585 214.128 72.585 L 230.238 72.585 230.489 73.116 M190.731 72.973 C 194.471 73.977,196.822 77.956,195.871 81.674 C 194.229 88.097,185.518 89.163,182.480 83.313 C 179.587 77.744,184.689 71.351,190.731 72.973 M241.155 73.200 C 246.620 74.585,248.505 81.435,244.502 85.363 C 239.980 89.799,232.298 86.657,232.236 80.346 C 232.190 75.611,236.630 72.054,241.155 73.200 M187.934 73.593 C 182.799 74.381,180.635 80.737,184.252 84.410 C 187.878 88.093,194.082 86.287,195.142 81.240 C 196.043 76.947,192.257 72.930,187.934 73.593 M238.128 73.928 C 233.173 74.911,231.327 81.185,234.942 84.758 C 238.625 88.399,244.706 86.520,245.733 81.425 C 246.625 76.998,242.608 73.039,238.128 73.928 M13.373 74.485 C 13.784 75.114,14.595 75.760,15.215 75.952 L 15.634 76.082 15.634 77.460 L 15.634 78.839 13.177 78.839 L 10.720 78.839 10.720 76.382 L 10.720 73.925 11.865 73.927 L 13.009 73.929 13.373 74.485 M19.430 74.024 C 19.430 74.605,17.763 75.525,16.695 75.533 C 15.614 75.542,13.847 74.599,13.847 74.014 C 13.847 73.965,15.103 73.925,16.639 73.925 C 18.177 73.925,19.430 73.969,19.430 74.024 M21.664 76.382 L 21.664 78.839 19.765 78.839 L 17.867 78.839 17.867 77.448 L 17.867 76.057 18.361 75.839 C 18.964 75.572,19.763 74.854,20.050 74.320 C 20.259 73.933,20.276 73.925,20.963 73.925 L 21.664 73.925 21.664 76.382 M23.590 74.412 C 24.032 75.111,25.004 75.990,25.729 76.345 L 26.354 76.652 26.354 77.745 L 26.354 78.839 24.344 78.839 L 22.334 78.839 22.334 76.382 L 22.334 73.925 22.808 73.925 C 23.247 73.926,23.306 73.962,23.590 74.412 M32.496 73.988 C 32.496 74.878,29.940 76.270,28.308 76.270 C 26.669 76.270,24.121 74.887,24.121 73.997 C 24.121 73.958,26.005 73.925,28.308 73.925 C 30.611 73.925,32.496 73.954,32.496 73.988 M37.298 76.382 L 37.298 78.839 33.724 78.839 L 30.151 78.839 30.153 77.750 L 30.155 76.661 30.783 76.389 C 31.505 76.076,32.562 75.146,33.020 74.422 L 33.333 73.926 35.315 73.925 L 37.298 73.925 37.298 76.382 M93.227 74.596 C 93.739 75.323,94.583 76.052,95.338 76.419 L 95.812 76.650 95.812 77.744 L 95.812 78.839 92.239 78.839 L 88.666 78.839 88.666 76.382 L 88.666 73.925 90.709 73.925 L 92.753 73.925 93.227 74.596 M101.857 74.239 C 99.946 76.924,95.699 76.924,93.787 74.239 L 93.564 73.925 97.822 73.925 L 102.081 73.925 101.857 74.239 M103.853 76.382 L 103.853 78.839 101.843 78.839 L 99.832 78.839 99.832 77.732 L 99.832 76.625 100.342 76.379 C 101.122 76.001,101.896 75.337,102.418 74.596 C 102.872 73.953,102.912 73.925,103.372 73.925 L 103.853 73.925 103.853 76.382 M106.141 74.390 C 106.561 75.025,107.134 75.530,107.779 75.832 L 108.319 76.085 108.319 77.462 L 108.319 78.839 106.421 78.839 L 104.523 78.839 104.523 76.382 L 104.523 73.925 105.178 73.925 C 105.823 73.925,105.838 73.932,106.141 74.390 M112.093 74.288 C 110.963 75.779,108.719 75.974,107.276 74.708 C 106.356 73.900,106.284 73.925,109.502 73.925 L 112.368 73.925 112.093 74.288 M115.466 76.382 L 115.466 78.839 113.009 78.839 L 110.553 78.839 110.553 77.471 L 110.554 76.103 111.084 75.886 C 111.698 75.634,112.702 74.733,112.900 74.255 L 113.037 73.925 114.251 73.925 L 115.466 73.925 115.466 76.382 M190.756 74.538 C 194.738 75.895,195.910 81.025,192.921 84.015 C 189.311 87.624,183.138 85.063,183.138 79.955 C 183.138 75.975,186.971 73.249,190.756 74.538 M240.820 74.655 C 245.148 75.767,246.643 81.127,243.502 84.269 C 240.344 87.427,235.076 86.013,233.881 81.686 C 232.741 77.560,236.662 73.586,240.820 74.655 M17.197 77.499 L 17.197 78.839 16.750 78.839 L 16.304 78.839 16.304 77.561 L 16.304 76.284 16.723 76.240 C 16.953 76.216,17.154 76.188,17.169 76.177 C 17.185 76.167,17.197 76.762,17.197 77.499 M174.007 76.579 L 174.372 76.945 174.372 78.504 L 174.372 80.063 174.007 80.428 L 173.642 80.793 169.291 80.793 L 164.940 80.793 164.575 80.428 L 164.210 80.063 164.210 78.510 C 164.210 77.009,164.219 76.948,164.489 76.658 C 164.938 76.175,165.017 76.168,169.428 76.192 L 173.642 76.214 174.007 76.579 M176.884 78.313 L 176.884 80.466 178.067 81.737 C 179.140 82.890,179.244 83.039,179.184 83.338 C 179.148 83.520,179.118 84.290,179.118 85.050 L 179.118 86.432 169.065 86.432 L 159.012 86.432 159.076 85.567 C 159.110 85.091,159.182 83.911,159.234 82.946 C 159.342 80.944,159.519 80.410,160.514 79.095 C 161.158 78.244,163.051 76.729,163.484 76.718 C 163.515 76.717,163.522 77.379,163.500 78.188 C 163.427 80.918,163.927 81.511,166.304 81.516 L 167.504 81.519 167.504 82.859 L 167.504 84.199 169.514 84.199 L 171.524 84.199 171.524 82.859 L 171.524 81.519 172.477 81.519 C 173.867 81.519,174.488 81.217,174.888 80.346 C 175.190 79.687,175.184 77.308,174.877 76.633 L 174.662 76.159 175.773 76.159 L 176.884 76.159 176.884 78.313 M253.710 76.633 C 253.404 77.308,253.397 79.687,253.700 80.346 C 254.119 81.259,254.702 81.519,256.334 81.519 L 257.510 81.519 257.510 82.859 L 257.510 84.199 259.520 84.199 L 261.530 84.199 261.530 82.859 L 261.530 81.519 262.619 81.516 C 264.840 81.511,265.375 80.875,265.307 78.316 L 265.271 76.957 265.699 77.198 C 266.778 77.805,268.170 79.392,268.717 80.640 C 268.957 81.187,269.240 84.182,269.236 86.125 L 269.235 86.432 259.017 86.432 L 248.800 86.432 248.800 84.803 C 248.800 83.334,248.821 83.156,249.014 82.988 C 249.133 82.886,249.685 82.276,250.243 81.633 L 251.256 80.463 251.256 78.311 L 251.256 76.159 252.591 76.159 L 253.925 76.159 253.710 76.633 M264.236 76.579 L 264.601 76.945 264.601 78.504 L 264.601 80.063 264.236 80.428 L 263.871 80.793 259.408 80.793 L 254.946 80.793 254.581 80.428 L 254.216 80.063 254.216 78.510 C 254.216 77.009,254.225 76.948,254.495 76.658 C 254.944 76.175,255.020 76.168,259.546 76.192 L 263.871 76.214 264.236 76.579 M109.883 77.554 L 109.883 78.839 109.436 78.839 L 108.989 78.839 108.989 77.554 L 108.989 76.270 109.436 76.270 L 109.883 76.270 109.883 77.554 M230.486 76.428 C 230.486 76.453,230.304 76.893,230.083 77.405 C 229.512 78.724,229.151 79.777,229.072 80.353 L 229.004 80.849 214.342 80.849 L 199.681 80.849 199.557 80.252 C 199.489 79.925,199.083 78.940,198.656 78.064 C 198.228 77.189,197.878 76.452,197.878 76.427 C 197.878 76.402,205.215 76.382,214.182 76.382 C 223.149 76.382,230.486 76.403,230.486 76.428 M29.481 77.862 L 29.481 78.839 28.252 78.839 L 27.024 78.839 27.024 77.862 L 27.024 76.884 28.252 76.884 L 29.480 76.884 29.481 77.862 M99.163 77.862 L 99.162 78.839 97.822 78.839 L 96.482 78.839 96.483 77.862 L 96.483 76.884 97.823 76.884 L 99.163 76.884 99.163 77.862 M37.298 80.960 L 37.298 82.412 23.004 82.412 L 8.710 82.412 8.710 80.960 L 8.710 79.509 23.004 79.509 L 37.298 79.509 37.298 80.960 M117.476 80.960 L 117.476 82.412 103.015 82.412 L 88.554 82.412 88.554 80.960 L 88.554 79.509 103.015 79.509 L 117.476 79.509 117.476 80.960 M170.854 82.524 L 170.854 83.529 169.514 83.529 L 168.174 83.529 168.174 82.524 L 168.174 81.519 169.514 81.519 L 170.854 81.519 170.854 82.524 M229.179 82.268 C 229.287 82.679,229.650 83.629,229.986 84.378 C 230.322 85.126,230.597 85.795,230.597 85.862 C 230.597 85.952,226.121 85.985,214.348 85.985 L 198.099 85.985 198.256 85.623 C 198.342 85.423,198.641 84.732,198.920 84.087 C 199.198 83.442,199.490 82.601,199.568 82.217 L 199.710 81.519 214.346 81.519 L 228.982 81.519 229.179 82.268 M260.860 82.524 L 260.860 83.529 259.520 83.529 L 258.180 83.529 258.180 82.524 L 258.180 81.519 259.520 81.519 L 260.860 81.519 260.860 82.524 M24.690 86.998 C 28.707 89.152,33.186 91.551,34.643 92.330 L 37.293 93.747 37.295 99.358 L 37.298 104.969 34.283 104.969 L 31.267 104.969 31.267 103.979 L 31.267 102.990 31.776 102.795 C 35.891 101.224,34.590 94.874,30.151 94.865 C 25.741 94.857,24.397 100.855,28.391 102.716 L 29.032 103.015 29.033 103.992 L 29.034 104.969 24.232 104.969 L 19.430 104.969 19.430 98.967 C 19.430 92.251,19.445 92.386,18.649 91.988 C 18.198 91.763,9.787 91.686,9.220 91.901 L 8.934 92.010 8.934 87.546 L 8.934 83.082 13.160 83.082 L 17.387 83.082 24.690 86.998 M37.298 88.040 L 37.298 92.998 29.174 88.643 C 24.705 86.247,20.547 84.017,19.933 83.686 L 18.816 83.085 28.057 83.084 L 37.298 83.082 37.298 88.040 M106.806 83.176 C 106.748 83.228,103.710 84.870,100.056 86.825 C 96.401 88.779,92.306 90.973,90.955 91.699 C 88.654 92.936,88.495 93.004,88.458 92.769 C 88.436 92.631,88.454 90.395,88.499 87.800 L 88.580 83.082 97.746 83.082 C 102.788 83.082,106.865 83.124,106.806 83.176 M117.253 87.546 L 117.253 92.010 116.966 91.901 C 116.399 91.686,107.988 91.763,107.538 91.988 C 106.741 92.386,106.756 92.251,106.756 98.967 L 106.756 104.969 102.289 104.969 L 97.822 104.969 97.822 103.977 L 97.822 102.985 98.412 102.697 C 102.342 100.774,100.970 94.857,96.596 94.865 C 92.119 94.874,90.850 101.329,95.033 102.814 L 95.589 103.012 95.589 103.990 L 95.589 104.969 92.127 104.969 L 88.666 104.969 88.666 102.568 C 88.666 100.405,88.647 100.168,88.480 100.168 C 88.283 100.168,88.329 93.977,88.527 93.789 C 88.572 93.746,91.449 92.190,94.919 90.331 C 98.389 88.472,102.836 86.084,104.802 85.024 L 108.375 83.097 112.814 83.090 L 117.253 83.082 117.253 87.546 M230.912 87.581 C 230.875 88.293,230.800 88.623,230.589 89.005 L 230.314 89.503 214.267 89.531 L 198.219 89.560 198.031 89.196 C 197.828 88.806,197.692 87.414,197.810 86.943 L 197.883 86.655 214.421 86.655 L 230.960 86.655 230.912 87.581 M178.954 87.552 C 179.119 87.689,179.256 88.466,179.160 88.717 C 178.954 89.254,178.059 89.307,177.664 88.805 C 177.005 87.968,178.133 86.871,178.954 87.552 M250.578 87.726 C 251.415 88.431,250.563 89.676,249.589 89.172 C 248.934 88.833,248.961 87.936,249.637 87.566 C 249.985 87.376,250.206 87.413,250.578 87.726 M248.353 93.679 L 248.353 99.138 246.427 99.208 C 239.237 99.467,207.463 99.669,191.820 99.556 L 180.011 99.470 180.011 94.170 C 180.011 90.860,180.051 88.884,180.118 88.908 C 180.176 88.928,182.281 90.438,184.794 92.263 L 189.365 95.580 189.429 96.059 C 189.464 96.323,189.527 96.978,189.567 97.515 L 189.641 98.492 214.195 98.492 L 238.749 98.492 238.749 97.059 L 238.749 95.626 243.523 91.930 C 246.149 89.897,248.310 88.230,248.325 88.226 C 248.340 88.222,248.353 90.676,248.353 93.679 M171.339 89.364 C 172.066 89.689,172.612 90.204,172.942 90.876 L 173.255 91.513 173.291 95.449 C 173.326 99.322,173.323 99.386,173.103 99.386 C 172.980 99.386,172.475 99.644,171.979 99.959 L 171.078 100.533 171.078 104.091 L 171.078 107.649 171.676 107.649 C 172.005 107.649,172.509 107.681,172.795 107.721 L 173.316 107.792 173.286 121.261 C 173.255 134.660,173.254 134.732,173.022 135.232 C 172.673 135.981,172.257 136.413,171.547 136.761 L 170.910 137.074 167.504 137.074 L 164.098 137.074 163.461 136.761 C 162.752 136.413,162.335 135.981,161.987 135.232 L 161.753 134.729 161.753 113.121 L 161.753 91.513 162.066 90.876 C 162.494 90.005,163.246 89.420,164.187 89.225 C 165.101 89.036,170.854 89.148,171.339 89.364 M265.128 89.431 C 265.728 89.728,266.346 90.363,266.636 90.980 C 266.824 91.379,266.834 92.563,266.834 113.121 L 266.834 134.841 266.572 135.368 C 265.792 136.937,265.344 137.074,260.972 137.074 C 256.599 137.074,256.151 136.937,255.371 135.368 L 255.109 134.841 255.078 121.301 L 255.048 107.761 255.707 107.761 C 256.069 107.761,256.522 107.730,256.714 107.691 L 257.063 107.621 257.063 103.572 L 257.063 99.522 256.190 99.286 C 255.710 99.157,255.254 99.051,255.177 99.051 C 254.879 99.051,255.058 91.505,255.371 90.874 C 255.801 90.009,256.543 89.434,257.510 89.217 C 258.536 88.987,264.572 89.156,265.128 89.431 M234.889 90.440 C 233.616 91.018,233.148 92.600,233.880 93.849 C 234.892 95.576,237.535 95.279,238.176 93.367 C 238.836 91.396,236.792 89.576,234.889 90.440 M192.155 90.605 C 190.469 91.233,189.924 93.210,191.076 94.522 C 193.087 96.813,196.592 94.097,194.916 91.547 C 194.367 90.712,193.063 90.267,192.155 90.605 M236.697 91.080 C 238.302 91.842,237.695 94.305,235.902 94.305 C 234.572 94.305,233.786 92.981,234.416 91.804 C 234.861 90.973,235.825 90.667,236.697 91.080 M193.416 91.233 C 194.525 91.541,195.021 92.977,194.366 93.978 C 193.737 94.938,192.081 94.938,191.452 93.978 C 190.525 92.563,191.799 90.784,193.416 91.233 M196.515 91.597 C 196.162 92.262,196.158 93.630,196.506 94.389 L 196.749 94.919 202.959 94.919 L 209.169 94.919 209.409 94.389 C 209.786 93.551,209.804 92.510,209.454 91.745 L 209.169 91.122 202.968 91.122 L 196.766 91.122 196.515 91.597 M219.429 91.485 C 219.004 92.182,218.980 93.602,219.379 94.417 L 219.598 94.863 225.809 94.892 L 232.021 94.921 232.282 94.334 C 232.647 93.513,232.651 92.385,232.290 91.653 L 232.029 91.122 225.840 91.122 L 219.651 91.122 219.429 91.485 M208.923 92.144 C 209.081 92.599,209.079 93.274,208.916 93.817 L 208.787 94.249 202.959 94.249 L 197.132 94.249 197.003 93.817 C 196.840 93.274,196.837 92.599,196.996 92.144 L 197.118 91.792 202.959 91.792 L 208.800 91.792 208.923 92.144 M231.736 92.044 C 231.914 92.362,231.911 93.666,231.731 93.998 L 231.595 94.249 225.803 94.249 L 220.011 94.249 219.888 93.897 C 219.727 93.437,219.731 92.436,219.895 92.077 L 220.025 91.792 225.810 91.792 L 231.595 91.792 231.736 92.044 M18.502 92.705 L 18.760 92.948 18.760 98.959 L 18.760 104.969 17.253 104.969 L 15.745 104.969 15.745 105.956 C 15.745 106.499,15.712 108.308,15.672 109.976 L 15.598 113.009 17.179 113.009 L 18.760 113.009 18.760 126.040 L 18.760 139.070 18.518 139.328 L 18.275 139.587 13.863 139.587 C 9.486 139.587,9.448 139.585,9.192 139.344 L 8.934 139.101 8.934 116.040 L 8.934 92.979 9.176 92.721 L 9.419 92.462 13.831 92.462 C 18.208 92.462,18.246 92.464,18.502 92.705 M116.959 92.694 L 117.253 92.925 117.253 115.998 L 117.253 139.070 117.010 139.328 L 116.767 139.587 112.355 139.587 C 107.979 139.587,107.941 139.585,107.684 139.344 L 107.426 139.101 107.426 126.055 L 107.426 113.009 109.324 113.009 L 111.223 113.009 111.223 108.989 L 111.223 104.969 109.324 104.969 L 107.426 104.969 107.426 98.947 L 107.426 92.925 107.720 92.694 C 108.180 92.332,116.499 92.332,116.959 92.694 M31.670 95.845 C 34.926 97.502,33.800 102.421,30.166 102.421 C 26.256 102.421,25.348 96.987,29.034 95.656 C 29.772 95.389,30.941 95.473,31.670 95.845 M98.076 95.809 C 101.137 97.263,100.494 101.863,97.156 102.390 C 95.059 102.722,93.132 101.100,93.132 99.004 C 93.132 96.457,95.804 94.730,98.076 95.809 M255.779 99.870 L 256.337 100.015 256.367 103.535 L 256.396 107.056 254.468 107.130 C 228.199 108.135,207.921 108.237,184.366 107.481 C 178.328 107.288,173.974 107.118,172.669 107.025 L 171.748 106.959 171.749 103.926 L 171.750 100.893 172.405 100.471 L 173.061 100.048 186.168 100.178 C 204.399 100.359,231.040 100.215,248.353 99.842 C 254.514 99.709,255.169 99.712,255.779 99.870 M41.541 102.736 L 41.541 104.969 39.754 104.969 L 37.968 104.969 37.968 102.736 L 37.968 100.503 39.754 100.503 L 41.541 100.503 41.541 102.736 M59.408 102.736 L 59.408 104.969 50.810 104.969 L 42.211 104.969 42.211 102.736 L 42.211 100.503 50.810 100.503 L 59.408 100.503 59.408 102.736 M65.885 102.736 L 65.885 104.969 62.982 104.969 L 60.078 104.969 60.078 102.736 L 60.078 100.503 62.982 100.503 L 65.885 100.503 65.885 102.736 M83.529 102.736 L 83.529 104.969 75.042 104.969 L 66.555 104.969 66.555 102.736 L 66.555 100.503 75.042 100.503 L 83.529 100.503 83.529 102.736 M87.996 102.736 L 87.996 104.969 86.097 104.969 L 84.199 104.969 84.199 102.736 L 84.199 100.503 86.097 100.503 L 87.996 100.503 87.996 102.736 M62.256 101.269 C 61.503 101.733,61.234 102.349,61.434 103.144 C 61.850 104.794,64.185 104.782,64.642 103.129 C 65.017 101.771,63.437 100.539,62.256 101.269 M63.615 101.897 C 64.367 102.423,63.954 103.741,63.037 103.741 C 62.684 103.741,62.222 103.406,62.103 103.065 C 61.787 102.158,62.833 101.349,63.615 101.897 M30.597 104.033 L 30.597 104.969 30.151 104.969 L 29.704 104.969 29.704 104.027 L 29.704 103.085 30.151 103.091 L 30.597 103.097 30.597 104.033 M97.152 104.027 L 97.152 104.969 96.706 104.969 L 96.259 104.969 96.259 104.033 L 96.259 103.097 96.706 103.091 L 97.152 103.085 97.152 104.027 M110.553 108.989 L 110.553 112.339 63.410 112.339 L 16.268 112.339 16.342 109.809 C 16.382 108.417,16.415 106.909,16.415 106.459 L 16.415 105.639 63.484 105.639 L 110.553 105.639 110.553 108.989 M176.605 107.869 C 177.895 107.928,180.583 108.027,182.580 108.091 C 184.576 108.154,186.925 108.236,187.800 108.274 L 189.391 108.343 189.391 108.663 C 189.391 108.907,189.310 109.025,189.051 109.159 C 188.353 109.520,188.276 109.817,188.276 112.116 C 188.276 114.489,188.360 114.773,189.172 115.114 C 189.612 115.299,189.612 115.299,189.614 115.941 L 189.615 116.583 184.031 116.583 L 178.448 116.583 178.448 115.690 L 178.448 114.796 176.214 114.796 L 173.981 114.796 173.981 111.279 C 173.981 108.539,174.012 107.761,174.121 107.762 C 174.197 107.762,175.315 107.810,176.605 107.869 M254.383 111.279 L 254.383 114.796 253.129 114.796 L 251.875 114.796 250.975 115.692 L 250.074 116.588 244.440 116.412 C 237.648 116.201,237.856 116.219,237.857 115.822 C 237.858 115.579,237.942 115.487,238.299 115.337 C 239.110 114.996,239.195 114.712,239.195 112.339 C 239.195 109.967,239.110 109.683,238.299 109.342 C 237.902 109.175,237.858 109.117,237.857 108.755 L 237.856 108.354 240.620 108.279 C 244.276 108.181,253.106 107.877,253.601 107.833 C 253.816 107.814,254.080 107.790,254.188 107.780 C 254.370 107.762,254.383 107.996,254.383 111.279 M192.445 108.392 C 193.599 108.463,193.635 108.473,193.635 108.727 L 193.635 108.989 191.848 108.989 L 190.061 108.989 190.061 108.654 C 190.061 108.267,190.182 108.254,192.445 108.392 M237.186 108.766 L 237.186 109.213 235.399 109.213 L 233.613 109.213 233.613 108.825 L 233.613 108.437 235.315 108.403 C 236.252 108.384,237.056 108.358,237.102 108.344 C 237.148 108.331,237.186 108.520,237.186 108.766 M215.578 108.594 C 223.317 108.592,230.389 108.551,231.295 108.504 L 232.942 108.418 232.942 108.812 C 232.942 109.139,232.884 109.237,232.603 109.383 C 231.905 109.744,231.827 110.040,231.827 112.339 C 231.827 114.712,231.912 114.996,232.723 115.337 C 233.155 115.518,233.380 116.027,233.026 116.023 C 232.949 116.022,229.168 115.899,224.622 115.750 C 212.794 115.361,213.164 115.292,207.576 118.946 C 202.044 122.564,199.552 123.012,195.561 121.105 L 194.305 120.505 194.306 117.902 L 194.307 115.299 194.748 115.114 C 195.559 114.773,195.644 114.489,195.644 112.116 C 195.644 109.743,195.559 109.459,194.748 109.119 C 194.415 108.979,194.307 108.870,194.306 108.674 L 194.305 108.415 197.906 108.507 C 199.887 108.557,207.839 108.597,215.578 108.594 M194.752 109.883 C 194.958 110.090,194.975 110.255,194.975 112.116 C 194.975 114.804,195.258 114.573,191.960 114.573 C 188.662 114.573,188.945 114.804,188.945 112.116 C 188.945 109.429,188.662 109.659,191.960 109.659 C 194.379 109.659,194.541 109.672,194.752 109.883 M238.303 110.106 C 238.509 110.313,238.526 110.478,238.526 112.339 C 238.526 115.027,238.809 114.796,235.511 114.796 C 232.213 114.796,232.496 115.027,232.496 112.339 C 232.496 109.652,232.213 109.883,235.511 109.883 C 237.930 109.883,238.092 109.896,238.303 110.106 M37.240 115.159 C 37.196 116.341,37.138 117.331,37.113 117.359 C 37.087 117.387,35.473 117.446,33.525 117.490 C 31.577 117.535,29.825 117.575,29.631 117.580 L 29.278 117.588 29.207 118.677 C 29.167 119.276,29.107 119.957,29.074 120.192 L 29.012 120.619 26.371 120.553 C 24.918 120.516,22.762 120.457,21.580 120.421 L 19.430 120.355 19.430 116.682 L 19.430 113.009 28.375 113.009 L 37.320 113.009 37.240 115.159 M41.541 114.015 L 41.541 115.020 39.754 115.020 L 37.968 115.020 37.968 114.015 L 37.968 113.009 39.754 113.009 L 41.541 113.009 41.541 114.015 M83.472 115.103 C 83.428 116.255,83.382 117.208,83.370 117.222 C 83.327 117.273,76.857 117.025,73.367 116.839 C 64.724 116.377,64.787 116.360,60.916 120.159 C 57.289 123.717,55.572 124.659,52.708 124.665 C 49.584 124.671,45.899 122.262,43.590 118.702 C 43.212 118.120,42.798 117.529,42.669 117.389 C 42.465 117.167,42.434 116.995,42.434 116.076 C 42.434 115.446,42.389 115.020,42.323 115.020 C 42.257 115.020,42.211 114.610,42.211 114.015 L 42.211 113.009 62.882 113.009 L 83.553 113.009 83.472 115.103 M87.996 114.015 L 87.996 115.020 86.097 115.020 L 84.199 115.020 84.199 114.015 L 84.199 113.009 86.097 113.009 L 87.996 113.009 87.996 114.015 M106.756 116.471 C 106.756 118.375,106.743 119.940,106.728 119.949 C 106.713 119.958,104.491 120.021,101.791 120.089 L 96.882 120.212 96.088 119.375 C 95.652 118.914,95.052 118.273,94.756 117.951 L 94.218 117.365 91.442 117.365 L 88.666 117.365 88.666 115.187 L 88.666 113.009 97.711 113.009 L 106.756 113.009 106.756 116.471 M193.579 118.258 L 193.579 121.217 191.960 121.217 L 190.341 121.217 190.311 118.372 C 190.274 114.846,190.066 115.230,191.985 115.268 L 193.579 115.299 193.579 118.258 M237.130 118.481 L 237.130 121.441 235.511 121.441 L 233.892 121.441 233.862 118.595 C 233.825 115.069,233.617 115.454,235.536 115.491 L 237.130 115.522 237.130 118.481 M41.764 119.080 L 41.764 122.471 41.246 122.542 C 40.961 122.581,40.049 122.613,39.218 122.613 L 37.709 122.613 37.782 120.017 C 37.822 118.589,37.856 117.031,37.856 116.555 L 37.856 115.690 39.810 115.690 L 41.764 115.690 41.764 119.080 M87.996 119.080 L 87.996 122.471 87.477 122.542 C 87.192 122.581,86.280 122.613,85.450 122.613 L 83.940 122.613 84.013 120.017 C 84.054 118.589,84.087 117.031,84.087 116.555 L 84.087 115.690 86.041 115.690 L 87.996 115.690 87.996 119.080 M194.249 122.278 L 194.249 122.557 191.985 122.587 C 189.599 122.619,189.470 122.593,189.656 122.108 C 189.712 121.963,190.043 121.943,191.985 121.969 L 194.249 121.999 194.249 122.278 M237.577 122.501 L 237.577 122.781 235.425 122.811 C 233.158 122.843,233.022 122.814,233.207 122.331 C 233.263 122.186,233.582 122.166,235.425 122.192 L 237.577 122.222 237.577 122.501 M41.094 123.506 C 41.094 123.716,41.020 123.730,39.866 123.730 C 38.712 123.730,38.638 123.716,38.638 123.506 C 38.638 123.297,38.712 123.283,39.866 123.283 C 41.020 123.283,41.094 123.297,41.094 123.506 M87.326 123.506 C 87.326 123.715,87.251 123.730,86.209 123.730 C 85.167 123.730,85.092 123.715,85.092 123.506 C 85.092 123.298,85.167 123.283,86.209 123.283 C 87.251 123.283,87.326 123.298,87.326 123.506 " stroke="none" fill="#000000" fill-rule="evenodd"></path></g></svg>