<svg id="svg" xmlns="http://www.w3.org/2000/svg" xmlns:xlink="http://www.w3.org/1999/xlink" width="400" height="106.43402399127591" viewBox="0, 0, 400,106.43402399127591"><g id="svgg"><path id="path0" d="M46.783 0.181 C 38.071 0.291,29.551 0.960,21.865 2.138 C 15.896 3.052,14.037 3.739,11.996 5.781 C 10.263 7.516,10.090 8.036,9.927 11.996 C 9.754 16.188,9.504 23.900,9.434 27.154 C 9.340 31.580,9.288 32.297,9.068 32.179 C 8.969 32.126,8.323 32.052,7.634 32.015 C 4.494 31.845,4.587 31.860,4.354 31.478 C 3.929 30.781,4.051 30.472,4.757 30.456 C 6.567 30.413,7.403 29.066,7.639 25.811 C 7.903 22.168,7.285 20.710,5.344 20.399 C 1.513 19.785,0.458 20.837,0.253 25.479 C 0.106 28.810,0.798 30.007,3.081 30.370 C 3.471 30.432,3.490 30.454,3.490 30.857 C 3.490 31.130,3.610 31.488,3.833 31.876 L 4.176 32.473 5.441 32.542 C 8.344 32.700,8.681 32.736,8.925 32.920 C 9.207 33.133,9.235 35.440,9.092 46.631 L 9.017 52.532 7.807 52.597 C 4.061 52.800,3.345 53.449,3.289 56.698 C 3.223 60.459,3.975 61.916,6.352 62.640 C 6.519 62.690,6.543 62.847,6.541 63.873 L 6.539 65.049 5.925 65.315 C 4.526 65.921,3.392 67.469,3.165 69.084 C 3.020 70.117,3.020 100.875,3.165 101.908 C 3.471 104.083,5.177 105.787,7.361 106.102 C 8.350 106.244,13.242 106.244,14.231 106.102 C 16.415 105.787,18.121 104.083,18.427 101.908 C 18.488 101.478,18.535 98.302,18.537 94.629 L 18.539 88.113 20.065 88.113 L 21.592 88.113 21.592 88.877 L 21.592 89.640 24.646 89.640 L 27.699 89.640 27.699 90.812 C 27.700 92.144,27.854 92.550,28.449 92.797 C 28.698 92.900,28.790 93.009,28.790 93.202 C 28.790 93.910,29.104 94.002,31.516 94.002 C 33.928 94.002,34.242 93.910,34.242 93.203 C 34.242 92.996,34.314 92.925,34.572 92.873 C 34.887 92.810,35.262 92.504,35.496 92.120 C 35.591 91.964,35.739 92.031,36.641 92.643 C 40.454 95.226,43.081 95.016,47.977 91.735 C 52.607 88.633,52.470 88.665,59.897 88.918 C 62.731 89.015,65.577 89.124,66.221 89.161 L 67.394 89.228 67.394 90.912 C 67.394 92.967,67.651 93.566,68.533 93.566 C 68.654 93.566,68.702 93.676,68.702 93.953 C 68.702 94.799,68.925 94.875,71.429 94.875 C 73.923 94.875,74.155 94.797,74.155 93.966 C 74.155 93.651,74.208 93.570,74.495 93.452 C 75.132 93.188,75.244 92.832,75.245 91.076 L 75.245 89.512 77.787 89.591 L 80.328 89.669 81.020 88.891 L 81.711 88.113 82.731 88.113 L 83.751 88.113 83.754 94.629 C 83.755 98.302,83.803 101.478,83.863 101.908 C 84.169 104.083,85.875 105.787,88.059 106.102 C 89.048 106.244,93.940 106.244,94.929 106.102 C 97.113 105.787,98.819 104.083,99.125 101.908 C 99.272 100.860,99.270 70.110,99.122 69.084 C 98.926 67.723,98.037 66.289,96.985 65.639 L 96.619 65.413 96.619 64.117 L 96.619 62.822 97.079 62.698 C 98.652 62.275,99.933 61.049,100.372 59.549 C 100.589 58.808,100.617 55.503,100.413 54.811 C 100.026 53.502,98.044 52.563,95.665 52.563 L 95.093 52.563 95.080 49.918 C 95.074 48.464,95.037 44.869,94.999 41.930 C 94.960 38.991,94.966 36.570,95.011 36.550 C 95.056 36.530,95.094 35.745,95.096 34.806 C 95.099 33.582,95.140 33.044,95.241 32.912 C 95.366 32.747,98.012 32.498,99.635 32.497 C 99.962 32.497,100.545 31.456,100.545 30.874 L 100.545 30.448 101.274 30.321 C 103.433 29.945,104.156 28.121,103.723 24.141 C 103.387 21.052,102.727 20.337,100.218 20.340 C 97.114 20.344,96.520 20.964,96.428 24.294 C 96.312 28.477,97.192 30.385,99.273 30.458 C 100.007 30.484,100.113 31.082,99.515 31.815 C 99.503 31.829,98.517 31.893,97.323 31.958 C 96.130 32.022,95.097 32.121,95.029 32.177 C 94.865 32.314,94.766 31.348,94.766 29.618 C 94.766 26.769,94.172 9.837,94.045 9.051 C 93.563 6.075,89.986 3.382,85.071 2.294 C 80.057 1.184,59.069 0.026,46.783 0.181 M253.326 0.180 C 237.716 0.413,231.176 1.702,224.537 5.854 L 223.173 6.707 224.006 6.761 L 224.838 6.816 220.595 21.373 C 216.554 35.242,216.356 35.961,216.424 36.559 L 216.495 37.186 214.927 37.182 C 214.064 37.180,211.519 37.132,209.269 37.076 C 206.703 37.012,204.266 37.013,202.726 37.078 C 201.377 37.135,198.850 37.234,197.110 37.298 C 185.245 37.735,170.074 39.173,159.210 40.889 C 155.684 41.446,153.644 43.168,152.938 46.183 C 152.787 46.829,152.789 55.398,152.940 59.149 C 152.943 59.203,152.277 59.620,151.460 60.076 C 150.644 60.532,149.900 60.969,149.806 61.047 C 149.553 61.259,149.358 62.544,149.449 63.397 L 149.527 64.122 151.249 64.122 L 152.971 64.122 153.036 64.967 C 153.071 65.432,153.114 67.256,153.132 69.020 L 153.162 72.227 152.236 72.541 C 148.717 73.736,144.625 74.116,141.467 73.541 L 141.112 73.476 141.112 72.549 L 141.112 71.621 138.141 71.698 C 133.667 71.813,133.981 71.467,133.938 76.346 C 133.893 81.478,133.598 81.134,138.044 81.134 L 141.112 81.134 141.112 80.207 L 141.112 79.280 141.467 79.286 C 141.821 79.292,141.821 79.292,141.576 79.463 C 141.333 79.632,141.330 79.661,141.330 82.238 L 141.330 84.842 142.566 84.842 C 143.735 84.842,143.814 84.828,144.052 84.575 L 144.303 84.307 144.861 84.591 L 145.420 84.875 148.880 84.801 L 152.339 84.728 152.390 84.976 C 152.419 85.112,152.498 85.641,152.566 86.150 C 153.778 95.172,161.078 102.832,170.284 104.742 C 183.558 107.495,196.294 97.779,197.230 84.184 C 197.317 82.921,197.188 82.995,198.746 83.315 C 199.329 83.435,199.813 83.533,199.821 83.533 C 199.830 83.533,200.204 83.044,200.654 82.447 L 201.472 81.360 252.672 81.364 L 303.871 81.368 306.979 81.771 L 310.087 82.174 310.167 83.532 C 310.700 92.560,316.644 100.491,325.082 103.432 C 340.010 108.635,355.369 97.515,355.054 81.732 L 355.016 79.825 358.206 79.825 L 361.396 79.826 361.396 78.299 L 361.396 76.772 362.050 76.772 L 362.704 76.772 362.704 75.236 L 362.704 73.699 363.604 73.765 C 364.099 73.802,365.853 73.908,367.503 74.000 C 370.208 74.153,371.236 74.275,378.006 75.253 L 385.510 76.336 392.646 76.336 L 399.782 76.336 399.782 73.076 L 399.782 69.815 398.337 69.748 C 397.542 69.711,393.825 69.606,390.076 69.515 C 383.235 69.348,381.106 69.182,379.904 68.722 C 379.798 68.681,382.914 68.335,386.829 67.953 C 390.744 67.572,394.083 67.234,394.248 67.204 L 394.547 67.148 394.550 55.575 L 394.553 44.002 395.097 43.348 L 395.641 42.694 385.034 42.617 C 371.566 42.519,305.541 42.199,299.226 42.201 L 294.471 42.203 290.071 37.144 L 285.670 32.086 284.711 32.011 L 283.751 31.936 283.751 16.622 L 283.751 1.309 282.116 1.309 L 280.480 1.309 280.479 22.219 C 280.478 37.357,280.418 47.778,280.261 59.969 C 280.141 69.231,280.064 76.829,280.089 76.854 C 280.154 76.919,303.641 76.659,305.605 76.572 L 307.229 76.499 307.531 75.300 C 312.811 54.372,343.725 51.025,353.431 70.330 L 353.882 71.228 354.286 71.166 C 354.508 71.133,359.744 70.609,365.921 70.003 L 377.154 68.902 380.207 69.452 L 383.261 70.003 388.004 70.115 C 390.613 70.177,393.496 70.259,394.411 70.296 L 396.074 70.364 396.074 73.023 L 396.074 75.682 390.798 75.682 L 385.521 75.682 379.484 74.807 C 376.163 74.325,372.784 73.836,371.974 73.719 C 370.778 73.546,363.728 73.064,362.395 73.064 L 362.050 73.064 362.050 74.591 L 362.050 76.118 361.396 76.118 L 360.742 76.118 360.742 77.644 L 360.742 79.171 357.818 79.171 L 354.894 79.171 354.779 78.490 C 354.639 77.663,354.466 77.779,355.974 77.689 C 357.429 77.602,357.339 77.693,357.144 76.505 C 357.040 75.868,357.046 75.841,357.469 75.072 C 357.793 74.480,358.342 72.963,358.342 72.658 C 358.342 72.641,357.125 72.628,355.638 72.628 L 352.933 72.628 352.685 72.110 C 351.467 69.573,349.187 66.732,346.852 64.843 C 334.136 54.554,315.217 60.629,310.904 76.387 L 310.517 77.801 308.884 78.363 C 307.290 78.913,307.252 78.933,307.252 79.239 L 307.252 79.553 308.506 79.695 C 310.421 79.911,310.253 79.813,310.177 80.672 C 310.141 81.076,310.092 81.429,310.069 81.455 C 310.046 81.482,308.593 81.322,306.840 81.100 L 303.653 80.695 252.399 80.701 L 201.145 80.707 200.382 81.739 C 199.523 82.901,199.746 82.823,198.114 82.539 L 197.264 82.392 197.296 81.853 C 197.327 81.328,197.339 81.311,197.780 81.165 C 198.226 81.017,198.235 81.004,198.367 80.299 C 198.523 79.477,198.506 79.452,197.732 79.336 C 197.039 79.232,196.947 79.179,196.947 78.892 C 196.947 77.300,195.156 72.757,193.596 70.393 C 183.218 54.659,159.254 57.876,153.390 75.791 L 152.908 77.263 152.436 77.404 C 149.983 78.139,147.210 78.524,143.866 78.595 L 141.112 78.654 141.112 76.391 L 141.112 74.128 141.467 74.199 C 144.482 74.802,148.622 74.406,152.475 73.146 L 153.860 72.693 153.810 70.070 C 153.783 68.628,153.739 66.709,153.713 65.805 L 153.666 64.162 154.767 63.624 C 155.373 63.328,156.487 62.677,157.242 62.176 C 159.339 60.786,161.628 59.748,164.191 59.027 L 165.267 58.724 175.354 58.724 L 185.442 58.724 186.314 58.975 C 187.377 59.281,188.733 59.923,189.507 60.486 C 189.823 60.717,193.887 64.966,198.537 69.929 L 206.992 78.953 209.603 78.953 L 212.214 78.953 212.214 78.439 L 212.214 77.925 212.732 78.423 L 213.250 78.921 245.583 78.717 L 277.917 78.513 278.598 77.833 L 279.280 77.152 279.503 53.707 C 279.693 33.770,279.750 30.208,279.885 29.904 C 280.110 29.395,280.081 28.797,279.808 28.353 C 279.496 27.845,278.296 12.290,278.506 11.475 C 278.604 11.095,278.594 10.933,278.453 10.602 C 278.350 10.361,278.228 9.534,278.152 8.561 L 278.023 6.925 277.759 6.954 C 277.380 6.997,277.389 6.945,277.494 8.549 L 277.590 10.017 275.573 10.053 C 272.885 10.102,271.840 10.641,271.015 12.403 L 270.720 13.032 270.720 20.284 L 270.720 27.535 271.009 28.152 C 271.844 29.933,272.619 30.253,276.200 30.296 L 279.062 30.329 279.062 32.149 C 279.061 33.150,278.963 43.636,278.843 55.452 L 278.625 76.934 278.162 77.395 L 277.699 77.855 251.036 78.018 C 236.371 78.108,221.913 78.195,218.906 78.213 L 213.439 78.244 211.151 75.736 C 209.893 74.357,206.184 70.308,202.910 66.739 L 196.957 60.251 196.952 54.226 L 196.947 48.201 208.670 48.201 L 220.393 48.201 220.393 56.372 L 220.393 64.544 220.843 65.833 C 221.568 67.909,222.214 68.735,224.209 70.142 C 225.555 71.091,225.880 71.272,226.390 71.356 C 227.327 71.511,254.414 71.576,258.380 71.432 L 261.743 71.311 263.233 70.561 L 264.722 69.811 265.576 68.706 C 266.249 67.835,266.566 67.292,267.071 66.137 L 267.713 64.672 267.878 51.884 C 267.968 44.850,268.048 37.819,268.054 36.260 L 268.066 33.424 267.457 31.629 L 266.848 29.833 266.848 18.297 L 266.848 6.761 272.745 6.761 L 278.641 6.761 278.570 6.516 C 277.776 3.769,275.302 1.459,272.470 0.819 C 270.834 0.449,259.846 0.083,253.326 0.180 M59.378 0.990 C 66.306 1.211,78.262 1.987,82.116 2.465 C 86.529 3.013,89.524 4.201,91.674 6.258 L 92.421 6.972 52.085 6.976 L 11.750 6.979 12.020 6.625 C 13.351 4.881,15.869 3.787,20.230 3.062 C 31.761 1.143,43.966 0.497,59.378 0.990 M265.158 0.988 C 272.549 1.264,273.470 1.434,275.343 2.871 C 276.221 3.545,277.644 5.454,277.644 5.959 C 277.644 6.011,266.038 6.052,251.540 6.052 L 225.436 6.052 226.376 5.520 C 233.409 1.541,244.681 0.223,265.158 0.988 M283.097 21.919 L 283.097 41.876 282.116 41.876 L 281.134 41.876 281.134 21.919 L 281.134 1.963 282.116 1.963 L 283.097 1.963 283.097 21.919 M227.694 7.116 C 227.642 7.311,225.977 13.477,223.995 20.819 L 220.391 34.168 220.388 40.857 L 220.385 47.546 214.173 47.546 L 207.961 47.546 207.959 46.320 C 207.953 41.761,207.568 39.802,206.346 38.126 L 205.957 37.592 206.550 37.658 C 208.418 37.865,217.230 37.870,217.228 37.664 C 217.227 37.551,217.178 37.130,217.120 36.728 L 217.014 35.997 221.092 22.006 C 223.335 14.311,225.252 7.733,225.352 7.388 L 225.533 6.761 226.662 6.761 L 227.790 6.761 227.694 7.116 M266.194 18.351 L 266.194 29.941 266.825 31.846 L 267.457 33.751 267.263 49.134 L 267.069 64.517 266.475 65.873 C 266.018 66.917,265.689 67.476,265.049 68.296 L 264.216 69.362 262.922 70.011 L 261.629 70.659 258.377 70.779 C 254.385 70.926,227.242 70.860,226.491 70.702 C 225.578 70.509,223.256 68.767,222.519 67.720 C 221.485 66.254,221.047 64.831,221.047 62.943 L 221.047 61.446 223.528 61.448 C 226.942 61.451,227.894 61.021,227.786 59.525 C 227.681 58.075,226.429 57.586,222.819 57.581 L 221.047 57.579 221.047 50.136 L 221.047 42.694 223.473 42.694 C 226.843 42.694,227.808 42.296,227.808 40.910 C 227.808 39.431,226.731 38.945,223.255 38.853 L 221.047 38.795 221.047 36.522 L 221.047 34.249 224.600 21.077 C 226.555 13.833,228.227 7.649,228.316 7.334 L 228.478 6.761 247.336 6.761 L 266.194 6.761 266.194 18.351 M12.868 9.869 C 12.868 11.925,12.853 12.105,12.677 12.105 C 11.858 12.107,11.494 12.837,11.402 14.667 C 11.362 15.447,11.234 17.462,11.116 19.144 C 10.394 29.449,10.819 34.351,12.436 34.351 C 12.636 34.351,12.650 34.431,12.650 35.605 C 12.650 36.369,12.693 36.859,12.759 36.859 C 12.908 36.859,12.908 44.128,12.759 44.220 C 12.696 44.259,12.650 44.839,12.650 45.590 C 12.650 46.385,12.692 46.892,12.759 46.892 C 12.827 46.892,12.868 47.546,12.868 48.637 L 12.868 50.382 12.012 50.382 C 11.048 50.382,10.582 50.505,10.047 50.903 L 9.679 51.176 9.751 45.299 C 9.897 33.414,10.153 22.914,10.528 13.480 C 10.695 9.304,10.755 8.720,11.088 8.020 L 11.273 7.634 12.070 7.634 L 12.868 7.634 12.868 9.869 M93.103 8.152 C 93.425 8.915,93.439 9.064,93.618 13.631 C 93.985 22.961,94.210 32.171,94.388 45.133 L 94.455 49.972 94.147 49.753 C 93.704 49.438,93.081 49.292,92.176 49.292 L 91.385 49.291 91.385 48.092 C 91.385 47.365,91.428 46.892,91.494 46.892 C 91.669 46.892,91.642 34.494,91.467 34.423 C 91.392 34.393,91.429 34.364,91.549 34.359 C 91.933 34.343,92.483 33.922,92.666 33.504 C 93.072 32.575,92.981 26.249,92.473 20.065 C 92.358 18.656,92.189 16.509,92.099 15.294 C 91.908 12.727,91.630 11.996,90.842 11.996 C 90.648 11.996,90.514 10.537,90.513 8.424 L 90.513 7.634 91.699 7.634 L 92.885 7.634 93.103 8.152 M89.858 8.424 C 89.859 9.105,90.580 26.251,90.680 27.948 L 90.750 29.125 90.058 29.054 L 89.367 28.983 87.432 30.860 L 85.496 32.736 85.496 33.598 L 85.496 34.460 58.997 34.460 L 32.497 34.460 32.497 32.737 C 32.497 31.062,32.489 31.002,32.220 30.637 L 31.943 30.262 34.295 30.232 L 36.647 30.203 40.652 31.834 C 44.245 33.297,44.670 33.446,44.793 33.287 C 45.060 32.940,44.893 32.846,41.764 31.573 C 40.023 30.865,38.612 30.278,38.629 30.268 C 38.645 30.259,44.817 30.305,52.345 30.370 L 66.031 30.488 69.793 32.028 L 73.555 33.568 73.683 33.278 C 73.838 32.928,74.128 33.082,70.556 31.618 L 67.884 30.523 75.970 30.587 L 84.056 30.651 85.210 30.361 L 86.365 30.072 86.950 29.404 C 87.326 28.974,87.691 28.384,87.973 27.754 L 88.411 26.772 87.892 19.357 C 87.378 12.009,87.371 11.934,87.060 11.153 C 86.639 10.097,85.812 9.436,84.369 9.001 L 83.405 8.711 51.653 8.831 C 15.264 8.968,18.528 8.862,17.531 9.945 C 16.402 11.173,16.224 12.104,15.809 18.975 C 15.434 25.187,15.430 25.384,15.665 26.663 L 15.844 27.644 16.602 28.427 C 17.326 29.174,17.418 29.231,18.595 29.667 L 19.829 30.125 19.511 30.564 C 19.221 30.964,19.193 31.083,19.193 31.897 C 19.193 33.385,19.072 34.460,18.904 34.460 C 18.791 34.460,18.757 34.234,18.757 33.500 L 18.757 32.539 16.788 30.650 L 14.819 28.761 14.098 28.834 L 13.377 28.908 13.450 21.134 C 13.490 16.857,13.522 12.120,13.522 10.605 L 13.522 7.852 51.690 7.852 L 89.858 7.852 89.858 8.424 M84.218 9.640 C 84.771 9.811,85.269 10.058,85.648 10.351 C 86.678 11.145,86.639 10.924,87.237 19.357 L 87.755 26.663 87.283 27.644 C 86.586 29.096,86.237 29.416,85.017 29.730 L 84.024 29.985 75.136 29.921 L 66.249 29.856 64.684 29.241 L 63.119 28.626 66.674 28.597 L 70.229 28.568 70.229 28.243 L 70.229 27.917 60.414 27.917 L 50.600 27.917 50.600 28.244 L 50.600 28.571 55.935 28.571 L 61.271 28.571 62.724 29.167 L 64.177 29.763 59.924 29.762 C 57.585 29.762,51.439 29.719,46.267 29.668 L 36.863 29.574 35.529 29.046 L 34.196 28.517 35.610 28.448 C 36.387 28.409,38.017 28.373,39.231 28.366 L 41.439 28.353 41.439 28.013 L 41.439 27.673 36.614 27.740 C 33.960 27.777,29.543 27.838,26.799 27.875 L 21.810 27.943 21.810 28.269 L 21.810 28.595 27.050 28.515 L 32.290 28.434 33.609 28.966 L 34.929 29.498 33.044 29.528 C 31.293 29.556,31.124 29.541,30.665 29.319 C 28.962 28.494,22.671 28.404,21.136 29.181 C 20.093 29.710,18.342 29.191,17.151 28.000 C 16.035 26.884,16.023 26.757,16.396 20.040 C 16.892 11.093,17.208 10.025,19.453 9.708 C 20.259 9.594,41.909 9.474,75.573 9.396 L 83.370 9.378 84.218 9.640 M230.175 9.837 C 229.223 10.067,229.212 10.073,228.572 10.796 L 227.927 11.523 225.241 22.256 C 223.159 30.574,222.567 33.093,222.606 33.456 C 222.681 34.151,223.184 34.887,223.798 35.203 L 224.311 35.467 229.358 35.536 C 233.614 35.594,246.936 35.446,259.706 35.198 C 263.188 35.130,263.856 34.532,263.815 31.516 C 263.695 22.595,263.309 12.079,263.069 11.232 C 262.694 9.906,263.194 9.960,249.945 9.820 C 243.918 9.756,237.219 9.682,235.060 9.654 C 231.337 9.608,231.085 9.617,230.175 9.837 M236.897 10.369 C 236.918 10.394,237.017 15.665,237.117 22.083 C 237.218 28.501,237.319 34.006,237.344 34.317 L 237.387 34.883 236.224 34.917 C 232.698 35.020,224.430 34.809,224.085 34.607 C 222.938 33.935,222.847 34.552,225.882 22.421 L 228.553 11.744 229.094 11.203 C 229.948 10.349,230.521 10.243,234.051 10.288 C 235.596 10.307,236.876 10.344,236.897 10.369 M250.273 10.478 C 262.590 10.621,262.219 10.590,262.460 11.493 C 262.710 12.429,263.316 32.282,263.117 33.018 C 262.837 34.049,262.054 34.489,260.414 34.535 C 256.325 34.651,238.134 34.899,238.075 34.840 C 238.004 34.769,237.648 16.997,237.632 12.677 L 237.623 10.360 238.631 10.358 C 239.186 10.356,244.425 10.411,250.273 10.478 M277.844 10.878 C 278.064 11.306,277.923 11.341,275.972 11.342 C 272.032 11.343,272.249 10.857,272.080 20.050 L 271.951 27.068 272.262 27.675 C 272.813 28.749,272.967 28.790,276.469 28.790 L 279.402 28.790 279.369 29.198 L 279.335 29.607 276.390 29.607 L 273.446 29.607 272.937 29.308 C 271.298 28.345,271.307 28.396,271.344 20.060 L 271.374 13.141 271.663 12.595 C 272.045 11.875,272.666 11.263,273.337 10.946 C 274.074 10.599,277.672 10.544,277.844 10.878 M277.753 12.077 C 277.753 12.338,278.849 27.190,278.900 27.623 L 278.962 28.146 276.185 28.113 C 272.190 28.066,272.569 28.961,272.734 19.980 C 272.874 12.385,272.851 12.593,273.608 12.195 C 274.003 11.988,277.754 11.881,277.753 12.077 M91.179 12.999 C 91.242 13.117,91.363 14.176,91.449 15.354 C 91.534 16.531,91.701 18.674,91.819 20.116 C 92.423 27.488,92.435 32.913,91.850 33.499 L 91.622 33.726 91.562 33.139 C 91.493 32.477,90.724 14.109,90.728 13.226 C 90.731 12.622,90.924 12.524,91.179 12.999 M12.812 21.129 C 12.736 32.001,12.686 33.719,12.447 33.675 C 11.419 33.486,11.159 27.929,11.768 19.193 C 11.887 17.484,12.018 15.458,12.058 14.693 C 12.118 13.549,12.169 13.252,12.344 13.030 C 12.887 12.339,12.875 12.130,12.812 21.129 M5.968 21.250 C 6.862 21.706,7.190 23.197,6.984 25.863 C 6.758 28.789,5.835 30.188,4.381 29.808 C 4.047 29.720,4.029 28.841,4.359 28.736 C 4.927 28.556,5.016 28.233,5.016 26.367 L 5.016 24.629 4.698 24.310 C 4.428 24.040,4.293 23.991,3.817 23.991 C 3.341 23.991,3.206 24.040,2.936 24.310 L 2.617 24.629 2.617 26.367 C 2.617 28.233,2.707 28.556,3.274 28.736 C 3.446 28.790,3.490 28.902,3.490 29.289 L 3.490 29.774 3.026 29.705 C 1.132 29.423,0.592 27.969,0.984 24.209 C 1.173 22.404,1.552 21.509,2.292 21.120 C 2.842 20.832,5.320 20.919,5.968 21.250 M101.679 21.090 C 102.712 21.521,103.235 23.456,103.147 26.521 C 103.085 28.666,102.533 29.488,101.009 29.707 L 100.545 29.774 100.545 29.282 C 100.545 28.856,100.576 28.790,100.772 28.790 C 100.896 28.790,101.142 28.646,101.317 28.471 L 101.636 28.152 101.636 26.390 L 101.636 24.629 101.317 24.310 C 101.034 24.027,100.923 23.991,100.327 23.991 C 99.731 23.991,99.621 24.027,99.337 24.310 L 99.019 24.629 99.019 26.367 C 99.019 28.233,99.108 28.556,99.676 28.736 C 99.974 28.831,99.995 29.762,99.700 29.787 C 97.734 29.950,96.975 28.361,97.072 24.285 C 97.141 21.420,97.561 20.985,100.303 20.951 C 100.950 20.942,101.447 20.993,101.679 21.090 M4.338 26.327 C 4.357 27.337,4.326 27.997,4.256 28.067 C 4.179 28.144,4.144 27.862,4.144 27.176 L 4.144 26.172 3.817 26.172 L 3.490 26.172 3.490 27.160 C 3.490 27.791,3.450 28.124,3.381 28.081 C 3.256 28.004,3.227 24.836,3.349 24.713 C 3.392 24.670,3.625 24.650,3.867 24.668 L 4.308 24.700 4.338 26.327 M100.927 26.389 C 100.927 27.911,100.908 28.081,100.736 28.114 C 100.566 28.147,100.545 28.045,100.545 27.162 L 100.545 26.172 100.218 26.172 L 99.891 26.172 99.891 27.160 C 99.891 27.791,99.852 28.124,99.782 28.081 C 99.658 28.004,99.628 24.836,99.750 24.713 C 99.793 24.671,100.075 24.650,100.377 24.668 L 100.927 24.700 100.927 26.389 M29.716 29.672 L 30.480 29.935 30.511 31.349 C 30.562 33.709,30.714 33.611,26.925 33.676 C 22.991 33.743,21.535 33.649,21.194 33.308 C 20.805 32.920,20.796 30.073,21.183 29.864 C 22.357 29.232,28.065 29.103,29.716 29.672 M16.384 31.160 L 18.103 32.876 18.103 33.543 L 18.103 34.211 17.366 34.280 C 16.962 34.318,16.262 34.350,15.812 34.350 C 15.363 34.350,14.663 34.318,14.258 34.280 L 13.522 34.211 13.522 31.889 C 13.522 29.569,13.522 29.568,13.768 29.521 C 14.590 29.362,14.572 29.351,16.384 31.160 M90.257 29.728 C 90.513 29.797,90.492 29.623,90.679 33.233 L 90.742 34.460 88.446 34.460 L 86.150 34.460 86.150 33.731 L 86.150 33.001 87.868 31.337 C 89.553 29.705,89.729 29.586,90.257 29.728 M31.843 33.262 L 31.843 35.333 25.779 35.333 L 19.715 35.333 19.792 33.288 C 19.857 31.563,19.902 31.192,20.075 30.916 L 20.280 30.589 20.282 31.765 C 20.286 34.319,20.503 34.407,26.628 34.326 L 30.082 34.280 30.483 33.974 C 31.066 33.530,31.188 33.140,31.192 31.710 L 31.195 30.480 31.519 30.836 L 31.843 31.192 31.843 33.262 M285.563 32.971 C 285.734 33.145,292.073 40.437,293.332 41.908 C 293.516 42.123,293.781 42.122,286.287 41.915 L 283.969 41.852 283.969 37.218 L 283.969 32.585 284.651 32.660 C 285.136 32.714,285.399 32.803,285.563 32.971 M18.098 35.578 L 18.094 36.041 16.369 37.323 C 14.653 38.598,14.513 38.666,13.863 38.536 L 13.522 38.468 13.522 36.791 L 13.522 35.115 15.812 35.115 L 18.103 35.115 18.098 35.578 M19.084 35.551 L 19.084 35.987 25.791 35.987 L 32.497 35.987 32.497 35.551 L 32.497 35.115 58.997 35.115 L 85.496 35.115 85.496 35.802 L 85.496 36.490 87.432 37.993 L 89.368 39.495 90.158 39.427 L 90.949 39.358 90.947 41.680 C 90.946 42.957,90.909 43.949,90.865 43.883 C 90.821 43.818,90.053 42.727,89.157 41.460 L 87.529 39.155 85.231 38.399 L 82.933 37.644 79.778 37.522 L 76.622 37.400 76.043 36.953 L 75.464 36.506 71.074 36.035 L 66.685 35.564 58.531 35.443 C 52.619 35.355,48.511 35.354,43.591 35.439 L 36.805 35.557 32.770 36.101 C 27.902 36.756,28.397 36.647,27.686 37.224 C 27.100 37.700,27.098 37.700,25.791 37.833 C 22.155 38.203,17.403 39.109,16.072 39.686 C 15.945 39.741,15.457 40.342,14.988 41.022 C 14.519 41.701,13.997 42.449,13.829 42.683 L 13.522 43.108 13.522 41.133 L 13.522 39.158 14.204 39.214 L 14.885 39.271 16.794 37.820 L 18.702 36.369 18.735 35.742 C 18.775 34.978,19.084 34.809,19.084 35.551 M90.731 36.907 L 90.731 38.700 90.222 38.776 C 89.613 38.867,89.716 38.925,87.704 37.370 L 86.150 36.170 86.150 35.642 L 86.150 35.115 88.441 35.115 L 90.731 35.115 90.731 36.907 M285.496 38.004 L 285.496 40.349 287.692 40.349 L 289.888 40.349 289.409 39.831 C 289.145 39.546,288.173 38.491,287.248 37.486 C 286.323 36.482,285.550 35.660,285.531 35.660 C 285.512 35.660,285.496 36.715,285.496 38.004 M49.945 37.501 L 49.945 39.015 48.064 39.088 C 42.305 39.311,36.929 39.736,31.997 40.358 L 30.243 40.579 29.424 39.728 C 28.973 39.260,28.424 38.673,28.203 38.425 L 27.803 37.972 28.214 37.650 C 28.615 37.336,28.732 37.314,32.770 36.764 L 36.914 36.199 42.039 36.110 C 44.858 36.062,47.790 36.014,48.555 36.004 L 49.945 35.987 49.945 37.501 M54.089 37.514 L 54.089 39.040 52.345 39.040 L 50.600 39.040 50.600 37.514 L 50.600 35.987 52.345 35.987 L 54.089 35.987 54.089 37.514 M70.720 36.652 C 74.814 37.077,75.107 37.122,75.493 37.380 C 75.719 37.531,75.890 37.667,75.874 37.681 C 74.835 38.587,72.090 40.454,71.867 40.407 C 69.682 39.953,61.842 39.264,56.788 39.083 L 54.744 39.009 54.744 37.535 L 54.744 36.060 60.551 36.129 C 66.357 36.198,66.358 36.198,70.720 36.652 M288.053 39.340 L 288.351 39.695 287.251 39.695 L 286.150 39.695 286.150 38.477 L 286.150 37.259 286.952 38.123 C 287.394 38.597,287.889 39.145,288.053 39.340 M205.616 38.299 C 206.875 39.701,207.302 41.724,207.305 46.320 L 207.306 47.546 180.371 47.546 L 153.435 47.546 153.435 47.208 C 153.435 45.407,154.997 43.088,156.823 42.175 C 159.781 40.697,189.317 37.894,203.452 37.749 L 205.105 37.732 205.616 38.299 M80.916 38.230 L 82.824 38.295 84.975 39.003 L 87.126 39.711 89.038 42.426 C 91.822 46.382,91.876 46.241,87.603 46.231 L 84.569 46.224 83.739 45.218 L 82.908 44.212 78.123 43.081 C 72.866 41.839,73.209 41.952,72.868 41.347 L 72.625 40.914 74.562 39.474 L 76.499 38.034 77.754 38.099 C 78.443 38.136,79.866 38.194,80.916 38.230 M28.393 39.591 L 29.547 40.795 28.989 41.636 L 28.430 42.476 24.832 43.434 L 21.234 44.392 20.132 45.313 L 19.029 46.234 16.276 46.236 L 13.522 46.238 13.522 45.255 L 13.522 44.272 14.913 42.269 L 16.303 40.265 18.252 39.756 C 20.121 39.267,22.401 38.868,25.082 38.559 C 27.353 38.297,27.069 38.209,28.393 39.591 M199.024 38.703 C 198.785 39.150,198.881 41.177,199.157 41.497 C 199.479 41.871,199.908 41.552,199.673 41.112 C 199.596 40.968,199.558 40.476,199.577 39.847 C 199.609 38.725,199.326 38.139,199.024 38.703 M200.345 38.773 C 200.048 39.423,200.220 41.238,200.621 41.680 C 200.899 41.988,201.230 41.518,201.015 41.121 C 200.907 40.921,200.872 40.530,200.895 39.772 C 200.920 38.918,200.894 38.684,200.763 38.602 C 200.524 38.450,200.484 38.467,200.345 38.773 M197.612 38.948 C 197.333 39.748,197.480 41.089,197.901 41.572 C 198.155 41.863,198.526 41.388,198.298 41.063 C 198.120 40.808,198.090 39.459,198.256 39.149 C 198.342 38.987,198.315 38.909,198.122 38.774 C 197.789 38.541,197.749 38.555,197.612 38.948 M193.971 39.063 C 193.644 39.757,193.899 41.549,194.326 41.549 C 194.519 41.549,194.766 41.081,194.648 40.939 C 194.504 40.765,194.435 39.583,194.555 39.355 C 194.621 39.231,194.574 39.110,194.394 38.941 L 194.141 38.703 193.971 39.063 M195.160 38.945 C 194.651 39.672,195.163 42.062,195.682 41.385 C 195.777 41.262,195.816 41.096,195.771 41.003 C 195.728 40.913,195.688 40.432,195.681 39.933 C 195.669 38.866,195.474 38.497,195.160 38.945 M196.296 38.924 C 196.070 39.347,196.156 41.048,196.421 41.385 L 196.659 41.687 196.856 41.444 C 197.010 41.253,197.027 41.154,196.934 40.980 C 196.867 40.854,196.832 40.373,196.854 39.855 C 196.886 39.087,196.863 38.932,196.703 38.831 C 196.450 38.674,196.427 38.679,196.296 38.924 M192.829 39.039 C 192.480 39.598,192.745 41.549,193.171 41.549 C 193.393 41.549,193.595 41.115,193.453 40.944 C 193.376 40.852,193.341 40.482,193.362 39.984 C 193.404 38.975,193.150 38.524,192.829 39.039 M190.463 39.286 C 190.174 39.982,190.434 41.549,190.838 41.549 C 191.005 41.549,191.190 41.111,191.108 40.913 C 190.989 40.627,190.960 39.592,191.069 39.524 C 191.173 39.460,190.846 38.941,190.698 38.935 C 190.650 38.933,190.544 39.091,190.463 39.286 M191.621 39.209 C 191.187 40.160,191.801 42.184,192.261 41.323 C 192.351 41.156,192.348 41.058,192.251 40.941 C 192.163 40.835,192.137 40.513,192.172 39.971 C 192.237 38.963,191.927 38.536,191.621 39.209 M225.151 39.595 C 226.765 39.819,227.492 40.495,227.035 41.348 C 226.706 41.964,224.559 42.258,221.969 42.042 L 221.047 41.965 221.047 40.721 L 221.047 39.477 222.675 39.477 C 223.570 39.477,224.684 39.530,225.151 39.595 M60.742 39.906 C 64.440 40.164,70.806 40.824,71.812 41.053 C 71.950 41.085,72.158 41.358,72.371 41.790 L 72.711 42.475 77.549 43.611 C 83.149 44.926,82.489 44.699,83.203 45.556 L 83.770 46.238 75.477 46.238 L 67.184 46.238 67.059 45.775 C 66.857 45.024,66.567 44.554,65.978 44.025 C 64.971 43.119,65.946 43.176,52.010 43.209 L 39.640 43.239 39.138 43.473 C 38.164 43.929,37.478 44.727,37.234 45.687 L 37.108 46.183 28.576 46.211 L 20.044 46.239 20.797 45.610 L 21.549 44.981 25.206 44.015 L 28.862 43.049 29.436 42.151 L 30.010 41.253 32.426 40.962 C 37.652 40.335,40.792 40.084,47.492 39.760 C 49.086 39.683,59.126 39.794,60.742 39.906 M315.921 42.911 C 333.885 43.000,357.955 43.123,369.411 43.183 C 380.867 43.244,391.141 43.293,392.243 43.293 L 394.245 43.293 394.069 43.562 C 393.972 43.710,393.893 44.029,393.893 44.271 L 393.893 44.710 337.514 44.710 L 281.134 44.710 281.134 43.729 L 281.134 42.748 282.197 42.748 C 282.782 42.748,297.958 42.821,315.921 42.911 M64.998 44.138 C 65.686 44.498,66.151 45.043,66.358 45.730 L 66.511 46.238 52.129 46.238 L 37.747 46.238 37.836 45.926 C 38.105 44.989,38.860 44.227,39.803 43.940 C 39.953 43.895,45.555 43.853,52.250 43.848 L 64.424 43.839 64.998 44.138 M289.422 46.565 L 289.422 47.764 290.622 47.764 L 291.821 47.764 291.821 46.565 L 291.821 45.365 302.508 45.365 L 313.195 45.365 313.195 46.565 L 313.195 47.764 314.395 47.764 L 315.594 47.764 315.594 46.565 L 315.594 45.365 326.499 45.365 L 337.405 45.365 337.405 46.347 L 337.405 47.328 338.604 47.328 L 339.804 47.328 339.804 46.347 L 339.804 45.365 350.709 45.365 L 361.614 45.365 361.614 46.565 L 361.614 47.764 362.814 47.764 L 364.013 47.764 364.013 46.565 L 364.013 45.365 374.918 45.365 L 385.823 45.365 385.823 46.565 L 385.823 47.764 387.023 47.764 L 388.222 47.764 388.222 46.565 L 388.222 45.365 391.058 45.365 L 393.893 45.365 393.893 55.982 L 393.893 66.599 392.612 66.725 C 391.907 66.794,383.621 67.611,374.197 68.540 C 353.985 70.533,356.630 70.392,356.161 69.502 C 353.770 64.957,349.435 60.638,344.811 58.190 C 329.317 49.990,310.056 57.997,304.966 74.755 L 304.601 75.954 298.893 76.022 C 295.753 76.059,290.368 76.125,286.927 76.169 L 280.669 76.248 280.738 73.266 C 280.775 71.626,280.857 65.327,280.918 59.269 C 280.980 53.212,281.059 47.605,281.094 46.810 L 281.156 45.365 285.289 45.365 L 289.422 45.365 289.422 46.565 M291.167 46.238 L 291.167 47.110 290.622 47.110 L 290.076 47.110 290.076 46.238 L 290.076 45.365 290.622 45.365 L 291.167 45.365 291.167 46.238 M314.940 46.238 L 314.940 47.110 314.395 47.110 L 313.850 47.110 313.850 46.238 L 313.850 45.365 314.395 45.365 L 314.940 45.365 314.940 46.238 M339.149 46.020 L 339.149 46.674 338.604 46.674 L 338.059 46.674 338.059 46.020 L 338.059 45.365 338.604 45.365 L 339.149 45.365 339.149 46.020 M363.359 46.238 L 363.359 47.110 362.814 47.110 L 362.268 47.110 362.268 46.238 L 362.268 45.365 362.814 45.365 L 363.359 45.365 363.359 46.238 M387.568 46.238 L 387.568 47.110 387.023 47.110 L 386.478 47.110 386.478 46.238 L 386.478 45.365 387.023 45.365 L 387.568 45.365 387.568 46.238 M223.230 45.941 C 222.609 46.256,222.434 48.438,222.986 48.988 L 223.234 49.237 239.807 49.265 L 256.379 49.293 256.379 49.837 L 256.379 50.382 260.578 50.382 L 264.776 50.382 264.776 49.842 C 264.776 49.363,264.809 49.287,265.073 49.161 C 265.719 48.851,265.913 46.671,265.346 46.104 L 265.098 45.856 244.299 45.830 C 227.754 45.809,223.445 45.832,223.230 45.941 M264.864 46.587 C 265.024 46.747,265.043 48.376,264.885 48.473 C 264.824 48.511,264.776 48.422,264.776 48.269 C 264.776 47.860,264.594 47.460,264.271 47.160 L 263.981 46.892 260.606 46.892 L 257.230 46.892 256.859 47.263 C 256.545 47.577,256.489 47.710,256.489 48.135 L 256.489 48.637 240.044 48.637 C 227.399 48.637,223.568 48.607,223.468 48.506 C 223.389 48.427,223.337 48.046,223.337 47.546 C 223.337 47.047,223.389 46.666,223.468 46.587 C 223.658 46.396,264.673 46.396,264.864 46.587 M21.807 52.644 C 21.804 57.860,21.788 58.377,21.634 58.179 C 21.542 58.059,20.680 56.843,19.721 55.477 C 18.761 54.111,17.867 52.921,17.733 52.833 C 17.581 52.734,17.436 52.463,17.346 52.110 C 17.040 50.917,16.127 50.382,14.401 50.382 L 13.522 50.382 13.522 48.637 L 13.522 46.892 17.666 46.892 L 21.810 46.892 21.807 52.644 M81.526 50.518 C 81.490 52.512,81.431 55.948,81.394 58.153 L 81.327 62.162 76.977 65.403 L 72.628 68.645 72.628 69.437 L 72.628 70.229 63.749 70.229 L 54.870 70.229 54.813 69.929 C 54.781 69.764,54.725 69.408,54.687 69.138 C 54.554 68.180,54.833 68.266,51.854 68.266 C 49.416 68.266,49.192 68.282,49.143 68.457 C 49.114 68.562,49.029 69.004,48.955 69.438 L 48.820 70.229 40.004 70.229 L 31.189 70.229 31.189 69.421 L 31.189 68.614 26.827 65.487 L 22.465 62.360 22.465 54.626 L 22.465 46.892 52.028 46.892 L 81.592 46.892 81.526 50.518 M90.731 48.092 L 90.731 49.291 89.789 49.291 C 87.778 49.291,86.805 50.137,86.805 51.886 C 86.805 52.342,86.767 52.451,86.588 52.508 C 86.466 52.546,85.427 53.921,84.229 55.627 C 83.051 57.305,82.081 58.663,82.074 58.646 C 82.067 58.629,82.092 56.480,82.129 53.871 C 82.167 51.262,82.204 48.625,82.211 48.010 L 82.225 46.892 86.478 46.892 L 90.731 46.892 90.731 48.092 M263.952 47.789 C 264.071 47.958,264.122 48.288,264.122 48.879 L 264.122 49.727 260.577 49.727 L 257.033 49.727 257.103 48.773 C 257.200 47.439,256.896 47.546,260.585 47.546 C 263.766 47.546,263.784 47.548,263.952 47.789 M196.292 53.885 L 196.292 59.569 195.599 58.819 C 195.218 58.407,194.608 57.726,194.243 57.306 C 192.813 55.662,190.967 54.509,188.877 53.954 L 187.950 53.708 175.682 53.708 L 163.413 53.708 162.595 54.000 C 162.146 54.161,160.011 55.284,157.852 56.497 C 155.692 57.709,153.840 58.725,153.735 58.753 C 153.560 58.800,153.544 58.675,153.544 57.210 L 153.544 55.616 156.116 55.616 L 158.688 55.616 159.497 55.057 L 160.305 54.498 160.305 52.358 L 160.305 50.218 159.642 49.646 L 158.978 49.073 156.207 49.073 L 153.435 49.073 153.435 48.637 L 153.435 48.201 174.864 48.201 L 196.292 48.201 196.292 53.885 M28.953 48.754 C 21.493 49.653,20.808 60.479,28.093 62.348 C 29.098 62.606,74.585 62.651,75.736 62.396 C 82.656 60.858,82.899 50.872,76.063 48.912 C 75.243 48.677,30.831 48.528,28.953 48.754 M74.891 49.401 C 82.326 50.185,82.228 61.097,74.779 61.838 C 73.030 62.012,28.883 61.918,28.247 61.739 C 21.712 59.898,22.304 50.118,28.994 49.408 C 30.217 49.279,73.663 49.272,74.891 49.401 M155.507 52.345 L 155.507 54.962 154.543 54.962 L 153.578 54.962 153.507 53.408 C 153.468 52.553,153.436 51.375,153.436 50.791 L 153.435 49.727 154.471 49.727 L 155.507 49.727 155.507 52.345 M159.176 50.116 L 159.651 50.505 159.651 52.336 L 159.651 54.168 159.053 54.565 C 158.460 54.958,158.445 54.962,157.308 54.962 L 156.161 54.962 156.161 52.345 L 156.161 49.727 157.432 49.727 L 158.702 49.727 159.176 50.116 M72.901 50.050 C 68.409 51.024,66.783 56.348,69.999 59.549 C 73.521 63.055,79.498 60.586,79.498 55.624 C 79.498 52.108,76.213 49.331,72.901 50.050 M93.525 50.170 C 94.092 50.445,94.438 51.076,94.438 51.834 L 94.438 52.345 90.949 52.345 L 87.459 52.345 87.459 51.834 C 87.459 51.083,87.804 50.450,88.364 50.172 C 89.054 49.831,92.821 49.829,93.525 50.170 M29.607 50.131 C 25.108 50.728,23.172 56.415,26.376 59.620 C 29.470 62.713,34.721 61.303,35.820 57.084 C 36.804 53.306,33.504 49.613,29.607 50.131 M74.821 50.711 C 78.708 51.448,80.216 56.285,77.429 59.072 C 74.867 61.634,70.423 60.643,69.265 57.252 C 68.031 53.636,71.113 50.008,74.821 50.711 M31.230 50.825 C 35.159 51.551,36.669 56.209,33.926 59.141 C 31.267 61.983,26.339 60.567,25.531 56.729 C 24.811 53.309,27.818 50.194,31.230 50.825 M199.945 50.891 C 199.620 50.960,198.909 51.278,198.913 51.352 C 198.931 51.701,199.228 51.811,199.708 51.648 C 200.318 51.441,203.756 51.519,204.334 51.753 C 204.710 51.906,205.004 51.664,204.870 51.313 C 204.760 51.029,200.871 50.696,199.945 50.891 M15.880 51.261 C 16.447 51.535,16.794 52.166,16.794 52.924 L 16.794 53.435 13.304 53.435 L 9.815 53.435 9.815 52.924 C 9.815 52.173,10.160 51.540,10.720 51.263 C 11.409 50.921,15.177 50.920,15.880 51.261 M314.743 51.367 C 296.445 51.410,283.047 51.482,282.995 51.539 C 282.833 51.716,281.906 54.469,281.984 54.540 C 282.391 54.911,282.523 54.775,282.925 53.575 C 283.141 52.928,283.360 52.334,283.410 52.255 C 283.503 52.108,333.222 51.923,375.413 51.913 L 391.666 51.908 392.203 52.999 C 392.498 53.599,392.751 54.089,392.766 54.089 C 392.877 54.089,393.347 53.820,393.322 53.771 C 393.305 53.736,393.009 53.156,392.664 52.481 L 392.037 51.254 369.219 51.273 C 356.669 51.284,332.155 51.326,314.743 51.367 M37.623 51.640 C 37.623 51.672,37.697 51.811,37.788 51.950 C 38.998 53.796,39.091 57.046,38.002 59.406 L 37.637 60.196 52.461 60.196 C 60.614 60.196,67.285 60.170,67.285 60.139 C 67.285 60.107,67.138 59.790,66.959 59.435 C 65.898 57.335,65.877 54.705,66.903 52.485 C 67.113 52.031,67.285 51.642,67.285 51.620 C 67.285 51.599,60.611 51.581,52.454 51.581 C 44.297 51.581,37.623 51.608,37.623 51.640 M199.523 52.172 C 198.953 52.383,198.882 52.475,199.076 52.752 C 199.230 52.972,199.263 52.977,199.617 52.829 C 200.140 52.610,203.211 52.611,204.038 52.829 C 204.653 52.992,204.907 52.897,204.907 52.506 C 204.907 52.102,200.457 51.826,199.523 52.172 M66.194 52.287 C 66.194 52.315,66.071 52.715,65.921 53.175 C 65.348 54.930,65.351 56.925,65.928 58.645 C 66.074 59.081,66.194 59.461,66.194 59.490 C 66.194 59.518,60.011 59.542,52.454 59.542 C 44.896 59.542,38.714 59.530,38.714 59.515 C 38.714 59.500,38.837 59.128,38.986 58.689 C 39.591 56.904,39.592 54.891,38.988 53.115 C 38.837 52.670,38.713 52.290,38.713 52.271 C 38.713 52.251,44.896 52.236,52.454 52.236 C 60.011 52.236,66.194 52.259,66.194 52.287 M94.420 54.409 C 94.361 56.729,94.190 56.857,91.098 56.904 C 87.761 56.954,87.459 56.736,87.459 54.273 L 87.459 52.999 90.957 52.999 L 94.456 52.999 94.420 54.409 M200.055 53.182 C 199.724 53.250,198.909 53.556,198.909 53.612 C 198.909 53.965,199.267 54.166,199.596 53.999 C 200.042 53.772,203.596 53.796,204.275 54.030 C 204.655 54.161,204.704 54.156,204.801 53.976 C 205.117 53.384,204.683 53.275,201.636 53.180 C 200.886 53.156,200.174 53.157,200.055 53.182 M9.160 54.750 C 9.160 57.384,9.832 58.451,11.490 58.451 L 11.778 58.451 11.778 59.651 L 11.778 60.851 13.522 60.851 L 15.267 60.851 15.267 59.653 L 15.267 58.455 15.745 58.334 C 17.006 58.017,17.375 57.318,17.448 55.109 L 17.503 53.458 19.656 56.527 L 21.809 59.597 21.810 60.881 L 21.810 62.165 14.204 62.135 L 6.598 62.105 5.966 61.785 C 4.298 60.940,3.980 60.186,3.980 57.067 L 3.980 54.647 4.354 54.262 C 4.949 53.648,6.424 53.252,8.206 53.229 L 9.160 53.217 9.160 54.750 M97.653 53.487 C 99.591 53.907,99.916 54.459,99.870 57.252 C 99.824 59.998,99.323 61.016,97.622 61.814 L 97.001 62.105 89.504 62.135 L 82.007 62.165 82.007 60.737 C 82.007 59.429,82.023 59.314,82.197 59.364 C 82.346 59.407,82.842 58.764,84.460 56.432 C 85.600 54.790,86.594 53.443,86.668 53.440 C 86.768 53.437,86.805 53.702,86.805 54.423 C 86.805 56.226,87.304 57.136,88.471 57.463 L 88.986 57.607 88.986 58.902 L 88.986 60.196 90.731 60.196 L 92.475 60.196 92.475 58.913 L 92.475 57.629 93.145 57.502 C 94.554 57.234,95.020 56.519,95.077 54.538 L 95.116 53.186 96.004 53.254 C 96.492 53.292,97.234 53.397,97.653 53.487 M16.794 55.255 C 16.794 57.555,16.462 57.797,13.304 57.797 C 10.147 57.797,9.815 57.555,9.815 55.255 L 9.815 54.089 13.304 54.089 L 16.794 54.089 16.794 55.255 M43.313 54.389 C 43.344 54.658,43.397 54.693,43.811 54.723 L 44.275 54.756 44.275 55.568 L 44.275 56.379 44.711 56.379 L 45.147 56.379 45.147 55.568 L 45.147 54.756 45.611 54.723 C 46.025 54.693,46.078 54.658,46.109 54.389 L 46.143 54.089 44.711 54.089 L 43.279 54.089 43.313 54.389 M46.724 54.357 C 46.333 54.748,46.333 55.830,46.724 56.221 C 46.964 56.461,47.082 56.489,47.874 56.489 C 49.046 56.489,49.291 56.281,49.291 55.289 C 49.291 54.297,49.046 54.089,47.874 54.089 C 47.082 54.089,46.964 54.117,46.724 54.357 M49.509 54.135 C 49.509 54.160,49.730 54.439,50.000 54.756 C 50.434 55.264,50.491 55.391,50.491 55.855 L 50.491 56.379 50.927 56.379 L 51.363 56.379 51.363 55.855 C 51.363 55.389,51.419 55.265,51.871 54.737 L 52.378 54.144 51.908 54.110 C 51.503 54.080,51.402 54.118,51.183 54.382 L 50.928 54.689 50.700 54.389 C 50.500 54.125,49.509 53.914,49.509 54.135 M52.830 54.357 C 52.439 54.748,52.439 55.830,52.830 56.221 C 53.075 56.466,53.182 56.489,54.089 56.489 C 55.384 56.489,55.616 56.306,55.616 55.289 C 55.616 54.272,55.384 54.089,54.089 54.089 C 53.182 54.089,53.075 54.112,52.830 54.357 M55.766 54.430 C 55.804 54.618,55.834 54.814,55.834 54.866 C 55.834 54.919,56.031 54.962,56.270 54.962 L 56.707 54.962 56.707 55.616 L 56.707 56.270 57.143 56.270 L 57.579 56.270 57.579 55.616 L 57.579 54.962 58.003 54.962 C 58.350 54.962,58.438 54.918,58.492 54.716 C 58.662 54.080,58.683 54.089,57.129 54.089 L 55.698 54.089 55.766 54.430 M59.270 55.141 C 59.000 55.720,58.779 56.211,58.779 56.232 C 58.779 56.253,58.975 56.270,59.215 56.270 C 59.455 56.270,59.651 56.221,59.651 56.161 C 59.651 56.101,59.896 56.052,60.196 56.052 C 60.496 56.052,60.742 56.101,60.742 56.161 C 60.742 56.286,61.504 56.313,61.507 56.189 C 61.507 56.144,61.304 55.653,61.054 55.098 L 60.601 54.089 60.181 54.089 L 59.762 54.089 59.270 55.141 M188.877 54.615 C 190.884 55.228,192.259 56.132,193.899 57.917 C 194.471 58.541,198.679 63.134,203.250 68.124 L 211.559 77.197 211.559 77.750 L 211.559 78.303 209.392 78.274 L 207.224 78.244 199.004 69.470 C 189.353 59.166,189.456 59.259,186.634 58.375 L 185.660 58.070 175.677 58.040 L 165.695 58.009 164.227 58.379 C 161.654 59.028,159.061 60.170,156.948 61.584 C 156.063 62.176,153.905 63.359,153.710 63.359 C 153.679 63.359,153.653 62.512,153.654 61.478 L 153.654 59.597 155.971 58.299 C 157.245 57.586,159.196 56.495,160.305 55.875 C 163.387 54.153,161.758 54.312,176.009 54.341 L 188.059 54.365 188.877 54.615 M199.464 54.501 C 198.919 54.714,198.851 54.820,199.072 55.112 C 199.220 55.308,199.247 55.309,199.685 55.133 C 200.215 54.921,203.720 54.956,204.308 55.180 C 204.638 55.306,204.966 55.087,204.873 54.803 C 204.733 54.372,200.411 54.132,199.464 54.501 M208.580 54.441 C 207.529 54.719,207.026 56.832,207.583 58.623 C 207.821 59.387,210.670 62.981,211.324 63.343 C 212.717 64.112,213.789 64.102,214.260 63.314 L 214.613 62.725 214.613 59.107 L 214.613 55.489 214.234 55.027 C 213.930 54.656,213.745 54.539,213.299 54.436 C 212.623 54.280,209.172 54.284,208.580 54.441 M48.419 55.289 C 48.419 55.609,48.407 55.616,47.874 55.616 C 47.340 55.616,47.328 55.609,47.328 55.289 C 47.328 54.969,47.340 54.962,47.874 54.962 C 48.407 54.962,48.419 54.969,48.419 55.289 M54.744 55.289 L 54.744 55.616 54.089 55.616 L 53.435 55.616 53.435 55.289 L 53.435 54.962 54.089 54.962 L 54.744 54.962 54.744 55.289 M213.624 55.337 L 213.959 55.657 213.958 59.099 C 213.958 63.244,213.936 63.333,212.956 63.203 C 211.808 63.050,211.393 62.720,209.814 60.702 C 208.081 58.486,208.070 58.462,208.070 56.972 C 208.070 55.010,208.147 54.961,211.198 54.994 L 213.290 55.016 213.624 55.337 M199.487 55.652 C 198.967 55.842,198.883 55.966,199.080 56.247 C 199.238 56.473,199.268 56.478,199.564 56.325 C 200.002 56.098,203.442 56.092,204.187 56.316 C 204.745 56.484,205.224 56.098,204.792 55.830 C 204.267 55.504,200.258 55.369,199.487 55.652 M336.124 55.928 C 344.491 57.427,351.601 62.427,355.391 69.479 L 355.838 70.310 355.495 70.379 C 355.307 70.416,354.939 70.447,354.677 70.447 L 354.201 70.447 353.806 69.662 C 347.903 57.940,332.252 53.376,319.635 59.698 C 313.232 62.906,308.253 68.979,306.865 75.273 L 306.726 75.900 306.035 75.900 C 305.655 75.900,305.344 75.861,305.344 75.814 C 305.344 75.579,306.060 73.481,306.495 72.444 C 310.414 63.089,318.738 56.922,329.117 55.684 C 330.273 55.546,334.887 55.707,336.124 55.928 M199.891 56.666 C 198.955 56.985,198.835 57.090,199.067 57.396 C 199.208 57.582,199.247 57.584,199.725 57.422 C 200.338 57.214,203.740 57.292,204.322 57.528 C 204.673 57.670,205.048 57.349,204.868 57.059 C 204.703 56.791,200.498 56.459,199.891 56.666 M91.821 58.561 L 91.821 59.542 90.731 59.542 L 89.640 59.542 89.640 58.561 L 89.640 57.579 90.731 57.579 L 91.821 57.579 91.821 58.561 M199.891 57.756 C 198.955 58.075,198.835 58.181,199.067 58.486 C 199.208 58.672,199.249 58.674,199.717 58.515 C 200.324 58.309,203.747 58.386,204.322 58.619 C 204.673 58.761,205.048 58.440,204.868 58.150 C 204.703 57.882,200.498 57.550,199.891 57.756 M225.996 58.485 C 227.358 58.925,227.578 60.030,226.408 60.554 C 225.808 60.823,224.048 60.925,222.196 60.799 L 221.047 60.721 221.047 59.464 L 221.047 58.208 223.255 58.261 C 224.847 58.298,225.612 58.361,225.996 58.485 M14.613 59.324 L 14.613 60.196 13.522 60.196 L 12.432 60.196 12.432 59.324 L 12.432 58.451 13.522 58.451 L 14.613 58.451 14.613 59.324 M152.999 61.723 L 152.999 63.468 151.511 63.468 L 150.023 63.468 150.084 62.581 C 150.122 62.022,150.203 61.636,150.303 61.537 C 150.425 61.414,152.845 60.005,152.972 59.983 C 152.987 59.980,152.999 60.763,152.999 61.723 M332.170 60.851 C 332.170 61.214,332.206 61.287,332.388 61.287 C 332.570 61.287,332.606 61.214,332.606 60.851 L 332.606 60.414 333.315 60.414 L 334.024 60.414 334.024 60.839 C 334.024 61.103,334.082 61.286,334.177 61.322 C 334.394 61.405,334.460 61.303,334.460 60.887 C 334.460 60.488,334.644 60.439,335.559 60.590 C 335.936 60.653,335.949 60.671,335.941 61.107 C 335.930 61.682,336.240 61.762,336.294 61.199 C 336.313 61.000,336.387 60.817,336.458 60.792 C 336.654 60.722,337.788 61.015,337.771 61.131 C 337.763 61.187,337.722 61.392,337.680 61.587 C 337.615 61.895,337.634 61.941,337.827 61.941 C 337.994 61.941,338.067 61.847,338.121 61.559 C 338.204 61.118,338.186 61.121,339.046 61.360 C 339.561 61.504,339.689 61.580,339.637 61.715 C 339.341 62.479,339.649 62.850,339.960 62.104 L 340.120 61.722 340.698 61.948 C 341.453 62.244,341.473 62.271,341.281 62.729 C 341.134 63.082,341.135 63.126,341.294 63.187 C 341.501 63.266,341.472 63.290,341.701 62.841 C 341.915 62.421,341.876 62.427,342.453 62.718 C 343.176 63.082,343.202 63.117,343.018 63.473 C 342.816 63.865,342.816 63.974,343.020 64.052 C 343.128 64.094,343.243 63.996,343.361 63.764 C 343.459 63.571,343.553 63.397,343.571 63.377 C 343.588 63.357,343.879 63.517,344.216 63.733 C 344.838 64.131,344.858 64.185,344.516 64.584 C 344.380 64.742,344.377 64.801,344.500 64.948 C 344.631 65.106,344.675 65.088,344.937 64.767 L 345.228 64.410 345.791 64.823 L 346.354 65.237 346.081 65.595 C 345.670 66.134,345.991 66.399,346.433 65.887 L 346.728 65.546 347.262 66.038 L 347.796 66.531 347.491 66.849 C 347.009 67.352,347.317 67.662,347.817 67.178 L 348.162 66.843 348.638 67.407 L 349.113 67.971 348.816 68.208 C 348.617 68.367,348.543 68.505,348.590 68.628 C 348.682 68.867,348.778 68.859,349.019 68.593 C 349.315 68.266,349.458 68.321,349.933 68.944 L 350.367 69.513 350.049 69.735 C 349.874 69.857,349.730 70.015,349.729 70.086 C 349.726 70.339,349.951 70.349,350.285 70.111 C 350.660 69.844,350.605 69.808,351.116 70.658 C 351.311 70.981,351.364 71.156,351.278 71.184 C 351.206 71.208,351.037 71.318,350.901 71.429 C 350.530 71.733,350.783 71.945,351.236 71.710 C 351.681 71.480,351.649 71.464,351.961 72.079 C 352.271 72.691,352.298 72.846,352.093 72.846 C 351.829 72.846,351.543 73.133,351.616 73.325 C 351.680 73.492,351.714 73.494,352.010 73.341 C 352.462 73.107,352.485 73.117,352.695 73.637 C 353.050 74.516,353.053 74.470,352.633 74.646 C 351.921 74.943,352.299 75.247,353.031 74.966 C 353.147 74.922,353.241 75.048,353.368 75.422 C 353.566 76.004,353.593 76.336,353.442 76.336 C 353.133 76.336,352.790 76.560,352.852 76.721 C 352.904 76.857,353.010 76.880,353.334 76.825 C 353.743 76.756,353.751 76.762,353.854 77.173 C 354.119 78.232,354.132 78.163,353.653 78.244 C 353.413 78.285,353.217 78.334,353.217 78.354 C 353.217 78.631,353.385 78.728,353.757 78.669 L 354.166 78.603 354.237 79.121 C 354.356 79.989,354.344 80.027,353.926 80.105 C 353.320 80.219,353.373 80.644,353.980 80.547 L 354.417 80.477 354.417 81.242 L 354.417 82.007 354.035 82.007 C 353.726 82.007,353.653 82.048,353.653 82.225 C 353.653 82.401,353.726 82.443,354.035 82.443 L 354.417 82.443 354.417 83.152 L 354.417 83.860 353.980 83.860 C 353.617 83.860,353.544 83.897,353.544 84.079 C 353.544 84.255,353.617 84.297,353.926 84.297 C 354.348 84.297,354.384 84.417,354.236 85.317 C 354.167 85.735,354.164 85.737,353.746 85.670 C 353.152 85.575,353.117 85.992,353.710 86.104 C 354.085 86.174,354.093 86.186,354.020 86.572 C 353.849 87.488,353.832 87.514,353.374 87.514 C 352.790 87.514,352.708 87.837,353.266 87.942 C 353.479 87.982,353.649 88.073,353.645 88.146 C 353.621 88.510,353.231 89.366,353.096 89.350 C 353.013 89.341,352.824 89.316,352.676 89.296 C 352.242 89.235,352.270 89.569,352.714 89.730 L 353.090 89.866 352.815 90.544 C 352.478 91.377,352.551 91.319,352.084 91.124 C 351.867 91.034,351.690 90.978,351.690 91.000 C 351.690 91.022,351.660 91.118,351.624 91.214 C 351.576 91.339,351.652 91.421,351.896 91.506 C 352.306 91.649,352.309 91.684,351.961 92.370 C 351.669 92.947,351.547 93.006,351.181 92.750 C 350.976 92.607,350.934 92.608,350.807 92.761 C 350.689 92.904,350.692 92.948,350.823 93.024 C 351.405 93.358,351.408 93.370,351.029 93.980 C 350.630 94.622,350.642 94.617,350.275 94.335 C 350.079 94.184,349.966 94.158,349.866 94.241 C 349.658 94.413,349.694 94.505,350.061 94.737 L 350.394 94.948 349.947 95.514 C 349.498 96.082,349.433 96.101,349.053 95.774 C 348.861 95.610,348.637 95.670,348.637 95.886 C 348.637 95.955,348.761 96.111,348.914 96.234 L 349.190 96.456 348.706 97.001 L 348.222 97.546 347.901 97.242 C 347.430 96.796,347.135 97.114,347.585 97.584 L 347.874 97.886 347.574 98.156 C 346.751 98.894,346.815 98.871,346.471 98.542 C 346.056 98.145,345.775 98.381,346.128 98.829 C 346.415 99.194,346.424 99.168,345.840 99.613 C 345.237 100.074,345.225 100.076,345.038 99.727 C 344.888 99.446,344.666 99.372,344.548 99.564 C 344.511 99.623,344.566 99.818,344.672 99.996 C 344.777 100.175,344.841 100.340,344.814 100.364 C 344.787 100.389,344.522 100.558,344.225 100.742 L 343.685 101.075 343.491 100.755 C 343.162 100.216,342.836 100.414,343.127 100.976 L 343.297 101.304 342.643 101.634 L 341.990 101.963 341.821 101.636 C 341.662 101.327,341.452 101.223,341.298 101.377 C 341.261 101.415,341.305 101.591,341.397 101.769 C 341.596 102.152,341.590 102.160,340.863 102.467 C 340.214 102.741,340.173 102.732,340.076 102.289 C 340.000 101.942,339.947 101.910,339.707 102.062 C 339.587 102.138,339.581 102.229,339.676 102.501 C 339.767 102.763,339.764 102.857,339.663 102.893 C 338.373 103.359,338.412 103.359,338.324 102.890 C 338.285 102.680,338.221 102.509,338.183 102.510 C 337.975 102.515,337.860 102.716,337.876 103.044 C 337.897 103.443,337.854 103.471,336.941 103.641 C 336.565 103.711,336.532 103.697,336.531 103.467 C 336.528 103.134,336.374 102.906,336.192 102.967 C 336.095 102.999,336.055 103.150,336.077 103.402 C 336.113 103.823,335.910 103.926,335.046 103.926 C 334.698 103.926,334.678 103.905,334.678 103.544 C 334.678 103.235,334.637 103.162,334.460 103.162 C 334.278 103.162,334.242 103.235,334.242 103.599 L 334.242 104.035 333.533 104.035 L 332.824 104.035 332.824 103.653 C 332.824 103.344,332.783 103.272,332.606 103.272 C 332.430 103.272,332.388 103.344,332.388 103.653 L 332.388 104.035 331.635 104.035 L 330.882 104.035 330.941 103.599 C 330.993 103.208,330.975 103.162,330.767 103.162 C 330.581 103.162,330.534 103.228,330.534 103.493 C 330.534 103.905,330.372 103.972,329.606 103.876 L 329.008 103.801 329.076 103.373 C 329.172 102.771,328.746 102.727,328.633 103.327 C 328.555 103.745,328.611 103.737,327.571 103.477 C 327.183 103.380,327.173 103.366,327.270 103.030 C 327.341 102.781,327.331 102.659,327.234 102.597 C 327.004 102.451,326.932 102.497,326.864 102.838 C 326.776 103.278,326.722 103.296,326.104 103.091 C 325.417 102.864,325.378 102.822,325.518 102.453 C 325.608 102.217,325.602 102.124,325.495 102.055 C 325.275 101.916,325.243 101.939,325.100 102.336 L 324.965 102.708 324.342 102.452 C 323.712 102.193,323.684 102.148,323.827 101.609 C 323.944 101.162,323.538 101.191,323.368 101.641 L 323.243 101.974 322.575 101.636 L 321.907 101.299 322.140 100.922 C 322.268 100.715,322.349 100.545,322.319 100.545 C 322.289 100.545,322.189 100.516,322.096 100.481 C 321.986 100.438,321.860 100.528,321.729 100.744 L 321.529 101.072 320.950 100.706 C 320.190 100.227,320.210 100.262,320.475 99.904 C 320.646 99.672,320.673 99.561,320.581 99.469 C 320.396 99.284,320.325 99.314,320.094 99.679 L 319.883 100.013 319.319 99.567 L 318.755 99.121 318.995 98.796 C 319.347 98.321,319.097 98.084,318.682 98.499 L 318.392 98.789 317.859 98.343 L 317.327 97.898 317.618 97.595 C 318.083 97.109,317.748 96.839,317.254 97.301 L 316.991 97.546 316.525 97.010 L 316.058 96.473 316.379 96.203 C 316.668 95.960,316.683 95.917,316.531 95.764 C 316.379 95.612,316.334 95.622,316.076 95.862 L 315.790 96.129 315.366 95.638 C 314.859 95.053,314.858 95.044,315.240 94.713 C 315.661 94.349,315.442 94.105,314.953 94.393 C 314.770 94.502,314.601 94.569,314.579 94.542 C 313.868 93.679,313.761 93.302,314.177 93.130 C 314.527 92.985,314.552 92.939,314.408 92.711 C 314.331 92.589,314.256 92.594,313.978 92.738 C 313.531 92.969,313.564 92.986,313.252 92.370 C 312.906 91.688,312.908 91.658,313.304 91.494 C 313.654 91.349,313.680 91.303,313.535 91.075 C 313.459 90.954,313.380 90.960,313.090 91.110 C 312.897 91.210,312.727 91.276,312.714 91.257 C 312.656 91.176,312.214 90.085,312.214 90.023 C 312.214 89.986,312.361 89.905,312.541 89.842 C 312.758 89.766,312.868 89.654,312.868 89.509 C 312.868 89.289,312.703 89.283,312.176 89.485 C 312.048 89.534,311.959 89.388,311.796 88.859 L 311.583 88.168 311.953 88.075 C 312.539 87.929,312.483 87.522,311.891 87.622 C 311.482 87.691,311.455 87.678,311.390 87.386 C 311.351 87.216,311.281 86.921,311.233 86.730 C 311.133 86.336,311.175 86.260,311.496 86.258 C 311.823 86.255,312.013 86.105,311.937 85.908 C 311.888 85.778,311.769 85.751,311.443 85.795 C 311.048 85.848,311.014 85.832,311.013 85.592 C 311.012 85.449,310.982 85.152,310.945 84.932 C 310.881 84.540,310.888 84.530,311.247 84.495 C 311.518 84.469,311.622 84.402,311.646 84.239 C 311.674 84.042,311.628 84.022,311.237 84.059 L 310.796 84.101 310.796 83.381 L 310.796 82.661 311.232 82.661 C 311.596 82.661,311.668 82.625,311.668 82.443 C 311.668 82.261,311.596 82.225,311.232 82.225 L 310.796 82.225 310.796 81.516 L 310.796 80.807 311.232 80.807 C 311.596 80.807,311.668 80.771,311.668 80.589 C 311.668 80.412,311.596 80.371,311.287 80.371 C 310.867 80.371,310.819 80.199,310.973 79.265 C 311.038 78.875,311.046 78.869,311.463 78.925 C 311.840 78.976,311.887 78.956,311.887 78.749 C 311.887 78.581,311.818 78.516,311.641 78.515 C 311.168 78.512,311.117 78.402,311.254 77.669 C 311.371 77.039,311.395 77.000,311.636 77.060 C 312.107 77.178,312.260 77.156,312.300 76.962 C 312.329 76.821,312.249 76.752,312.002 76.702 C 311.545 76.611,311.524 76.546,311.727 75.849 C 311.908 75.225,311.994 75.167,312.470 75.348 C 312.682 75.429,312.755 75.413,312.808 75.275 C 312.881 75.085,312.739 74.955,312.347 74.850 C 312.073 74.777,312.080 74.704,312.445 73.851 L 312.646 73.384 312.978 73.556 C 313.161 73.650,313.358 73.698,313.417 73.662 C 313.622 73.535,313.519 73.307,313.195 73.173 C 313.015 73.099,312.868 72.993,312.868 72.938 C 312.868 72.757,313.423 71.741,313.501 71.779 C 313.543 71.800,313.713 71.885,313.880 71.969 C 314.121 72.090,314.210 72.093,314.316 71.985 C 314.454 71.846,314.401 71.782,313.888 71.472 C 313.674 71.343,313.802 70.979,314.290 70.332 L 314.473 70.090 314.821 70.348 C 315.117 70.567,315.185 70.581,315.271 70.444 C 315.395 70.249,315.404 70.121,315.294 70.118 C 315.249 70.116,315.096 70.025,314.953 69.916 L 314.694 69.716 315.113 69.155 C 315.588 68.518,315.598 68.514,315.867 68.811 C 316.089 69.056,316.306 69.092,316.423 68.903 C 316.468 68.830,316.378 68.670,316.212 68.526 C 315.832 68.200,315.837 68.176,316.410 67.614 L 316.899 67.134 317.153 67.373 C 317.647 67.837,317.966 67.550,317.499 67.062 L 317.198 66.749 317.732 66.259 L 318.266 65.769 318.549 66.107 C 318.713 66.303,318.886 66.413,318.958 66.368 C 319.147 66.251,319.111 66.074,318.839 65.781 L 318.593 65.518 319.084 65.093 C 319.672 64.584,319.732 64.577,320.006 64.987 C 320.178 65.243,320.258 65.285,320.419 65.199 C 320.609 65.097,320.608 65.079,320.396 64.781 C 320.086 64.346,320.106 64.292,320.721 63.913 C 321.385 63.505,321.332 63.506,321.538 63.904 C 321.717 64.251,321.780 64.282,322.007 64.137 C 322.121 64.065,322.105 63.971,321.931 63.676 L 321.713 63.304 322.364 62.944 L 323.016 62.583 323.178 62.971 C 323.353 63.391,323.351 63.389,323.592 63.296 C 323.736 63.241,323.737 63.189,323.594 62.848 C 323.404 62.392,323.360 62.452,324.136 62.108 C 324.903 61.769,324.822 61.758,324.975 62.220 C 325.063 62.488,325.158 62.596,325.283 62.570 C 325.464 62.532,325.473 62.451,325.349 61.936 C 325.288 61.679,325.327 61.645,325.892 61.467 C 326.592 61.246,326.665 61.268,326.757 61.729 C 326.806 61.976,326.876 62.056,327.016 62.027 C 327.210 61.987,327.233 61.834,327.114 61.363 C 327.055 61.128,327.098 61.094,327.601 60.978 C 328.396 60.794,328.444 60.808,328.524 61.232 C 328.636 61.829,329.063 61.788,328.968 61.189 C 328.889 60.700,328.906 60.688,329.808 60.575 L 330.425 60.498 330.425 60.947 C 330.425 61.323,330.461 61.396,330.643 61.396 C 330.829 61.396,330.862 61.323,330.862 60.905 L 330.862 60.414 331.516 60.414 L 332.170 60.414 332.170 60.851 M174.482 61.287 C 174.482 61.650,174.518 61.723,174.700 61.723 C 174.882 61.723,174.918 61.650,174.918 61.287 L 174.918 60.851 175.436 60.852 C 176.119 60.854,176.268 60.959,176.204 61.394 C 176.169 61.634,176.202 61.762,176.310 61.804 C 176.511 61.881,176.659 61.646,176.661 61.245 C 176.663 60.933,176.668 60.931,177.169 60.999 C 177.447 61.037,177.773 61.069,177.893 61.069 C 178.088 61.069,178.103 61.119,178.043 61.559 C 177.962 62.149,178.345 62.320,178.469 61.750 C 178.594 61.180,178.565 61.196,179.244 61.335 L 179.880 61.464 179.852 61.909 C 179.832 62.227,179.872 62.372,179.992 62.418 C 180.159 62.482,180.371 62.120,180.371 61.770 C 180.371 61.576,180.320 61.572,181.171 61.834 L 181.884 62.055 181.727 62.431 C 181.530 62.902,181.529 62.886,181.784 62.953 C 181.951 62.997,182.024 62.928,182.119 62.639 C 182.262 62.206,182.355 62.192,183.059 62.493 C 183.719 62.776,183.690 62.733,183.482 63.134 C 183.385 63.321,183.336 63.522,183.372 63.580 C 183.502 63.791,183.715 63.678,183.894 63.302 L 184.077 62.919 184.733 63.250 L 185.389 63.581 185.168 64.015 C 185.046 64.254,184.968 64.449,184.994 64.449 C 185.021 64.449,185.116 64.478,185.207 64.513 C 185.317 64.555,185.431 64.463,185.546 64.240 C 185.764 63.820,185.818 63.821,186.483 64.269 L 187.026 64.634 186.806 64.914 C 186.375 65.462,186.683 65.762,187.124 65.223 L 187.410 64.872 187.925 65.265 C 188.516 65.716,188.522 65.734,188.206 66.136 C 188.013 66.382,187.998 66.451,188.124 66.530 C 188.351 66.674,188.398 66.656,188.594 66.358 C 188.829 66.000,188.867 66.007,189.467 66.536 L 189.980 66.987 189.684 67.295 C 189.231 67.769,189.519 68.095,189.991 67.643 L 190.309 67.339 190.812 67.871 L 191.315 68.404 190.958 68.695 C 190.637 68.957,190.619 69.000,190.778 69.133 C 190.929 69.258,190.991 69.246,191.204 69.045 C 191.552 68.719,191.613 68.741,192.071 69.354 C 192.560 70.010,192.561 70.022,192.137 70.273 C 191.829 70.455,191.815 70.487,191.972 70.645 C 192.130 70.803,192.174 70.796,192.473 70.575 L 192.802 70.332 193.197 70.950 C 193.508 71.437,193.561 71.587,193.443 71.655 C 193.028 71.893,192.904 72.044,192.972 72.223 C 193.040 72.399,193.072 72.396,193.420 72.181 C 193.627 72.053,193.812 71.967,193.831 71.989 C 193.923 72.090,194.449 73.199,194.418 73.225 C 194.399 73.241,194.226 73.335,194.033 73.433 C 193.801 73.551,193.704 73.666,193.745 73.774 C 193.823 73.979,193.932 73.978,194.330 73.773 L 194.646 73.609 194.859 74.090 C 195.246 74.965,195.246 75.000,194.880 75.081 C 194.503 75.164,194.411 75.265,194.501 75.500 C 194.556 75.644,194.619 75.647,194.976 75.521 L 195.387 75.376 195.567 75.947 C 195.809 76.714,195.804 76.736,195.365 76.881 C 194.949 77.019,194.956 77.010,195.046 77.243 C 195.095 77.373,195.184 77.384,195.492 77.299 C 195.962 77.169,195.937 77.143,196.091 77.909 C 196.229 78.597,196.160 78.730,195.665 78.733 C 195.488 78.735,195.420 78.800,195.420 78.967 C 195.420 79.176,195.465 79.194,195.856 79.141 C 196.373 79.072,196.353 79.046,196.447 79.907 L 196.521 80.589 196.080 80.589 C 195.607 80.589,195.604 80.591,195.704 80.853 C 195.749 80.969,195.908 81.025,196.195 81.025 L 196.619 81.025 196.619 81.734 L 196.619 82.443 196.183 82.443 C 195.820 82.443,195.747 82.479,195.747 82.661 C 195.747 82.843,195.820 82.879,196.183 82.879 L 196.619 82.879 196.619 83.588 L 196.619 84.297 196.183 84.297 C 195.820 84.297,195.747 84.333,195.747 84.515 C 195.747 84.693,195.820 84.733,196.144 84.733 L 196.540 84.733 196.471 85.239 C 196.433 85.517,196.401 85.841,196.401 85.959 C 196.401 86.143,196.340 86.168,195.971 86.132 C 195.437 86.081,195.230 86.433,195.730 86.542 C 196.299 86.666,196.286 86.640,196.124 87.316 C 196.041 87.665,195.971 87.983,195.969 88.024 C 195.967 88.065,195.806 88.053,195.611 87.997 C 195.125 87.857,195.093 87.865,195.093 88.116 C 195.093 88.275,195.186 88.356,195.422 88.403 C 195.857 88.490,195.861 88.507,195.647 89.204 C 195.457 89.821,195.403 89.856,194.824 89.738 C 194.444 89.661,194.481 90.064,194.866 90.199 C 195.267 90.339,195.268 90.344,194.956 91.114 C 194.732 91.669,194.688 91.714,194.438 91.649 C 193.968 91.526,193.848 91.543,193.808 91.739 C 193.785 91.848,193.833 91.930,193.919 91.930 C 194.372 91.930,194.475 92.194,194.219 92.701 C 193.837 93.459,193.806 93.482,193.446 93.269 C 193.191 93.119,193.106 93.110,192.995 93.223 C 192.858 93.362,192.973 93.506,193.437 93.773 C 193.547 93.836,193.499 93.986,193.230 94.420 C 192.841 95.044,192.805 95.061,192.412 94.804 C 191.978 94.520,191.771 94.807,192.176 95.132 C 192.557 95.439,192.556 95.452,192.063 96.070 L 191.651 96.588 191.301 96.318 C 190.847 95.968,190.660 96.251,191.063 96.680 L 191.314 96.947 190.990 97.347 C 190.488 97.967,190.351 98.019,190.025 97.713 C 189.595 97.309,189.379 97.593,189.789 98.022 L 190.090 98.336 189.511 98.844 L 188.931 99.353 188.691 99.077 C 188.271 98.593,187.940 98.818,188.335 99.319 L 188.570 99.618 188.096 100.027 C 187.530 100.516,187.434 100.527,187.148 100.136 C 186.822 99.691,186.560 99.959,186.847 100.445 C 187.071 100.824,187.059 100.841,186.237 101.306 L 185.833 101.535 185.658 101.197 C 185.366 100.631,185.119 100.924,185.330 101.587 C 185.389 101.773,185.309 101.862,184.862 102.105 C 184.184 102.474,184.135 102.472,183.969 102.072 C 183.824 101.722,183.778 101.696,183.550 101.841 C 183.429 101.918,183.435 101.995,183.582 102.279 L 183.761 102.625 183.153 102.894 C 182.390 103.231,182.420 103.235,182.225 102.781 C 181.995 102.246,181.689 102.413,181.863 102.978 L 181.978 103.355 181.329 103.551 C 180.638 103.760,180.486 103.705,180.481 103.244 C 180.480 103.123,180.395 103.053,180.248 103.053 C 180.040 103.053,180.023 103.097,180.083 103.471 L 180.149 103.889 179.597 104.017 C 178.810 104.198,178.767 104.186,178.688 103.762 C 178.610 103.346,178.614 103.350,178.360 103.448 C 178.226 103.499,178.201 103.602,178.253 103.879 C 178.328 104.280,178.332 104.277,177.345 104.411 L 176.881 104.474 176.881 104.091 C 176.881 103.780,176.840 103.708,176.663 103.708 C 176.488 103.708,176.445 103.780,176.445 104.075 C 176.445 104.415,176.414 104.448,176.036 104.510 C 175.057 104.672,174.918 104.626,174.918 104.144 C 174.918 103.780,174.882 103.708,174.700 103.708 C 174.518 103.708,174.482 103.780,174.482 104.144 C 174.482 104.630,174.471 104.634,173.559 104.509 C 173.043 104.438,173.041 104.437,173.100 104.073 C 173.150 103.770,173.126 103.708,172.960 103.708 C 172.751 103.708,172.628 103.911,172.628 104.259 C 172.628 104.423,172.566 104.456,172.328 104.418 C 172.163 104.392,171.843 104.342,171.615 104.306 C 171.217 104.244,171.204 104.228,171.234 103.842 C 171.278 103.271,170.928 103.197,170.823 103.755 C 170.783 103.969,170.715 104.144,170.671 104.144 C 170.433 104.144,169.357 103.885,169.357 103.828 C 169.357 103.791,169.401 103.606,169.455 103.417 C 169.540 103.122,169.524 103.066,169.342 103.018 C 169.175 102.974,169.116 103.032,169.065 103.283 C 168.978 103.721,168.908 103.742,168.206 103.538 C 167.563 103.351,167.544 103.314,167.781 102.696 C 167.819 102.597,167.760 102.515,167.623 102.479 C 167.448 102.434,167.378 102.499,167.278 102.800 C 167.186 103.081,167.108 103.161,166.974 103.112 C 165.935 102.732,165.854 102.677,165.919 102.399 C 166.039 101.889,166.031 101.808,165.855 101.771 C 165.744 101.748,165.629 101.856,165.542 102.067 C 165.466 102.250,165.384 102.399,165.359 102.399 C 165.312 102.399,164.202 101.850,164.141 101.796 C 164.122 101.779,164.188 101.607,164.288 101.413 C 164.438 101.123,164.444 101.045,164.323 100.968 C 164.181 100.876,163.869 101.140,163.771 101.436 C 163.727 101.568,162.486 100.837,162.486 100.680 C 162.486 100.633,162.566 100.480,162.663 100.341 C 162.822 100.115,162.823 100.072,162.674 99.923 C 162.525 99.774,162.496 99.778,162.392 99.960 C 162.088 100.493,162.100 100.491,161.515 100.062 C 160.877 99.593,160.892 99.630,161.178 99.266 C 161.533 98.815,161.249 98.582,160.833 98.981 L 160.521 99.280 160.032 98.800 L 159.543 98.320 159.820 98.032 C 160.223 97.611,159.906 97.316,159.481 97.716 L 159.208 97.973 158.700 97.465 L 158.192 96.956 158.485 96.725 C 158.818 96.463,158.855 96.315,158.610 96.221 C 158.513 96.184,158.332 96.257,158.190 96.390 L 157.940 96.625 157.489 96.050 C 157.009 95.437,157.011 95.419,157.574 95.096 C 157.706 95.020,157.708 94.976,157.589 94.832 C 157.459 94.676,157.414 94.681,157.119 94.891 C 156.757 95.149,156.809 95.183,156.310 94.354 C 156.010 93.857,156.056 93.649,156.498 93.508 C 156.668 93.455,156.685 93.402,156.591 93.227 C 156.476 93.012,156.473 93.012,156.115 93.234 L 155.755 93.456 155.408 92.806 L 155.062 92.155 155.447 91.994 C 155.863 91.820,155.904 91.411,155.492 91.540 C 155.380 91.575,155.198 91.631,155.088 91.666 C 154.928 91.716,154.839 91.618,154.652 91.182 C 154.349 90.479,154.353 90.447,154.752 90.308 C 155.138 90.173,155.174 89.770,154.794 89.847 C 154.231 89.962,154.173 89.925,153.967 89.327 C 153.737 88.655,153.754 88.593,154.200 88.495 C 154.508 88.427,154.635 88.194,154.432 88.068 C 154.381 88.037,154.185 88.055,153.998 88.108 C 153.629 88.214,153.644 88.239,153.392 87.116 C 153.324 86.813,153.461 86.696,153.880 86.696 C 154.021 86.696,154.089 86.620,154.089 86.463 C 154.089 86.256,154.043 86.237,153.666 86.288 C 153.249 86.344,153.241 86.338,153.176 85.948 C 153.031 85.073,153.070 84.951,153.490 84.951 C 153.799 84.951,153.871 84.909,153.871 84.733 C 153.871 84.551,153.799 84.515,153.435 84.515 L 152.999 84.515 152.999 83.806 L 152.999 83.097 153.381 83.097 C 153.690 83.097,153.762 83.056,153.762 82.879 C 153.762 82.702,153.690 82.661,153.381 82.661 L 152.999 82.661 152.999 81.944 L 152.999 81.226 153.399 81.261 C 153.664 81.284,153.816 81.245,153.849 81.148 C 153.912 80.958,153.678 80.811,153.309 80.809 C 153.033 80.807,153.022 80.785,153.071 80.344 C 153.178 79.361,153.182 79.356,153.659 79.420 C 154.022 79.469,154.089 79.447,154.089 79.282 C 154.089 79.075,153.884 78.953,153.535 78.953 C 153.293 78.953,153.282 78.842,153.447 78.074 L 153.567 77.511 153.992 77.579 C 154.226 77.617,154.417 77.626,154.417 77.600 C 154.417 77.574,154.444 77.482,154.478 77.394 C 154.522 77.280,154.430 77.215,154.150 77.162 C 153.702 77.078,153.675 76.957,153.936 76.192 C 154.124 75.639,154.147 75.626,154.591 75.795 C 154.816 75.880,154.911 75.874,154.978 75.768 C 155.118 75.547,155.095 75.516,154.689 75.369 C 154.240 75.207,154.241 75.216,154.540 74.497 C 154.796 73.882,154.831 73.863,155.284 74.098 C 155.561 74.241,155.602 74.240,155.660 74.088 C 155.748 73.859,155.681 73.772,155.296 73.612 L 154.970 73.478 155.298 72.829 L 155.625 72.180 155.995 72.408 C 156.342 72.623,156.370 72.625,156.471 72.445 C 156.558 72.290,156.510 72.212,156.213 72.032 L 155.847 71.810 156.231 71.182 L 156.616 70.555 156.924 70.773 C 157.501 71.184,157.756 70.896,157.219 70.440 L 156.890 70.161 157.307 69.603 L 157.723 69.045 158.073 69.312 C 158.548 69.674,158.825 69.431,158.396 69.028 C 158.030 68.684,158.047 68.605,158.614 68.049 L 159.103 67.569 159.415 67.867 C 159.870 68.303,160.145 68.000,159.715 67.536 L 159.433 67.233 159.921 66.745 L 160.409 66.257 160.739 66.574 C 161.181 66.996,161.431 66.812,161.082 66.322 C 160.782 65.901,160.769 65.939,161.366 65.484 L 161.881 65.090 162.156 65.423 C 162.626 65.990,162.874 65.644,162.431 65.039 C 162.272 64.820,162.291 64.792,162.864 64.412 C 163.585 63.933,163.485 63.935,163.731 64.391 C 163.899 64.703,163.968 64.750,164.133 64.662 C 164.323 64.560,164.322 64.539,164.104 64.171 C 163.979 63.959,163.895 63.769,163.918 63.749 C 163.988 63.685,165.094 63.141,165.152 63.141 C 165.182 63.141,165.295 63.311,165.401 63.518 C 165.681 64.064,165.984 63.887,165.772 63.302 C 165.604 62.837,165.572 62.886,166.233 62.602 C 166.936 62.301,167.029 62.315,167.172 62.748 C 167.267 63.037,167.340 63.106,167.507 63.062 C 167.762 62.995,167.758 63.038,167.558 62.560 C 167.469 62.346,167.432 62.149,167.476 62.122 C 167.550 62.077,168.701 61.723,168.772 61.723 C 168.789 61.723,168.855 61.915,168.918 62.149 C 169.012 62.499,169.071 62.564,169.252 62.517 C 169.420 62.473,169.454 62.405,169.395 62.227 C 169.218 61.690,169.278 61.584,169.847 61.434 C 170.618 61.232,170.638 61.238,170.720 61.723 C 170.760 61.963,170.810 62.159,170.829 62.159 C 171.108 62.159,171.204 61.992,171.143 61.610 C 171.076 61.194,171.078 61.192,171.498 61.126 C 172.595 60.953,172.494 60.927,172.574 61.400 C 172.631 61.735,172.696 61.832,172.865 61.832 C 173.059 61.832,173.075 61.784,173.011 61.403 C 172.931 60.930,172.960 60.916,174.073 60.868 C 174.480 60.851,174.482 60.852,174.482 61.287 M26.256 65.881 L 30.534 68.947 30.534 69.915 L 30.534 70.883 39.586 70.883 C 46.753 70.883,48.637 70.912,48.639 71.020 C 48.640 71.095,48.557 71.659,48.454 72.274 L 48.266 73.391 33.402 73.391 L 18.539 73.391 18.537 71.619 C 18.533 68.544,18.192 67.371,16.962 66.208 C 15.629 64.947,14.627 64.738,10.199 64.793 L 7.197 64.831 7.197 63.822 L 7.197 62.814 14.587 62.814 L 21.977 62.814 26.256 65.881 M95.965 63.970 C 95.965 64.999,95.945 65.119,95.786 65.058 C 95.061 64.780,89.670 64.662,88.059 64.888 C 85.076 65.308,83.759 67.329,83.754 71.493 L 83.751 73.139 77.944 73.210 C 74.751 73.250,68.353 73.314,63.728 73.354 L 55.319 73.426 55.190 72.509 C 55.119 72.005,55.033 71.433,54.999 71.238 L 54.938 70.883 64.106 70.883 L 73.274 70.883 73.306 69.909 L 73.337 68.935 77.426 65.879 L 81.516 62.822 88.740 62.818 L 95.965 62.814 95.965 63.970 M33.627 64.970 C 32.830 65.614,33.504 67.384,34.776 67.984 L 35.387 68.273 41.049 68.243 L 46.710 68.212 46.927 67.561 C 47.112 67.007,47.129 66.801,47.042 66.171 L 46.939 65.431 51.885 65.431 C 56.543 65.431,56.827 65.442,56.775 65.622 C 56.574 66.310,56.585 66.864,56.813 67.550 L 57.052 68.266 62.749 68.266 L 68.445 68.266 69.047 67.940 C 70.035 67.405,70.820 65.377,70.205 64.946 C 69.812 64.671,33.969 64.694,33.627 64.970 M14.973 65.729 C 17.126 66.527,17.785 67.766,17.860 71.156 L 17.909 73.337 12.888 73.305 L 7.867 73.272 7.002 73.707 L 6.137 74.142 6.069 75.593 C 6.032 76.392,5.969 77.763,5.931 78.641 L 5.861 80.237 6.720 80.302 C 7.192 80.338,9.444 80.418,11.723 80.480 C 14.002 80.542,16.322 80.621,16.879 80.656 L 17.892 80.719 17.861 91.368 L 17.830 102.017 17.591 102.650 C 16.678 105.065,15.627 105.507,10.796 105.507 C 5.965 105.507,4.914 105.065,4.001 102.650 L 3.762 102.017 3.732 85.987 C 3.711 75.108,3.738 69.716,3.817 69.207 C 4.035 67.790,4.875 66.554,5.998 65.999 L 6.489 65.756 6.523 66.030 C 6.584 66.513,7.197 66.421,7.197 65.928 C 7.197 65.442,7.114 65.451,11.123 65.475 C 14.118 65.493,14.384 65.511,14.973 65.729 M46.094 65.593 C 46.391 65.802,46.528 66.680,46.348 67.226 L 46.221 67.612 40.804 67.607 C 34.520 67.602,34.917 67.668,34.236 66.511 C 33.549 65.343,33.084 65.431,39.947 65.431 C 45.011 65.431,45.895 65.454,46.094 65.593 M69.793 65.592 C 69.793 65.681,69.637 66.069,69.447 66.455 C 68.844 67.677,69.214 67.612,62.898 67.612 L 57.505 67.612 57.378 67.190 C 57.205 66.612,57.328 65.793,57.619 65.590 C 57.963 65.348,69.793 65.351,69.793 65.592 M95.453 65.639 C 95.681 65.712,95.895 65.842,95.928 65.928 C 95.961 66.015,96.099 66.085,96.233 66.085 C 96.853 66.085,97.850 67.183,98.294 68.357 L 98.528 68.975 98.528 85.442 C 98.528 103.946,98.592 102.486,97.718 103.738 C 96.637 105.286,95.859 105.507,91.494 105.507 C 86.663 105.507,85.612 105.065,84.699 102.650 L 84.460 102.017 84.429 91.371 L 84.399 80.725 85.738 80.658 C 86.475 80.622,89.077 80.534,91.521 80.463 L 95.965 80.334 95.965 76.870 C 95.965 73.666,95.951 73.402,95.774 73.347 C 94.588 72.980,90.203 72.882,85.360 73.114 L 84.406 73.159 84.406 71.503 C 84.408 67.676,85.477 65.947,88.088 65.544 C 89.018 65.401,94.945 65.477,95.453 65.639 M54.032 69.275 C 54.141 69.899,54.635 73.193,54.635 73.294 C 54.635 73.349,53.393 73.391,51.799 73.391 C 49.604 73.391,48.964 73.361,48.964 73.255 C 48.964 73.116,49.574 69.612,49.676 69.166 C 49.731 68.922,49.742 68.920,51.851 68.920 L 53.970 68.920 54.032 69.275 M331.189 70.351 C 322.093 71.392,317.551 82.093,323.078 89.458 C 328.934 97.261,341.387 94.965,344.098 85.582 C 346.472 77.369,339.698 69.377,331.189 70.351 M398.555 70.409 L 399.128 70.477 399.128 73.080 L 399.128 75.682 397.928 75.682 L 396.728 75.682 396.728 73.010 L 396.728 70.338 397.356 70.339 C 397.700 70.340,398.240 70.371,398.555 70.409 M172.305 71.006 C 163.193 72.918,159.695 84.200,166.129 90.924 C 173.250 98.366,185.631 94.074,186.697 83.794 C 187.515 75.904,180.150 69.360,172.305 71.006 M334.925 71.162 C 343.562 72.979,346.875 83.617,340.793 90.000 C 334.108 97.016,322.451 93.029,321.362 83.355 C 320.521 75.879,327.504 69.601,334.925 71.162 M176.887 71.600 C 184.193 72.986,188.201 80.945,184.956 87.623 C 180.830 96.112,168.737 96.117,164.609 87.632 C 160.579 79.349,167.829 69.882,176.887 71.600 M140.458 76.390 L 140.458 80.480 138.822 80.480 L 137.186 80.480 137.186 76.451 L 137.186 72.422 137.704 72.381 C 137.989 72.359,138.725 72.331,139.340 72.321 L 140.458 72.301 140.458 76.390 M136.532 76.445 L 136.532 80.480 135.818 80.480 C 135.206 80.480,135.067 80.442,134.837 80.212 L 134.569 79.944 134.569 76.496 L 134.569 73.048 134.888 72.729 C 135.170 72.446,135.282 72.410,135.869 72.410 L 136.532 72.410 136.532 76.445 M330.954 72.682 C 323.359 74.125,320.285 83.222,325.509 88.793 C 331.394 95.069,341.814 91.292,342.278 82.715 C 342.609 76.589,336.920 71.549,330.954 72.682 M173.882 73.078 C 167.334 73.593,163.221 80.692,165.964 86.742 C 168.712 92.802,176.833 94.308,181.552 89.632 C 188.041 83.203,183.017 72.359,173.882 73.078 M334.787 73.454 C 341.793 75.238,344.009 84.162,338.640 88.978 C 334.067 93.080,326.666 91.426,324.287 85.769 C 321.422 78.956,327.661 71.640,334.787 73.454 M357.414 73.616 C 357.374 73.799,357.121 74.339,356.853 74.817 C 356.372 75.671,356.366 75.694,356.462 76.324 L 356.558 76.963 355.908 77.031 C 354.569 77.171,354.545 77.164,354.399 76.584 C 354.328 76.301,354.079 75.528,353.846 74.867 C 353.614 74.205,353.396 73.578,353.362 73.473 C 353.305 73.296,353.450 73.282,355.394 73.282 L 357.487 73.282 357.414 73.616 M94.602 73.755 L 95.256 73.891 95.285 76.788 L 95.314 79.685 93.268 79.757 C 71.281 80.536,45.893 80.681,23.610 80.155 C 16.126 79.979,7.052 79.707,6.781 79.651 C 6.499 79.593,6.505 80.012,6.720 75.814 L 6.783 74.583 7.345 74.261 L 7.906 73.939 10.751 73.938 C 12.315 73.937,16.250 73.969,19.494 74.009 L 25.393 74.081 24.969 74.291 C 22.235 75.643,23.259 79.833,26.321 79.823 C 29.442 79.814,30.420 75.715,27.644 74.281 L 27.208 74.055 44.329 74.051 C 60.206 74.046,75.855 73.928,87.186 73.728 C 93.997 73.607,93.890 73.607,94.602 73.755 M176.936 73.945 C 182.955 75.408,185.736 82.401,182.369 87.609 C 178.633 93.387,169.951 92.997,166.799 86.910 C 163.218 79.994,169.383 72.110,176.936 73.945 M74.751 74.213 C 72.399 75.083,72.221 78.420,74.464 79.578 C 77.400 81.093,80.222 77.323,77.938 74.936 C 77.189 74.152,75.778 73.832,74.751 74.213 M27.339 74.847 C 29.302 75.862,28.758 79.223,26.640 79.163 C 26.320 79.154,26.363 79.123,26.852 79.016 C 28.920 78.560,28.526 75.312,26.384 75.157 C 24.052 74.988,23.401 78.587,25.686 79.016 C 25.899 79.056,26.050 79.112,26.022 79.140 C 25.699 79.462,24.415 78.428,24.152 77.635 C 23.519 75.731,25.573 73.934,27.339 74.847 M77.116 75.087 C 78.365 75.966,78.404 78.097,77.184 78.830 C 76.998 78.942,77.023 78.887,77.283 78.612 C 78.677 77.138,77.359 74.740,75.436 75.251 C 73.808 75.685,73.366 77.597,74.638 78.713 C 74.996 79.028,75.219 79.105,76.063 79.208 C 76.253 79.231,76.161 79.253,75.845 79.262 C 73.831 79.313,72.753 76.895,74.133 75.422 C 74.885 74.620,76.238 74.468,77.116 75.087 M331.955 75.134 C 331.628 75.460,331.560 75.889,331.775 76.263 C 331.876 76.439,331.945 76.591,331.928 76.599 C 331.911 76.608,331.603 76.692,331.243 76.786 C 330.883 76.880,330.514 76.990,330.423 77.030 C 330.289 77.089,330.257 77.016,330.257 76.654 C 330.257 75.763,329.302 75.370,328.672 76.000 C 328.157 76.515,328.313 77.292,328.982 77.546 L 329.261 77.652 328.649 78.264 L 328.038 78.875 327.750 78.532 C 327.141 77.809,326.063 78.239,326.063 79.204 C 326.063 79.625,326.529 80.044,326.997 80.044 C 327.332 80.044,327.383 80.074,327.320 80.234 C 327.278 80.339,327.193 80.695,327.130 81.025 C 326.954 81.950,326.983 81.909,326.641 81.731 C 325.818 81.302,324.988 82.074,325.348 82.934 C 325.604 83.546,326.234 83.719,326.745 83.317 L 327.020 83.101 327.139 83.576 C 327.205 83.837,327.290 84.130,327.327 84.228 C 327.381 84.369,327.324 84.406,327.048 84.406 C 326.010 84.406,325.717 85.817,326.672 86.216 C 327.049 86.373,327.805 86.207,327.810 85.965 C 327.818 85.543,328.038 85.593,328.542 86.130 C 328.834 86.441,329.007 86.696,328.926 86.696 C 328.308 86.696,328.018 87.863,328.520 88.334 C 329.112 88.890,330.098 88.476,330.098 87.671 C 330.098 87.495,330.112 87.350,330.129 87.350 C 330.146 87.350,330.439 87.448,330.781 87.568 C 331.122 87.688,331.525 87.786,331.677 87.786 C 332.001 87.786,332.008 87.817,331.776 88.171 C 331.197 89.055,332.487 90.067,333.279 89.351 C 333.569 89.088,333.649 88.495,333.436 88.171 C 333.204 87.817,333.212 87.786,333.536 87.786 C 333.687 87.786,334.069 87.696,334.384 87.585 L 334.956 87.384 334.956 87.815 C 334.956 88.703,336.011 89.105,336.577 88.432 C 337.044 87.878,336.776 86.914,336.155 86.914 C 335.907 86.914,335.931 86.875,336.591 86.215 L 337.195 85.611 337.491 85.931 C 337.886 86.359,338.245 86.427,338.683 86.156 C 339.495 85.655,339.143 84.406,338.190 84.406 C 337.879 84.406,337.830 84.374,337.893 84.215 C 337.935 84.110,338.023 83.801,338.089 83.528 L 338.209 83.032 338.565 83.214 C 339.241 83.559,339.956 83.125,339.956 82.371 C 339.956 81.644,339.164 81.260,338.384 81.609 C 338.253 81.668,338.193 81.552,338.095 81.054 C 338.028 80.708,337.937 80.339,337.895 80.234 C 337.830 80.073,337.880 80.044,338.216 80.044 C 338.755 80.044,339.149 79.652,339.149 79.117 C 339.149 78.571,338.756 78.190,338.192 78.190 C 337.759 78.190,337.296 78.526,337.296 78.840 C 337.296 78.920,336.989 78.676,336.614 78.297 C 336.163 77.842,335.983 77.592,336.082 77.558 C 336.786 77.323,336.862 76.185,336.197 75.841 C 335.538 75.500,334.787 75.920,334.787 76.630 C 334.787 76.951,334.756 77.001,334.597 76.940 C 334.492 76.899,334.160 76.811,333.860 76.745 C 333.561 76.678,333.301 76.615,333.284 76.604 C 333.268 76.593,333.337 76.439,333.438 76.263 C 333.801 75.631,333.360 74.918,332.606 74.918 C 332.317 74.918,332.097 74.991,331.955 75.134 M174.254 75.494 C 173.833 75.818,173.709 76.445,173.987 76.842 C 174.141 77.062,174.124 77.076,173.469 77.239 C 173.097 77.332,172.711 77.440,172.611 77.479 C 172.463 77.538,172.433 77.481,172.442 77.158 C 172.467 76.290,171.365 75.844,170.805 76.495 C 170.348 77.026,170.680 78.081,171.304 78.081 C 171.408 78.081,171.223 78.336,170.833 78.731 L 170.189 79.381 169.994 79.061 C 169.672 78.532,168.939 78.490,168.487 78.975 C 167.972 79.528,168.408 80.508,169.177 80.525 C 169.486 80.532,169.562 80.571,169.512 80.698 C 169.476 80.788,169.370 81.180,169.275 81.570 C 169.074 82.399,169.066 82.414,168.897 82.245 C 168.574 81.922,167.778 82.143,167.521 82.626 C 167.073 83.467,168.200 84.383,168.968 83.802 C 169.160 83.657,169.427 84.144,169.573 84.905 C 169.574 84.909,169.436 84.893,169.267 84.868 C 168.783 84.797,168.266 85.290,168.266 85.823 C 168.266 86.802,169.596 87.137,170.057 86.275 C 170.178 86.048,170.199 86.058,170.710 86.577 L 171.238 87.112 170.912 87.281 C 170.024 87.740,170.345 89.095,171.343 89.095 C 171.784 89.095,172.301 88.569,172.301 88.120 L 172.301 87.783 172.655 87.931 C 172.850 88.012,173.267 88.141,173.581 88.216 C 174.134 88.348,174.147 88.360,173.990 88.584 C 173.730 88.956,173.789 89.401,174.146 89.758 C 174.930 90.541,176.141 89.653,175.632 88.669 C 175.462 88.340,175.464 88.336,175.762 88.272 C 175.928 88.237,176.315 88.121,176.623 88.015 L 177.183 87.821 177.128 88.231 C 176.978 89.347,178.741 89.598,179.016 88.500 C 179.108 88.136,178.851 87.654,178.462 87.459 L 178.135 87.296 178.743 86.696 L 179.351 86.096 179.682 86.450 C 179.917 86.702,180.110 86.805,180.349 86.805 C 181.557 86.805,181.637 84.931,180.431 84.905 C 180.218 84.900,180.046 84.872,180.048 84.842 C 180.058 84.688,180.465 83.387,180.472 83.488 C 180.498 83.885,181.346 83.944,181.780 83.578 C 182.637 82.857,181.777 81.551,180.764 82.034 L 180.416 82.200 180.290 81.585 C 180.221 81.247,180.133 80.863,180.093 80.733 C 180.034 80.534,180.058 80.504,180.238 80.551 C 180.549 80.632,181.125 80.300,181.252 79.965 C 181.639 78.947,180.431 78.193,179.675 78.980 L 179.335 79.335 178.716 78.708 C 178.375 78.363,178.144 78.081,178.203 78.081 C 178.766 78.081,179.026 76.996,178.586 76.484 C 178.031 75.838,176.990 76.255,176.990 77.122 C 176.990 77.489,176.965 77.530,176.799 77.443 C 176.694 77.388,176.326 77.280,175.980 77.203 C 175.374 77.069,175.359 77.057,175.539 76.858 C 176.206 76.121,175.045 74.888,174.254 75.494 M332.879 75.844 C 332.879 76.084,332.540 76.204,332.362 76.026 C 332.179 75.843,332.360 75.553,332.633 75.592 C 332.794 75.615,332.879 75.702,332.879 75.844 M26.931 75.969 C 27.904 76.544,27.743 78.029,26.669 78.383 C 26.148 78.555,25.679 78.425,25.271 77.996 C 24.228 76.899,25.622 75.196,26.931 75.969 M76.376 75.941 C 77.736 76.509,77.348 78.518,75.878 78.516 C 74.442 78.515,74.062 76.645,75.362 75.982 C 75.813 75.752,75.913 75.748,76.376 75.941 M175.076 76.197 C 175.183 76.476,174.819 76.719,174.608 76.509 C 174.522 76.423,174.482 76.275,174.518 76.181 C 174.607 75.950,174.986 75.961,175.076 76.197 M329.557 76.505 C 329.786 76.780,329.409 77.111,329.156 76.858 C 328.958 76.660,329.025 76.336,329.263 76.336 C 329.348 76.336,329.480 76.412,329.557 76.505 M335.932 76.663 C 335.932 76.974,335.588 77.106,335.484 76.835 C 335.385 76.576,335.525 76.315,335.741 76.357 C 335.862 76.380,335.932 76.493,335.932 76.663 M171.795 77.045 C 171.869 77.238,171.586 77.468,171.375 77.387 C 171.176 77.311,171.155 76.918,171.347 76.852 C 171.535 76.786,171.728 76.869,171.795 77.045 M178.168 77.140 C 178.147 77.288,178.056 77.372,177.919 77.372 C 177.669 77.372,177.552 77.006,177.760 76.877 C 177.978 76.742,178.204 76.888,178.168 77.140 M333.370 77.323 C 336.929 77.891,338.775 82.063,336.761 84.989 C 334.583 88.155,329.865 87.872,328.187 84.476 C 326.560 81.183,328.752 77.495,332.497 77.222 C 332.587 77.215,332.980 77.261,333.370 77.323 M176.080 77.906 C 179.697 78.869,180.954 83.414,178.357 86.137 C 175.648 88.977,170.953 87.724,169.955 83.894 C 169.017 80.291,172.446 76.938,176.080 77.906 M152.615 78.903 C 152.529 79.380,152.425 80.276,152.385 80.893 C 152.344 81.510,152.282 82.032,152.246 82.053 C 152.210 82.074,150.866 82.109,149.258 82.131 L 146.336 82.170 146.011 81.608 L 145.686 81.046 147.680 79.980 C 148.776 79.394,149.712 78.849,149.760 78.770 C 149.808 78.691,149.955 78.623,150.087 78.619 C 150.219 78.615,150.867 78.476,151.527 78.311 C 152.186 78.145,152.736 78.015,152.748 78.022 C 152.761 78.029,152.700 78.425,152.615 78.903 M310.287 79.165 C 310.165 79.268,309.051 79.174,309.051 79.061 C 309.051 79.012,309.333 78.877,309.678 78.761 L 310.305 78.551 310.341 78.820 C 310.361 78.968,310.336 79.123,310.287 79.165 M327.317 79.115 C 327.317 79.356,326.978 79.476,326.801 79.298 C 326.617 79.115,326.798 78.825,327.071 78.864 C 327.232 78.887,327.317 78.973,327.317 79.115 M331.679 78.990 C 327.830 80.266,328.867 85.900,332.891 85.577 C 336.330 85.301,337.133 80.556,333.976 79.162 C 333.320 78.873,332.271 78.794,331.679 78.990 M338.441 79.115 C 338.441 79.365,338.074 79.482,337.946 79.274 C 337.811 79.055,337.957 78.830,338.209 78.866 C 338.356 78.887,338.441 78.977,338.441 79.115 M147.819 79.151 C 147.639 79.259,146.903 79.658,146.183 80.038 C 145.463 80.417,144.858 80.742,144.838 80.759 C 144.817 80.776,145.059 81.253,145.375 81.820 L 145.950 82.850 149.147 82.794 L 152.345 82.738 152.345 83.391 L 152.345 84.044 150.463 84.116 C 146.456 84.268,145.662 84.230,144.921 83.856 L 144.265 83.525 143.863 83.856 C 143.504 84.153,143.385 84.188,142.723 84.188 L 141.985 84.188 141.985 82.072 L 141.985 79.957 142.503 79.632 C 143.011 79.312,143.057 79.305,144.929 79.233 C 145.979 79.192,147.083 79.119,147.383 79.071 C 147.683 79.022,147.977 78.976,148.037 78.968 C 148.097 78.960,147.999 79.042,147.819 79.151 M169.411 79.607 C 169.411 79.778,169.341 79.891,169.220 79.914 C 169.004 79.955,168.864 79.694,168.963 79.436 C 169.067 79.165,169.411 79.297,169.411 79.607 M173.958 79.447 C 170.102 80.507,170.869 86.085,174.868 86.062 C 178.330 86.042,179.423 81.224,176.305 79.728 C 175.465 79.326,174.723 79.237,173.958 79.447 M180.636 79.463 C 180.753 79.768,180.415 80.026,180.192 79.803 C 180.094 79.705,180.044 79.547,180.080 79.452 C 180.167 79.224,180.547 79.232,180.636 79.463 M197.690 80.223 C 197.631 80.714,197.165 80.794,197.165 80.313 C 197.165 79.979,197.198 79.935,197.445 79.935 C 197.683 79.935,197.719 79.977,197.690 80.223 M333.828 80.364 C 335.670 81.626,334.829 84.437,332.605 84.452 C 330.262 84.469,329.548 81.185,331.679 80.193 C 332.197 79.952,333.362 80.045,333.828 80.364 M176.036 80.873 C 177.713 82.052,177.076 84.674,175.055 84.913 C 173.028 85.153,171.761 82.799,173.097 81.278 C 173.861 80.407,175.125 80.233,176.036 80.873 M25.818 80.875 L 27.699 80.939 27.699 84.963 L 27.699 88.986 24.973 88.986 L 22.246 88.986 22.246 88.222 L 22.246 87.459 20.393 87.459 L 18.539 87.459 18.539 84.067 L 18.539 80.676 21.238 80.743 C 22.722 80.780,24.783 80.839,25.818 80.875 M83.751 84.079 L 83.751 87.459 82.636 87.459 L 81.521 87.459 80.739 88.236 L 79.956 89.013 77.601 88.933 L 75.245 88.853 75.245 84.884 L 75.245 80.916 75.763 80.901 C 77.319 80.855,81.874 80.736,82.743 80.718 L 83.751 80.698 83.751 84.079 M32.589 80.988 L 34.896 81.060 34.896 82.542 L 34.896 84.024 31.625 84.024 L 28.353 84.024 28.353 82.470 L 28.353 80.916 29.317 80.916 C 29.847 80.916,31.320 80.948,32.589 80.988 M74.591 82.906 L 74.591 84.896 71.320 84.896 L 68.048 84.896 68.048 82.964 L 68.048 81.031 69.547 80.998 C 70.372 80.979,71.844 80.953,72.819 80.940 L 74.591 80.916 74.591 82.906 M67.394 84.825 L 67.394 88.571 66.167 88.504 C 53.217 87.796,52.590 87.880,47.996 90.946 C 42.745 94.451,40.341 94.611,36.432 91.712 L 35.551 91.059 35.551 86.069 L 35.551 81.080 51.472 81.080 L 67.394 81.080 67.394 84.825 M339.297 82.276 C 339.331 82.364,339.280 82.515,339.184 82.611 C 338.969 82.825,338.638 82.578,338.749 82.288 C 338.833 82.071,339.215 82.063,339.297 82.276 M326.327 82.291 C 326.550 82.376,326.550 82.757,326.327 82.843 C 326.058 82.946,325.773 82.607,325.950 82.394 C 326.110 82.200,326.099 82.203,326.327 82.291 M181.407 82.879 C 181.407 83.190,181.063 83.322,180.959 83.051 C 180.859 82.792,181.000 82.531,181.216 82.572 C 181.336 82.596,181.407 82.709,181.407 82.879 M168.648 83.041 C 168.648 83.282,168.309 83.401,168.131 83.224 C 167.948 83.040,168.128 82.751,168.402 82.790 C 168.563 82.812,168.648 82.899,168.648 83.041 M34.697 84.804 C 34.875 84.965,34.896 85.180,34.896 86.794 L 34.896 88.604 31.625 88.604 L 28.353 88.604 28.353 86.813 C 28.353 85.300,28.381 84.992,28.534 84.823 C 28.797 84.533,34.378 84.516,34.697 84.804 M327.310 85.243 C 327.427 85.547,327.089 85.806,326.866 85.583 C 326.768 85.484,326.717 85.327,326.754 85.232 C 326.841 85.004,327.221 85.012,327.310 85.243 M338.459 85.232 C 338.495 85.327,338.445 85.484,338.346 85.583 C 338.123 85.806,337.786 85.547,337.903 85.243 C 337.992 85.012,338.371 85.004,338.459 85.232 M74.392 85.677 C 74.570 85.838,74.591 86.052,74.591 87.667 L 74.591 89.477 71.320 89.477 L 68.048 89.477 68.048 87.686 C 68.048 86.173,68.076 85.864,68.228 85.696 C 68.491 85.405,74.073 85.388,74.392 85.677 M169.411 85.823 C 169.411 85.994,169.341 86.107,169.220 86.130 C 169.004 86.171,168.864 85.910,168.963 85.652 C 169.067 85.381,169.411 85.512,169.411 85.823 M180.589 85.660 C 180.746 85.849,180.568 86.150,180.299 86.150 C 180.082 86.150,179.994 85.851,180.154 85.658 C 180.324 85.454,180.418 85.454,180.589 85.660 M329.422 87.637 C 329.456 87.870,329.189 88.062,328.998 87.944 C 328.881 87.871,328.866 87.528,328.975 87.419 C 329.119 87.275,329.389 87.407,329.422 87.637 M336.095 87.621 C 336.272 87.835,336.158 88.113,335.893 88.113 C 335.635 88.113,335.503 87.812,335.671 87.609 C 335.830 87.417,335.928 87.420,336.095 87.621 M171.474 87.852 C 171.697 87.938,171.698 88.319,171.475 88.404 C 171.206 88.508,170.920 88.168,171.097 87.955 C 171.258 87.762,171.246 87.765,171.474 87.852 M178.353 88.275 C 178.353 88.516,178.014 88.636,177.837 88.458 C 177.653 88.275,177.834 87.985,178.107 88.024 C 178.268 88.047,178.353 88.134,178.353 88.275 M332.897 88.504 C 333.012 88.801,332.647 89.073,332.428 88.854 C 332.205 88.631,332.307 88.332,332.606 88.332 C 332.730 88.332,332.861 88.409,332.897 88.504 M175.032 88.937 C 175.208 89.150,174.923 89.489,174.654 89.386 C 174.449 89.307,174.424 88.918,174.618 88.840 C 174.842 88.750,174.885 88.760,175.032 88.937 M34.624 90.076 L 34.624 90.894 31.625 90.894 L 28.626 90.894 28.593 90.197 C 28.542 89.113,28.277 89.197,31.649 89.229 L 34.624 89.258 34.624 90.076 M74.318 90.840 L 74.318 91.549 71.320 91.549 L 68.321 91.549 68.287 90.962 C 68.232 90.003,67.998 90.069,71.344 90.102 L 74.318 90.131 74.318 90.840 M34.896 91.704 C 34.896 92.226,34.715 92.257,31.644 92.257 C 28.582 92.257,28.353 92.220,28.353 91.722 C 28.353 91.567,28.703 91.549,31.625 91.549 C 34.380 91.549,34.896 91.573,34.896 91.704 M74.591 92.358 C 74.591 92.881,74.410 92.912,71.338 92.912 C 68.276 92.912,68.048 92.875,68.048 92.377 C 68.048 92.221,68.398 92.203,71.320 92.203 C 74.074 92.203,74.591 92.227,74.591 92.358 M33.533 93.130 C 33.533 93.268,33.230 93.298,31.578 93.323 C 29.696 93.352,29.326 93.300,29.494 93.028 C 29.621 92.822,33.533 92.921,33.533 93.130 M73.446 93.893 L 73.446 94.166 71.453 94.195 C 69.356 94.227,69.217 94.195,69.397 93.727 C 69.451 93.585,69.751 93.565,71.453 93.591 L 73.446 93.621 73.446 93.893 " stroke="none" fill="#000000" fill-rule="evenodd"></path></g></svg>