<svg id="svg" xmlns="http://www.w3.org/2000/svg" xmlns:xlink="http://www.w3.org/1999/xlink" width="400" height="105.5187637969095" viewBox="0, 0, 400,105.5187637969095"><g id="svgg"><path id="path0" d="M19.150 0.277 C 19.089 0.298,18.613 0.443,18.092 0.598 L 17.144 0.879 16.253 1.913 C 15.699 2.555,15.186 3.296,14.899 3.867 L 14.436 4.787 12.322 16.273 L 10.208 27.759 9.740 27.793 L 9.272 27.827 9.272 26.046 L 9.272 24.265 8.703 23.612 L 8.135 22.958 4.688 22.958 L 1.241 22.958 0.731 23.555 L 0.221 24.152 0.218 28.715 L 0.215 33.278 0.576 33.967 L 0.938 34.656 4.585 34.657 L 8.232 34.658 8.552 34.109 C 8.963 33.406,8.978 33.438,8.753 34.555 C 8.574 35.451,8.542 35.511,7.871 36.226 L 7.174 36.967 7.174 37.649 C 7.174 38.529,6.544 59.025,6.464 60.734 L 6.404 62.031 14.996 62.031 L 23.589 62.031 24.881 63.466 L 26.174 64.901 52.488 64.901 L 78.802 64.901 80.102 63.466 L 81.402 62.031 89.792 62.031 L 98.182 62.031 98.149 60.458 C 98.130 59.593,98.021 54.092,97.905 48.234 L 97.695 37.583 97.335 37.307 C 96.404 36.592,96.463 36.716,96.185 34.877 C 95.886 32.899,95.888 32.887,96.372 33.768 L 96.740 34.437 100.384 34.433 L 104.029 34.429 104.443 33.832 L 104.857 33.236 104.857 28.640 L 104.857 24.044 104.288 23.391 L 103.720 22.737 100.281 22.737 L 96.842 22.737 96.324 23.443 L 95.806 24.148 95.806 25.871 L 95.806 27.594 95.434 27.594 C 95.069 27.594,95.060 27.582,94.940 26.959 C 94.873 26.610,93.948 21.705,92.884 16.060 C 91.820 10.414,90.819 5.257,90.659 4.599 L 90.367 3.403 89.317 2.199 L 88.266 0.995 87.026 0.608 L 85.786 0.221 52.523 0.229 C 34.229 0.234,19.211 0.256,19.150 0.277 M86.745 1.211 C 87.849 1.552,87.826 1.536,88.902 2.732 L 89.225 3.091 52.662 3.091 L 16.100 3.091 16.797 2.276 C 17.480 1.479,17.514 1.456,18.433 1.181 L 19.371 0.900 52.526 0.891 L 85.682 0.883 86.745 1.211 M277.775 3.135 C 277.293 3.314,276.767 3.773,276.535 4.216 C 276.342 4.587,276.297 41.060,276.490 41.060 C 276.561 41.060,276.600 42.163,276.600 44.150 C 276.600 45.855,276.644 47.241,276.698 47.241 C 276.752 47.241,276.831 51.639,276.877 57.285 L 276.959 67.329 277.221 67.329 L 277.483 67.329 277.484 69.950 L 277.484 72.572 278.100 73.262 L 278.715 73.951 288.034 73.951 L 297.352 73.951 298.124 73.321 L 298.896 72.690 298.896 71.154 L 298.896 69.618 299.807 70.447 L 300.717 71.275 300.954 72.420 C 301.330 74.234,302.007 75.903,302.913 77.246 C 303.132 77.571,303.311 77.857,303.311 77.881 C 303.311 77.905,302.791 77.925,302.154 77.925 C 301.045 77.925,300.995 77.935,300.943 78.173 C 300.073 82.128,298.949 83.773,297.523 83.178 C 296.655 82.815,296.511 81.954,296.912 79.525 C 297.032 78.797,297.130 78.139,297.130 78.063 C 297.130 77.960,296.783 77.925,295.763 77.925 C 294.415 77.925,294.394 77.921,294.209 77.640 C 293.810 77.030,294.002 77.042,284.606 77.042 L 275.938 77.042 275.935 41.087 L 275.933 5.132 274.970 4.104 L 274.007 3.076 258.664 3.200 L 243.322 3.324 238.521 4.257 L 233.720 5.191 231.236 7.703 C 223.585 15.445,217.235 23.437,211.585 32.439 L 210.657 33.917 208.005 33.847 C 206.547 33.808,203.267 33.746,200.717 33.709 L 196.082 33.642 184.989 34.483 C 175.150 35.229,141.499 38.575,140.548 38.903 C 140.479 38.927,140.330 39.459,140.217 40.086 L 140.011 41.225 138.659 41.880 L 137.307 42.535 137.307 44.005 L 137.307 45.475 137.914 45.475 L 138.521 45.475 138.521 52.318 L 138.521 59.161 137.693 59.161 L 136.865 59.161 136.865 60.817 L 136.865 62.472 137.753 62.472 L 138.640 62.472 138.575 64.211 C 138.539 65.167,138.485 66.111,138.455 66.308 L 138.401 66.667 137.338 66.667 L 136.276 66.667 134.574 67.688 L 132.873 68.709 132.936 70.419 C 132.971 71.360,133.032 72.992,133.071 74.046 L 133.142 75.962 136.218 75.881 C 138.540 75.820,139.294 75.831,139.294 75.929 C 139.294 76.000,139.542 76.386,139.845 76.787 C 140.530 77.691,140.545 77.613,139.625 77.910 L 138.852 78.158 138.852 79.411 L 138.852 80.664 139.376 80.729 C 139.665 80.766,141.341 80.945,143.102 81.129 C 147.202 81.555,147.047 81.529,146.964 81.789 C 146.668 82.724,147.494 83.473,149.807 84.366 C 151.308 84.944,151.606 85.097,151.636 85.299 C 151.655 85.432,151.710 85.541,151.759 85.541 C 151.807 85.541,151.933 85.901,152.040 86.341 C 153.527 92.501,157.760 97.766,163.521 100.620 C 174.980 106.297,188.796 100.878,193.423 88.891 L 193.800 87.914 194.362 87.881 L 194.923 87.847 194.923 87.313 C 194.923 86.798,194.935 86.777,195.281 86.716 C 195.479 86.682,196.224 86.546,196.937 86.416 L 198.234 86.178 198.234 85.706 L 198.234 85.234 199.145 84.993 C 199.645 84.860,200.440 84.648,200.911 84.522 L 201.766 84.292 201.766 83.888 L 201.766 83.484 202.980 83.173 L 204.194 82.862 204.194 82.381 L 204.194 81.901 205.105 81.439 C 205.942 81.014,206.078 80.979,206.788 81.000 C 207.687 81.026,208.114 80.826,208.523 80.189 C 208.827 79.715,210.150 79.218,210.475 79.456 C 211.030 79.862,211.351 79.912,213.435 79.912 L 215.508 79.911 216.584 80.427 L 217.660 80.943 217.660 81.752 L 217.660 82.561 221.170 82.561 L 224.680 82.561 226.361 84.100 C 227.855 85.467,228.095 85.645,228.508 85.696 C 229.115 85.772,237.632 86.025,237.686 85.970 C 237.709 85.946,237.778 85.190,237.840 84.290 C 237.901 83.389,237.978 82.626,238.010 82.593 C 238.401 82.203,239.915 82.135,251.010 82.012 L 261.998 81.890 266.292 82.450 C 268.653 82.758,272.075 83.206,273.896 83.445 C 283.710 84.733,293.774 86.047,297.185 86.487 C 301.753 87.075,301.545 87.037,301.545 87.288 C 301.545 87.486,306.380 88.929,310.080 89.837 C 311.627 90.216,311.371 90.002,311.867 91.336 C 318.747 109.873,345.378 109.983,352.433 91.502 C 353.022 89.962,352.958 90.041,353.763 89.843 C 354.325 89.705,354.477 89.623,354.504 89.441 C 354.534 89.235,354.756 89.168,356.628 88.796 L 358.720 88.380 358.720 88.082 C 358.720 87.796,358.769 87.771,360.017 87.429 C 362.595 86.724,362.472 86.773,362.472 86.440 C 362.472 86.155,362.538 86.120,363.900 85.670 C 365.221 85.235,365.331 85.177,365.363 84.907 C 365.394 84.648,365.478 84.595,366.115 84.431 C 367.699 84.025,367.770 83.996,367.770 83.772 C 367.770 83.407,369.211 82.745,370.043 82.726 C 370.893 82.708,371.419 82.404,371.736 81.749 C 372.063 81.073,372.058 81.041,371.028 77.763 C 370.513 76.126,370.129 74.754,370.173 74.716 C 370.218 74.677,371.260 74.582,372.489 74.506 L 374.724 74.366 375.313 74.811 C 375.637 75.056,376.406 75.509,377.022 75.818 L 378.142 76.380 382.794 76.380 L 387.445 76.380 388.190 75.828 L 388.934 75.276 394.357 75.276 L 399.779 75.276 399.779 72.155 L 399.779 69.033 399.086 68.347 C 398.261 67.529,398.449 67.547,397.119 68.157 L 396.035 68.653 393.593 68.653 L 391.151 68.653 391.498 68.216 L 391.845 67.778 392.964 67.747 L 394.083 67.715 395.599 63.355 L 397.116 58.996 397.123 53.008 L 397.130 47.020 338.079 47.020 L 279.029 47.020 279.029 45.806 L 279.029 44.592 337.969 44.592 L 396.909 44.592 396.909 42.605 L 396.909 40.618 342.559 40.618 L 288.208 40.618 284.392 36.727 L 280.575 32.837 280.574 18.716 L 280.574 4.595 280.340 4.111 C 279.905 3.214,278.748 2.774,277.775 3.135 M279.357 3.954 C 279.933 4.381,279.908 3.722,279.910 18.681 L 279.912 32.671 278.477 32.671 L 277.042 32.671 277.042 18.584 L 277.042 4.496 277.428 4.132 C 277.995 3.598,278.779 3.525,279.357 3.954 M89.976 4.581 C 90.086 5.006,91.022 9.823,92.057 15.287 C 93.091 20.751,94.084 25.991,94.263 26.932 C 94.578 28.581,95.719 35.996,95.666 36.048 C 95.652 36.061,94.720 35.438,93.594 34.662 L 91.549 33.251 86.254 32.738 L 80.960 32.225 67.743 32.227 L 54.525 32.230 54.525 36.093 L 54.525 39.956 52.428 39.956 L 50.331 39.956 50.331 36.093 L 50.331 32.230 36.838 32.232 L 23.344 32.234 17.797 32.832 L 12.250 33.429 10.848 34.204 C 10.076 34.630,9.426 34.959,9.403 34.936 C 9.379 34.913,9.689 33.363,10.091 31.492 C 10.494 29.621,11.783 22.870,12.957 16.489 C 14.879 6.043,15.123 4.831,15.410 4.320 L 15.728 3.753 52.752 3.780 L 89.776 3.808 89.976 4.581 M274.531 4.587 L 275.276 5.415 275.276 20.257 L 275.276 35.099 272.517 35.099 L 269.757 35.099 269.757 21.082 L 269.757 7.064 254.305 7.064 L 238.854 7.064 237.028 7.975 L 235.202 8.885 225.964 20.309 C 220.884 26.592,216.080 32.534,215.289 33.512 L 213.852 35.292 213.024 35.561 L 212.196 35.830 212.167 39.034 L 212.138 42.237 202.344 42.312 L 192.550 42.387 166.501 43.539 C 152.174 44.173,139.892 44.723,139.206 44.763 L 137.960 44.835 137.992 43.882 L 138.024 42.929 139.220 42.372 L 140.417 41.815 160.744 39.669 C 181.954 37.429,210.956 34.609,211.019 34.780 C 211.039 34.834,211.536 34.877,212.123 34.875 L 213.190 34.872 214.294 33.308 C 219.358 26.131,225.992 17.853,232.496 10.596 L 234.216 8.676 234.216 7.208 C 234.216 6.400,234.261 5.740,234.316 5.740 C 234.371 5.740,236.453 5.342,238.942 4.856 L 243.469 3.973 255.206 3.881 C 261.661 3.830,268.482 3.782,270.364 3.774 L 273.786 3.759 274.531 4.587 M19.299 5.334 L 18.675 6.032 16.236 17.133 C 14.894 23.238,13.797 28.302,13.797 28.386 C 13.797 28.469,14.133 28.872,14.545 29.280 L 15.293 30.022 52.594 30.022 L 89.895 30.022 90.677 29.246 L 91.458 28.470 89.287 18.291 C 88.093 12.693,87.005 7.591,86.869 6.954 L 86.623 5.795 85.687 5.215 L 84.751 4.636 52.337 4.636 L 19.923 4.636 19.299 5.334 M85.196 5.694 C 85.562 5.912,85.907 6.148,85.964 6.218 C 86.021 6.289,87.119 11.284,88.404 17.319 L 90.741 28.291 90.215 28.825 L 89.688 29.360 52.653 29.357 L 15.618 29.355 15.045 28.804 L 14.471 28.252 16.872 17.319 L 19.273 6.387 19.742 5.842 L 20.211 5.298 52.371 5.298 L 84.532 5.298 85.196 5.694 M233.549 7.423 L 233.544 8.444 231.765 10.430 C 225.501 17.427,218.302 26.415,213.797 32.864 L 212.859 34.207 212.058 34.212 L 211.257 34.216 211.823 33.306 C 216.311 26.094,221.305 19.457,227.086 13.024 C 228.322 11.649,233.419 6.402,233.519 6.402 C 233.538 6.402,233.552 6.861,233.549 7.423 M269.095 21.413 L 269.095 35.099 267.660 35.099 L 266.225 35.099 266.225 22.517 L 266.225 9.934 252.699 9.934 L 239.173 9.934 238.589 10.307 C 238.091 10.626,236.655 12.381,228.826 22.247 L 219.647 33.812 219.647 34.786 L 219.647 35.760 225.330 35.788 L 231.014 35.817 230.347 36.672 L 229.680 37.528 228.526 37.528 L 227.373 37.528 227.373 38.300 L 227.373 39.073 227.704 39.073 C 228.017 39.073,228.035 39.048,228.035 38.631 L 228.035 38.190 230.795 38.190 L 233.554 38.190 233.554 38.687 C 233.554 39.165,233.566 39.183,233.885 39.183 L 234.216 39.183 234.216 38.355 L 234.216 37.528 233.444 37.528 C 233.019 37.528,232.671 37.505,232.671 37.476 C 232.671 37.448,232.899 37.049,233.178 36.590 L 233.685 35.755 252.273 35.765 L 270.861 35.776 270.861 38.846 L 270.861 41.916 263.990 41.984 C 260.211 42.021,250.687 42.077,242.826 42.108 C 234.964 42.139,224.993 42.195,220.668 42.233 L 212.804 42.303 212.804 39.321 L 212.804 36.340 213.541 36.078 L 214.278 35.817 224.938 22.627 L 235.597 9.437 237.252 8.586 L 238.907 7.736 254.001 7.731 L 269.095 7.726 269.095 21.413 M265.563 22.848 L 265.563 35.099 250.690 35.093 C 239.024 35.088,235.898 35.058,236.193 34.955 C 237.039 34.658,237.027 34.734,237.066 29.821 C 237.107 24.799,237.079 24.402,236.663 23.937 L 236.369 23.608 233.374 23.603 C 229.400 23.597,229.581 23.467,229.581 26.351 L 229.581 28.095 229.134 28.636 L 228.686 29.177 228.720 31.743 C 228.757 34.606,228.794 34.739,229.630 34.981 C 229.840 35.042,228.147 35.083,225.138 35.089 L 220.309 35.099 220.309 34.570 L 220.309 34.041 229.365 22.622 C 235.917 14.362,238.550 11.120,238.885 10.902 L 239.349 10.600 252.456 10.598 L 265.563 10.596 265.563 22.848 M103.776 23.808 L 104.194 24.217 104.194 28.611 C 104.194 32.981,104.193 33.007,103.946 33.389 L 103.698 33.772 100.425 33.773 L 97.152 33.775 96.920 33.382 C 96.793 33.166,96.689 32.868,96.689 32.720 C 96.689 32.480,96.641 32.450,96.259 32.450 L 95.830 32.450 95.639 31.153 C 95.534 30.440,95.389 29.496,95.316 29.056 L 95.184 28.256 95.826 28.256 L 96.468 28.256 96.468 26.315 L 96.468 24.374 96.818 23.887 L 97.168 23.400 100.262 23.400 L 103.357 23.400 103.776 23.808 M8.191 24.029 L 8.609 24.438 8.609 26.457 L 8.609 28.477 9.327 28.477 C 9.721 28.477,10.044 28.505,10.044 28.540 C 10.044 28.595,9.364 31.778,9.215 32.423 C 9.168 32.622,9.081 32.671,8.773 32.671 C 8.461 32.671,8.389 32.713,8.389 32.894 C 8.389 33.017,8.264 33.315,8.111 33.556 L 7.834 33.996 4.581 33.996 L 1.329 33.996 1.106 33.558 C 0.893 33.142,0.883 32.918,0.883 28.735 L 0.883 24.348 1.236 23.984 L 1.589 23.620 4.680 23.620 L 7.772 23.620 8.191 24.029 M236.247 24.393 C 236.483 24.628,236.411 33.946,236.171 34.185 C 235.855 34.501,229.749 34.485,229.516 34.168 C 229.393 33.999,229.360 33.469,229.360 31.682 L 229.360 29.411 229.801 28.877 L 230.243 28.342 230.243 26.503 C 230.243 23.987,229.920 24.222,233.337 24.249 C 235.194 24.264,236.166 24.312,236.247 24.393 M32.671 27.373 L 32.671 27.815 43.598 27.815 L 54.525 27.815 54.525 27.373 L 54.525 26.932 43.598 26.932 L 32.671 26.932 32.671 27.373 M65.563 27.373 L 65.563 27.815 76.490 27.815 L 87.417 27.815 87.417 27.373 L 87.417 26.932 76.490 26.932 L 65.563 26.932 65.563 27.373 M24.393 28.587 L 24.393 28.918 30.574 28.918 L 36.755 28.918 36.755 28.587 L 36.755 28.256 30.574 28.256 L 24.393 28.256 24.393 28.587 M57.285 28.587 L 57.285 28.918 63.466 28.918 L 69.647 28.918 69.647 28.587 L 69.647 28.256 63.466 28.256 L 57.285 28.256 57.285 28.587 M28.256 35.835 C 29.440 37.453,30.448 38.844,30.497 38.925 C 30.567 39.043,30.423 39.073,29.779 39.072 L 28.974 39.071 25.746 36.064 C 22.044 32.615,22.159 32.920,24.558 32.903 L 26.104 32.892 28.256 35.835 M49.669 35.983 L 49.669 39.074 40.539 39.046 L 31.408 39.018 29.502 36.424 C 28.454 34.997,27.443 33.619,27.257 33.361 L 26.918 32.892 38.293 32.892 L 49.669 32.892 49.669 35.983 M77.373 32.949 C 77.373 32.981,76.373 34.372,75.150 36.040 L 72.927 39.073 64.057 39.073 L 55.188 39.073 55.188 35.982 L 55.188 32.892 66.280 32.892 C 72.381 32.892,77.373 32.918,77.373 32.949 M81.638 32.958 C 81.841 33.013,81.618 33.269,80.037 34.804 C 79.027 35.784,77.546 37.227,76.746 38.010 L 75.291 39.434 74.500 39.281 L 73.710 39.128 75.991 36.010 L 78.271 32.892 79.836 32.893 C 80.697 32.894,81.508 32.923,81.638 32.958 M24.772 36.055 C 26.507 37.674,27.909 39.015,27.889 39.036 C 27.736 39.188,22.764 40.188,22.563 40.107 C 21.925 39.849,14.022 33.939,14.264 33.900 C 14.767 33.820,20.927 33.138,21.267 33.126 C 21.581 33.114,21.957 33.428,24.772 36.055 M86.700 33.444 C 88.521 33.625,90.109 33.773,90.228 33.774 C 90.417 33.775,90.424 33.795,90.283 33.930 C 89.946 34.253,80.983 40.507,80.864 40.502 C 80.796 40.499,79.687 40.288,78.400 40.033 L 76.060 39.570 79.393 36.346 C 82.234 33.599,82.775 33.122,83.057 33.119 C 83.240 33.116,84.879 33.263,86.700 33.444 M283.609 36.865 L 287.140 40.397 282.091 40.397 L 277.042 40.397 277.042 36.865 L 277.042 33.333 278.560 33.333 L 280.079 33.333 283.609 36.865 M17.357 37.190 C 21.356 40.107,21.850 40.503,21.496 40.511 C 21.420 40.512,20.946 40.606,20.443 40.720 L 19.529 40.927 15.145 38.068 C 12.734 36.495,10.749 35.170,10.733 35.122 C 10.704 35.037,12.105 34.229,12.528 34.087 C 12.913 33.957,13.000 34.013,17.357 37.190 M92.276 34.549 C 92.639 34.795,92.934 35.033,92.932 35.076 C 92.930 35.119,91.552 36.047,89.869 37.137 C 88.187 38.227,86.143 39.560,85.327 40.099 L 83.843 41.079 82.849 40.886 C 81.967 40.714,81.879 40.676,82.070 40.549 C 82.188 40.470,84.321 38.967,86.810 37.208 C 89.299 35.449,91.399 34.030,91.476 34.055 C 91.553 34.080,91.913 34.302,92.276 34.549 M278.780 34.297 L 278.366 34.340 278.366 36.927 L 278.366 39.514 281.408 39.514 L 284.450 39.514 282.709 37.500 C 281.751 36.392,280.719 35.200,280.415 34.851 C 279.828 34.176,279.852 34.185,278.780 34.297 M203.366 34.431 C 204.763 34.473,205.781 34.517,205.629 34.528 C 201.374 34.862,177.164 37.274,161.510 38.924 C 150.144 40.123,140.821 41.078,140.791 41.049 C 140.761 41.019,140.791 40.664,140.858 40.261 C 140.979 39.533,140.982 39.528,141.378 39.467 C 141.598 39.433,148.780 38.657,157.340 37.742 C 182.641 35.038,194.673 34.173,203.366 34.431 M281.224 36.804 C 282.141 37.863,282.892 38.757,282.892 38.790 C 282.892 38.824,282.023 38.852,280.960 38.852 L 279.029 38.852 279.029 36.930 C 279.029 34.992,279.044 34.914,279.431 34.887 C 279.500 34.883,280.307 35.745,281.224 36.804 M14.495 38.426 C 16.934 40.012,18.977 41.354,19.035 41.406 C 19.100 41.466,19.027 41.733,18.842 42.111 C 18.677 42.446,18.543 42.893,18.543 43.104 C 18.543 43.328,18.488 43.488,18.411 43.488 C 18.228 43.488,7.909 40.617,7.839 40.546 C 7.807 40.515,7.800 39.761,7.822 38.870 L 7.862 37.252 8.317 36.708 C 8.772 36.165,9.622 35.541,9.908 35.541 C 9.992 35.541,12.056 36.839,14.495 38.426 M95.364 36.687 L 96.965 37.822 97.047 39.132 C 97.093 39.852,97.093 40.474,97.047 40.512 C 96.966 40.582,87.631 43.488,87.490 43.488 C 87.450 43.488,87.417 43.289,87.417 43.046 C 87.417 42.804,87.367 42.605,87.306 42.605 C 87.244 42.605,86.753 42.332,86.214 41.999 C 85.676 41.666,85.136 41.355,85.016 41.309 C 84.787 41.222,93.225 35.567,93.598 35.557 C 93.689 35.554,94.484 36.063,95.364 36.687 M232.755 36.010 C 232.666 36.147,232.432 36.544,232.235 36.893 L 231.877 37.528 231.216 37.528 L 230.555 37.528 230.904 37.058 C 231.096 36.800,231.386 36.404,231.548 36.178 C 231.917 35.664,233.088 35.501,232.755 36.010 M275.276 38.852 L 275.276 41.943 273.400 41.943 L 271.523 41.943 271.523 38.852 L 271.523 35.762 273.400 35.762 L 275.276 35.762 275.276 38.852 M49.626 40.177 L 49.697 40.618 52.442 40.618 L 55.188 40.618 55.188 40.177 L 55.188 39.735 64.266 39.735 L 73.344 39.736 79.062 40.833 C 84.153 41.810,84.842 41.967,85.353 42.265 L 85.927 42.600 52.633 42.602 L 19.340 42.605 19.631 42.056 C 19.899 41.550,19.967 41.497,20.475 41.389 C 20.778 41.325,22.541 40.932,24.393 40.516 L 27.759 39.760 38.658 39.748 L 49.556 39.735 49.626 40.177 M12.196 42.490 L 16.501 43.695 15.482 43.702 C 14.565 43.708,14.392 43.744,13.744 44.063 L 13.024 44.418 13.024 45.940 L 13.024 47.461 10.273 47.461 L 7.523 47.461 7.569 46.661 C 7.594 46.221,7.646 44.830,7.683 43.571 C 7.720 42.311,7.782 41.281,7.821 41.282 C 7.860 41.283,9.829 41.827,12.196 42.490 M97.130 42.698 C 97.130 43.478,97.163 44.719,97.202 45.457 L 97.275 46.799 95.105 46.799 L 92.936 46.799 92.936 45.605 L 92.936 44.411 92.136 44.062 C 91.454 43.765,91.181 43.709,90.297 43.683 L 89.258 43.653 93.001 42.479 C 95.060 41.832,96.831 41.298,96.937 41.292 C 97.112 41.281,97.130 41.417,97.130 42.698 M290.066 42.163 L 290.066 43.046 290.397 43.046 L 290.728 43.046 290.728 42.163 L 290.728 41.280 291.280 41.280 L 291.832 41.280 291.832 42.163 L 291.832 43.046 292.163 43.046 L 292.494 43.046 292.494 42.163 L 292.494 41.280 302.870 41.280 L 313.245 41.280 313.245 42.163 L 313.245 43.046 313.576 43.046 L 313.907 43.046 313.907 42.163 L 313.907 41.280 314.459 41.280 L 315.011 41.280 315.011 42.163 L 315.011 43.046 315.342 43.046 L 315.673 43.046 315.673 42.163 L 315.673 41.280 327.152 41.280 L 338.631 41.280 338.631 42.163 L 338.631 43.046 338.962 43.046 L 339.294 43.046 339.294 42.163 L 339.294 41.280 339.845 41.280 L 340.397 41.280 340.397 42.163 L 340.397 43.046 340.728 43.046 L 341.060 43.046 341.060 42.163 L 341.060 41.280 351.325 41.280 L 361.589 41.280 361.589 42.053 L 361.589 42.826 361.921 42.826 L 362.252 42.826 362.252 42.053 L 362.252 41.280 362.804 41.280 L 363.355 41.280 363.355 42.053 L 363.355 42.826 363.687 42.826 L 364.018 42.826 364.018 42.053 L 364.018 41.280 374.283 41.280 L 384.547 41.280 384.547 42.053 L 384.547 42.826 384.879 42.826 L 385.210 42.826 385.210 42.053 L 385.210 41.280 385.762 41.280 L 386.313 41.280 386.313 42.053 L 386.313 42.826 386.645 42.826 L 386.976 42.826 386.976 42.053 L 386.976 41.280 391.611 41.280 L 396.247 41.280 396.247 42.605 L 396.247 43.929 337.307 43.929 L 278.366 43.929 278.366 45.475 L 278.366 47.020 277.815 47.020 L 277.263 47.020 277.263 44.150 L 277.263 41.280 283.664 41.280 L 290.066 41.280 290.066 42.163 M270.861 45.125 L 270.861 47.646 256.439 47.719 C 248.506 47.759,235.245 47.792,226.968 47.792 L 211.921 47.792 211.921 45.938 L 211.921 44.084 212.334 43.513 L 212.748 42.942 215.066 42.928 C 219.007 42.903,263.872 42.642,267.467 42.623 L 270.861 42.605 270.861 45.125 M275.276 43.267 L 275.276 43.929 273.400 43.929 L 271.523 43.929 271.523 43.267 L 271.523 42.605 273.400 42.605 L 275.276 42.605 275.276 43.267 M211.702 43.264 C 211.574 43.444,211.421 43.621,211.364 43.657 C 211.303 43.694,211.258 44.579,211.258 45.739 L 211.258 47.756 193.194 47.829 C 183.258 47.870,170.536 47.903,164.922 47.903 L 154.715 47.903 153.406 48.839 L 152.097 49.774 152.097 47.293 L 152.097 44.812 152.511 44.812 C 152.739 44.812,161.294 44.434,171.523 43.971 C 190.851 43.098,194.363 42.994,205.719 42.956 L 211.936 42.936 211.702 43.264 M20.971 49.549 L 20.971 55.831 20.088 55.430 L 19.205 55.029 19.205 49.148 L 19.205 43.267 20.088 43.267 L 20.971 43.267 20.971 49.549 M70.861 43.819 L 70.861 44.371 52.870 44.371 L 34.879 44.371 34.879 43.819 L 34.879 43.267 52.870 43.267 L 70.861 43.267 70.861 43.819 M86.755 48.770 L 86.755 54.273 85.762 55.004 L 84.768 55.735 84.768 49.501 L 84.768 43.267 85.762 43.267 L 86.755 43.267 86.755 48.770 M34.216 49.779 L 34.216 56.071 27.925 56.071 L 21.634 56.071 21.634 49.779 L 21.634 43.488 27.925 43.488 L 34.216 43.488 34.216 49.779 M84.106 49.779 L 84.106 56.071 77.815 56.071 L 71.523 56.071 71.523 49.779 L 71.523 43.488 77.815 43.488 L 84.106 43.488 84.106 49.779 M256.291 45.143 L 256.291 46.799 260.596 46.799 L 264.901 46.799 264.901 45.143 L 264.901 43.488 260.596 43.488 L 256.291 43.488 256.291 45.143 M27.152 44.109 C 22.530 45.004,20.791 50.514,24.100 53.780 C 27.632 57.266,33.664 54.707,33.664 49.724 C 33.664 46.297,30.398 43.480,27.152 44.109 M76.298 44.207 C 73.670 44.778,71.632 47.542,71.905 50.166 C 72.424 55.151,78.343 57.175,81.724 53.522 C 85.454 49.494,81.692 43.035,76.298 44.207 M264.238 45.143 L 264.238 46.137 260.596 46.137 L 256.954 46.137 256.954 45.143 L 256.954 44.150 260.596 44.150 L 264.238 44.150 264.238 45.143 M18.543 46.799 L 18.543 49.227 16.595 49.227 C 14.661 49.227,14.645 49.225,14.167 48.924 L 13.687 48.620 13.687 46.738 L 13.687 44.856 14.156 44.620 C 14.580 44.407,14.811 44.384,16.584 44.378 L 18.543 44.371 18.543 46.799 M91.774 44.614 L 92.274 44.856 92.274 46.710 L 92.274 48.564 91.816 48.896 L 91.358 49.227 89.387 49.227 L 87.417 49.227 87.417 46.799 L 87.417 44.371 89.346 44.371 C 91.108 44.371,91.318 44.392,91.774 44.614 M275.276 45.254 L 275.276 45.916 273.400 45.916 L 271.523 45.916 271.523 45.254 L 271.523 44.592 273.400 44.592 L 275.276 44.592 275.276 45.254 M28.930 44.815 C 31.310 45.266,33.002 47.305,33.002 49.722 C 33.002 54.184,27.687 56.392,24.527 53.242 C 21.082 49.809,24.165 43.911,28.930 44.815 M78.489 44.813 C 80.801 45.244,82.558 47.366,82.558 49.724 C 82.558 54.109,77.147 56.386,74.085 53.289 C 70.601 49.765,73.645 43.909,78.489 44.813 M151.435 46.854 L 151.435 48.786 147.020 48.786 L 142.605 48.786 142.605 47.020 L 142.605 45.254 143.184 45.244 C 143.503 45.238,145.006 45.171,146.523 45.094 C 148.041 45.017,149.767 44.947,150.359 44.939 L 151.435 44.923 151.435 46.854 M70.861 45.916 L 70.861 46.799 52.870 46.799 L 34.879 46.799 34.879 45.916 L 34.879 45.033 52.870 45.033 L 70.861 45.033 70.861 45.916 M141.943 49.556 L 141.943 53.858 144.080 53.888 L 146.217 53.918 143.578 55.779 C 141.020 57.583,140.944 57.648,141.101 57.877 C 141.330 58.210,140.883 58.496,148.210 53.324 L 154.912 48.593 183.045 48.515 L 211.178 48.437 211.111 48.694 C 211.074 48.836,210.959 49.312,210.855 49.752 L 210.666 50.552 184.389 50.552 L 158.111 50.552 153.311 54.854 L 148.510 59.157 143.846 59.159 L 139.182 59.161 139.210 52.290 L 139.238 45.419 140.508 45.359 C 141.206 45.325,141.814 45.288,141.860 45.276 C 141.905 45.264,141.943 47.190,141.943 49.556 M275.276 47.130 L 275.276 47.682 273.400 47.682 L 271.523 47.682 271.523 47.130 L 271.523 46.578 273.400 46.578 L 275.276 46.578 275.276 47.130 M48.896 47.747 C 48.236 48.124,48.030 48.320,47.779 48.813 L 47.567 49.227 41.223 49.227 L 34.879 49.227 34.879 48.344 L 34.879 47.461 42.136 47.463 L 49.393 47.464 48.896 47.747 M70.861 48.344 L 70.861 49.227 63.919 49.227 L 56.978 49.227 56.909 48.954 C 56.822 48.608,56.192 47.972,55.655 47.689 L 55.243 47.471 63.052 47.466 L 70.861 47.461 70.861 48.344 M97.277 50.028 C 97.317 51.439,97.382 54.568,97.422 56.981 L 97.496 61.369 89.283 61.376 L 81.071 61.383 79.801 62.809 L 78.532 64.236 52.483 64.232 L 26.435 64.229 25.166 62.802 L 23.896 61.375 15.507 61.372 L 7.118 61.369 7.147 60.513 C 7.241 57.785,7.506 48.977,7.506 48.587 L 7.506 48.124 10.265 48.124 L 13.024 48.124 13.027 48.538 C 13.030 48.909,13.086 48.989,13.579 49.324 C 14.110 49.684,14.128 49.713,14.128 50.230 L 14.128 50.763 15.591 52.200 L 17.053 53.636 17.798 53.639 L 18.543 53.642 18.545 54.553 L 18.548 55.464 19.759 56.008 C 20.426 56.307,20.971 56.592,20.971 56.642 C 20.971 56.692,35.326 56.733,52.870 56.733 C 70.414 56.733,84.768 56.692,84.768 56.643 C 84.768 56.593,85.364 56.114,86.093 55.579 L 87.417 54.604 87.417 54.123 L 87.417 53.642 88.141 53.642 L 88.866 53.642 90.321 52.235 L 91.777 50.828 91.810 50.245 C 91.842 49.682,91.861 49.652,92.388 49.307 L 92.932 48.951 92.934 48.206 L 92.936 47.461 95.071 47.461 L 97.206 47.461 97.277 50.028 M54.119 47.847 C 56.956 48.586,57.109 50.274,54.415 51.115 C 51.277 52.094,47.132 50.490,48.570 48.852 C 49.454 47.846,52.202 47.348,54.119 47.847 M396.468 53.240 L 396.468 58.797 395.197 62.483 C 394.498 64.511,393.849 66.381,393.753 66.639 L 393.580 67.108 373.527 67.108 L 353.474 67.108 350.716 62.509 L 347.958 57.909 346.137 56.770 L 344.316 55.630 331.512 55.630 L 318.709 55.629 316.511 57.037 L 314.313 58.444 311.805 62.528 L 309.298 66.611 293.446 66.639 L 277.594 66.667 277.594 65.011 L 277.594 63.355 292.467 63.351 L 307.340 63.346 310.762 58.390 L 314.183 53.433 331.331 53.455 L 348.479 53.477 351.805 58.857 L 355.132 64.237 372.703 64.238 L 390.274 64.238 391.053 63.293 L 391.832 62.347 391.832 55.622 L 391.832 48.896 391.501 48.896 L 391.170 48.896 391.169 55.491 L 391.168 62.086 390.589 62.827 L 390.011 63.567 372.740 63.544 L 355.469 63.521 352.155 58.144 L 348.841 52.768 331.347 52.768 L 313.852 52.768 310.427 57.703 L 307.002 62.638 292.316 62.666 L 277.630 62.694 277.557 58.472 C 277.517 56.149,277.484 52.772,277.484 50.966 L 277.483 47.682 336.976 47.682 L 396.468 47.682 396.468 53.240 M270.861 49.448 L 270.861 50.552 241.115 50.552 C 224.754 50.552,211.369 50.531,211.369 50.505 C 211.369 50.479,211.472 50.008,211.599 49.457 L 211.830 48.455 231.770 48.427 C 242.738 48.412,256.020 48.387,261.286 48.372 L 270.861 48.344 270.861 49.448 M275.276 49.448 L 275.276 50.552 273.400 50.552 L 271.523 50.552 271.523 49.448 L 271.523 48.344 273.400 48.344 L 275.276 48.344 275.276 49.448 M151.414 49.856 C 151.381 50.249,151.304 50.319,149.338 51.724 L 147.296 53.184 144.950 53.193 L 142.605 53.201 142.605 51.325 L 142.605 49.448 147.027 49.448 L 151.448 49.448 151.414 49.856 M18.543 51.435 L 18.543 52.980 17.949 52.980 L 17.356 52.980 16.073 51.755 C 15.012 50.742,14.790 50.475,14.790 50.210 L 14.790 49.890 16.667 49.890 L 18.543 49.890 18.543 51.435 M47.682 50.055 C 47.682 50.337,48.442 51.078,49.035 51.373 L 49.602 51.656 42.240 51.656 L 34.879 51.656 34.879 50.773 L 34.879 49.890 41.280 49.890 C 46.892 49.890,47.682 49.910,47.682 50.055 M70.861 50.773 L 70.861 51.656 62.942 51.653 C 55.152 51.651,55.029 51.647,55.471 51.447 C 56.062 51.178,56.672 50.634,56.843 50.221 L 56.980 49.890 63.921 49.890 L 70.861 49.890 70.861 50.773 M91.170 50.208 C 91.170 50.473,90.948 50.735,89.859 51.754 L 88.548 52.980 87.982 52.980 L 87.417 52.980 87.417 51.435 L 87.417 49.890 89.294 49.890 L 91.170 49.890 91.170 50.208 M210.596 56.229 C 210.596 60.858,210.613 61.315,210.816 62.162 C 210.937 62.667,211.036 63.142,211.037 63.218 C 211.037 63.328,209.397 63.351,203.013 63.329 L 194.988 63.300 192.869 58.609 L 190.750 53.918 174.511 53.890 L 158.272 53.862 153.518 57.714 L 148.763 61.565 145.987 61.631 C 144.461 61.667,141.933 61.726,140.370 61.763 L 137.528 61.830 137.528 60.827 L 137.528 59.823 143.139 59.823 L 148.750 59.823 153.542 55.524 L 158.333 51.224 184.465 51.219 L 210.596 51.214 210.596 56.229 M270.860 53.946 C 270.859 56.158,270.796 57.307,270.529 59.989 C 270.348 61.810,270.199 63.313,270.199 63.328 C 270.199 63.343,257.050 63.343,240.980 63.328 L 211.761 63.300 211.513 62.252 C 211.276 61.248,211.266 60.989,211.262 56.209 L 211.258 51.214 241.060 51.214 L 270.861 51.214 270.860 53.946 M275.276 57.285 L 275.276 63.355 273.058 63.355 L 270.840 63.355 270.907 62.831 C 271.281 59.887,271.523 56.387,271.523 53.924 L 271.523 51.214 273.400 51.214 L 275.276 51.214 275.276 57.285 M70.861 53.201 L 70.861 54.084 52.870 54.084 L 34.879 54.084 34.879 53.201 L 34.879 52.318 52.870 52.318 L 70.861 52.318 70.861 53.201 M195.327 65.672 C 198.608 72.946,200.331 76.887,200.331 77.121 L 200.331 77.478 202.277 77.508 L 204.222 77.539 204.600 78.627 C 204.808 79.226,205.051 79.827,205.140 79.963 C 205.301 80.209,205.301 80.209,203.175 80.827 C 199.899 81.780,195.477 82.892,194.966 82.892 C 194.842 82.892,194.812 82.578,194.812 81.242 C 194.812 60.123,167.690 51.449,155.406 68.639 C 153.813 70.867,151.876 75.302,151.876 76.720 C 151.876 77.026,151.811 76.996,151.025 76.325 C 149.605 75.112,149.284 75.348,148.168 78.422 C 147.705 79.696,147.293 80.776,147.252 80.820 C 147.211 80.865,145.454 80.718,143.346 80.494 L 139.514 80.086 139.514 79.357 L 139.514 78.629 140.508 78.311 C 141.054 78.137,141.501 77.970,141.501 77.941 C 141.501 77.913,141.158 77.432,140.738 76.874 L 139.975 75.859 140.976 75.788 C 141.526 75.749,142.416 75.717,142.954 75.717 L 143.932 75.717 145.807 74.779 L 147.682 73.840 147.682 71.269 L 147.682 68.697 145.841 67.682 L 144.000 66.667 141.549 66.667 L 139.098 66.667 139.140 65.977 C 139.163 65.597,139.211 64.660,139.248 63.894 L 139.314 62.501 139.883 62.432 C 140.196 62.395,141.371 62.363,142.494 62.363 C 143.618 62.362,145.542 62.329,146.772 62.289 L 149.008 62.217 153.726 58.381 L 158.444 54.545 174.383 54.563 L 190.322 54.581 195.327 65.672 M70.861 55.408 L 70.861 56.071 52.870 56.071 L 34.879 56.071 34.879 55.408 L 34.879 54.746 52.870 54.746 L 70.861 54.746 70.861 55.408 M345.827 57.363 L 347.534 58.434 350.297 63.075 L 353.061 67.715 359.425 67.744 L 365.789 67.772 369.776 70.718 C 373.281 73.308,373.731 73.674,373.499 73.743 C 373.353 73.786,372.342 73.878,371.251 73.948 C 370.160 74.017,369.250 74.090,369.230 74.111 C 369.209 74.132,369.673 75.673,370.261 77.535 C 371.452 81.309,371.462 81.395,370.751 81.873 C 370.126 82.295,370.048 82.231,368.379 79.945 C 366.609 77.519,366.837 77.675,365.963 78.294 C 363.143 80.294,359.681 81.748,355.946 82.501 C 353.955 82.902,353.863 82.894,353.863 82.327 C 353.863 77.149,350.461 70.555,345.876 66.845 C 332.817 56.280,313.067 63.972,310.701 80.546 L 310.571 81.457 309.780 81.457 C 306.552 81.457,302.400 76.720,301.571 72.091 L 301.380 71.022 300.141 69.865 L 298.901 68.709 298.899 68.019 L 298.896 67.329 304.277 67.324 L 309.658 67.320 312.196 63.166 C 314.246 59.812,314.820 58.952,315.177 58.700 C 315.419 58.529,316.338 57.921,317.219 57.350 L 318.819 56.312 331.470 56.302 L 344.121 56.291 345.827 57.363 M36.305 59.925 C 35.991 60.240,35.982 60.277,35.982 61.369 C 35.982 62.460,35.991 62.498,36.305 62.812 L 36.628 63.135 41.170 63.135 L 45.712 63.135 46.035 62.812 C 46.531 62.316,46.531 60.421,46.035 59.925 L 45.712 59.603 41.170 59.603 L 36.628 59.603 36.305 59.925 M48.226 59.925 C 47.911 60.240,47.903 60.277,47.903 61.369 C 47.903 62.460,47.911 62.498,48.226 62.812 L 48.548 63.135 53.091 63.135 L 57.633 63.135 57.956 62.812 C 58.270 62.498,58.278 62.460,58.278 61.369 C 58.278 60.277,58.270 60.240,57.956 59.925 L 57.633 59.603 53.091 59.603 L 48.548 59.603 48.226 59.925 M60.146 59.925 C 59.832 60.240,59.823 60.277,59.823 61.369 C 59.823 62.460,59.832 62.498,60.146 62.812 L 60.469 63.135 65.011 63.135 L 69.553 63.135 69.876 62.812 C 70.190 62.498,70.199 62.460,70.199 61.369 C 70.199 60.277,70.190 60.240,69.876 59.925 L 69.553 59.603 65.011 59.603 L 60.469 59.603 60.146 59.925 M176.034 60.321 C 190.102 62.321,198.240 77.480,192.109 90.262 C 184.196 106.756,160.263 105.902,153.550 88.886 C 147.669 73.979,160.191 58.069,176.034 60.321 M45.640 61.369 L 45.640 62.417 41.170 62.417 L 36.700 62.417 36.667 61.488 C 36.650 60.977,36.661 60.492,36.692 60.411 C 36.739 60.289,37.553 60.268,41.195 60.291 L 45.640 60.320 45.640 61.369 M57.561 61.369 L 57.561 62.417 53.091 62.417 L 48.620 62.417 48.588 61.488 C 48.570 60.977,48.581 60.492,48.613 60.411 C 48.659 60.289,49.473 60.268,53.115 60.291 L 57.561 60.320 57.561 61.369 M69.481 61.369 L 69.481 62.417 65.011 62.417 L 60.541 62.417 60.508 61.488 C 60.491 60.977,60.502 60.492,60.533 60.411 C 60.580 60.289,61.394 60.268,65.036 60.291 L 69.481 60.320 69.481 61.369 M334.934 62.821 C 348.132 64.353,356.613 78.462,351.909 91.060 C 346.386 105.850,326.810 109.483,316.432 97.644 C 303.614 83.022,315.543 60.570,334.934 62.821 M8.389 64.790 C 8.389 66.340,8.361 66.667,8.231 66.667 C 8.145 66.667,7.698 66.870,7.238 67.118 L 6.402 67.569 6.403 70.953 L 6.405 74.338 7.369 74.837 L 8.333 75.336 8.361 88.631 L 8.389 101.926 8.965 102.508 L 9.540 103.091 14.622 103.091 L 19.704 103.091 20.448 102.591 L 21.192 102.092 21.192 93.982 L 21.192 85.872 21.854 85.872 L 22.517 85.872 22.516 84.906 C 22.515 84.147,22.569 83.817,22.764 83.363 L 23.013 82.785 24.299 82.783 L 25.585 82.781 26.251 83.344 C 26.971 83.954,26.962 83.930,27.099 85.486 C 27.158 86.151,27.231 86.354,27.629 86.945 L 28.091 87.633 33.030 87.635 L 37.969 87.638 37.969 86.886 C 37.969 86.336,37.884 85.901,37.652 85.258 C 37.477 84.776,37.300 84.270,37.258 84.134 L 37.182 83.885 45.302 83.885 L 53.422 83.885 53.422 84.370 C 53.422 84.811,53.501 84.953,54.277 85.916 L 55.132 86.976 56.071 86.978 L 57.009 86.981 57.892 88.034 C 58.377 88.614,58.834 89.164,58.906 89.257 C 59.021 89.406,59.200 89.410,60.423 89.290 L 61.810 89.154 61.810 88.506 L 61.810 87.859 62.997 87.850 L 64.183 87.841 65.535 86.311 L 66.887 84.782 66.892 84.140 C 66.896 83.518,66.909 83.490,67.336 83.194 L 67.777 82.889 68.214 83.139 L 68.652 83.389 68.653 85.180 L 68.653 86.972 71.818 87.002 L 74.982 87.031 75.199 87.693 C 75.319 88.057,75.433 88.374,75.452 88.397 C 75.472 88.420,75.906 88.060,76.416 87.597 L 77.343 86.755 78.076 86.755 L 78.808 86.755 78.808 85.096 L 78.808 83.436 80.029 83.468 L 81.250 83.499 81.953 84.989 L 82.657 86.479 83.326 86.512 L 83.996 86.545 83.996 86.208 C 83.996 85.889,83.973 85.872,83.549 85.872 L 83.102 85.872 82.372 84.327 L 81.642 82.781 79.894 82.781 L 78.146 82.781 78.146 84.437 L 78.146 86.093 77.562 86.093 C 77.002 86.093,76.956 86.116,76.380 86.700 L 75.780 87.307 75.596 86.838 L 75.413 86.369 72.364 86.339 L 69.316 86.310 69.316 84.669 L 69.316 83.028 68.548 82.564 L 67.781 82.100 67.004 82.634 L 66.226 83.168 66.226 83.841 L 66.225 84.514 65.040 85.855 L 63.856 87.196 62.502 87.196 L 61.148 87.196 61.148 87.851 C 61.148 88.605,61.159 88.597,60.035 88.651 L 59.309 88.687 58.293 87.500 L 57.277 86.313 56.360 86.313 L 55.443 86.313 54.765 85.458 C 54.098 84.618,54.086 84.591,54.085 83.913 L 54.084 83.223 45.199 83.223 C 39.830 83.223,36.313 83.263,36.313 83.325 C 36.313 83.381,36.537 84.070,36.810 84.855 C 37.083 85.640,37.307 86.439,37.307 86.629 L 37.307 86.976 32.864 86.976 L 28.422 86.975 28.118 86.494 C 27.865 86.095,27.794 85.809,27.695 84.811 C 27.629 84.150,27.542 83.578,27.502 83.540 C 27.461 83.503,27.071 83.167,26.634 82.795 L 25.840 82.119 24.235 82.119 L 22.630 82.119 22.242 82.889 C 21.909 83.551,21.854 83.767,21.854 84.434 L 21.854 85.210 21.523 85.210 L 21.192 85.210 21.192 80.795 L 21.192 76.380 52.649 76.380 L 84.106 76.380 84.106 89.239 L 84.106 102.099 84.880 102.595 L 85.653 103.091 90.775 103.091 L 95.896 103.091 96.403 102.527 L 96.909 101.963 96.909 88.580 L 96.909 75.197 97.573 74.787 L 98.237 74.378 98.208 70.890 L 98.179 67.402 97.546 67.062 L 96.913 66.722 96.911 64.818 L 96.909 62.914 96.578 62.914 L 96.247 62.914 96.247 64.790 L 96.247 66.667 52.649 66.667 L 9.051 66.667 9.051 64.790 L 9.051 62.914 8.720 62.914 L 8.389 62.914 8.389 64.790 M211.474 65.039 C 211.604 65.600,211.833 66.611,211.985 67.286 C 212.224 68.348,212.392 68.763,213.249 70.404 C 213.793 71.444,214.238 72.321,214.238 72.352 C 214.238 72.382,210.825 72.395,206.653 72.379 L 199.068 72.351 197.220 68.267 C 196.204 66.021,195.371 64.146,195.369 64.100 C 195.366 64.055,198.936 64.018,203.301 64.018 L 211.239 64.018 211.474 65.039 M270.088 64.156 C 270.083 65.703,269.289 69.724,268.741 70.979 L 268.141 72.351 241.586 72.379 L 215.030 72.407 213.967 70.358 C 212.926 68.354,212.893 68.267,212.468 66.412 C 212.229 65.368,212.007 64.403,211.975 64.266 L 211.916 64.018 241.002 64.018 C 264.198 64.018,270.088 64.046,270.088 64.156 M275.276 68.212 L 275.276 72.406 272.075 72.406 C 270.315 72.406,268.874 72.387,268.874 72.363 C 268.874 72.339,269.123 71.756,269.428 71.067 C 269.977 69.824,269.985 69.791,270.383 66.916 L 270.785 64.018 273.031 64.018 L 275.276 64.018 275.276 68.212 M97.072 67.572 L 97.572 67.814 97.572 70.911 L 97.572 74.007 96.227 74.862 L 94.882 75.717 52.674 75.717 L 10.465 75.717 8.763 74.818 L 7.061 73.918 7.090 70.927 L 7.119 67.937 7.671 67.635 L 8.223 67.334 52.398 67.331 L 96.572 67.329 97.072 67.572 M145.419 68.199 L 146.965 69.059 146.965 71.248 L 146.965 73.436 145.419 74.240 L 143.874 75.043 138.864 75.162 C 136.109 75.228,133.838 75.265,133.817 75.245 C 133.730 75.157,133.558 69.158,133.640 69.075 C 133.690 69.025,134.325 68.616,135.050 68.166 L 136.369 67.347 140.121 67.342 L 143.874 67.338 145.419 68.199 M281.015 68.902 L 281.015 70.475 281.466 71.109 L 281.916 71.744 287.785 71.743 L 293.653 71.743 294.178 71.293 L 294.702 70.844 294.702 69.086 L 294.702 67.329 296.468 67.329 L 298.234 67.329 298.234 69.858 L 298.234 72.387 297.668 72.838 L 297.101 73.289 288.097 73.289 L 279.092 73.289 278.619 72.825 L 278.146 72.360 278.146 69.845 L 278.146 67.329 279.581 67.329 L 281.015 67.329 281.015 68.902 M294.040 68.896 C 294.040 70.446,294.037 70.466,293.743 70.772 L 293.447 71.082 287.842 71.082 L 282.238 71.082 281.958 70.670 C 281.693 70.280,281.678 70.179,281.678 68.793 L 281.678 67.329 287.859 67.329 L 294.040 67.329 294.040 68.896 M390.949 67.809 C 390.949 67.831,390.349 68.613,389.616 69.547 L 388.284 71.246 388.351 72.295 C 388.387 72.872,388.442 73.667,388.472 74.062 L 388.527 74.779 387.874 75.248 L 387.222 75.717 382.792 75.717 L 378.363 75.717 377.344 75.234 C 376.511 74.839,367.885 68.664,367.058 67.871 C 366.995 67.810,371.730 67.770,378.951 67.770 C 385.550 67.770,390.949 67.788,390.949 67.809 M171.815 68.438 C 161.178 69.619,156.550 82.458,164.005 90.104 C 171.984 98.288,185.923 92.571,185.891 81.127 C 185.870 73.554,179.276 67.610,171.815 68.438 M398.723 68.913 L 399.117 69.394 399.117 72.004 L 399.117 74.614 394.159 74.614 L 389.201 74.614 389.140 73.924 C 389.107 73.544,389.051 72.836,389.016 72.349 L 388.952 71.464 389.795 70.390 L 390.639 69.316 393.429 69.316 L 396.219 69.316 397.144 68.877 C 398.290 68.334,398.248 68.333,398.723 68.913 M174.265 69.097 C 182.717 69.987,187.690 78.797,184.042 86.418 C 180.275 94.285,169.561 95.682,163.907 89.042 C 157.615 81.653,162.204 70.126,171.844 69.103 C 173.034 68.977,173.119 68.976,174.265 69.097 M171.174 70.923 C 162.977 72.407,159.869 82.685,165.836 88.576 C 172.240 94.899,183.063 90.676,183.516 81.678 C 183.855 74.945,177.852 69.715,171.174 70.923 M330.960 70.931 C 320.405 72.070,315.643 84.702,322.857 92.427 C 329.744 99.801,342.089 96.596,344.599 86.781 C 346.755 78.353,339.569 70.001,330.960 70.931 M175.698 71.739 C 184.338 74.213,185.469 85.953,177.448 89.901 C 171.197 92.978,163.818 88.715,163.390 81.780 C 162.980 75.156,169.385 69.931,175.698 71.739 M333.609 71.646 C 341.932 72.665,346.710 81.448,343.060 89.018 C 338.540 98.393,324.942 97.928,320.962 88.263 C 317.473 79.789,324.518 70.531,333.609 71.646 M214.570 74.283 L 214.570 75.497 241.032 75.496 L 267.494 75.494 268.003 74.309 L 268.512 73.124 271.894 73.094 L 275.276 73.065 275.276 75.057 L 275.276 77.049 250.193 76.977 C 236.398 76.936,219.698 76.873,213.083 76.835 L 201.056 76.766 200.254 75.000 C 199.813 74.029,199.452 73.197,199.450 73.151 C 199.449 73.106,202.850 73.068,207.009 73.068 L 214.570 73.068 214.570 74.283 M267.770 73.127 C 267.770 73.160,267.611 73.557,267.416 74.010 L 267.062 74.834 241.147 74.834 L 215.232 74.834 215.232 73.951 L 215.232 73.068 241.501 73.068 C 255.949 73.068,267.770 73.095,267.770 73.127 M330.145 73.460 C 321.954 75.237,318.951 85.184,324.831 91.063 C 329.942 96.175,338.635 94.609,341.674 88.030 C 345.191 80.420,338.285 71.694,330.145 73.460 M334.819 74.270 C 344.083 77.055,344.333 89.991,335.181 92.979 C 327.363 95.531,320.082 87.703,323.144 80.036 C 324.947 75.521,330.256 72.898,334.819 74.270 M172.572 75.230 C 172.450 75.257,172.078 75.332,171.744 75.399 C 166.573 76.428,165.573 83.891,170.271 86.394 C 175.410 89.134,181.019 83.679,178.417 78.473 C 177.370 76.378,174.536 74.806,172.572 75.230 M15.396 76.380 L 20.530 76.380 20.530 89.061 L 20.530 101.743 19.996 102.086 L 19.462 102.428 14.620 102.428 L 9.779 102.428 9.415 102.075 L 9.051 101.723 9.051 88.710 L 9.051 75.696 9.656 76.038 L 10.262 76.380 15.396 76.380 M96.247 88.709 L 96.247 101.700 95.894 102.064 L 95.542 102.428 90.689 102.428 L 85.836 102.428 85.302 102.086 L 84.768 101.743 84.768 89.061 L 84.768 76.380 89.928 76.379 L 95.088 76.379 95.585 76.049 C 95.858 75.867,96.119 75.718,96.164 75.718 C 96.210 75.718,96.247 81.564,96.247 88.709 M173.951 75.941 C 180.320 76.934,179.549 86.424,173.100 86.424 C 166.775 86.424,165.976 76.989,172.212 75.950 C 173.021 75.816,173.141 75.815,173.951 75.941 M150.881 77.070 L 151.662 77.759 151.587 78.422 C 151.546 78.786,151.483 79.492,151.446 79.992 L 151.380 80.899 150.181 81.897 C 148.640 83.178,148.140 83.285,147.728 82.421 C 147.555 82.060,147.564 82.026,148.500 79.433 C 149.801 75.827,149.647 75.980,150.881 77.070 M171.863 77.327 C 167.574 78.885,168.583 85.155,173.124 85.155 C 177.437 85.155,178.692 79.221,174.752 77.457 C 174.051 77.143,172.555 77.076,171.863 77.327 M207.128 77.747 C 207.873 78.093,208.168 78.480,208.168 79.110 C 208.168 80.474,206.321 80.811,205.676 79.564 C 205.487 79.200,204.967 77.739,204.967 77.574 C 204.967 77.357,206.564 77.484,207.128 77.747 M210.257 78.058 C 210.095 78.538,210.002 78.654,209.695 78.760 C 208.826 79.060,208.830 79.059,208.830 78.808 C 208.830 78.505,208.655 78.168,208.299 77.787 L 208.016 77.483 209.234 77.483 L 210.452 77.483 210.257 78.058 M293.564 77.944 C 293.884 78.245,293.890 78.663,293.579 78.994 L 293.339 79.249 252.333 79.249 L 211.328 79.249 211.072 79.009 C 210.756 78.712,210.747 78.375,211.046 77.995 L 211.274 77.704 252.291 77.704 L 293.308 77.704 293.564 77.944 M330.933 77.872 C 326.328 78.872,324.684 84.525,328.027 87.868 C 331.789 91.630,338.112 88.997,338.121 83.664 C 338.127 79.904,334.613 77.072,330.933 77.872 M174.708 78.203 C 177.900 79.940,176.441 84.844,172.830 84.516 C 170.216 84.279,168.875 81.288,170.425 79.149 C 171.359 77.860,173.293 77.433,174.708 78.203 M333.913 78.687 C 337.683 79.991,338.696 84.827,335.772 87.563 C 333.168 89.998,328.948 89.164,327.401 85.907 C 325.427 81.751,329.550 77.179,333.913 78.687 M306.457 80.809 C 307.976 81.813,308.723 82.119,309.655 82.119 L 310.486 82.119 310.486 82.892 C 310.486 83.554,310.458 83.664,310.292 83.664 C 310.186 83.664,307.938 83.392,305.298 83.058 C 302.657 82.724,300.438 82.451,300.367 82.451 C 300.289 82.451,300.365 82.196,300.557 81.816 C 300.845 81.245,301.113 80.407,301.439 79.060 L 301.552 78.595 302.680 78.563 L 303.808 78.532 304.746 79.415 C 305.263 79.901,306.033 80.528,306.457 80.809 M296.356 78.725 C 296.355 78.801,296.280 79.310,296.191 79.857 C 296.101 80.403,296.027 81.092,296.027 81.388 C 296.026 81.916,296.021 81.925,295.723 81.867 C 295.556 81.835,292.116 81.394,288.079 80.888 L 280.740 79.967 287.146 79.912 C 294.348 79.850,294.002 79.893,294.346 79.017 L 294.515 78.587 295.436 78.587 C 296.101 78.587,296.357 78.626,296.356 78.725 M367.435 79.795 C 367.864 80.368,368.177 80.870,368.130 80.912 C 367.558 81.428,359.583 84.118,355.101 85.307 L 353.855 85.638 353.887 84.578 L 353.918 83.519 355.353 83.275 C 359.100 82.636,362.602 81.291,365.508 79.373 C 366.704 78.583,366.495 78.537,367.435 79.795 M330.941 79.845 C 327.120 81.082,327.331 86.591,331.238 87.592 C 335.108 88.583,337.878 83.678,335.047 80.847 C 334.050 79.850,332.267 79.415,330.941 79.845 M285.486 81.233 C 295.487 82.492,295.981 82.565,296.173 82.805 C 296.284 82.944,296.482 83.182,296.614 83.333 C 296.746 83.485,296.879 83.779,296.909 83.987 C 296.963 84.353,296.995 84.375,297.924 84.684 C 298.878 85.001,298.884 85.005,298.918 85.401 C 298.948 85.763,298.995 85.814,299.427 85.958 C 299.689 86.045,299.888 86.130,299.869 86.147 C 299.850 86.164,297.252 85.839,294.095 85.424 C 290.938 85.009,284.903 84.219,280.684 83.667 C 276.465 83.115,270.555 82.341,267.550 81.945 L 262.086 81.226 250.993 81.350 L 239.901 81.473 238.635 81.746 C 237.939 81.897,237.360 82.030,237.348 82.042 C 237.336 82.054,237.279 82.774,237.221 83.641 C 237.162 84.508,237.089 85.243,237.058 85.274 C 237.027 85.305,235.073 85.268,232.715 85.192 L 228.427 85.054 227.983 84.663 C 227.739 84.448,226.957 83.738,226.246 83.085 L 224.953 81.898 221.638 81.898 L 218.322 81.898 218.322 81.195 L 218.322 80.492 217.688 80.209 L 217.053 79.926 246.026 79.919 L 275.000 79.912 285.486 81.233 M333.396 80.538 C 334.614 80.952,335.541 82.310,335.541 83.680 C 335.541 86.634,331.993 88.158,329.875 86.115 C 327.252 83.585,329.923 79.357,333.396 80.538 M203.532 81.894 C 203.532 82.381,203.643 82.322,201.876 82.776 C 201.167 82.958,201.158 82.965,201.104 83.387 L 201.049 83.813 199.310 84.262 L 197.572 84.711 197.572 85.167 L 197.572 85.623 196.039 85.913 C 194.220 86.257,194.229 86.257,194.305 86.010 C 194.338 85.904,194.445 85.345,194.543 84.768 C 194.760 83.501,194.370 83.754,197.088 83.115 C 198.356 82.818,200.262 82.329,201.325 82.029 C 203.718 81.355,203.532 81.366,203.532 81.894 M368.915 81.821 C 369.036 81.983,369.114 82.129,369.088 82.145 C 369.061 82.162,368.605 82.386,368.074 82.643 C 367.384 82.978,367.108 83.168,367.108 83.312 C 367.108 83.472,366.935 83.554,366.268 83.712 C 364.677 84.087,364.680 84.086,364.680 84.418 C 364.680 84.706,364.619 84.740,363.252 85.191 C 361.923 85.629,361.821 85.683,361.789 85.959 C 361.756 86.243,361.679 86.277,359.934 86.768 C 358.223 87.249,358.111 87.297,358.078 87.562 C 358.040 87.877,358.186 87.832,355.436 88.371 C 353.990 88.654,353.863 88.698,353.863 88.918 C 353.863 89.116,353.366 89.381,353.235 89.253 C 353.209 89.228,353.771 86.383,353.811 86.334 C 353.827 86.315,354.578 86.110,355.480 85.878 C 359.555 84.830,365.298 82.916,367.882 81.745 C 368.585 81.426,368.623 81.429,368.915 81.821 M151.452 82.561 C 151.473 82.864,151.470 83.113,151.445 83.113 C 151.420 83.113,151.131 83.028,150.803 82.925 L 150.208 82.737 150.628 82.377 C 151.240 81.853,151.405 81.890,151.452 82.561 M305.312 83.737 L 310.458 84.379 310.527 85.199 C 310.565 85.650,310.571 86.044,310.541 86.074 C 310.340 86.276,300.175 83.444,299.834 83.092 C 299.759 83.014,299.794 82.996,299.945 83.036 C 300.066 83.068,302.481 83.383,305.312 83.737 M151.609 84.024 C 151.718 84.366,151.618 84.358,150.541 83.942 C 149.402 83.502,149.400 83.501,149.490 83.355 C 149.602 83.174,151.533 83.783,151.609 84.024 M301.656 84.425 C 304.100 85.202,306.711 85.921,309.051 86.463 L 310.651 86.834 310.735 87.209 C 310.781 87.414,310.911 87.993,311.023 88.493 C 311.135 88.994,311.180 89.404,311.123 89.404 C 310.894 89.404,305.557 87.956,302.953 87.186 C 302.224 86.971,302.208 86.958,302.208 86.595 L 302.208 86.224 300.889 85.759 L 299.570 85.294 299.537 84.902 C 299.505 84.526,299.474 84.500,298.786 84.265 C 298.224 84.074,298.116 84.004,298.289 83.944 C 298.411 83.901,298.609 83.823,298.731 83.769 C 299.058 83.623,299.302 83.678,301.656 84.425 M194.213 87.170 C 194.083 87.301,194.041 87.108,194.122 86.745 L 194.205 86.369 194.241 86.738 C 194.260 86.941,194.248 87.136,194.213 87.170 " stroke="none" fill="#000000" fill-rule="evenodd"></path></g></svg>