<svg id="svg" xmlns="http://www.w3.org/2000/svg" xmlns:xlink="http://www.w3.org/1999/xlink" width="400" height="122.6488592097941" viewBox="0, 0, 400,122.6488592097941"><g id="svgg"><path id="path0" d="M253.534 0.556 C 253.534 0.740,253.584 0.890,253.645 0.890 C 253.716 0.890,253.756 1.818,253.756 3.450 C 253.756 5.083,253.716 6.010,253.645 6.010 C 253.584 6.010,253.534 6.160,253.534 6.344 L 253.534 6.678 260.100 6.678 L 266.667 6.678 266.667 7.835 L 266.667 8.992 265.915 9.121 C 265.502 9.193,259.029 10.322,251.530 11.632 C 244.032 12.942,235.993 14.342,233.667 14.744 C 228.594 15.621,229.482 15.218,227.039 17.752 C 225.917 18.915,224.208 20.674,223.240 21.661 L 221.480 23.455 221.480 21.188 L 221.480 18.920 222.259 18.920 L 223.038 18.920 223.038 17.696 L 223.038 16.472 223.817 16.472 L 224.597 16.472 224.597 16.144 C 224.597 15.833,224.570 15.815,224.081 15.782 L 223.565 15.748 222.760 13.689 L 221.954 11.630 219.577 11.630 L 217.199 11.630 216.314 13.717 L 215.428 15.804 215.004 15.804 C 214.607 15.804,214.580 15.825,214.580 16.138 L 214.580 16.472 215.248 16.472 L 215.915 16.472 215.915 17.696 L 215.915 18.920 216.930 18.920 L 217.944 18.920 217.902 20.451 C 217.867 21.707,217.820 22.056,217.639 22.397 C 217.517 22.626,212.515 28.847,206.523 36.220 L 195.628 49.627 194.558 49.579 C 190.016 49.374,186.606 49.421,182.258 49.749 C 179.865 49.930,174.574 50.330,170.499 50.637 C 163.891 51.136,130.006 54.600,129.663 54.812 C 129.621 54.838,129.497 55.383,129.388 56.023 L 129.188 57.186 127.810 57.827 L 126.433 58.468 126.433 59.952 L 126.433 61.436 127.045 61.436 L 127.657 61.436 127.657 68.087 L 127.657 74.739 126.938 75.183 L 126.218 75.626 126.214 78.102 L 126.210 80.579 124.616 80.579 L 123.022 80.579 121.375 81.706 L 119.728 82.834 119.796 84.461 C 119.833 85.356,119.896 86.952,119.935 88.008 L 120.006 89.928 123.108 89.928 C 125.102 89.928,126.210 89.967,126.210 90.039 C 126.210 90.111,127.791 90.150,130.729 90.150 L 135.247 90.150 136.377 91.231 C 136.998 91.826,137.525 92.324,137.547 92.338 C 137.570 92.353,137.234 93.331,136.802 94.513 C 135.812 97.221,135.828 97.148,136.088 97.738 C 136.411 98.468,136.894 98.785,138.843 99.544 C 140.324 100.121,140.629 100.279,140.659 100.480 C 140.682 100.638,140.798 100.747,140.993 100.790 C 141.701 100.950,142.483 101.156,142.507 101.189 C 142.521 101.208,142.645 101.799,142.783 102.501 C 146.287 120.307,169.115 126.366,180.994 112.643 C 183.420 109.840,185.240 106.227,185.931 102.838 C 186.169 101.673,186.083 101.762,187.178 101.543 L 188.091 101.360 188.091 100.887 L 188.091 100.414 188.954 100.183 C 189.428 100.056,190.230 99.842,190.735 99.707 L 191.653 99.463 191.653 99.051 L 191.653 98.639 192.872 98.327 L 194.091 98.015 194.124 97.516 C 194.155 97.051,194.191 96.999,194.678 96.728 L 195.199 96.439 195.513 96.737 C 196.736 97.903,198.794 97.028,198.794 95.342 L 198.794 94.854 199.584 94.616 C 200.358 94.383,200.379 94.383,200.604 94.588 C 201.072 95.013,201.285 95.047,203.435 95.047 L 205.549 95.047 206.614 95.542 L 207.679 96.036 207.679 96.877 L 207.679 97.718 211.271 97.718 L 214.862 97.718 216.583 99.276 C 217.805 100.383,218.401 100.849,218.640 100.885 C 219.096 100.953,228.043 101.210,228.093 101.156 C 228.115 101.132,228.184 100.370,228.247 99.462 C 228.311 98.554,228.389 97.784,228.422 97.751 C 228.815 97.358,230.335 97.290,241.627 97.165 L 252.810 97.041 275.515 99.999 C 300.454 103.249,297.874 102.849,301.826 104.083 L 302.651 104.341 302.958 105.565 C 306.082 118.049,319.011 125.183,331.274 121.189 C 337.877 119.039,343.289 113.569,345.356 106.956 L 345.652 106.010 346.894 105.681 C 347.967 105.397,348.136 105.321,348.136 105.123 C 348.136 104.920,348.280 104.864,349.388 104.639 C 352.144 104.078,352.142 104.078,352.142 103.743 C 352.142 103.453,352.201 103.424,353.812 102.916 C 355.449 102.399,355.481 102.383,355.481 102.072 C 355.481 101.768,355.534 101.737,356.810 101.287 C 358.014 100.862,358.143 100.791,358.174 100.529 C 358.197 100.334,358.298 100.212,358.486 100.154 C 358.639 100.107,359.128 99.964,359.572 99.835 C 360.259 99.636,360.378 99.565,360.379 99.355 C 360.379 99.155,360.596 99.000,361.540 98.521 C 362.842 97.860,363.308 97.348,363.446 96.428 C 363.572 95.593,363.266 94.488,362.976 94.728 C 362.894 94.796,362.827 94.825,362.827 94.793 C 362.827 94.760,362.652 93.902,362.437 92.885 C 361.941 90.530,361.886 90.783,363.102 89.844 L 364.147 89.037 369.202 89.037 L 374.256 89.037 374.565 90.456 C 374.927 92.118,374.892 92.039,375.447 92.478 L 375.879 92.821 384.907 92.821 L 393.936 92.821 395.432 91.959 L 396.929 91.096 397.957 87.869 C 399.143 84.142,399.089 84.458,398.662 83.779 L 398.330 83.250 393.147 83.250 L 387.965 83.250 387.459 82.165 C 387.181 81.568,386.921 81.067,386.880 81.051 C 386.840 81.035,386.867 80.359,386.941 79.548 C 387.014 78.738,387.078 77.992,387.082 77.892 C 387.089 77.731,387.210 77.747,388.063 78.022 C 391.698 79.190,395.885 79.005,399.374 77.520 L 399.805 77.337 399.735 67.244 C 399.697 61.693,399.635 52.704,399.597 47.270 L 399.527 37.389 399.034 37.100 C 395.613 35.095,390.574 35.171,387.034 37.282 L 386.366 37.680 386.397 43.910 C 386.414 47.336,386.451 50.991,386.479 52.031 C 386.507 53.072,386.508 53.873,386.481 53.812 C 386.454 53.751,386.198 51.021,385.912 47.746 L 385.392 41.792 382.124 30.634 L 378.857 19.476 377.065 16.028 L 375.273 12.581 373.839 10.993 L 372.405 9.405 372.402 8.041 L 372.398 6.678 374.958 6.678 L 377.518 6.678 377.518 3.784 C 377.518 1.929,377.558 0.890,377.629 0.890 C 377.691 0.890,377.741 0.740,377.741 0.556 L 377.741 0.223 315.637 0.223 L 253.534 0.223 253.534 0.556 M282.471 3.450 L 282.471 6.010 268.447 6.010 L 254.424 6.010 254.424 3.450 L 254.424 0.890 268.447 0.890 L 282.471 0.890 282.471 3.450 M315.192 3.450 L 315.192 6.010 299.165 6.010 L 283.139 6.010 283.139 3.450 L 283.139 0.890 299.165 0.890 L 315.192 0.890 315.192 3.450 M345.910 3.450 L 345.910 6.010 330.885 6.010 L 315.860 6.010 315.860 3.450 L 315.860 0.890 330.885 0.890 L 345.910 0.890 345.910 3.450 M376.850 3.450 L 376.850 6.010 361.714 6.010 L 346.578 6.010 346.578 3.450 L 346.578 0.890 361.714 0.890 L 376.850 0.890 376.850 3.450 M18.253 4.452 C 18.253 7.106,18.277 7.568,18.415 7.568 C 18.555 7.568,18.555 7.630,18.408 8.041 C 18.151 8.762,17.208 12.136,16.854 13.604 C 16.680 14.322,16.510 14.864,16.476 14.809 C 16.441 14.753,16.222 14.691,15.987 14.672 L 15.561 14.636 14.720 12.547 L 13.878 10.458 11.490 10.488 L 9.101 10.518 8.608 11.853 C 7.456 14.974,7.606 14.691,7.113 14.691 C 6.704 14.691,6.678 14.711,6.678 15.025 C 6.678 15.350,6.693 15.359,7.212 15.359 C 7.960 15.359,8.013 15.449,8.013 16.717 L 8.013 17.807 8.914 17.807 L 9.816 17.807 9.751 18.948 C 9.715 19.576,9.657 20.790,9.620 21.647 C 9.567 22.897,8.089 36.073,7.844 37.479 L 7.781 37.841 4.511 37.841 L 1.241 37.841 0.732 38.437 L 0.223 39.033 0.223 43.682 L 0.223 48.330 0.582 48.984 L 0.942 49.638 3.643 49.638 L 6.344 49.638 6.345 49.889 C 6.345 50.026,6.210 51.263,6.046 52.637 C 5.691 55.595,5.762 56.296,6.585 57.946 L 7.037 58.853 6.802 66.516 C 6.673 70.731,6.536 74.868,6.497 75.710 L 6.427 77.240 15.094 77.241 L 23.762 77.242 25.042 78.679 L 26.322 80.117 52.886 80.125 L 79.451 80.134 80.754 78.687 L 82.057 77.240 90.500 77.240 L 98.943 77.240 98.941 75.932 C 98.940 75.213,98.841 69.891,98.720 64.107 C 98.599 58.322,98.500 53.360,98.499 53.080 C 98.498 52.590,98.474 52.554,97.884 52.134 C 97.192 51.641,97.244 51.775,96.938 49.707 C 96.669 47.887,96.688 47.815,97.167 48.852 L 97.529 49.638 101.223 49.638 L 104.918 49.638 105.213 48.884 L 105.509 48.130 105.509 43.537 L 105.509 38.943 105.042 38.281 L 104.575 37.618 101.101 37.618 L 97.627 37.618 97.116 38.334 L 96.605 39.049 96.605 40.782 L 96.605 42.515 96.223 42.515 C 95.956 42.515,95.823 42.457,95.782 42.321 C 95.528 41.491,90.484 17.135,90.523 16.925 C 90.655 16.202,89.196 10.756,88.301 8.634 L 87.924 7.742 87.924 4.539 L 87.924 1.336 53.088 1.336 L 18.253 1.336 18.253 4.452 M52.755 4.452 L 52.755 6.900 35.838 6.900 L 18.920 6.900 18.920 4.452 L 18.920 2.003 35.838 2.003 L 52.755 2.003 52.755 4.452 M87.257 4.452 L 87.257 6.900 70.339 6.900 L 53.422 6.900 53.422 4.452 L 53.422 2.003 70.339 2.003 L 87.257 2.003 87.257 4.452 M269.338 10.128 L 269.338 13.578 268.336 13.578 L 267.334 13.578 267.334 10.128 L 267.334 6.678 268.336 6.678 L 269.338 6.678 269.338 10.128 M296.939 7.746 L 296.939 8.814 284.613 8.745 C 277.834 8.707,271.774 8.648,271.146 8.612 L 270.006 8.548 270.006 7.613 L 270.006 6.678 283.472 6.678 L 296.939 6.678 296.939 7.746 M299.610 10.462 L 299.610 14.246 298.609 14.246 L 297.607 14.246 297.607 10.462 L 297.607 6.678 298.609 6.678 L 299.610 6.678 299.610 10.462 M330.106 7.910 C 330.106 9.029,330.088 9.136,329.911 9.086 C 329.804 9.056,323.230 9.000,315.303 8.962 C 307.376 8.924,300.753 8.866,300.584 8.834 L 300.278 8.775 300.278 7.726 L 300.278 6.678 315.192 6.678 L 330.106 6.678 330.106 7.910 M332.777 10.684 L 332.777 14.691 331.775 14.691 L 330.774 14.691 330.774 10.684 L 330.774 6.678 331.775 6.678 L 332.777 6.678 332.777 10.684 M369.060 8.030 L 369.060 9.383 360.796 9.311 C 356.251 9.271,348.237 9.205,342.988 9.165 L 333.445 9.092 333.445 7.885 L 333.445 6.678 351.252 6.678 L 369.060 6.678 369.060 8.030 M371.731 10.684 L 371.731 14.691 370.729 14.691 L 369.727 14.691 369.727 10.684 L 369.727 6.678 370.729 6.678 L 371.731 6.678 371.731 10.684 M87.464 8.348 C 88.143 9.866,89.610 14.601,89.451 14.760 C 89.431 14.780,89.175 14.510,88.882 14.160 C 86.156 10.896,82.497 9.778,71.619 8.887 C 69.379 8.703,40.691 8.623,36.519 8.788 C 26.509 9.185,20.583 10.373,18.365 12.426 C 17.997 12.767,17.696 13.016,17.696 12.980 C 17.696 12.828,18.406 10.300,18.817 8.987 L 19.261 7.568 53.188 7.568 L 87.115 7.568 87.464 8.348 M285.726 9.419 L 296.939 9.487 296.939 12.201 L 296.939 14.914 298.609 14.914 L 300.278 14.914 300.278 12.178 L 300.278 9.443 300.584 9.501 C 300.753 9.534,307.401 9.597,315.359 9.643 C 323.317 9.688,329.878 9.728,329.939 9.732 C 330.009 9.736,330.061 10.775,330.080 12.549 L 330.110 15.359 331.777 15.359 L 333.445 15.359 333.445 12.559 L 333.445 9.760 342.988 9.833 C 348.237 9.873,356.251 9.939,360.796 9.978 L 369.060 10.051 369.060 12.705 L 369.060 15.359 370.727 15.359 L 372.394 15.359 372.424 12.896 L 372.454 10.434 373.567 11.679 C 374.652 12.893,374.724 13.009,376.440 16.284 L 378.199 19.644 381.465 30.774 L 384.730 41.903 385.075 45.910 C 385.265 48.114,385.450 50.154,385.486 50.445 L 385.552 50.974 323.327 50.974 L 261.102 50.974 261.102 36.728 L 261.102 22.482 245.320 22.482 L 229.539 22.482 227.686 23.400 L 225.834 24.318 215.001 37.721 L 204.169 51.124 203.364 51.392 L 202.560 51.660 202.560 54.361 L 202.560 57.062 190.234 57.128 C 180.564 57.179,177.416 57.231,175.626 57.368 C 173.521 57.529,127.378 60.768,127.180 60.768 C 127.132 60.768,127.107 60.340,127.124 59.817 L 127.156 58.867 128.381 58.303 L 129.605 57.739 150.574 55.526 C 162.107 54.308,178.184 52.686,186.300 51.921 C 194.417 51.155,201.145 50.478,201.252 50.417 C 201.410 50.325,201.447 50.346,201.447 50.528 C 201.447 50.736,201.518 50.751,202.476 50.746 L 203.506 50.740 204.897 48.774 C 210.216 41.259,217.070 32.704,223.466 25.598 L 224.818 24.096 224.819 22.629 C 224.819 21.326,224.841 21.155,225.014 21.107 C 225.121 21.077,227.337 20.624,229.939 20.101 L 234.669 19.149 251.753 18.474 C 261.149 18.103,269.350 17.768,269.978 17.731 L 271.119 17.663 271.119 17.346 C 271.119 17.090,271.070 17.029,270.868 17.033 C 270.730 17.035,262.329 17.384,252.198 17.809 L 233.779 18.581 229.827 19.419 C 227.654 19.879,225.815 20.244,225.740 20.228 C 225.666 20.213,226.492 19.286,227.577 18.167 L 229.549 16.134 236.561 14.916 C 240.417 14.246,248.747 12.794,255.072 11.690 C 261.396 10.586,266.592 9.683,266.619 9.683 C 266.645 9.683,266.667 10.710,266.667 11.964 L 266.667 14.246 268.336 14.246 L 270.006 14.246 270.006 11.753 L 270.006 9.260 272.259 9.305 C 273.499 9.330,279.559 9.381,285.726 9.419 M69.338 9.460 C 81.309 10.021,86.386 11.529,88.914 15.275 L 89.271 15.804 53.142 15.804 L 17.013 15.804 17.091 15.554 C 17.510 14.202,18.813 12.675,20.145 11.976 C 22.378 10.805,28.913 9.758,35.782 9.471 C 38.851 9.343,66.645 9.334,69.338 9.460 M14.112 12.843 C 14.492 13.785,14.802 14.586,14.802 14.624 C 14.802 14.661,13.350 14.691,11.575 14.691 C 9.699 14.691,8.347 14.649,8.347 14.589 C 8.347 14.506,9.233 12.034,9.517 11.324 C 9.587 11.150,9.790 11.130,11.509 11.130 L 13.422 11.130 14.112 12.843 M222.152 13.968 C 222.517 14.886,222.815 15.675,222.815 15.721 C 222.816 15.767,221.333 15.804,219.520 15.804 C 216.287 15.804,216.224 15.800,216.281 15.583 C 216.313 15.462,216.632 14.661,216.990 13.803 L 217.641 12.245 219.565 12.271 L 221.489 12.298 222.152 13.968 M14.469 16.249 L 14.469 17.140 11.575 17.140 L 8.681 17.140 8.681 16.249 L 8.681 15.359 11.575 15.359 L 14.469 15.359 14.469 16.249 M16.361 15.536 C 16.361 15.634,16.263 15.739,16.145 15.770 C 15.888 15.837,16.025 15.264,14.351 23.281 C 13.652 26.628,13.064 29.350,13.044 29.330 C 13.024 29.311,13.136 27.994,13.293 26.404 C 13.516 24.139,13.578 22.894,13.578 20.660 L 13.578 17.807 14.357 17.807 L 15.136 17.807 15.136 16.657 C 15.136 16.025,15.170 15.474,15.211 15.433 C 15.378 15.266,16.361 15.354,16.361 15.536 M92.521 30.135 C 95.110 42.456,96.676 50.794,96.450 51.052 C 96.439 51.065,95.485 50.427,94.330 49.633 C 93.175 48.840,92.164 48.191,92.084 48.191 C 92.003 48.191,89.636 47.966,86.824 47.691 L 81.710 47.190 68.345 47.190 L 54.981 47.190 54.981 51.085 L 54.981 54.981 52.823 54.981 C 50.680 54.981,50.665 54.979,50.599 54.730 C 50.562 54.592,50.531 52.839,50.530 50.835 L 50.529 47.190 37.034 47.192 L 23.539 47.194 17.944 47.797 C 12.486 48.385,12.334 48.408,11.739 48.730 C 11.404 48.912,11.130 49.009,11.130 48.947 C 11.130 48.884,11.405 45.971,11.741 42.474 L 12.352 36.116 14.384 26.405 L 16.416 16.694 23.539 16.678 C 27.457 16.669,40.278 16.629,52.031 16.589 C 63.784 16.549,77.056 16.507,81.525 16.494 L 89.649 16.472 92.521 30.135 M222.371 17.362 L 222.371 18.253 219.477 18.253 L 216.583 18.253 216.583 17.362 L 216.583 16.472 219.477 16.472 L 222.371 16.472 222.371 17.362 M327.857 17.260 C 326.271 17.428,325.179 18.210,324.628 19.572 L 324.374 20.200 324.374 29.327 L 324.374 38.453 324.628 39.081 C 324.969 39.925,325.633 40.654,326.409 41.034 L 327.045 41.347 348.414 41.347 L 369.783 41.347 370.405 41.055 C 372.020 40.298,372.766 38.622,372.406 36.557 C 372.045 34.487,367.899 19.642,367.495 18.976 C 366.878 17.958,365.884 17.401,364.408 17.246 C 363.211 17.120,329.056 17.133,327.857 17.260 M274.652 17.482 C 273.509 17.754,272.660 18.451,272.154 19.533 L 271.842 20.200 271.842 29.271 L 271.842 38.342 272.164 39.039 C 272.540 39.853,273.118 40.418,273.999 40.831 L 274.624 41.124 295.826 41.124 L 317.028 41.124 317.696 40.812 C 318.563 40.407,319.105 39.868,319.496 39.023 L 319.811 38.342 319.811 29.271 L 319.811 20.200 319.489 19.503 C 319.113 18.689,318.535 18.124,317.654 17.711 L 317.028 17.418 296.049 17.401 C 284.087 17.391,274.890 17.426,274.652 17.482 M12.910 20.622 C 12.910 23.304,11.908 34.690,10.128 52.238 C 9.922 54.264,9.780 53.986,11.661 55.228 C 13.257 56.282,13.321 56.312,14.097 56.384 C 15.129 56.479,15.086 56.421,15.045 57.679 L 15.010 58.765 14.656 58.768 C 14.461 58.769,14.001 58.932,13.634 59.129 L 12.966 59.488 12.910 60.447 L 12.855 61.407 10.218 59.899 C 7.307 58.234,7.318 58.244,6.794 56.720 C 6.364 55.471,6.336 55.797,8.332 39.065 C 9.373 30.342,10.254 22.529,10.290 21.703 C 10.326 20.876,10.384 19.689,10.419 19.065 L 10.483 17.929 11.112 17.889 C 11.458 17.867,12.005 17.840,12.326 17.829 L 12.910 17.807 12.910 20.622 M346.800 29.271 L 346.800 40.735 337.145 40.730 C 326.837 40.724,327.106 40.738,326.288 40.178 C 325.873 39.893,325.423 39.294,325.201 38.731 C 324.798 37.708,324.948 20.450,325.367 19.567 C 326.191 17.831,326.110 17.842,337.757 17.823 L 346.800 17.807 346.800 29.271 M365.308 18.053 C 366.936 18.605,366.947 18.633,369.950 29.752 C 372.219 38.148,372.258 38.548,370.959 39.848 C 370.021 40.785,370.744 40.735,358.355 40.735 L 347.468 40.735 347.468 29.265 L 347.468 17.795 356.121 17.833 C 363.757 17.867,364.837 17.893,365.308 18.053 M295.826 29.274 L 295.826 40.517 285.281 40.487 C 273.420 40.453,274.254 40.514,273.353 39.613 C 272.464 38.724,272.514 39.294,272.479 29.611 C 272.445 20.352,272.454 20.181,273.012 19.348 C 273.917 17.997,273.442 18.046,285.504 18.038 L 295.826 18.030 295.826 29.274 M317.419 18.318 C 318.059 18.614,318.615 19.170,318.911 19.810 C 319.140 20.306,319.143 20.420,319.143 29.271 C 319.143 39.346,319.194 38.719,318.300 39.613 C 317.401 40.512,318.189 40.453,306.706 40.487 L 296.494 40.518 296.494 29.271 L 296.494 18.024 306.706 18.055 C 316.794 18.085,316.923 18.089,317.419 18.318 M19.445 19.418 L 18.801 20.138 16.317 31.744 L 13.833 43.350 14.621 44.157 L 15.409 44.964 53.033 44.964 L 90.657 44.964 91.426 44.189 L 92.195 43.414 89.825 31.936 C 88.521 25.623,87.419 20.325,87.375 20.162 C 87.318 19.950,87.036 19.704,86.364 19.283 L 85.431 18.698 52.760 18.698 L 20.089 18.698 19.445 19.418 M220.812 21.563 L 220.812 24.205 218.209 26.822 L 215.605 29.438 210.209 36.505 C 205.457 42.730,204.597 43.918,203.002 46.466 C 202.006 48.058,201.133 49.424,201.062 49.502 C 200.964 49.609,200.402 49.636,198.728 49.613 L 196.522 49.583 207.193 36.440 C 213.061 29.212,217.972 23.147,218.105 22.962 C 218.429 22.512,218.587 21.581,218.587 20.124 L 218.587 18.920 219.699 18.920 L 220.812 18.920 220.812 21.563 M86.024 19.850 L 86.740 20.320 89.110 31.778 L 91.480 43.237 90.958 43.767 L 90.437 44.296 53.073 44.296 L 15.708 44.296 15.132 43.766 L 14.555 43.236 16.986 31.829 L 19.418 20.423 19.908 19.894 L 20.398 19.366 52.853 19.373 L 85.309 19.381 86.024 19.850 M222.109 26.128 C 215.665 33.380,209.304 41.353,204.396 48.329 L 203.172 50.069 202.356 50.076 C 201.907 50.080,201.556 50.043,201.577 49.993 C 202.151 48.589,205.873 43.280,210.835 36.784 L 216.276 29.661 220.186 25.736 L 224.096 21.812 224.128 22.816 L 224.160 23.819 222.109 26.128 M260.434 37.062 L 260.434 50.974 258.876 50.974 L 257.318 50.974 257.318 38.175 L 257.318 25.376 243.600 25.378 L 229.883 25.381 229.299 25.745 C 228.793 26.059,227.458 27.696,219.426 37.846 L 210.138 49.583 210.133 50.611 L 210.128 51.640 215.851 51.668 L 221.575 51.697 220.943 52.556 L 220.312 53.414 219.115 53.418 L 217.919 53.422 217.919 54.201 L 217.919 54.981 218.253 54.981 C 218.568 54.981,218.587 54.956,218.587 54.535 L 218.587 54.090 221.480 54.090 L 224.374 54.090 224.374 54.480 C 224.374 54.838,224.400 54.869,224.708 54.869 L 225.042 54.869 225.042 54.150 L 225.042 53.431 224.155 53.399 L 223.268 53.367 223.779 52.501 L 224.289 51.635 243.141 51.645 L 261.992 51.655 261.992 54.208 L 261.992 56.761 259.850 56.760 C 257.410 56.760,216.749 56.963,208.598 57.017 L 203.228 57.052 203.228 54.587 L 203.228 52.122 203.885 51.923 L 204.543 51.724 215.429 38.260 L 226.316 24.796 227.988 23.983 L 229.661 23.170 245.047 23.160 L 260.434 23.150 260.434 37.062 M256.650 38.509 L 256.650 50.974 240.679 50.974 C 229.832 50.974,224.708 50.937,224.708 50.860 C 224.708 50.791,224.973 50.756,225.364 50.771 C 226.640 50.822,226.613 50.953,226.575 44.812 L 226.544 39.713 226.232 39.445 C 225.926 39.182,225.877 39.176,223.860 39.176 C 220.964 39.176,221.035 39.106,221.035 41.952 L 221.035 43.848 220.694 44.402 L 220.352 44.957 220.388 47.548 C 220.431 50.732,220.510 50.919,221.755 50.779 C 222.143 50.735,222.271 50.754,222.214 50.846 C 222.156 50.939,220.609 50.974,216.465 50.974 L 210.796 50.974 210.796 50.408 L 210.796 49.843 217.106 41.866 C 220.577 37.479,224.711 32.251,226.293 30.248 C 228.400 27.581,229.295 26.531,229.638 26.326 L 230.106 26.046 243.378 26.044 L 256.650 26.043 256.650 38.509 M274.508 31.214 C 274.254 31.468,274.235 31.566,274.235 32.610 C 274.235 33.960,274.426 34.279,275.237 34.279 C 276.047 34.279,276.238 33.960,276.238 32.610 C 276.238 31.566,276.219 31.468,275.965 31.214 C 275.585 30.834,274.888 30.834,274.508 31.214 M315.910 31.214 C 315.656 31.468,315.637 31.566,315.637 32.610 C 315.637 33.960,315.829 34.279,316.639 34.279 C 317.449 34.279,317.641 33.960,317.641 32.610 C 317.641 31.566,317.621 31.468,317.367 31.214 C 316.988 30.834,316.290 30.834,315.910 31.214 M326.372 31.214 C 326.118 31.468,326.099 31.566,326.099 32.610 C 326.099 33.960,326.291 34.279,327.101 34.279 C 327.911 34.279,328.102 33.960,328.102 32.610 C 328.102 31.566,328.083 31.468,327.829 31.214 C 327.450 30.834,326.752 30.834,326.372 31.214 M366.662 31.659 C 366.404 31.916,366.388 32.004,366.388 33.166 C 366.388 34.640,366.561 34.947,367.390 34.947 C 368.219 34.947,368.392 34.640,368.392 33.166 C 368.392 32.004,368.376 31.916,368.119 31.659 C 367.739 31.279,367.041 31.279,366.662 31.659 M275.570 32.610 L 275.570 33.612 275.237 33.612 L 274.903 33.612 274.903 32.610 L 274.903 31.608 275.237 31.608 L 275.570 31.608 275.570 32.610 M316.973 32.610 L 316.973 33.612 316.639 33.612 L 316.305 33.612 316.305 32.610 L 316.305 31.608 316.639 31.608 L 316.973 31.608 316.973 32.610 M327.435 32.610 L 327.435 33.612 327.101 33.612 L 326.767 33.612 326.767 32.610 L 326.767 31.608 327.101 31.608 L 327.435 31.608 327.435 32.610 M367.724 33.166 L 367.724 34.279 367.390 34.279 L 367.056 34.279 367.056 33.166 L 367.056 32.053 367.390 32.053 L 367.724 32.053 367.724 33.166 M396.041 36.661 C 396.649 36.819,397.532 37.129,398.003 37.350 L 398.860 37.752 398.929 47.451 C 398.967 52.786,399.011 61.608,399.026 67.056 L 399.054 76.962 397.997 77.314 C 394.870 78.355,391.427 78.384,388.300 77.396 C 387.446 77.126,387.423 77.110,387.421 76.762 C 387.420 76.566,387.321 67.791,387.202 57.262 C 386.998 39.184,386.997 38.111,387.177 37.967 C 388.977 36.528,393.153 35.913,396.041 36.661 M104.548 38.729 L 104.841 39.172 104.841 43.594 C 104.841 47.420,104.817 48.081,104.659 48.494 L 104.477 48.971 101.205 48.971 L 97.933 48.971 97.714 48.460 C 97.594 48.180,97.496 47.829,97.496 47.681 C 97.496 47.442,97.447 47.412,97.056 47.412 C 96.550 47.412,96.635 47.652,96.270 45.186 C 96.148 44.360,96.023 43.571,95.991 43.434 C 95.936 43.195,95.966 43.183,96.603 43.183 L 97.273 43.183 97.273 41.226 L 97.273 39.268 97.626 38.777 L 97.979 38.286 101.117 38.286 L 104.255 38.286 104.548 38.729 M7.680 38.703 C 7.682 38.965,6.575 48.402,6.505 48.720 L 6.451 48.971 3.896 48.971 L 1.340 48.971 1.115 48.530 C 0.901 48.109,0.890 47.884,0.890 43.666 L 0.890 39.243 1.246 38.876 L 1.602 38.509 4.641 38.509 C 7.460 38.509,7.680 38.523,7.680 38.703 M225.877 40.095 C 225.911 40.232,225.924 42.524,225.907 45.186 L 225.876 50.028 223.556 50.083 C 220.751 50.151,221.035 50.451,221.035 47.424 L 221.035 45.083 221.369 44.556 L 221.703 44.030 221.703 42.113 C 221.703 39.584,221.460 39.844,223.827 39.844 C 225.798 39.844,225.817 39.847,225.877 40.095 M33.945 42.404 L 33.945 42.738 44.630 42.738 L 55.314 42.738 55.314 42.404 L 55.314 42.070 44.630 42.070 L 33.945 42.070 33.945 42.404 M67.112 42.404 L 67.112 42.738 77.685 42.738 L 88.258 42.738 88.258 42.404 L 88.258 42.070 77.685 42.070 L 67.112 42.070 67.112 42.404 M25.264 43.517 L 25.264 43.851 31.497 43.851 L 37.730 43.851 37.730 43.517 L 37.730 43.183 31.497 43.183 L 25.264 43.183 25.264 43.517 M58.431 43.517 L 58.431 43.851 64.663 43.851 L 70.896 43.851 70.896 43.517 L 70.896 43.183 64.663 43.183 L 58.431 43.183 58.431 43.517 M28.102 50.316 C 29.082 51.661,30.099 53.061,30.363 53.426 L 30.842 54.090 30.015 54.090 L 29.188 54.090 25.939 51.057 C 22.208 47.575,22.321 47.883,24.763 47.875 L 26.322 47.870 28.102 50.316 M49.861 50.974 L 49.861 54.090 40.762 54.088 L 31.664 54.086 29.494 51.120 C 28.300 49.489,27.283 48.088,27.234 48.006 C 27.160 47.883,29.069 47.858,38.503 47.858 L 49.861 47.858 49.861 50.974 M77.835 48.172 C 77.722 48.346,76.704 49.748,75.573 51.289 L 73.516 54.090 64.582 54.090 L 55.648 54.090 55.648 50.974 L 55.648 47.858 66.845 47.858 L 78.041 47.858 77.835 48.172 M82.336 47.952 C 82.455 48.028,76.867 53.617,75.996 54.293 C 75.833 54.419,74.564 54.299,74.365 54.139 C 74.330 54.111,78.433 48.447,78.775 48.052 C 78.958 47.841,82.025 47.755,82.336 47.952 M24.959 51.052 C 26.714 52.686,28.135 54.039,28.117 54.057 C 28.020 54.154,23.059 55.207,22.864 55.172 C 22.403 55.089,14.087 48.919,14.373 48.873 C 14.848 48.796,21.083 48.108,21.429 48.094 C 21.726 48.082,22.166 48.450,24.959 51.052 M87.368 48.414 C 89.233 48.598,90.858 48.748,90.979 48.748 C 91.171 48.748,91.179 48.768,91.037 48.902 C 90.892 49.038,82.063 55.259,81.721 55.465 C 81.614 55.530,76.829 54.702,76.713 54.600 C 76.593 54.493,83.460 48.086,83.697 48.083 C 83.851 48.082,85.503 48.230,87.368 48.414 M17.433 52.164 C 19.842 53.920,21.814 55.389,21.814 55.428 C 21.814 55.467,21.331 55.602,20.741 55.729 L 19.668 55.959 15.371 53.157 C 12.229 51.108,11.065 50.292,11.040 50.121 C 10.998 49.831,12.273 49.073,12.953 48.983 C 13.007 48.976,15.023 50.407,17.433 52.164 M92.946 49.488 C 93.363 49.773,93.680 50.045,93.651 50.092 C 93.622 50.139,91.733 51.392,89.454 52.876 C 87.174 54.361,85.127 55.695,84.904 55.841 L 84.499 56.107 83.576 55.932 C 83.069 55.835,82.638 55.742,82.620 55.723 C 82.588 55.691,92.049 48.988,92.143 48.976 C 92.168 48.973,92.529 49.204,92.946 49.488 M194.992 50.272 C 195.551 50.326,192.994 50.600,183.751 51.479 C 177.170 52.105,162.384 53.609,150.892 54.821 C 139.400 56.032,129.976 57.002,129.950 56.976 C 129.842 56.865,130.173 55.499,130.328 55.417 C 130.941 55.096,163.716 51.814,174.680 50.977 L 186.032 50.110 190.150 50.157 C 192.415 50.182,194.594 50.234,194.992 50.272 M95.783 51.450 C 96.511 51.956,97.269 52.492,97.468 52.639 L 97.830 52.908 97.828 54.250 L 97.826 55.593 93.181 57.029 C 90.627 57.819,88.449 58.489,88.342 58.517 C 88.179 58.559,88.147 58.491,88.147 58.110 C 88.147 57.851,88.094 57.652,88.025 57.652 C 87.958 57.652,87.452 57.373,86.900 57.032 C 86.349 56.691,85.806 56.378,85.693 56.336 C 85.498 56.264,93.996 50.563,94.336 50.538 C 94.404 50.533,95.055 50.943,95.783 51.450 M223.984 50.863 C 223.947 50.924,223.718 50.974,223.477 50.974 C 223.236 50.974,223.038 50.924,223.038 50.863 C 223.038 50.801,223.267 50.751,223.546 50.751 C 223.856 50.751,224.026 50.795,223.984 50.863 M15.192 53.842 C 17.396 55.277,19.221 56.471,19.247 56.497 C 19.336 56.582,18.812 57.546,18.642 57.612 C 18.533 57.653,18.475 57.827,18.475 58.111 C 18.475 58.612,18.630 58.614,16.806 58.094 L 15.748 57.793 15.783 56.851 L 15.817 55.909 14.643 55.781 L 13.469 55.653 12.064 54.688 L 10.659 53.722 10.732 52.932 C 10.875 51.389,10.931 51.087,11.060 51.162 C 11.129 51.202,12.988 52.408,15.192 53.842 M223.451 51.725 C 223.425 51.771,223.191 52.172,222.931 52.615 L 222.457 53.422 221.788 53.422 C 221.027 53.422,221.011 53.554,221.925 52.323 C 222.416 51.662,222.437 51.648,222.961 51.645 C 223.256 51.643,223.476 51.679,223.451 51.725 M385.791 53.951 C 385.896 55.221,385.981 56.323,385.980 56.400 C 385.977 56.511,373.569 56.539,324.318 56.539 L 262.660 56.539 262.660 54.090 L 262.660 51.642 324.130 51.642 L 385.600 51.642 385.791 53.951 M49.861 55.203 L 49.861 55.648 52.755 55.648 L 55.648 55.648 55.648 55.203 L 55.648 54.758 64.788 54.758 L 73.928 54.758 79.722 55.873 C 84.822 56.855,85.583 57.028,86.080 57.317 L 86.644 57.647 53.054 57.649 L 19.463 57.652 19.763 57.100 C 20.040 56.591,20.108 56.539,20.633 56.428 C 20.946 56.362,22.730 55.963,24.597 55.542 L 27.991 54.777 38.926 54.767 L 49.861 54.758 49.861 55.203 M97.942 58.681 C 97.943 59.982,97.975 61.234,98.012 61.464 L 98.081 61.881 95.789 61.881 L 93.497 61.881 93.465 60.694 L 93.434 59.506 92.877 59.163 C 92.372 58.852,92.212 58.815,91.155 58.765 L 89.990 58.709 93.771 57.524 C 95.850 56.872,97.639 56.333,97.746 56.327 C 97.926 56.317,97.941 56.499,97.942 58.681 M357.040 60.100 L 357.040 62.994 309.850 62.994 L 262.660 62.994 262.660 60.100 L 262.660 57.206 309.850 57.206 L 357.040 57.206 357.040 60.100 M369.950 60.100 L 369.950 62.994 363.829 62.994 L 357.707 62.994 357.707 60.100 L 357.707 57.206 363.829 57.206 L 369.950 57.206 369.950 60.100 M386.090 57.346 C 386.091 57.422,386.191 58.561,386.312 59.878 C 386.433 61.194,386.532 62.433,386.533 62.632 L 386.533 62.994 378.575 62.994 L 370.618 62.994 370.618 60.100 L 370.618 57.206 378.353 57.206 C 384.466 57.206,386.088 57.236,386.090 57.346 M261.992 60.143 L 261.992 62.856 257.290 62.927 C 254.704 62.966,243.798 63.071,233.055 63.160 C 222.312 63.249,210.956 63.355,207.819 63.395 L 202.115 63.468 202.115 61.767 L 202.115 60.066 202.671 59.478 C 203.185 58.935,203.228 58.847,203.228 58.338 L 203.228 57.787 205.147 57.719 C 206.805 57.661,234.638 57.511,255.342 57.449 L 261.992 57.429 261.992 60.143 M202.560 58.170 C 202.560 58.505,202.462 58.679,202.003 59.165 L 201.447 59.753 201.447 61.596 L 201.447 63.439 200.473 63.444 C 199.937 63.447,187.045 63.564,171.822 63.706 L 144.145 63.962 142.774 64.854 L 141.402 65.746 141.373 63.153 L 141.343 60.560 141.039 60.525 C 140.871 60.505,148.873 59.915,158.820 59.212 C 179.258 57.768,177.990 57.821,193.016 57.785 L 202.560 57.763 202.560 58.170 M21.146 64.665 L 21.146 71.010 20.729 70.833 C 20.499 70.735,20.049 70.546,19.727 70.414 L 19.143 70.173 19.143 64.246 L 19.143 58.319 20.145 58.319 L 21.146 58.319 21.146 64.665 M84.808 64.775 L 84.808 71.230 53.311 71.230 L 21.814 71.230 21.814 64.775 L 21.814 58.319 53.311 58.319 L 84.808 58.319 84.808 64.775 M87.479 63.871 L 87.479 69.423 86.542 70.104 C 86.027 70.478,85.576 70.785,85.540 70.785 C 85.505 70.785,85.476 67.980,85.476 64.552 L 85.476 58.319 86.477 58.319 L 87.479 58.319 87.479 63.871 M16.305 58.653 C 16.484 58.730,16.445 58.751,16.110 58.757 C 15.881 58.761,15.693 58.715,15.693 58.653 C 15.693 58.520,15.996 58.520,16.305 58.653 M247.301 60.211 L 247.301 61.881 251.642 61.881 L 255.982 61.881 255.982 60.211 L 255.982 58.542 251.642 58.542 L 247.301 58.542 247.301 60.211 M27.212 59.212 C 21.910 60.277,20.826 67.342,25.577 69.874 C 29.354 71.887,33.952 69.107,33.944 64.814 C 33.938 61.323,30.588 58.535,27.212 59.212 M76.952 59.264 C 73.910 59.926,71.912 63.072,72.622 66.084 C 73.844 71.270,80.873 72.155,83.261 67.424 C 85.430 63.127,81.651 58.241,76.952 59.264 M10.740 60.967 C 13.564 62.595,13.579 62.549,10.231 62.549 L 7.535 62.549 7.607 61.630 C 7.646 61.125,7.678 60.372,7.679 59.956 L 7.679 59.200 8.152 59.474 C 8.413 59.625,9.577 60.297,10.740 60.967 M255.314 60.211 L 255.314 61.213 251.642 61.213 L 247.969 61.213 247.969 60.211 L 247.969 59.210 251.642 59.210 L 255.314 59.210 255.314 60.211 M18.660 61.287 C 18.619 62.306,18.587 63.408,18.587 63.735 L 18.587 64.329 16.529 64.329 L 14.472 64.329 14.029 64.023 L 13.587 63.717 13.582 61.819 L 13.578 59.921 14.051 59.684 C 14.483 59.467,14.710 59.446,16.628 59.439 L 18.733 59.432 18.660 61.287 M92.381 59.657 L 92.821 59.882 92.821 61.800 L 92.821 63.717 92.438 64.023 L 92.054 64.329 90.101 64.329 L 88.147 64.329 88.147 61.881 L 88.147 59.432 90.043 59.432 C 91.727 59.432,91.989 59.458,92.381 59.657 M29.172 59.878 C 33.090 60.609,34.638 65.539,31.832 68.351 C 29.320 70.869,25.195 70.162,23.695 66.955 C 21.969 63.268,25.171 59.131,29.172 59.878 M79.345 59.938 C 83.147 60.834,84.518 65.624,81.759 68.373 C 79.302 70.821,75.202 70.168,73.686 67.088 C 71.797 63.252,75.194 58.960,79.345 59.938 M34.725 60.211 L 34.725 60.545 53.311 60.545 L 71.898 60.545 71.898 60.211 L 71.898 59.878 53.311 59.878 L 34.725 59.878 34.725 60.211 M140.679 62.771 L 140.679 64.997 136.227 64.997 L 131.775 64.997 131.775 63.050 L 131.775 61.102 132.137 61.094 C 132.336 61.090,134.026 60.970,135.893 60.829 C 137.760 60.688,139.601 60.566,139.983 60.559 L 140.679 60.545 140.679 62.771 M131.107 65.662 L 131.107 70.111 132.872 70.142 L 134.637 70.173 131.573 72.176 C 129.888 73.278,128.468 74.196,128.417 74.216 C 128.367 74.237,128.325 71.347,128.325 67.794 L 128.325 61.335 129.021 61.296 C 129.403 61.274,130.029 61.246,130.412 61.235 L 131.107 61.213 131.107 65.662 M52.476 61.542 C 51.756 61.627,50.348 62.056,50.245 62.223 C 50.207 62.285,47.050 62.326,42.453 62.326 L 34.725 62.326 34.725 64.107 L 34.725 65.888 42.369 65.888 C 49.729 65.888,50.030 65.896,50.466 66.105 C 52.097 66.891,55.976 66.820,56.485 65.995 C 56.527 65.927,59.432 65.888,64.336 65.888 L 72.120 65.888 72.120 64.107 L 72.120 62.326 64.424 62.326 L 56.727 62.326 56.160 62.062 C 55.166 61.599,53.725 61.396,52.476 61.542 M54.925 62.345 C 56.231 62.633,57.146 63.365,57.146 64.122 C 57.146 65.672,53.609 66.579,51.150 65.659 C 47.523 64.302,50.791 61.432,54.925 62.345 M98.092 66.194 C 98.132 68.198,98.198 71.354,98.237 73.205 L 98.309 76.572 90.028 76.575 L 81.747 76.577 80.467 78.016 L 79.188 79.455 52.922 79.459 L 26.656 79.464 25.376 78.026 L 24.096 76.589 15.603 76.580 L 7.111 76.572 7.174 75.376 C 7.209 74.718,7.287 72.426,7.347 70.284 C 7.407 68.141,7.487 65.675,7.526 64.802 L 7.595 63.216 10.253 63.216 L 12.910 63.216 12.913 63.634 C 12.916 64.016,12.973 64.092,13.581 64.524 C 14.205 64.967,14.246 65.024,14.246 65.444 C 14.246 65.871,14.313 65.956,15.721 67.332 L 17.195 68.773 17.835 68.777 L 18.475 68.781 18.476 69.699 L 18.477 70.618 20.007 71.258 L 21.537 71.898 53.368 71.898 L 85.199 71.898 86.673 70.827 L 88.147 69.756 88.147 69.269 L 88.147 68.781 88.851 68.781 L 89.555 68.781 91.049 67.362 L 92.543 65.943 92.579 65.331 C 92.613 64.770,92.651 64.691,93.047 64.385 C 93.472 64.057,93.479 64.039,93.484 63.300 L 93.489 62.549 95.754 62.549 L 98.018 62.549 98.092 66.194 M49.119 63.285 C 49.006 63.458,48.928 63.793,48.928 64.107 C 48.928 64.420,49.006 64.756,49.119 64.928 L 49.310 65.220 42.351 65.220 L 35.392 65.220 35.392 64.107 L 35.392 62.994 42.351 62.994 L 49.310 62.994 49.119 63.285 M71.452 64.107 L 71.452 65.220 64.453 65.220 L 57.453 65.220 57.664 64.807 C 57.779 64.580,57.874 64.265,57.874 64.107 C 57.874 63.949,57.779 63.634,57.664 63.407 L 57.453 62.994 64.453 62.994 L 71.452 62.994 71.452 64.107 M261.761 68.642 C 261.754 72.393,261.703 74.306,261.566 75.904 L 261.380 78.075 231.558 78.103 C 210.824 78.122,201.701 78.095,201.620 78.014 C 201.542 77.936,201.492 76.071,201.471 72.451 L 201.439 67.006 201.770 65.600 C 201.952 64.827,202.122 64.174,202.146 64.149 C 202.181 64.114,248.574 63.643,259.572 63.566 L 261.770 63.550 261.761 68.642 M386.644 69.360 C 386.644 72.713,386.591 75.690,386.516 76.594 L 386.387 78.130 367.122 78.129 L 347.858 78.129 346.260 75.007 L 344.663 71.886 343.007 70.779 L 341.352 69.672 326.588 69.672 L 311.825 69.672 310.086 70.569 L 308.347 71.466 307.214 73.157 C 306.306 74.511,305.925 75.212,305.298 76.683 C 304.867 77.693,304.514 78.432,304.511 78.325 C 304.508 78.140,303.425 78.130,283.361 78.130 C 263.296 78.130,262.215 78.120,262.215 77.935 C 262.216 77.828,262.315 76.664,262.436 75.348 C 262.613 73.422,262.657 72.048,262.658 68.308 L 262.660 63.662 324.652 63.662 L 386.644 63.662 386.644 69.360 M201.402 64.302 C 201.368 64.409,201.213 65.043,201.055 65.712 L 200.770 66.928 200.802 72.530 L 200.835 78.132 192.551 78.103 L 184.267 78.075 182.478 74.096 L 180.690 70.118 164.218 70.118 L 147.746 70.118 142.919 73.555 L 138.092 76.993 135.239 77.061 C 133.671 77.098,131.148 77.159,129.633 77.195 L 126.878 77.261 126.878 76.654 L 126.878 76.047 127.489 75.642 C 127.824 75.419,128.134 75.237,128.177 75.237 C 128.220 75.237,128.358 75.143,128.485 75.029 C 128.665 74.867,143.577 65.103,144.236 64.717 C 144.325 64.664,155.969 64.513,170.112 64.380 C 204.425 64.058,201.475 64.065,201.402 64.302 M265.442 64.302 C 264.734 64.656,264.664 64.960,264.664 67.668 C 264.664 71.440,264.368 71.229,269.672 71.229 C 274.976 71.229,274.680 71.440,274.680 67.668 C 274.680 63.897,274.976 64.107,269.672 64.107 C 266.239 64.107,265.791 64.128,265.442 64.302 M347.921 64.302 C 347.104 64.718,347.078 64.820,347.078 67.668 C 347.078 71.423,346.815 71.229,351.920 71.229 C 357.025 71.229,356.761 71.423,356.761 67.668 C 356.761 63.913,357.025 64.107,351.920 64.107 C 348.696 64.107,348.261 64.128,347.921 64.302 M273.739 65.048 C 274.012 65.321,274.012 65.324,274.012 67.668 C 274.012 70.012,274.012 70.016,273.739 70.289 L 273.466 70.562 269.672 70.562 L 265.877 70.562 265.604 70.289 C 265.332 70.016,265.331 70.012,265.331 67.668 C 265.331 65.324,265.332 65.321,265.604 65.048 L 265.877 64.775 269.672 64.775 L 273.466 64.775 273.739 65.048 M355.631 64.898 C 356.089 65.107,356.149 65.428,356.149 67.668 C 356.149 70.796,356.491 70.562,351.920 70.562 C 347.349 70.562,347.691 70.796,347.691 67.668 C 347.691 65.464,347.753 65.110,348.176 64.905 C 348.514 64.741,355.273 64.735,355.631 64.898 M18.475 66.555 L 18.475 68.114 17.948 68.114 C 17.292 68.114,14.914 65.912,14.914 65.305 L 14.914 64.997 16.694 64.997 L 18.475 64.997 18.475 66.555 M91.931 65.316 C 91.931 65.580,91.702 65.850,90.607 66.874 L 89.282 68.114 88.715 68.114 L 88.147 68.114 88.147 66.555 L 88.147 64.997 90.039 64.997 L 91.931 64.997 91.931 65.316 M140.658 65.965 C 140.628 66.221,140.262 66.498,138.119 67.884 L 135.615 69.505 133.695 69.472 L 131.775 69.439 131.775 67.552 L 131.775 65.665 136.234 65.665 L 140.694 65.665 140.658 65.965 M34.502 68.447 L 34.502 68.781 52.977 68.781 L 71.452 68.781 71.452 68.447 L 71.452 68.114 52.977 68.114 L 34.502 68.114 34.502 68.447 M231.163 69.727 L 231.163 71.341 231.441 71.341 C 231.717 71.341,231.720 71.333,231.731 70.312 C 231.742 69.233,231.756 69.250,232.051 70.701 C 232.165 71.266,232.212 71.341,232.447 71.341 C 232.726 71.341,232.773 71.235,233.035 70.006 C 233.137 69.529,233.143 69.549,233.154 70.423 C 233.166 71.325,233.171 71.341,233.445 71.341 L 233.723 71.341 233.723 69.721 L 233.723 68.100 233.306 68.135 L 232.888 68.169 232.705 69.039 C 232.467 70.171,232.457 70.172,232.224 69.060 L 232.025 68.114 231.594 68.114 L 231.163 68.114 231.163 69.727 M234.168 69.727 L 234.168 71.341 234.446 71.341 C 234.712 71.341,234.725 71.311,234.725 70.673 L 234.725 70.006 235.281 70.006 C 236.114 70.006,236.139 69.481,235.309 69.427 C 234.408 69.370,234.503 68.740,235.420 68.692 C 236.016 68.661,236.060 68.640,236.060 68.386 C 236.060 68.118,236.044 68.114,235.114 68.114 L 234.168 68.114 234.168 69.727 M236.505 69.727 L 236.505 71.341 237.451 71.341 C 238.381 71.341,238.397 71.336,238.397 71.068 C 238.397 70.815,238.353 70.793,237.757 70.762 L 237.117 70.729 237.086 69.421 L 237.055 68.114 236.780 68.114 L 236.505 68.114 236.505 69.727 M238.175 68.392 C 238.175 68.636,238.223 68.670,238.564 68.670 L 238.954 68.670 238.954 70.006 L 238.954 71.341 239.288 71.341 L 239.622 71.341 239.622 70.006 L 239.622 68.670 240.011 68.670 C 240.352 68.670,240.401 68.636,240.401 68.392 L 240.401 68.114 239.288 68.114 L 238.175 68.114 238.175 68.392 M342.652 71.348 C 344.008 72.274,344.154 72.407,344.500 73.043 C 344.707 73.423,346.645 77.177,348.806 81.386 L 352.735 89.037 354.933 89.037 L 357.131 89.037 357.809 89.886 C 358.630 90.916,358.629 90.812,357.828 91.331 C 356.264 92.344,356.353 92.854,358.513 95.252 C 359.304 96.130,359.934 96.864,359.914 96.883 C 359.814 96.980,356.356 98.370,354.672 98.990 C 352.270 99.875,346.963 101.503,346.480 101.503 C 346.428 101.503,346.357 100.563,346.322 99.416 C 345.864 84.463,330.668 74.355,316.583 79.633 C 308.914 82.507,303.378 89.565,302.468 97.628 L 302.326 98.887 301.998 98.861 C 301.480 98.821,296.243 98.162,295.970 98.103 C 295.727 98.051,295.729 98.041,296.117 97.379 C 296.397 96.900,296.501 96.600,296.478 96.335 C 296.461 96.130,296.513 95.882,296.595 95.783 C 296.716 95.638,296.720 95.443,296.617 94.752 C 296.548 94.284,296.504 93.890,296.520 93.878 C 296.536 93.865,296.930 93.634,297.395 93.366 C 297.888 93.081,298.221 92.819,298.193 92.738 C 298.159 92.639,298.303 92.599,298.690 92.599 L 299.236 92.599 302.988 83.811 L 306.739 75.023 307.783 73.503 L 308.826 71.983 310.367 71.166 L 311.909 70.348 326.544 70.345 L 341.180 70.342 342.652 71.348 M185.052 81.441 L 189.846 92.097 192.002 92.366 C 194.504 92.679,194.248 92.603,194.103 92.983 C 194.010 93.227,194.052 93.491,194.322 94.353 C 194.505 94.940,194.643 95.431,194.629 95.445 C 194.495 95.565,189.470 96.968,187.549 97.421 L 186.466 97.676 186.333 96.167 C 185.329 84.809,175.790 76.113,164.352 76.129 C 154.267 76.143,145.551 82.923,143.029 92.715 C 142.680 94.072,142.629 94.181,142.529 93.781 C 142.444 93.445,139.582 90.854,139.185 90.755 C 138.769 90.650,138.313 90.847,138.063 91.239 C 137.785 91.676,137.889 91.727,136.581 90.515 L 135.472 89.488 133.652 89.457 L 131.831 89.427 133.252 88.704 L 134.673 87.982 134.643 85.367 L 134.613 82.753 132.777 81.670 L 130.940 80.587 128.909 80.583 L 126.878 80.579 126.878 79.256 L 126.878 77.933 129.466 77.866 C 130.889 77.829,133.454 77.768,135.166 77.730 L 138.279 77.661 138.894 77.237 C 139.233 77.003,141.413 75.456,143.738 73.799 L 147.965 70.785 164.111 70.785 L 180.257 70.785 185.052 81.441 M227.164 73.081 C 226.454 73.984,227.314 75.303,228.277 74.787 C 228.672 74.576,228.578 73.790,228.158 73.790 C 227.935 73.790,227.824 73.845,227.824 73.957 C 227.824 74.048,227.899 74.124,227.991 74.124 C 228.237 74.124,228.194 74.431,227.936 74.513 C 227.655 74.602,227.504 74.507,227.372 74.161 C 227.152 73.582,227.609 72.922,227.975 73.289 C 228.183 73.496,228.492 73.507,228.492 73.306 C 228.492 72.775,227.533 72.612,227.164 73.081 M229.056 73.081 C 228.522 73.761,228.906 74.903,229.670 74.903 C 230.339 74.903,230.710 73.972,230.332 73.241 C 230.051 72.698,229.420 72.619,229.056 73.081 M230.718 73.661 C 230.718 74.763,231.347 75.342,231.920 74.769 C 232.131 74.558,232.101 72.788,231.886 72.788 C 231.754 72.788,231.720 72.947,231.720 73.553 C 231.720 74.121,231.673 74.357,231.541 74.467 C 231.249 74.709,231.052 74.314,231.052 73.490 C 231.052 72.940,231.016 72.788,230.885 72.788 C 230.751 72.788,230.718 72.959,230.718 73.661 M232.387 73.845 C 232.387 74.711,232.418 74.903,232.554 74.903 C 232.683 74.903,232.722 74.755,232.727 74.263 L 232.732 73.623 233.062 74.263 C 233.562 75.231,233.723 75.130,233.723 73.845 C 233.723 72.980,233.693 72.788,233.556 72.788 C 233.428 72.788,233.388 72.936,233.384 73.428 L 233.378 74.068 233.048 73.428 C 232.548 72.459,232.387 72.561,232.387 73.845 M234.287 73.081 C 233.753 73.761,234.137 74.903,234.901 74.903 C 235.214 74.903,235.325 74.836,235.505 74.541 C 236.162 73.462,235.043 72.121,234.287 73.081 M235.949 73.661 C 235.949 74.763,236.578 75.342,237.151 74.769 C 237.362 74.558,237.332 72.788,237.117 72.788 C 236.985 72.788,236.950 72.947,236.950 73.553 C 236.950 74.121,236.904 74.357,236.771 74.467 C 236.480 74.709,236.283 74.314,236.283 73.490 C 236.283 72.940,236.247 72.788,236.116 72.788 C 235.982 72.788,235.949 72.959,235.949 73.661 M238.517 73.081 C 237.806 73.984,238.666 75.303,239.629 74.787 C 240.024 74.576,239.930 73.790,239.510 73.790 C 239.288 73.790,239.176 73.845,239.176 73.957 C 239.176 74.048,239.252 74.124,239.343 74.124 C 239.590 74.124,239.546 74.431,239.289 74.513 C 239.008 74.602,238.856 74.507,238.724 74.161 C 238.504 73.582,238.961 72.922,239.328 73.289 C 239.535 73.496,239.844 73.507,239.844 73.306 C 239.844 72.775,238.885 72.612,238.517 73.081 M240.324 73.845 C 240.002 74.821,239.991 74.903,240.180 74.903 C 240.293 74.903,240.417 74.802,240.456 74.680 C 240.506 74.522,240.625 74.457,240.864 74.457 C 241.107 74.457,241.217 74.519,241.259 74.680 C 241.292 74.809,241.411 74.903,241.539 74.903 C 241.669 74.903,241.739 74.845,241.709 74.763 C 241.681 74.687,241.521 74.211,241.354 73.706 C 240.937 72.446,240.777 72.467,240.324 73.845 M241.514 72.871 C 241.515 72.917,241.638 73.155,241.789 73.400 C 241.977 73.705,242.064 74.011,242.067 74.374 C 242.070 74.827,242.102 74.903,242.293 74.903 C 242.479 74.903,242.515 74.828,242.515 74.454 C 242.515 74.196,242.634 73.772,242.794 73.456 C 243.127 72.798,243.128 72.788,242.863 72.788 C 242.735 72.788,242.600 72.918,242.515 73.122 C 242.439 73.306,242.339 73.456,242.293 73.456 C 242.246 73.456,242.146 73.306,242.070 73.122 C 241.948 72.826,241.513 72.630,241.514 72.871 M243.217 73.845 C 242.896 74.821,242.885 74.903,243.074 74.903 C 243.187 74.903,243.311 74.802,243.350 74.680 C 243.400 74.522,243.518 74.457,243.757 74.457 C 244.001 74.457,244.110 74.519,244.153 74.680 C 244.186 74.809,244.304 74.903,244.432 74.903 C 244.563 74.903,244.633 74.845,244.603 74.763 C 244.574 74.687,244.415 74.211,244.248 73.706 C 243.831 72.446,243.671 72.467,243.217 73.845 M230.050 73.845 C 230.050 74.721,229.378 74.795,229.206 73.939 C 229.114 73.476,229.489 73.052,229.830 73.235 C 229.998 73.325,230.050 73.468,230.050 73.845 M235.281 73.845 C 235.281 74.238,235.232 74.365,235.038 74.468 C 234.525 74.743,234.168 73.790,234.616 73.342 C 234.973 72.984,235.281 73.217,235.281 73.845 M240.989 73.790 C 241.032 73.952,240.993 74.012,240.846 74.012 C 240.699 74.012,240.660 73.952,240.702 73.790 C 240.734 73.667,240.799 73.567,240.846 73.567 C 240.893 73.567,240.957 73.667,240.989 73.790 M243.883 73.790 C 243.926 73.952,243.887 74.012,243.740 74.012 C 243.593 74.012,243.554 73.952,243.596 73.790 C 243.628 73.667,243.693 73.567,243.740 73.567 C 243.787 73.567,243.851 73.667,243.883 73.790 M36.608 75.117 C 36.291 75.434,36.283 75.471,36.283 76.572 C 36.283 77.673,36.291 77.711,36.608 78.027 L 36.933 78.353 41.514 78.353 L 46.094 78.353 46.419 78.027 C 46.919 77.527,46.919 75.617,46.419 75.117 L 46.094 74.791 41.514 74.791 L 36.933 74.791 36.608 75.117 M48.628 75.117 C 48.311 75.434,48.303 75.471,48.303 76.572 C 48.303 77.673,48.311 77.711,48.628 78.027 L 48.953 78.353 53.534 78.353 L 58.114 78.353 58.439 78.027 C 58.756 77.711,58.765 77.673,58.765 76.572 C 58.765 75.471,58.756 75.434,58.439 75.117 L 58.114 74.791 53.534 74.791 L 48.953 74.791 48.628 75.117 M60.648 75.117 C 60.331 75.434,60.323 75.471,60.323 76.572 C 60.323 77.673,60.331 77.711,60.648 78.027 L 60.973 78.353 65.554 78.353 L 70.134 78.353 70.459 78.027 C 70.776 77.711,70.785 77.673,70.785 76.572 C 70.785 75.471,70.776 75.434,70.459 75.117 L 70.134 74.791 65.554 74.791 L 60.973 74.791 60.648 75.117 M46.021 76.572 L 46.021 77.629 41.514 77.629 L 37.006 77.629 36.973 76.693 C 36.956 76.177,36.967 75.689,36.998 75.606 C 37.045 75.484,37.866 75.462,41.538 75.486 L 46.021 75.515 46.021 76.572 M58.041 76.572 L 58.041 77.629 53.534 77.629 L 49.026 77.629 48.994 76.693 C 48.976 76.177,48.987 75.689,49.018 75.606 C 49.065 75.484,49.886 75.462,53.558 75.486 L 58.041 75.515 58.041 76.572 M70.061 76.572 L 70.061 77.629 65.554 77.629 L 61.046 77.629 61.014 76.693 C 60.996 76.177,61.007 75.689,61.038 75.606 C 61.085 75.484,61.906 75.462,65.579 75.486 L 70.061 75.515 70.061 76.572 M166.837 76.912 C 184.354 79.085,191.991 100.141,179.879 112.870 C 167.821 125.540,146.517 119.141,143.340 101.895 C 140.777 87.978,152.821 75.173,166.837 76.912 M8.459 79.577 C 8.459 80.754,8.429 81.024,8.300 81.024 C 8.213 81.024,7.762 81.229,7.298 81.479 L 6.455 81.934 6.457 85.346 L 6.458 88.759 7.431 89.263 L 8.403 89.766 8.459 103.648 L 8.514 117.530 8.993 118.086 L 9.473 118.642 14.671 118.642 L 19.869 118.642 20.619 118.139 L 21.369 117.636 21.369 109.458 L 21.369 101.280 22.037 101.280 L 22.705 101.280 22.705 100.293 C 22.705 99.538,22.760 99.172,22.942 98.735 L 23.179 98.164 24.473 98.164 L 25.766 98.164 26.452 98.726 C 27.198 99.336,27.184 99.300,27.327 100.890 C 27.386 101.546,27.468 101.779,27.846 102.365 L 28.295 103.061 33.291 103.061 L 38.286 103.061 38.286 102.333 C 38.286 101.788,38.188 101.323,37.896 100.485 C 37.682 99.870,37.507 99.346,37.507 99.321 C 37.507 99.297,41.188 99.277,45.687 99.277 L 53.868 99.277 53.868 99.761 C 53.868 100.198,53.952 100.353,54.721 101.320 L 55.574 102.393 56.500 102.393 L 57.425 102.393 58.457 103.622 L 59.488 104.851 60.100 104.794 C 60.437 104.763,61.075 104.704,61.519 104.664 L 62.326 104.590 62.326 103.937 L 62.326 103.283 63.485 103.283 L 64.644 103.283 66.045 101.736 L 67.446 100.188 67.450 99.538 C 67.454 98.906,67.467 98.878,67.899 98.580 L 68.343 98.272 68.784 98.524 L 69.225 98.776 69.226 100.584 L 69.226 102.393 72.392 102.393 L 75.558 102.393 75.809 103.175 L 76.061 103.956 76.959 103.063 L 77.857 102.170 78.661 102.170 L 79.466 102.170 79.466 100.501 L 79.466 98.831 80.672 98.831 L 81.878 98.831 82.614 100.390 L 83.350 101.948 84.023 101.948 L 84.697 101.948 84.697 101.614 C 84.697 101.296,84.674 101.280,84.224 101.277 L 83.751 101.273 83.029 99.719 L 82.308 98.164 80.553 98.164 L 78.798 98.164 78.798 99.833 L 78.798 101.503 78.217 101.503 C 77.660 101.503,77.609 101.529,77.006 102.126 L 76.376 102.750 76.214 102.265 L 76.053 101.781 72.974 101.751 L 69.894 101.722 69.894 100.067 L 69.894 98.412 69.105 97.942 L 68.315 97.473 67.797 97.840 C 67.512 98.042,67.168 98.284,67.032 98.380 C 66.823 98.526,66.784 98.659,66.781 99.236 L 66.778 99.918 65.582 101.261 L 64.385 102.605 63.022 102.610 L 61.658 102.615 61.658 103.281 C 61.658 104.035,61.709 104.000,60.478 104.107 L 59.799 104.167 58.772 102.946 L 57.745 101.725 56.818 101.725 L 55.891 101.725 55.213 100.876 C 54.543 100.037,54.535 100.019,54.535 99.318 L 54.535 98.609 45.534 98.609 L 36.532 98.609 37.038 100.028 C 37.317 100.808,37.566 101.660,37.593 101.920 L 37.641 102.393 33.150 102.393 L 28.659 102.392 28.352 101.907 C 28.098 101.505,28.026 101.216,27.926 100.210 C 27.860 99.544,27.772 98.966,27.731 98.925 C 27.691 98.885,27.290 98.547,26.840 98.174 L 26.023 97.496 24.392 97.500 L 22.760 97.503 22.397 98.307 C 22.100 98.962,22.033 99.248,22.035 99.861 L 22.037 100.612 21.703 100.612 L 21.369 100.612 21.369 95.882 L 21.369 91.152 21.035 91.152 L 20.701 91.152 20.701 104.218 L 20.701 117.283 20.163 117.629 L 19.624 117.974 14.731 117.974 L 9.838 117.974 9.482 117.607 L 9.126 117.240 9.126 103.694 L 9.126 90.148 9.720 90.483 L 10.313 90.818 53.099 90.818 L 95.885 90.818 96.468 90.426 L 97.051 90.033 97.051 103.648 L 97.051 117.263 96.684 117.619 L 96.317 117.974 91.435 117.974 L 86.553 117.974 86.014 117.629 L 85.476 117.283 85.476 104.218 L 85.476 91.152 85.142 91.152 L 84.808 91.152 84.808 104.394 L 84.808 117.636 85.558 118.139 L 86.308 118.642 91.502 118.642 L 96.696 118.642 97.207 118.074 L 97.718 117.505 97.718 103.565 L 97.718 89.625 98.386 89.213 L 99.054 88.801 99.054 85.304 L 99.054 81.806 98.386 81.469 L 97.718 81.132 97.718 79.631 L 97.718 78.130 97.385 78.130 L 97.051 78.130 97.051 79.577 L 97.051 81.024 53.088 81.024 L 9.126 81.024 9.126 79.577 L 9.126 78.130 8.792 78.130 L 8.459 78.130 8.459 79.577 M201.156 78.993 C 201.188 79.100,201.518 80.461,201.889 82.018 L 202.565 84.849 203.610 86.804 L 204.656 88.759 196.909 88.788 C 192.648 88.803,189.128 88.778,189.086 88.732 C 189.005 88.640,184.641 78.943,184.641 78.853 C 184.641 78.666,201.100 78.805,201.156 78.993 M261.277 79.382 C 261.242 79.704,261.162 80.568,261.099 81.302 C 260.799 84.773,260.592 85.807,259.889 87.342 L 259.241 88.759 232.331 88.759 L 205.422 88.759 204.316 86.705 L 203.211 84.651 202.602 82.142 C 202.267 80.762,201.950 79.445,201.899 79.215 L 201.804 78.798 231.572 78.798 L 261.340 78.798 261.277 79.382 M304.364 78.881 C 304.339 78.927,303.076 81.882,301.557 85.448 L 298.796 91.931 278.672 91.931 L 258.548 91.931 258.919 91.124 C 259.123 90.680,259.382 90.129,259.493 89.900 L 259.696 89.482 278.874 89.482 L 298.052 89.482 298.052 89.149 L 298.052 88.815 279.076 88.815 C 268.639 88.815,260.100 88.797,260.100 88.775 C 260.100 88.753,260.394 88.115,260.754 87.356 C 261.403 85.984,261.408 85.969,261.523 84.522 C 261.587 83.722,261.756 82.107,261.899 80.933 L 262.158 78.798 283.284 78.798 C 294.903 78.798,304.389 78.836,304.364 78.881 M386.252 79.772 C 386.213 80.307,386.162 80.808,386.138 80.885 C 386.104 80.994,384.686 81.024,379.535 81.024 L 372.976 81.024 372.811 81.506 C 372.651 81.976,372.666 82.071,373.355 85.096 C 373.744 86.805,374.063 88.240,374.065 88.287 C 374.067 88.333,369.354 88.358,363.593 88.342 L 353.119 88.314 350.683 83.585 C 349.343 80.984,348.247 78.843,348.247 78.827 C 348.247 78.811,356.814 78.798,367.285 78.798 L 386.322 78.798 386.252 79.772 M327.148 79.077 C 344.869 81.400,352.019 103.307,339.099 115.693 C 327.806 126.520,308.980 121.854,304.071 107.012 C 299.120 92.041,311.522 77.029,327.148 79.077 M132.350 82.203 L 134.001 83.159 134.001 85.374 L 134.001 87.589 132.333 88.424 L 130.665 89.260 125.666 89.260 L 120.668 89.260 120.604 87.896 C 120.568 87.147,120.510 85.772,120.473 84.842 L 120.407 83.152 121.833 82.199 L 123.260 81.247 126.979 81.247 L 130.698 81.247 132.350 82.203 M97.882 81.936 L 98.386 82.181 98.386 85.303 L 98.386 88.425 97.016 89.288 L 95.645 90.150 53.090 90.150 L 10.535 90.150 8.827 89.245 L 7.119 88.340 7.149 85.322 L 7.179 82.305 7.735 82.001 L 8.292 81.697 52.835 81.694 L 97.379 81.692 97.882 81.936 M387.018 82.805 L 387.534 83.918 392.753 83.918 L 397.971 83.918 398.150 84.190 C 398.320 84.450,398.285 84.599,397.348 87.556 L 396.368 90.649 395.057 91.401 L 393.746 92.154 384.915 92.154 L 376.084 92.154 375.799 91.903 C 375.521 91.659,373.400 82.887,373.400 81.981 L 373.400 81.692 379.951 81.692 L 386.501 81.692 387.018 82.805 M163.050 85.219 C 152.226 86.377,147.518 99.665,155.213 107.333 C 161.447 113.545,172.015 111.878,175.956 104.062 C 180.580 94.893,173.209 84.132,163.050 85.219 M166.200 85.975 C 176.197 87.482,180.226 99.711,173.080 106.858 C 166.384 113.554,154.885 110.454,152.476 101.304 C 150.229 92.769,157.487 84.662,166.200 85.975 M322.705 87.373 C 312.178 88.757,307.636 101.550,314.951 109.207 C 322.832 117.456,336.722 112.289,337.307 100.890 C 337.718 92.876,330.644 86.328,322.705 87.373 M162.159 87.799 C 154.024 89.575,151.026 99.652,156.873 105.566 C 163.699 112.471,175.380 107.340,174.928 97.635 C 174.625 91.135,168.498 86.415,162.159 87.799 M326.838 88.190 C 336.283 90.229,339.905 101.746,333.292 108.710 C 325.626 116.783,312.069 111.398,312.065 100.278 C 312.062 92.465,319.281 86.558,326.838 88.190 M166.365 88.435 C 174.064 90.018,176.966 99.593,171.426 105.134 C 165.008 111.552,154.028 106.682,154.512 97.633 C 154.836 91.584,160.460 87.220,166.365 88.435 M362.938 89.083 C 362.938 89.109,362.680 89.335,362.364 89.587 L 361.790 90.044 361.552 89.821 C 361.102 89.398,360.728 89.421,359.957 89.920 C 359.573 90.169,359.217 90.373,359.168 90.373 C 359.082 90.373,358.288 89.473,358.111 89.176 C 358.046 89.067,358.549 89.037,360.483 89.037 C 361.833 89.037,362.938 89.058,362.938 89.083 M205.050 89.677 C 205.122 89.924,205.565 91.821,205.565 91.884 C 205.565 91.910,204.610 91.931,203.443 91.931 C 201.218 91.931,201.074 91.957,200.531 92.464 L 200.227 92.748 195.634 92.166 C 193.107 91.846,190.873 91.555,190.667 91.520 C 190.343 91.465,189.427 89.992,189.427 89.527 C 189.427 89.347,204.998 89.497,205.050 89.677 M258.723 89.844 C 258.637 90.043,258.381 90.594,258.153 91.068 L 257.738 91.931 231.995 91.931 L 206.251 91.931 206.137 91.402 C 206.074 91.112,205.949 90.561,205.859 90.178 L 205.696 89.482 232.287 89.482 L 258.879 89.482 258.723 89.844 M322.307 89.865 C 309.901 92.450,311.660 110.734,324.318 110.782 C 334.579 110.822,338.839 97.625,330.495 91.643 C 328.284 90.058,324.905 89.324,322.307 89.865 M361.070 90.289 C 361.250 90.429,362.383 95.529,362.382 96.193 C 362.381 96.819,361.614 97.243,361.038 96.935 C 360.624 96.713,357.485 93.113,357.485 92.860 C 357.485 92.389,357.641 92.237,359.197 91.198 C 360.926 90.044,360.821 90.095,361.070 90.289 M326.228 90.533 C 334.562 92.162,337.135 102.978,330.409 108.106 C 324.040 112.962,314.908 108.769,314.451 100.779 C 314.086 94.408,319.951 89.305,326.228 90.533 M140.465 92.617 C 142.490 94.438,142.509 94.283,140.000 96.376 C 137.890 98.136,137.722 98.233,137.183 98.008 C 136.427 97.692,136.448 97.472,137.516 94.510 C 138.864 90.771,138.600 90.940,140.465 92.617 M162.793 92.314 C 158.335 93.594,156.879 99.140,160.144 102.404 C 163.943 106.203,170.392 103.534,170.392 98.164 C 170.392 94.202,166.541 91.238,162.793 92.314 M284.869 92.872 C 285.041 93.044,285.142 93.272,285.142 93.489 C 285.142 93.706,285.041 93.934,284.869 94.106 L 284.596 94.380 242.960 94.380 L 201.325 94.380 201.052 94.106 C 200.880 93.934,200.779 93.706,200.779 93.489 C 200.779 93.272,200.880 93.044,201.052 92.872 L 201.325 92.599 242.960 92.599 L 284.596 92.599 284.869 92.872 M297.264 92.643 C 297.238 92.667,296.905 92.870,296.522 93.094 C 295.752 93.543,295.762 93.515,295.935 94.708 C 296.072 95.657,296.058 95.668,294.562 95.753 C 292.722 95.858,291.860 96.258,291.477 97.184 C 291.297 97.617,291.374 97.643,288.062 96.038 L 285.277 94.688 285.552 94.283 C 285.830 93.875,285.868 93.285,285.650 92.794 C 285.568 92.609,285.884 92.599,291.437 92.599 C 294.667 92.599,297.289 92.619,297.264 92.643 M166.645 93.293 C 171.806 95.752,170.090 103.506,164.385 103.506 C 159.637 103.506,157.237 97.726,160.592 94.371 C 162.183 92.780,164.648 92.341,166.645 93.293 M198.148 93.156 C 199.057 93.278,199.871 93.378,199.956 93.378 C 200.413 93.378,200.028 93.720,199.295 93.966 C 198.509 94.231,198.473 94.233,198.350 94.035 C 198.178 93.759,197.795 93.519,197.024 93.202 C 196.672 93.057,196.408 92.937,196.439 92.936 C 196.469 92.935,197.238 93.034,198.148 93.156 M195.857 93.544 C 197.713 94.041,198.360 94.660,198.089 95.678 C 197.749 96.954,196.089 96.887,195.491 95.573 C 195.164 94.854,194.656 93.266,194.753 93.267 C 194.792 93.267,195.289 93.392,195.857 93.544 M163.139 94.260 C 160.223 95.193,159.344 98.887,161.527 101.036 C 164.015 103.485,168.139 101.965,168.464 98.480 C 168.731 95.622,165.899 93.378,163.139 94.260 M323.651 94.285 C 318.683 94.796,316.530 100.956,320.078 104.504 C 323.887 108.313,330.361 105.655,330.370 100.278 C 330.376 96.624,327.329 93.907,323.651 94.285 M165.783 95.038 C 169.127 96.513,168.045 101.555,164.385 101.555 C 161.387 101.555,159.866 98.071,161.888 95.833 C 162.853 94.765,164.432 94.442,165.783 95.038 M326.206 95.211 C 329.840 96.504,330.891 101.248,328.156 104.020 C 324.897 107.323,319.295 105.231,319.003 100.603 C 318.760 96.747,322.549 93.910,326.206 95.211 M142.458 95.944 C 142.399 96.461,142.350 97.301,142.349 97.811 L 142.348 98.738 142.042 98.670 C 141.331 98.511,139.439 97.876,139.443 97.796 C 139.446 97.749,140.077 97.183,140.846 96.539 C 141.614 95.895,142.303 95.273,142.375 95.157 C 142.569 94.846,142.576 94.914,142.458 95.944 M278.600 96.601 C 291.741 98.256,291.262 98.174,291.594 98.826 C 292.082 99.782,292.990 100.077,294.227 99.680 C 294.400 99.624,294.477 99.657,294.515 99.802 C 294.551 99.937,294.870 100.098,295.524 100.311 C 296.480 100.621,296.481 100.622,296.516 101.028 C 296.550 101.431,296.559 101.438,297.639 101.872 C 298.238 102.113,298.714 102.321,298.697 102.335 C 298.679 102.349,288.397 101.016,275.849 99.373 L 253.033 96.386 241.688 96.503 C 230.514 96.619,230.323 96.624,229.079 96.877 C 227.551 97.188,227.753 96.920,227.626 98.808 C 227.567 99.682,227.493 100.424,227.461 100.456 C 227.429 100.488,225.432 100.452,223.025 100.375 L 218.647 100.235 217.006 98.748 C 216.103 97.930,215.335 97.213,215.299 97.156 C 215.261 97.094,213.826 97.051,211.791 97.051 L 208.347 97.051 208.347 96.350 L 208.347 95.650 207.763 95.355 L 207.179 95.061 236.728 95.055 L 266.277 95.048 278.600 96.601 M286.607 96.077 C 287.786 96.643,288.653 97.118,288.532 97.133 C 288.412 97.148,284.633 96.689,280.134 96.115 L 271.953 95.070 278.208 95.059 L 284.463 95.047 286.607 96.077 M323.261 96.309 C 318.702 97.829,319.602 104.284,324.380 104.332 C 328.701 104.374,329.978 98.337,326.029 96.529 C 325.285 96.188,323.943 96.082,323.261 96.309 M295.826 96.466 C 295.826 97.066,294.273 98.981,293.647 99.154 C 292.197 99.554,291.400 97.450,292.740 96.757 C 293.283 96.476,295.827 96.236,295.826 96.466 M193.573 96.568 C 193.495 96.599,193.434 96.814,193.434 97.056 C 193.434 97.470,193.415 97.492,192.960 97.610 C 190.960 98.128,191.044 98.089,191.006 98.532 C 190.967 98.992,191.059 98.951,188.676 99.565 L 187.423 99.888 187.423 100.346 L 187.423 100.805 186.860 100.917 L 186.296 101.028 186.373 99.735 C 186.416 99.024,186.463 98.427,186.479 98.408 C 186.495 98.390,187.753 98.053,189.275 97.660 C 190.797 97.267,192.343 96.849,192.710 96.730 C 193.306 96.538,193.946 96.417,193.573 96.568 M325.791 97.158 C 329.090 98.720,327.969 103.668,324.318 103.660 C 321.101 103.654,319.708 99.600,322.226 97.574 C 323.177 96.809,324.683 96.633,325.791 97.158 M361.127 97.655 L 361.597 97.783 360.654 98.251 C 359.993 98.578,359.711 98.778,359.711 98.919 C 359.711 99.064,359.565 99.158,359.182 99.259 C 357.529 99.699,357.485 99.719,357.485 100.041 C 357.485 100.291,357.411 100.371,357.067 100.493 C 354.728 101.325,354.814 101.283,354.814 101.605 C 354.814 101.899,354.760 101.926,353.144 102.434 C 351.593 102.922,351.475 102.978,351.475 103.230 C 351.475 103.419,351.399 103.520,351.224 103.562 C 351.087 103.596,350.198 103.787,349.249 103.987 C 347.704 104.313,347.520 104.376,347.489 104.590 C 347.444 104.901,345.911 105.388,345.909 105.092 C 345.909 104.995,346.239 102.788,346.307 102.433 C 346.340 102.261,346.465 102.174,346.758 102.119 C 349.153 101.670,356.640 99.115,359.599 97.738 C 359.997 97.553,360.398 97.430,360.490 97.464 C 360.582 97.499,360.868 97.585,361.127 97.655 M140.735 98.983 L 142.293 99.461 142.396 99.869 C 142.524 100.379,142.487 100.414,141.909 100.322 C 141.570 100.268,141.415 100.180,141.348 100.004 C 141.279 99.822,140.935 99.638,139.993 99.280 C 138.349 98.653,138.270 98.612,138.466 98.486 C 138.660 98.361,138.828 98.398,140.735 98.983 M297.124 99.375 C 298.094 99.735,299.647 100.274,300.575 100.572 L 302.263 101.113 302.326 101.614 C 302.360 101.889,302.419 102.448,302.458 102.857 L 302.528 103.598 300.986 103.126 L 299.444 102.653 299.410 102.255 C 299.376 101.862,299.360 101.850,298.297 101.423 C 297.222 100.991,297.217 100.987,297.162 100.559 L 297.106 100.129 296.132 99.805 C 295.165 99.483,294.873 99.154,295.233 98.794 C 295.331 98.696,295.140 98.638,297.124 99.375 M300.385 99.336 C 302.373 99.580,302.282 99.548,302.282 100.002 C 302.282 100.484,302.438 100.501,300.331 99.786 C 298.365 99.119,298.368 99.089,300.385 99.336 " stroke="none" fill="#000000" fill-rule="evenodd"></path></g></svg>