<svg id="svg" xmlns="http://www.w3.org/2000/svg" xmlns:xlink="http://www.w3.org/1999/xlink" width="400" height="142.9388221841052" viewBox="0, 0, 400,142.9388221841052"><g id="svgg"><path id="path0" d="M102.687 18.309 L 102.687 36.389 102.115 37.014 L 101.544 37.640 101.544 38.717 L 101.544 39.794 101.086 39.794 L 100.629 39.794 100.629 40.922 C 100.629 41.872,100.665 42.096,100.854 42.337 C 101.079 42.622,101.079 42.624,100.854 42.827 C 100.667 42.997,100.629 43.181,100.629 43.929 L 100.629 44.826 99.943 44.826 L 99.257 44.826 99.257 43.911 L 99.257 42.996 94.540 42.996 L 89.823 42.995 89.308 42.646 C 82.753 38.199,73.196 39.948,68.791 46.402 L 68.227 47.227 63.671 47.227 L 59.115 47.227 57.898 46.240 C 45.191 35.943,26.295 39.789,18.953 54.167 L 18.468 55.116 13.599 55.117 L 8.730 55.117 8.590 56.033 C 8.513 56.537,8.476 56.992,8.509 57.044 C 8.541 57.096,8.414 57.252,8.228 57.390 C 6.580 58.608,6.800 60.481,8.995 63.922 C 11.323 67.574,12.121 69.285,12.121 70.628 L 12.121 71.612 10.149 71.531 C 6.508 71.383,5.307 71.736,3.584 73.459 C 2.626 74.417,1.840 75.732,1.646 76.703 L 1.579 77.039 2.705 77.259 L 3.831 77.479 3.861 81.672 L 3.891 85.865 3.553 86.397 C 2.974 87.311,2.973 87.329,2.973 98.805 L 2.973 109.548 1.601 109.548 L 0.229 109.548 0.229 111.492 L 0.229 113.436 1.599 113.436 L 2.969 113.436 3.000 124.854 L 3.030 136.272 3.431 137.057 C 4.330 138.820,6.098 139.374,10.406 139.245 C 16.065 139.074,16.693 138.363,16.695 132.118 L 16.695 129.017 17.029 128.950 C 18.495 128.657,19.184 126.138,19.392 120.323 C 19.475 117.980,19.424 118.100,20.397 117.959 C 21.437 117.808,21.728 117.158,21.252 116.052 C 20.897 115.227,21.008 115.151,22.683 115.069 L 24.014 115.003 24.014 117.807 C 24.014 120.604,24.015 120.613,24.307 121.136 L 24.600 121.660 24.348 122.000 C 23.369 123.324,25.078 124.952,26.461 124.014 C 26.969 123.669,26.987 123.667,26.987 123.957 C 26.987 124.179,27.063 124.185,29.960 124.185 C 32.857 124.185,32.933 124.179,32.933 123.957 C 32.933 123.804,33.009 123.728,33.162 123.728 C 33.374 123.728,33.391 123.652,33.391 122.699 C 33.391 121.839,33.361 121.670,33.211 121.670 C 32.735 121.670,32.704 121.476,32.704 118.419 C 32.704 116.810,32.746 115.495,32.797 115.495 C 33.276 115.495,35.078 117.432,36.199 119.154 C 37.188 120.671,38.024 121.517,39.018 122.006 C 39.656 122.319,39.807 122.449,39.915 122.777 C 40.501 124.553,45.126 125.122,46.141 123.544 C 46.361 123.202,46.408 123.185,47.376 123.116 C 49.899 122.934,51.692 121.847,53.496 119.402 C 53.994 118.728,54.720 117.882,55.109 117.522 L 55.816 116.867 56.839 116.867 L 57.862 116.867 57.862 116.284 L 57.862 115.702 58.355 115.991 L 58.849 116.280 70.505 115.890 C 76.916 115.675,82.251 115.498,82.361 115.497 C 82.547 115.495,82.561 115.715,82.561 118.533 C 82.561 121.712,82.533 121.898,82.055 121.898 C 81.905 121.898,81.875 122.068,81.875 122.927 C 81.875 123.880,81.892 123.957,82.104 123.957 C 82.257 123.957,82.333 124.033,82.333 124.185 C 82.333 124.408,82.409 124.414,85.306 124.414 C 88.203 124.414,88.279 124.408,88.279 124.185 C 88.279 123.917,88.351 123.908,88.736 124.128 C 90.054 124.881,91.593 123.222,90.698 122.012 L 90.456 121.685 90.738 121.191 C 91.017 120.705,91.021 120.658,91.022 117.994 C 91.024 114.834,90.879 115.099,92.545 115.217 C 93.914 115.314,94.082 115.424,93.806 116.045 C 93.253 117.283,93.696 118.125,94.900 118.125 C 95.488 118.125,95.597 118.354,95.598 119.591 C 95.600 125.151,96.451 128.643,97.907 129.059 L 98.285 129.168 98.342 132.709 C 98.436 138.502,99.258 139.285,105.235 139.277 C 109.194 139.272,110.754 138.729,111.607 137.057 L 112.007 136.273 112.038 124.854 L 112.069 113.436 113.553 113.436 L 115.037 113.436 115.037 111.492 L 115.037 109.548 113.551 109.548 L 112.064 109.548 112.064 98.824 C 112.064 90.624,112.030 87.966,111.921 87.532 C 111.651 86.461,111.779 76.615,112.062 76.615 C 112.185 76.615,112.678 76.529,113.156 76.424 L 114.026 76.233 113.951 75.824 C 113.796 74.987,113.191 73.948,112.389 73.144 C 111.484 72.237,111.518 72.431,111.833 70.040 C 112.637 63.941,110.654 60.555,106.466 60.871 C 102.819 61.146,101.248 64.098,101.831 69.583 C 102.029 71.447,102.034 71.584,101.904 71.584 C 101.850 71.584,101.772 71.134,101.730 70.583 C 101.341 65.470,99.609 62.489,96.034 60.775 L 95.204 60.377 101.261 60.374 L 107.318 60.372 108.776 59.051 L 110.234 57.731 110.234 56.424 L 110.234 55.117 107.947 55.117 L 105.660 55.117 105.660 52.680 L 105.660 50.243 105.340 49.936 C 105.163 49.767,104.957 49.628,104.882 49.628 C 104.782 49.628,104.746 49.132,104.746 47.756 C 104.746 46.245,104.713 45.856,104.577 45.743 C 104.431 45.622,104.446 45.553,104.691 45.232 C 105.051 44.760,105.111 43.222,104.783 42.860 C 104.603 42.661,104.610 42.630,104.898 42.330 C 105.186 42.030,105.203 41.948,105.203 40.903 L 105.203 39.794 104.746 39.794 L 104.288 39.794 104.288 38.731 L 104.288 37.668 103.831 37.221 L 103.373 36.775 103.373 18.502 L 103.373 0.229 103.030 0.229 L 102.687 0.229 102.687 18.309 M388.622 34.013 C 387.173 34.538,387.146 34.677,386.851 43.270 L 386.611 50.234 385.873 51.031 L 385.134 51.829 385.134 57.475 L 385.134 63.122 383.758 63.122 L 382.381 63.122 382.414 62.121 L 382.447 61.121 383.448 61.088 L 384.448 61.055 384.448 59.801 L 384.448 58.548 383.476 58.548 C 382.905 58.548,382.504 58.501,382.504 58.433 C 382.504 58.366,382.905 58.319,383.476 58.319 L 384.448 58.319 384.448 57.066 L 384.448 55.812 383.448 55.779 L 382.447 55.746 382.386 51.973 C 382.352 49.897,382.314 48.187,382.300 48.173 C 381.779 47.631,380.769 47.801,380.547 48.468 C 380.510 48.577,380.402 48.569,380.076 48.433 C 379.089 48.021,377.847 48.357,377.234 49.203 L 376.901 49.663 376.901 52.733 L 376.901 55.803 347.452 55.803 C 323.826 55.803,317.992 55.775,317.948 55.659 C 317.917 55.579,318.047 55.055,318.237 54.494 C 318.656 53.254,318.678 52.796,318.328 52.551 C 317.935 52.275,317.380 52.323,317.119 52.655 L 316.896 52.938 316.681 52.696 C 315.880 51.796,313.868 51.823,313.006 52.745 C 312.848 52.916,312.169 54.920,310.988 58.708 C 310.009 61.847,309.195 64.421,309.178 64.429 C 309.162 64.437,308.582 64.666,307.890 64.938 C 301.661 67.389,296.532 72.208,294.156 77.842 L 293.711 78.897 287.364 78.900 C 280.283 78.904,280.351 78.897,279.629 79.647 C 278.709 80.602,278.882 81.574,280.159 82.626 C 280.838 83.185,280.845 83.196,280.845 83.791 L 280.846 84.391 266.771 84.391 C 257.563 84.391,252.710 84.352,252.735 84.278 C 252.953 83.633,256.787 79.048,257.031 79.141 C 258.081 79.540,259.315 78.863,259.566 77.750 C 259.972 75.943,257.747 74.719,256.375 75.994 L 256.089 76.260 256.081 75.703 C 256.061 74.306,254.560 73.450,253.279 74.104 C 252.138 74.686,251.950 76.216,252.903 77.168 L 253.296 77.561 252.352 80.805 C 251.833 82.588,251.351 84.048,251.280 84.048 C 250.940 84.048,249.653 83.267,249.129 82.743 C 247.949 81.561,247.460 80.171,247.457 77.987 L 247.456 76.671 253.245 70.484 L 259.035 64.297 259.548 64.451 C 261.554 65.055,262.907 62.388,261.239 61.116 C 259.693 59.937,257.486 61.743,258.374 63.461 L 258.569 63.838 257.832 64.595 C 257.427 65.011,255.151 67.436,252.775 69.983 C 250.399 72.530,248.230 74.845,247.955 75.127 L 247.456 75.640 247.456 73.403 L 247.456 71.167 257.947 61.858 C 267.682 53.221,268.472 52.546,268.897 52.507 C 269.220 52.477,269.471 52.354,269.754 52.088 L 270.154 51.712 274.099 55.812 C 278.584 60.473,278.713 60.567,279.558 59.779 C 280.386 59.006,280.335 58.931,275.615 54.044 C 273.398 51.749,271.584 49.817,271.584 49.750 C 271.584 49.683,271.725 49.373,271.898 49.060 L 272.213 48.491 271.225 47.502 L 270.238 46.512 269.663 46.825 C 268.925 47.227,269.418 47.626,265.071 43.110 C 260.535 38.398,260.684 38.536,260.126 38.536 C 259.640 38.536,259.031 38.999,258.998 39.394 C 258.933 40.165,258.732 39.926,264.130 45.488 L 267.047 48.494 266.635 48.918 C 266.292 49.271,266.216 49.438,266.187 49.909 L 266.152 50.475 256.832 58.717 L 247.513 66.959 247.456 64.154 C 247.385 60.698,247.075 59.917,245.500 59.240 L 244.919 58.990 234.150 59.001 L 223.381 59.012 222.754 58.675 C 219.671 57.017,213.849 56.244,196.398 55.175 C 187.660 54.639,179.046 53.935,172.565 53.226 C 171.155 53.072,169.990 52.958,169.977 52.974 C 169.957 52.997,169.621 55.787,169.635 55.811 C 169.638 55.815,170.489 55.911,171.527 56.025 C 172.607 56.144,173.157 56.238,172.813 56.246 L 172.213 56.261 172.213 57.519 L 172.213 58.776 170.726 58.776 L 169.240 58.776 169.240 58.205 L 169.240 57.633 167.753 57.633 L 166.266 57.633 166.266 58.148 L 166.266 58.662 163.408 58.662 L 160.549 58.662 160.549 75.481 L 160.549 92.300 159.683 93.273 C 158.379 94.739,156.074 97.991,155.836 98.701 C 155.810 98.778,147.564 99.598,146.798 99.599 C 146.625 99.600,146.598 99.483,146.598 98.742 L 146.598 97.885 143.854 97.885 L 141.109 97.885 141.109 102.802 L 141.109 107.719 143.772 107.719 L 146.435 107.719 146.808 108.204 L 147.180 108.689 146.128 109.660 L 145.075 110.631 144.364 110.595 C 143.477 110.549,142.842 110.841,142.411 111.492 C 141.155 113.390,143.240 115.664,145.272 114.613 C 145.867 114.305,146.961 114.468,147.486 114.942 C 147.854 115.275,148.053 115.352,148.886 115.483 C 149.810 115.628,149.885 115.662,150.429 116.188 C 150.936 116.678,151.083 116.754,151.730 116.857 C 152.632 117.001,152.515 116.833,152.827 118.429 C 156.829 138.875,180.504 148.671,197.885 137.071 C 204.300 132.790,209.242 125.294,210.359 118.152 C 210.444 117.608,210.386 117.639,211.813 117.394 C 212.489 117.278,212.781 117.168,213.018 116.941 C 213.287 116.683,213.497 116.622,214.525 116.501 C 215.601 116.375,215.759 116.326,216.121 116.005 C 216.560 115.616,217.882 115.351,220.372 115.152 C 222.149 115.010,223.228 114.205,224.621 111.985 C 225.334 110.848,225.096 110.859,226.661 111.891 L 227.959 112.747 263.019 112.749 L 298.078 112.750 298.451 113.465 C 300.139 116.701,300.976 117.239,304.626 117.433 L 306.850 117.551 307.317 118.009 L 307.785 118.468 308.981 118.469 C 309.639 118.469,310.444 118.502,310.769 118.541 L 311.362 118.612 311.552 119.483 C 314.089 131.119,323.268 140.058,334.871 142.191 C 351.369 145.225,367.021 133.878,369.250 117.267 C 369.326 116.701,369.395 116.228,369.402 116.216 C 369.410 116.205,370.161 116.059,371.072 115.893 C 372.722 115.592,372.729 115.590,373.242 115.090 C 373.712 114.633,373.831 114.578,374.614 114.461 C 375.443 114.336,375.495 114.309,376.158 113.661 C 376.767 113.066,376.911 112.982,377.444 112.913 C 377.774 112.870,378.045 112.791,378.045 112.738 C 378.045 112.685,378.177 112.692,378.338 112.753 C 379.325 113.128,380.555 112.578,381.030 111.549 C 381.811 109.858,380.060 107.976,378.322 108.637 C 377.817 108.829,377.874 108.690,378.594 107.969 C 379.036 107.528,379.425 106.988,379.694 106.445 L 380.109 105.603 382.936 105.737 C 384.491 105.810,388.915 105.875,392.767 105.880 L 399.771 105.889 399.771 100.766 L 399.771 95.642 399.400 95.283 C 398.449 94.363,397.060 94.344,396.124 95.237 C 394.789 96.513,392.128 97.722,389.651 98.179 C 388.541 98.384,384.772 98.369,384.562 98.158 C 384.445 98.041,384.389 88.902,384.503 88.609 C 384.563 88.455,385.016 88.165,385.197 88.165 C 385.225 88.165,385.249 88.604,385.249 89.140 C 385.249 90.839,385.911 91.778,387.250 91.980 C 388.366 92.148,394.393 92.291,394.877 92.161 C 396.186 91.808,396.525 91.024,396.637 88.079 L 396.717 85.992 398.130 85.992 L 399.543 85.992 399.543 68.908 L 399.543 51.824 398.751 50.977 L 397.960 50.129 398.185 43.961 C 398.548 34.030,398.618 34.265,395.254 34.070 C 391.686 33.864,389.097 33.841,388.622 34.013 M395.227 34.753 C 397.955 34.905,397.815 34.413,397.532 42.805 C 397.408 46.487,397.283 49.525,397.253 49.555 C 397.223 49.584,396.753 49.390,396.208 49.123 C 393.653 47.872,390.785 47.905,388.262 49.214 L 387.286 49.721 387.355 48.446 C 387.393 47.744,387.500 44.803,387.593 41.910 C 387.782 36.061,387.799 35.820,388.056 35.324 C 388.481 34.502,389.402 34.429,395.227 34.753 M103.281 37.586 C 103.582 37.874,103.602 37.951,103.602 38.844 L 103.602 39.794 102.916 39.794 L 102.230 39.794 102.230 38.857 C 102.230 37.996,102.255 37.894,102.537 37.599 C 102.912 37.208,102.888 37.209,103.281 37.586 M269.798 49.004 C 274.994 54.384,279.245 58.857,279.245 58.944 C 279.245 59.147,278.933 59.463,278.733 59.463 C 278.569 59.463,259.953 40.262,259.730 39.863 C 259.554 39.548,259.733 39.222,260.082 39.222 C 260.289 39.222,262.546 41.495,269.798 49.004 M104.517 41.130 C 104.517 42.151,104.304 42.310,102.932 42.310 C 101.530 42.310,101.315 42.155,101.315 41.146 L 101.315 40.480 102.916 40.480 L 104.517 40.480 104.517 41.130 M84.048 41.152 C 89.854 42.489,94.151 47.006,95.083 52.753 C 95.368 54.508,95.328 55.117,94.926 55.117 L 94.598 55.117 94.517 54.174 C 94.321 51.892,93.069 48.101,92.575 48.296 C 89.231 49.612,83.423 51.931,83.390 51.963 C 83.366 51.988,83.452 52.216,83.583 52.471 C 84.023 53.334,84.183 53.288,80.737 53.288 L 77.655 53.288 77.812 52.768 C 77.898 52.482,78.106 52.067,78.275 51.846 C 78.444 51.624,78.564 51.427,78.542 51.407 C 78.321 51.208,69.822 47.341,69.769 47.414 C 68.587 49.029,67.581 51.552,67.581 52.902 C 67.581 53.268,67.561 53.288,67.174 53.288 C 66.840 53.288,66.776 53.251,66.822 53.087 C 66.853 52.977,66.914 52.656,66.957 52.373 C 68.094 44.857,76.414 39.394,84.048 41.152 M45.169 41.335 C 49.555 41.984,53.574 43.722,57.176 46.527 L 58.148 47.284 55.117 47.355 C 53.451 47.394,48.639 47.433,44.425 47.441 C 36.343 47.457,35.335 47.508,33.848 47.979 C 31.626 48.682,29.823 50.406,29.043 52.573 L 28.786 53.288 26.537 53.288 L 24.288 53.288 23.550 54.197 L 22.813 55.106 21.069 55.112 C 20.110 55.115,19.325 55.086,19.325 55.049 C 19.325 54.868,20.364 53.017,21.000 52.066 C 25.256 45.701,31.692 41.964,39.851 41.121 C 40.742 41.029,43.985 41.159,45.169 41.335 M78.902 41.679 C 76.107 42.156,73.661 43.427,71.612 45.467 C 71.031 46.046,70.555 46.568,70.555 46.627 C 70.555 46.686,72.447 47.638,74.761 48.744 L 78.967 50.754 79.592 50.538 C 80.660 50.169,81.765 50.312,82.665 50.936 L 83.090 51.230 87.684 49.486 C 90.210 48.527,92.278 47.690,92.278 47.627 C 92.280 47.400,91.131 45.992,90.298 45.200 C 87.262 42.317,82.958 40.987,78.902 41.679 M84.178 42.575 C 86.110 43.078,87.707 43.900,89.278 45.199 C 89.987 45.785,91.255 47.163,91.251 47.341 C 91.250 47.373,89.446 48.082,87.242 48.918 L 83.234 50.437 82.526 50.090 C 81.588 49.630,80.630 49.529,79.668 49.789 L 78.951 49.984 76.039 48.590 C 74.438 47.824,72.768 47.031,72.328 46.829 L 71.528 46.460 72.213 45.799 C 75.372 42.753,80.039 41.495,84.178 42.575 M104.151 43.133 C 104.364 43.346,104.326 44.594,104.099 44.845 C 103.843 45.128,101.962 45.151,101.569 44.876 C 101.243 44.648,101.200 43.541,101.504 43.205 C 101.735 42.950,103.909 42.891,104.151 43.133 M98.571 44.597 L 98.571 45.512 99.903 45.512 C 101.187 45.512,101.229 45.519,101.047 45.721 C 100.882 45.903,100.858 46.271,100.858 48.531 L 100.858 51.132 101.314 51.324 L 101.770 51.515 101.771 53.316 L 101.772 55.117 98.874 55.117 L 95.975 55.117 95.900 53.945 C 95.676 50.469,94.290 47.366,91.796 44.758 L 90.768 43.682 94.669 43.682 L 98.571 43.682 98.571 44.597 M103.850 45.930 C 104.184 46.232,104.166 49.465,103.830 49.571 C 103.380 49.714,102.916 50.207,102.916 50.541 C 102.916 50.944,102.746 51.010,102.076 50.867 L 101.544 50.753 101.544 48.512 C 101.544 45.759,101.552 45.740,102.841 45.740 C 103.425 45.740,103.698 45.792,103.850 45.930 M271.213 48.901 C 271.045 49.268,271.044 49.268,270.230 48.446 L 269.512 47.721 269.776 47.541 C 270.162 47.278,271.413 48.461,271.213 48.901 M67.413 48.756 C 66.908 49.863,66.495 51.191,66.264 52.444 C 66.109 53.285,65.985 53.601,65.543 54.287 L 65.009 55.114 57.804 55.114 L 50.600 55.113 49.979 54.200 L 49.359 53.288 39.431 53.288 L 29.504 53.288 29.726 52.703 C 30.523 50.605,32.256 49.107,34.635 48.459 C 35.478 48.230,35.877 48.219,46.982 48.132 C 53.293 48.082,58.486 48.013,58.522 47.977 C 58.557 47.942,60.658 47.913,63.192 47.913 L 67.797 47.913 67.413 48.756 M73.871 49.963 C 76.357 51.135,77.458 51.710,77.425 51.817 C 77.399 51.903,77.276 52.268,77.152 52.630 L 76.926 53.288 72.597 53.288 L 68.268 53.288 68.268 52.906 C 68.268 51.724,69.662 48.247,70.131 48.260 C 70.207 48.262,71.890 49.028,73.871 49.963 M381.677 52.068 C 381.707 55.517,381.703 55.575,381.477 55.575 C 381.243 55.575,381.096 48.788,381.325 48.559 C 381.603 48.281,381.648 48.731,381.677 52.068 M394.279 49.128 C 395.726 49.452,397.482 50.518,398.471 51.673 L 398.856 52.123 398.856 68.715 L 398.856 85.306 392.338 85.306 L 385.820 85.306 385.820 85.986 C 385.820 86.791,385.615 87.093,384.743 87.571 C 383.676 88.156,383.738 87.778,383.756 93.532 L 383.772 98.586 381.566 98.519 C 380.352 98.482,378.484 98.422,377.413 98.385 L 375.467 98.320 375.154 97.127 C 372.213 85.899,363.133 76.553,351.858 73.147 C 332.447 67.284,312.447 78.843,304.967 100.249 C 303.911 103.270,303.221 104.338,301.944 104.934 L 301.372 105.201 273.957 105.202 L 246.541 105.203 246.541 103.603 L 246.541 102.003 238.807 101.973 L 231.072 101.944 229.718 99.600 C 228.973 98.310,225.259 91.904,221.464 85.363 L 214.565 73.471 219.670 73.413 L 224.775 73.356 225.193 73.037 C 225.891 72.505,225.895 72.485,225.958 69.240 L 226.015 66.266 226.456 67.615 C 226.775 68.592,226.877 69.065,226.824 69.330 C 226.406 71.416,227.117 72.613,228.775 72.613 C 230.809 72.613,231.734 70.146,230.199 68.812 C 229.848 68.507,229.699 68.231,229.381 67.296 C 228.815 65.633,227.566 63.178,226.703 62.033 C 225.981 61.076,225.958 61.025,225.958 60.368 L 225.958 59.691 234.963 59.668 C 246.118 59.640,245.396 59.583,246.137 60.555 C 246.796 61.418,246.769 60.999,246.772 70.522 C 246.773 77.693,246.804 79.444,246.937 80.074 C 247.446 82.475,249.168 84.219,251.660 84.856 C 252.700 85.122,287.989 85.209,289.217 84.949 C 291.010 84.568,292.692 82.910,293.768 80.463 C 293.979 79.982,294.194 79.588,294.246 79.588 C 294.297 79.588,294.340 79.494,294.340 79.379 C 294.340 79.264,294.473 78.843,294.635 78.443 C 297.722 70.846,305.459 65.168,314.351 63.974 C 315.362 63.838,321.104 63.812,350.686 63.810 L 385.820 63.808 385.820 57.967 L 385.820 52.125 386.236 51.618 C 388.012 49.451,391.245 48.450,394.279 49.128 M380.193 49.250 L 380.503 49.481 380.534 52.499 C 380.570 56.101,380.719 55.803,378.880 55.803 L 377.587 55.803 377.587 52.794 L 377.587 49.785 377.902 49.494 C 378.572 48.871,379.547 48.768,380.193 49.250 M269.415 51.511 C 268.956 52.000,268.647 51.901,267.722 50.969 C 266.812 50.054,266.747 49.853,267.206 49.374 L 267.516 49.050 268.602 50.136 L 269.687 51.221 269.415 51.511 M92.791 50.000 C 93.379 51.279,93.882 53.442,93.882 54.685 C 93.882 55.292,92.809 54.941,92.053 54.088 L 91.343 53.288 87.948 53.288 L 84.553 53.288 84.423 52.803 C 84.352 52.536,84.303 52.312,84.314 52.304 C 84.444 52.218,92.150 49.190,92.260 49.182 C 92.343 49.176,92.582 49.544,92.791 50.000 M104.753 50.318 C 104.962 50.430,104.974 50.583,104.974 53.006 L 104.974 55.575 104.288 55.575 L 103.602 55.575 103.602 53.007 C 103.602 50.683,103.621 50.429,103.802 50.324 C 104.063 50.172,104.475 50.170,104.753 50.318 M267.724 52.274 C 267.677 52.319,263.110 56.371,257.576 61.277 L 247.513 70.196 247.480 69.095 L 247.447 67.994 247.880 67.570 C 248.118 67.337,252.428 63.512,257.456 59.071 L 266.599 50.997 267.204 51.594 C 267.536 51.923,267.770 52.229,267.724 52.274 M102.916 53.345 C 102.916 55.041,102.906 55.117,102.687 55.117 C 102.469 55.117,102.459 55.041,102.459 53.411 C 102.459 51.739,102.483 51.618,102.830 51.581 C 102.877 51.576,102.916 52.370,102.916 53.345 M315.836 52.928 C 316.053 53.044,316.333 53.277,316.459 53.445 L 316.688 53.752 316.407 54.576 C 316.011 55.740,315.925 55.803,314.751 55.803 L 313.779 55.803 313.779 57.061 L 313.779 58.319 314.208 58.321 C 314.527 58.322,314.593 58.351,314.465 58.433 C 314.371 58.494,313.818 58.545,313.236 58.546 L 312.178 58.548 312.178 59.806 L 312.178 61.063 313.150 61.063 C 314.281 61.063,314.241 60.974,313.743 62.372 L 313.379 63.394 312.144 63.651 C 311.464 63.793,310.728 63.968,310.507 64.041 C 310.286 64.114,310.087 64.156,310.065 64.134 C 309.999 64.067,313.334 53.471,313.476 53.298 C 313.955 52.711,315.097 52.532,315.836 52.928 M317.896 53.196 C 317.896 53.649,317.144 55.575,316.967 55.575 C 316.798 55.575,316.824 55.430,317.167 54.460 C 317.383 53.846,317.583 53.280,317.610 53.202 C 317.674 53.019,317.896 53.015,317.896 53.196 M173.642 54.027 C 180.154 54.721,186.838 55.260,196.398 55.862 C 208.399 56.617,213.944 57.125,217.697 57.814 C 223.363 58.854,226.290 61.259,228.396 66.609 C 229.029 68.218,229.028 68.190,228.450 68.342 C 228.180 68.414,227.854 68.506,227.725 68.548 C 227.515 68.617,227.464 68.532,227.227 67.711 C 226.055 63.654,223.663 61.061,219.925 59.796 C 217.205 58.876,211.087 58.163,200.400 57.521 C 188.415 56.801,184.418 56.521,178.216 55.968 C 174.724 55.657,170.463 55.235,170.424 55.196 C 170.411 55.183,170.429 54.851,170.464 54.459 C 170.542 53.607,170.173 53.657,173.642 54.027 M49.215 54.260 C 49.317 54.417,49.483 54.674,49.584 54.831 L 49.769 55.117 36.713 55.117 L 23.657 55.117 24.139 54.545 L 24.621 53.974 36.826 53.974 L 49.030 53.974 49.215 54.260 M91.538 54.545 L 92.101 55.117 78.971 55.117 L 65.840 55.117 66.025 54.831 C 66.126 54.674,66.292 54.417,66.394 54.260 L 66.579 53.974 78.777 53.974 L 90.975 53.974 91.538 54.545 M109.541 56.632 L 109.535 57.461 108.295 58.573 L 107.055 59.685 99.981 59.695 C 95.331 59.701,92.719 59.662,92.360 59.582 C 89.411 58.921,74.961 58.594,53.230 58.696 C 32.849 58.793,26.588 58.997,23.580 59.665 C 23.373 59.711,20.478 59.735,17.147 59.718 L 11.090 59.687 10.124 58.231 C 9.204 56.845,9.161 56.752,9.225 56.289 L 9.293 55.803 59.420 55.803 L 109.548 55.803 109.541 56.632 M317.759 56.398 C 317.834 56.473,317.896 56.772,317.896 57.061 C 317.896 57.761,317.766 57.862,316.867 57.862 C 315.968 57.862,315.838 57.761,315.838 57.061 C 315.838 56.772,315.899 56.473,315.975 56.398 C 316.156 56.217,317.578 56.217,317.759 56.398 M382.253 56.398 C 382.328 56.473,382.390 56.772,382.390 57.061 C 382.390 57.761,382.260 57.862,381.361 57.862 C 380.462 57.862,380.332 57.761,380.332 57.061 C 380.332 56.772,380.393 56.473,380.469 56.398 C 380.650 56.217,382.072 56.217,382.253 56.398 M315.152 57.061 C 315.152 57.620,315.144 57.633,314.808 57.633 C 314.473 57.633,314.465 57.620,314.465 57.061 C 314.465 56.502,314.473 56.489,314.808 56.489 C 315.144 56.489,315.152 56.502,315.152 57.061 M379.646 57.061 L 379.646 57.633 349.114 57.633 L 318.582 57.633 318.582 57.061 L 318.582 56.489 349.114 56.489 L 379.646 56.489 379.646 57.061 M383.762 57.061 C 383.762 57.620,383.755 57.633,383.419 57.633 C 383.084 57.633,383.076 57.620,383.076 57.061 C 383.076 56.502,383.084 56.489,383.419 56.489 C 383.755 56.489,383.762 56.502,383.762 57.061 M182.847 57.058 C 186.127 57.322,191.032 57.651,196.512 57.975 C 202.452 58.326,208.060 58.714,209.605 58.881 C 210.086 58.933,203.863 58.981,195.455 58.990 L 180.446 59.005 180.446 57.912 L 180.446 56.818 180.932 56.881 C 181.199 56.915,182.061 56.995,182.847 57.058 M179.760 58.319 L 179.760 59.691 198.181 59.691 C 216.171 59.691,216.628 59.697,217.728 59.921 C 221.139 60.616,223.304 61.932,224.907 64.286 L 225.272 64.821 225.268 68.403 C 225.264 72.194,225.271 72.141,224.703 72.532 C 224.351 72.775,214.065 72.838,214.065 72.598 C 214.065 72.501,208.316 72.490,191.652 72.554 L 169.240 72.639 169.240 66.051 L 169.240 59.463 171.069 59.463 L 172.899 59.463 172.899 58.205 L 172.899 56.947 176.329 56.947 L 179.760 56.947 179.760 58.319 M9.291 58.197 C 9.657 58.714,9.669 58.802,9.421 59.181 C 8.797 60.133,9.157 61.524,10.528 63.469 C 12.825 66.724,13.871 68.876,13.931 70.469 L 13.972 71.584 13.390 71.584 L 12.807 71.584 12.807 70.504 L 12.807 69.424 11.956 67.731 C 11.143 66.114,10.413 64.853,8.998 62.625 C 7.634 60.477,7.489 58.998,8.547 58.017 C 8.920 57.671,8.919 57.671,9.291 58.197 M168.553 65.466 L 168.553 72.613 164.894 72.613 L 161.235 72.613 161.235 65.981 L 161.235 59.348 163.751 59.348 L 166.266 59.348 166.266 65.923 L 166.266 72.499 166.609 72.499 L 166.953 72.499 166.953 65.409 L 166.953 58.319 167.753 58.319 L 168.553 58.319 168.553 65.466 M376.901 58.433 C 376.901 58.509,366.963 58.547,347.313 58.546 C 328.168 58.545,317.785 58.505,317.896 58.433 C 318.136 58.278,376.901 58.278,376.901 58.433 M380.217 58.433 C 380.217 58.503,379.703 58.548,378.902 58.548 C 378.102 58.548,377.587 58.503,377.587 58.433 C 377.587 58.364,378.102 58.319,378.902 58.319 C 379.703 58.319,380.217 58.364,380.217 58.433 M316.387 59.142 C 316.462 59.218,316.524 59.516,316.524 59.806 C 316.524 60.505,316.394 60.606,315.495 60.606 C 314.595 60.606,314.465 60.505,314.465 59.806 C 314.465 59.106,314.595 59.005,315.495 59.005 C 315.929 59.005,316.308 59.063,316.387 59.142 M382.253 59.142 C 382.328 59.218,382.390 59.516,382.390 59.806 C 382.390 60.505,382.260 60.606,381.361 60.606 C 380.462 60.606,380.332 60.505,380.332 59.806 C 380.332 59.106,380.462 59.005,381.361 59.005 C 381.795 59.005,382.174 59.063,382.253 59.142 M313.779 59.806 L 313.779 60.377 313.322 60.377 L 312.864 60.377 312.864 59.806 L 312.864 59.234 313.322 59.234 L 313.779 59.234 313.779 59.806 M379.646 59.806 L 379.646 60.377 348.428 60.377 L 317.210 60.377 317.210 59.806 L 317.210 59.234 348.428 59.234 L 379.646 59.234 379.646 59.806 M383.762 59.806 C 383.762 60.365,383.755 60.377,383.419 60.377 C 383.084 60.377,383.076 60.365,383.076 59.806 C 383.076 59.247,383.084 59.234,383.419 59.234 C 383.755 59.234,383.762 59.247,383.762 59.806 M81.418 59.566 C 84.028 59.635,87.083 59.744,88.206 59.809 C 97.033 60.323,100.529 63.280,101.045 70.669 L 101.113 71.641 100.156 72.412 L 99.200 73.182 97.399 73.184 C 96.408 73.184,95.597 73.161,95.597 73.131 C 95.597 73.102,95.752 72.835,95.941 72.537 C 98.139 69.070,96.040 64.127,92.134 63.575 C 81.374 62.051,60.372 61.143,47.047 61.625 C 36.468 62.008,23.598 63.066,21.930 63.691 C 18.255 65.068,17.112 69.289,19.432 72.915 L 20.117 73.985 18.835 73.983 L 17.553 73.980 16.390 72.925 C 15.049 71.708,15.111 71.904,15.391 69.736 C 16.201 63.490,19.137 60.783,25.973 59.983 C 30.672 59.433,66.125 59.166,81.418 59.566 M10.450 59.920 L 10.752 60.377 15.925 60.383 L 21.098 60.388 20.395 60.713 C 17.330 62.132,15.521 64.666,14.888 68.431 L 14.685 69.635 14.187 68.445 C 13.570 66.969,12.426 64.960,11.294 63.364 C 9.942 61.458,9.558 60.421,9.940 59.708 C 10.109 59.391,10.096 59.386,10.450 59.920 M225.272 60.054 L 225.272 60.417 224.957 60.142 C 224.784 59.990,224.594 59.827,224.534 59.779 C 224.474 59.731,224.616 59.691,224.848 59.691 C 225.248 59.691,225.272 59.712,225.272 60.054 M376.901 62.093 L 376.901 63.122 346.092 63.122 L 315.282 63.122 315.601 62.246 C 316.070 60.960,312.544 61.093,346.798 61.077 L 376.901 61.063 376.901 62.093 M380.339 61.182 C 380.529 61.284,380.560 61.428,380.560 62.211 L 380.560 63.122 379.074 63.122 L 377.587 63.122 377.587 62.093 L 377.587 61.063 378.853 61.063 C 379.549 61.063,380.217 61.117,380.339 61.182 M170.383 65.876 L 170.383 70.575 171.641 70.536 L 172.899 70.497 172.899 71.498 L 172.899 72.499 173.242 72.499 L 173.585 72.499 173.585 71.478 C 173.585 70.399,173.710 70.097,174.157 70.097 C 174.604 70.097,174.728 70.399,174.728 71.478 L 174.728 72.499 175.082 72.499 L 175.435 72.499 175.396 71.310 C 175.364 70.335,175.318 70.077,175.139 69.879 C 175.019 69.747,174.942 69.623,174.967 69.605 C 176.220 68.719,176.994 67.803,177.240 66.915 C 178.050 64.000,175.123 61.188,171.269 61.180 L 170.383 61.178 170.383 65.876 M315.153 61.378 C 315.156 61.659,314.502 63.236,314.382 63.236 C 314.187 63.236,314.192 63.199,314.532 62.179 C 314.778 61.439,315.147 60.963,315.153 61.378 M381.704 62.207 C 381.704 63.046,381.685 63.122,381.475 63.122 C 381.265 63.122,381.246 63.046,381.246 62.207 C 381.246 61.368,381.265 61.292,381.475 61.292 C 381.685 61.292,381.704 61.368,381.704 62.207 M260.903 61.795 C 261.817 62.709,260.951 64.205,259.740 63.805 C 258.451 63.380,258.740 61.407,260.091 61.407 C 260.420 61.407,260.601 61.493,260.903 61.795 M108.054 61.699 C 110.873 62.491,111.826 65.221,111.107 70.453 L 110.893 72.009 110.202 71.794 C 109.822 71.675,109.057 71.546,108.501 71.507 L 107.490 71.435 107.490 71.004 C 107.490 70.610,107.522 70.566,107.862 70.494 C 112.305 69.555,111.756 62.728,107.199 62.252 C 102.766 61.788,100.820 68.095,104.774 70.112 L 105.214 70.336 105.180 70.989 L 105.146 71.641 103.938 71.673 L 102.730 71.705 102.586 70.358 C 102.217 66.911,102.298 65.362,102.915 64.057 C 103.824 62.136,106.020 61.129,108.054 61.699 M172.888 62.040 C 176.513 62.895,177.848 66.278,175.403 68.417 C 174.360 69.329,173.003 69.865,171.727 69.867 L 171.069 69.868 171.069 65.866 L 171.069 61.864 171.612 61.866 C 171.911 61.867,172.485 61.945,172.888 62.040 M66.838 62.322 C 78.118 62.737,91.651 63.911,93.159 64.606 C 95.570 65.717,96.808 68.735,95.858 71.184 C 95.680 71.642,88.822 82.625,87.290 84.904 L 86.907 85.474 86.907 90.307 L 86.907 95.140 84.270 95.140 L 81.632 95.140 78.874 96.284 L 76.115 97.427 57.640 97.427 L 39.165 97.427 36.707 96.398 C 34.352 95.412,34.212 95.369,33.391 95.368 C 32.919 95.368,31.645 95.334,30.560 95.293 L 28.588 95.218 28.588 90.627 L 28.588 86.036 24.114 79.010 C 21.654 75.146,19.486 71.658,19.297 71.261 C 18.137 68.824,19.340 65.674,21.886 64.483 C 23.357 63.795,35.108 62.757,46.255 62.330 C 49.699 62.198,63.327 62.193,66.838 62.322 M108.338 63.284 C 111.665 64.911,110.507 69.923,106.804 69.923 C 104.796 69.923,103.321 68.446,103.321 66.438 C 103.321 63.799,105.977 62.129,108.338 63.284 M56.547 64.023 C 56.003 64.273,55.759 64.528,55.522 65.095 C 55.367 65.466,55.346 67.163,55.346 79.389 L 55.346 93.262 55.603 93.771 C 56.361 95.272,58.447 95.272,59.205 93.771 L 59.463 93.262 59.460 79.364 C 59.458 66.123,59.448 65.444,59.247 65.009 C 58.766 63.960,57.606 63.537,56.547 64.023 M46.026 64.427 C 45.600 64.618,45.108 65.134,44.947 65.559 C 44.748 66.086,44.780 93.208,44.980 93.688 C 45.189 94.188,45.876 94.769,46.367 94.861 C 47.254 95.028,48.214 94.514,48.559 93.688 C 48.791 93.133,48.788 66.033,48.556 65.491 C 48.132 64.499,46.965 64.008,46.026 64.427 M51.515 64.427 C 51.089 64.618,50.597 65.134,50.436 65.559 C 50.237 66.086,50.269 93.208,50.469 93.688 C 50.814 94.514,51.774 95.028,52.661 94.861 C 53.152 94.769,53.839 94.188,54.048 93.688 C 54.280 93.133,54.277 66.033,54.045 65.491 C 53.620 64.499,52.454 64.008,51.515 64.427 M62.035 64.427 C 61.609 64.618,61.117 65.134,60.956 65.559 C 60.757 66.086,60.789 93.208,60.989 93.688 C 61.198 94.188,61.885 94.769,62.376 94.861 C 63.263 95.028,64.223 94.514,64.568 93.688 C 64.800 93.133,64.797 66.033,64.565 65.491 C 64.141 64.499,62.974 64.008,62.035 64.427 M67.524 64.427 C 67.098 64.618,66.606 65.134,66.445 65.559 C 66.246 66.086,66.278 93.208,66.478 93.688 C 66.687 94.188,67.374 94.769,67.865 94.861 C 68.752 95.028,69.712 94.514,70.057 93.688 C 70.289 93.133,70.286 66.033,70.054 65.491 C 69.630 64.499,68.463 64.008,67.524 64.427 M58.366 64.945 L 58.719 65.299 58.719 79.360 L 58.719 93.420 58.345 93.794 C 58.024 94.116,57.893 94.168,57.404 94.168 C 56.916 94.168,56.785 94.116,56.463 93.794 L 56.089 93.420 56.089 79.367 L 56.089 65.313 56.375 65.005 C 56.961 64.375,57.771 64.350,58.366 64.945 M40.537 65.166 C 39.993 65.416,39.750 65.671,39.513 66.238 C 39.358 66.609,39.337 68.238,39.337 79.846 L 39.337 93.033 39.594 93.543 C 40.352 95.043,42.438 95.043,43.196 93.543 L 43.453 93.033 43.451 79.821 C 43.449 67.246,43.438 66.587,43.238 66.152 C 42.757 65.104,41.596 64.680,40.537 65.166 M47.430 65.181 C 47.636 65.306,47.855 65.541,47.916 65.702 C 48.068 66.102,48.068 93.075,47.916 93.474 C 47.630 94.226,46.464 94.429,45.866 93.831 L 45.569 93.534 45.569 79.598 C 45.569 65.822,45.572 65.659,45.798 65.407 C 46.245 64.910,46.849 64.826,47.430 65.181 M52.919 65.181 C 53.125 65.306,53.343 65.541,53.405 65.702 C 53.557 66.102,53.557 93.075,53.405 93.474 C 53.119 94.226,51.953 94.429,51.355 93.831 L 51.058 93.534 51.058 79.598 C 51.058 65.822,51.060 65.659,51.286 65.407 C 51.734 64.910,52.337 64.826,52.919 65.181 M63.682 65.346 L 63.979 65.643 63.979 79.588 L 63.979 93.534 63.662 93.851 C 63.401 94.112,63.245 94.168,62.779 94.168 C 62.312 94.168,62.156 94.112,61.895 93.851 L 61.578 93.534 61.578 79.598 C 61.578 65.822,61.581 65.659,61.807 65.407 C 62.298 64.861,63.169 64.832,63.682 65.346 M69.171 65.346 L 69.468 65.643 69.468 79.588 L 69.468 93.534 69.151 93.851 C 68.890 94.112,68.734 94.168,68.268 94.168 C 67.801 94.168,67.645 94.112,67.384 93.851 L 67.067 93.534 67.067 79.598 C 67.067 65.822,67.070 65.659,67.296 65.407 C 67.787 64.861,68.658 64.832,69.171 65.346 M72.784 65.166 C 72.240 65.416,71.997 65.671,71.760 66.238 C 71.605 66.609,71.584 68.238,71.584 79.846 L 71.584 93.033 71.841 93.543 C 72.404 94.658,73.751 95.006,74.801 94.307 C 75.013 94.167,75.302 93.823,75.443 93.543 L 75.700 93.033 75.698 79.821 C 75.695 67.246,75.685 66.587,75.485 66.152 C 75.004 65.104,73.843 64.680,72.784 65.166 M35.049 65.853 C 33.765 66.442,33.848 65.492,33.848 79.618 L 33.848 91.890 34.105 92.399 C 34.863 93.900,36.949 93.900,37.707 92.399 L 37.965 91.890 37.962 79.593 C 37.960 67.905,37.949 67.273,37.749 66.838 C 37.268 65.790,36.108 65.366,35.049 65.853 M42.356 66.089 L 42.710 66.442 42.710 79.817 L 42.710 93.192 42.336 93.566 C 42.015 93.887,41.883 93.939,41.395 93.939 C 40.907 93.939,40.776 93.887,40.454 93.566 L 40.080 93.192 40.080 79.824 L 40.080 66.456 40.366 66.149 C 40.952 65.518,41.762 65.494,42.356 66.089 M74.603 66.089 L 74.957 66.442 74.957 79.817 L 74.957 93.192 74.583 93.566 C 74.262 93.887,74.130 93.939,73.642 93.939 C 73.154 93.939,73.023 93.887,72.701 93.566 L 72.327 93.192 72.327 79.824 L 72.327 66.456 72.613 66.149 C 73.199 65.518,74.009 65.494,74.603 66.089 M78.273 65.800 C 77.847 65.990,77.355 66.506,77.194 66.931 C 76.995 67.458,77.027 91.836,77.227 92.315 C 77.883 93.884,80.150 93.884,80.806 92.315 C 81.038 91.761,81.035 67.404,80.803 66.863 C 80.379 65.871,79.212 65.380,78.273 65.800 M36.868 66.775 L 37.221 67.128 37.221 79.588 L 37.221 92.048 36.847 92.422 C 36.306 92.964,35.507 92.964,34.965 92.422 L 34.591 92.048 34.591 79.595 L 34.591 67.142 34.877 66.835 C 35.463 66.205,36.273 66.180,36.868 66.775 M79.920 66.718 L 80.217 67.015 80.217 79.588 L 80.217 92.162 79.900 92.479 C 79.639 92.740,79.483 92.796,79.017 92.796 C 78.550 92.796,78.394 92.740,78.133 92.479 L 77.816 92.162 77.816 79.598 C 77.816 67.195,77.819 67.030,78.045 66.780 C 78.536 66.233,79.407 66.204,79.920 66.718 M25.820 66.766 C 21.539 68.182,20.700 73.859,24.409 76.321 C 28.699 79.168,34.030 75.063,32.456 70.126 C 31.620 67.502,28.448 65.897,25.820 66.766 M86.221 66.716 C 80.304 68.365,81.460 77.206,87.593 77.211 C 92.126 77.216,94.580 72.191,91.826 68.543 C 90.642 66.975,88.176 66.171,86.221 66.716 M29.303 67.609 C 32.839 69.237,32.973 74.292,29.525 76.032 C 25.829 77.898,21.713 74.395,22.978 70.460 C 23.815 67.858,26.860 66.485,29.303 67.609 M88.973 67.420 C 92.280 68.387,93.391 72.558,91.011 75.074 C 87.885 78.380,82.450 75.730,83.047 71.191 C 83.410 68.427,86.246 66.623,88.973 67.420 M229.496 69.163 C 230.261 69.573,230.516 70.547,230.042 71.251 C 228.950 72.872,226.544 71.331,227.561 69.662 C 227.964 69.001,228.795 68.787,229.496 69.163 M228.289 69.289 C 227.592 69.587,227.320 70.678,227.793 71.279 C 228.552 72.244,230.178 71.566,230.041 70.341 C 229.946 69.489,229.061 68.958,228.289 69.289 M229.209 70.048 C 229.594 70.434,229.359 71.012,228.816 71.012 C 228.434 71.012,228.245 70.817,228.245 70.423 C 228.245 69.924,228.849 69.689,229.209 70.048 M106.447 70.626 C 107.072 70.751,106.985 71.584,106.346 71.584 L 105.889 71.584 105.889 71.069 C 105.889 70.522,105.896 70.516,106.447 70.626 M12.979 72.271 L 14.694 72.273 15.609 73.136 L 16.524 73.999 10.464 73.930 C 7.131 73.892,4.361 73.818,4.310 73.767 C 4.191 73.648,5.183 72.913,5.874 72.608 C 6.668 72.256,7.548 72.162,9.491 72.218 C 10.466 72.246,12.035 72.270,12.979 72.271 M109.450 72.321 C 109.868 72.409,110.434 72.601,110.708 72.747 L 111.206 73.013 108.919 73.083 C 107.662 73.122,105.217 73.158,103.488 73.164 L 100.343 73.175 100.852 72.728 L 101.360 72.282 102.853 72.339 C 103.674 72.371,104.937 72.350,105.660 72.293 C 107.640 72.135,108.611 72.143,109.450 72.321 M343.524 72.383 C 358.198 73.236,370.612 83.148,374.423 97.056 L 374.712 98.113 369.978 98.113 L 365.243 98.113 364.568 97.109 C 349.158 74.191,313.490 83.449,311.022 111.006 L 310.886 112.521 308.684 112.521 L 306.482 112.521 306.062 113.285 C 303.681 117.617,301.357 117.568,299.067 113.138 L 298.513 112.067 263.350 112.064 L 228.188 112.062 226.608 111.034 C 224.726 109.809,225.039 109.829,224.472 110.892 C 221.859 115.790,219.618 115.593,216.919 110.225 C 216.612 109.614,216.399 109.320,216.265 109.320 C 215.912 109.322,210.693 108.835,210.650 108.796 C 210.627 108.776,210.511 108.229,210.394 107.581 C 210.276 106.934,210.030 105.838,209.847 105.146 C 209.663 104.454,209.522 103.878,209.533 103.867 C 209.544 103.855,213.848 104.305,219.099 104.867 L 228.645 105.889 265.180 105.860 L 301.715 105.832 302.287 105.552 C 303.612 104.904,304.458 103.694,305.369 101.144 C 306.682 97.466,307.610 95.345,308.970 92.910 C 315.796 80.691,327.201 73.111,339.851 72.387 C 340.638 72.342,341.358 72.298,341.452 72.289 C 341.547 72.280,342.479 72.323,343.524 72.383 M222.238 88.076 L 230.703 102.682 238.279 102.685 L 245.855 102.687 245.855 103.831 L 245.855 104.974 237.136 104.972 L 228.416 104.971 220.165 90.593 L 211.914 76.215 186.918 76.186 L 161.921 76.157 161.921 74.785 L 161.921 73.413 187.847 73.442 L 213.772 73.471 222.238 88.076 M112.243 74.003 C 112.575 74.300,113.163 75.563,113.029 75.691 C 112.526 76.171,108.803 76.383,100.858 76.384 L 93.711 76.384 93.388 76.757 C 93.095 77.096,93.101 77.073,93.454 76.501 C 94.590 74.662,94.851 74.254,95.006 74.071 C 95.163 73.886,95.597 73.870,100.847 73.856 C 103.966 73.848,107.676 73.809,109.091 73.770 C 111.894 73.693,111.898 73.693,112.243 74.003 M12.662 74.633 L 20.578 74.708 21.307 75.862 C 21.708 76.496,22.225 77.311,22.456 77.673 C 22.974 78.482,22.921 78.528,22.356 77.759 L 21.936 77.187 14.827 77.185 C 7.657 77.183,5.950 77.119,3.791 76.770 C 2.381 76.541,2.370 76.525,2.926 75.467 C 3.400 74.566,3.609 74.418,4.288 74.502 C 4.540 74.532,8.308 74.591,12.662 74.633 M254.922 74.787 C 255.336 75.113,255.523 75.730,255.342 76.168 C 254.820 77.428,253.002 77.109,253.002 75.758 C 253.002 74.762,254.151 74.181,254.922 74.787 M258.486 76.415 C 259.061 76.918,259.055 77.866,258.474 78.323 C 257.499 79.090,256.053 77.910,256.617 76.808 C 256.964 76.130,257.929 75.928,258.486 76.415 M255.826 77.273 C 255.803 77.642,255.861 77.942,256.007 78.208 L 256.222 78.600 254.284 81.101 C 253.218 82.476,252.328 83.584,252.307 83.563 C 252.286 83.542,252.601 82.394,253.008 81.013 C 253.416 79.632,253.801 78.309,253.866 78.073 C 253.968 77.697,254.025 77.644,254.332 77.644 C 254.796 77.644,255.435 77.332,255.654 76.998 C 255.750 76.851,255.837 76.730,255.845 76.729 C 255.854 76.729,255.845 76.974,255.826 77.273 M111.149 81.382 L 111.149 85.920 110.835 85.626 C 109.130 84.028,101.501 84.009,99.613 85.598 C 98.432 86.592,98.346 87.136,98.344 93.625 L 98.342 99.028 94.683 99.028 L 91.023 99.028 91.023 97.823 C 91.023 96.828,90.982 96.536,90.786 96.152 L 90.549 95.687 90.958 95.312 C 91.904 94.445,91.962 93.137,91.096 92.185 C 90.244 91.248,88.499 91.388,87.820 92.447 L 87.597 92.796 87.595 89.269 C 87.593 85.809,87.598 85.734,87.847 85.381 C 87.986 85.182,89.431 83.232,91.058 81.046 L 94.016 77.073 101.124 77.061 C 105.034 77.055,108.671 77.012,109.205 76.965 C 109.740 76.918,110.396 76.871,110.663 76.862 L 111.149 76.844 111.149 81.382 M219.578 90.935 C 224.025 98.683,227.649 105.037,227.631 105.055 C 227.567 105.119,209.319 103.130,209.252 103.052 C 209.215 103.009,209.016 102.536,208.809 102.001 C 201.492 83.112,177.423 77.424,162.007 90.942 L 161.235 91.619 161.235 84.231 L 161.235 76.844 186.364 76.846 L 211.492 76.847 219.578 90.935 M13.691 77.830 L 21.607 77.892 22.014 78.447 L 22.422 79.003 22.416 83.898 L 22.409 88.794 22.964 90.452 C 23.433 91.855,23.556 92.115,23.766 92.146 C 24.062 92.190,24.065 92.210,23.831 92.569 C 23.302 93.376,23.465 94.607,24.185 95.239 C 24.663 95.658,24.663 95.659,24.300 96.194 C 24.039 96.577,24.014 96.722,24.014 97.821 L 24.014 99.028 20.354 99.028 L 16.695 99.028 16.695 93.732 C 16.695 86.674,16.549 86.052,14.662 85.090 C 12.992 84.238,6.712 84.242,5.003 85.096 L 4.574 85.311 4.574 81.466 L 4.574 77.622 5.174 77.695 C 5.505 77.735,9.337 77.796,13.691 77.830 M29.404 79.059 C 28.149 79.513,27.346 80.986,27.674 82.234 C 28.397 84.992,32.314 84.951,32.930 82.178 C 33.379 80.161,31.341 78.358,29.404 79.059 M84.276 79.009 C 81.132 79.965,81.950 84.466,85.230 84.257 C 86.459 84.179,87.476 83.249,87.658 82.036 C 87.939 80.161,86.050 78.470,84.276 79.009 M31.189 79.831 C 33.094 80.753,32.425 83.591,30.303 83.591 C 29.627 83.591,29.190 83.395,28.783 82.912 C 27.371 81.234,29.214 78.875,31.189 79.831 M85.829 79.805 C 87.746 80.676,87.133 83.591,85.033 83.591 C 83.803 83.591,83.011 82.831,83.001 81.644 C 82.990 80.137,84.458 79.183,85.829 79.805 M293.073 80.350 C 292.298 82.079,291.155 83.393,289.880 84.023 L 289.251 84.334 285.392 84.369 L 281.532 84.405 281.528 83.626 L 281.524 82.847 280.673 82.132 C 279.695 81.311,279.556 81.005,279.885 80.406 C 280.347 79.567,280.153 79.588,287.158 79.588 L 293.415 79.588 293.073 80.350 M27.902 88.903 L 27.902 91.481 25.967 91.481 L 24.033 91.481 23.566 90.080 L 23.099 88.679 23.099 84.281 L 23.099 79.883 25.500 83.103 L 27.902 86.324 27.902 88.903 M185.763 84.444 C 209.025 88.153,218.344 116.372,201.778 132.939 C 183.781 150.937,153.002 138.185,153.002 112.731 C 153.002 95.309,168.731 81.728,185.763 84.444 M181.132 86.106 L 181.132 87.593 181.475 87.593 L 181.818 87.593 181.818 86.106 L 181.818 84.620 181.475 84.620 L 181.132 84.620 181.132 86.106 M178.656 85.334 C 178.693 85.665,178.756 86.334,178.797 86.821 L 178.872 87.707 179.215 87.707 L 179.558 87.707 179.484 86.821 C 179.305 84.697,179.315 84.734,178.933 84.734 L 178.590 84.734 178.656 85.334 M343.796 85.031 C 367.551 87.945,377.298 117.458,359.985 134.048 C 341.824 151.452,311.634 138.502,311.668 113.322 C 311.690 96.074,326.623 82.925,343.796 85.031 M183.296 85.277 C 183.291 85.513,183.252 86.127,183.209 86.641 L 183.131 87.575 183.445 87.621 C 183.832 87.678,183.839 87.655,183.940 86.078 L 184.018 84.848 183.661 84.848 C 183.327 84.848,183.304 84.875,183.296 85.277 M13.050 85.377 C 14.331 85.596,14.562 85.704,15.177 86.371 C 15.942 87.201,15.935 87.140,15.980 93.396 L 16.021 99.028 13.666 99.028 C 11.317 99.028,11.310 99.029,11.030 99.309 L 10.749 99.589 10.749 103.945 L 10.749 108.301 11.030 108.582 C 11.309 108.861,11.318 108.862,13.662 108.862 L 16.015 108.862 15.983 122.441 L 15.952 136.021 15.680 136.622 C 14.974 138.185,13.268 138.690,9.148 138.553 C 6.144 138.454,5.211 138.216,4.427 137.348 C 3.598 136.430,3.654 138.375,3.687 111.602 L 3.716 87.536 4.059 86.907 C 4.674 85.780,5.408 85.459,8.005 85.184 C 9.190 85.058,11.762 85.157,13.050 85.377 M108.405 85.367 C 110.187 85.653,111.147 86.512,111.320 87.977 C 111.502 89.527,111.325 136.125,111.135 136.543 C 110.413 138.132,109.209 138.536,105.203 138.536 C 101.849 138.536,100.620 138.277,99.857 137.408 C 99.024 136.459,99.089 137.668,99.054 122.499 L 99.023 108.862 101.375 108.862 C 103.720 108.862,103.728 108.861,104.007 108.582 L 104.288 108.301 104.288 103.945 L 104.288 99.589 104.007 99.309 C 103.728 99.029,103.720 99.028,101.372 99.028 L 99.016 99.028 99.051 93.339 C 99.098 85.585,99.116 85.553,103.716 85.146 C 104.645 85.064,107.297 85.189,108.405 85.367 M185.770 85.212 C 185.547 85.895,185.352 87.744,185.493 87.834 C 185.921 88.105,186.002 87.969,186.214 86.616 C 186.328 85.890,186.402 85.279,186.378 85.258 C 186.213 85.112,185.813 85.081,185.770 85.212 M176.215 85.344 C 176.215 85.547,176.650 87.952,176.695 87.996 C 176.822 88.121,177.359 87.884,177.314 87.722 C 177.286 87.620,177.174 87.008,177.065 86.364 C 176.867 85.198,176.864 85.192,176.541 85.192 C 176.346 85.192,176.215 85.253,176.215 85.344 M339.623 86.735 L 339.623 88.165 339.966 88.165 L 340.309 88.165 340.309 86.735 L 340.309 85.306 339.966 85.306 L 339.623 85.306 339.623 86.735 M337.391 86.816 L 337.507 88.222 337.852 88.256 L 338.198 88.290 338.081 86.883 L 337.965 85.477 337.619 85.444 L 337.274 85.410 337.391 86.816 M341.982 85.840 C 341.947 86.081,341.884 86.728,341.843 87.278 L 341.768 88.279 342.125 88.279 C 342.449 88.279,342.482 88.246,342.489 87.907 C 342.493 87.703,342.538 87.098,342.590 86.564 C 342.642 86.029,342.677 85.583,342.668 85.572 C 342.438 85.295,342.040 85.450,341.982 85.840 M173.878 85.638 C 173.751 85.843,174.538 88.508,174.725 88.506 C 175.208 88.501,175.218 88.361,174.838 86.923 C 174.473 85.546,174.178 85.151,173.878 85.638 M188.007 86.182 C 187.944 86.423,187.801 86.971,187.688 87.399 C 187.475 88.213,187.545 88.442,187.981 88.365 C 188.111 88.342,188.851 86.011,188.758 85.918 C 188.490 85.650,188.111 85.783,188.007 86.182 M335.015 85.843 C 334.890 85.876,334.831 85.970,334.863 86.087 C 334.892 86.192,335.005 86.805,335.114 87.450 C 335.311 88.616,335.314 88.622,335.638 88.622 C 336.006 88.622,336.012 88.597,335.845 87.642 C 335.499 85.670,335.519 85.712,335.015 85.843 M344.425 85.792 C 344.424 85.808,344.323 86.409,344.199 87.129 C 344.075 87.848,343.985 88.446,343.999 88.456 C 344.117 88.544,344.654 88.606,344.654 88.532 C 344.654 88.480,344.757 87.877,344.883 87.193 C 345.063 86.212,345.081 85.929,344.969 85.858 C 344.838 85.774,344.426 85.725,344.425 85.792 M395.947 88.134 C 395.814 91.561,395.822 91.554,392.453 91.502 C 386.084 91.404,385.934 91.343,385.935 88.883 C 385.936 87.895,385.969 87.711,386.218 87.307 C 386.382 87.040,386.501 86.671,386.503 86.421 L 386.507 85.992 391.268 85.992 L 396.030 85.992 395.947 88.134 M332.690 86.219 L 332.446 86.317 332.824 87.709 C 333.258 89.310,333.215 89.233,333.588 89.091 L 333.874 88.983 333.618 88.030 C 333.029 85.843,333.131 86.041,332.690 86.219 M171.670 86.295 C 171.462 86.381,171.479 86.465,172.002 87.902 C 172.477 89.207,172.698 89.432,173.104 89.027 C 173.123 89.008,172.913 88.381,172.638 87.635 C 172.159 86.335,172.024 86.149,171.670 86.295 M190.509 86.370 C 190.509 86.389,190.308 86.958,190.062 87.635 L 189.616 88.865 189.907 88.975 C 190.283 89.118,190.260 89.151,190.746 87.770 L 191.163 86.586 190.888 86.460 C 190.606 86.332,190.509 86.309,190.509 86.370 M346.436 87.665 C 346.269 88.333,346.147 88.892,346.165 88.906 C 346.613 89.266,346.783 89.077,347.096 87.872 C 347.428 86.589,347.419 86.449,347.006 86.449 C 346.764 86.449,346.713 86.558,346.436 87.665 M330.381 86.913 C 330.077 87.035,330.062 86.949,330.704 88.676 C 331.132 89.827,331.299 89.998,331.660 89.651 C 331.755 89.559,330.824 86.785,330.703 86.800 C 330.672 86.804,330.527 86.855,330.381 86.913 M348.730 88.227 C 348.492 88.897,348.314 89.459,348.334 89.475 C 348.525 89.635,348.883 89.746,348.935 89.662 C 349.046 89.484,349.814 87.226,349.777 87.189 C 349.384 86.796,349.160 87.017,348.730 88.227 M169.411 87.270 C 169.285 87.340,169.169 87.408,169.153 87.420 C 169.089 87.468,170.388 90.109,170.475 90.109 C 171.015 90.109,170.998 89.827,170.372 88.469 C 170.034 87.736,169.731 87.137,169.699 87.139 C 169.666 87.141,169.537 87.200,169.411 87.270 M192.638 87.621 C 192.549 87.826,192.317 88.339,192.122 88.762 C 191.695 89.686,191.695 89.696,192.040 89.854 C 192.443 90.037,193.562 87.675,193.199 87.409 C 192.886 87.180,192.818 87.206,192.638 87.621 M328.045 87.900 C 327.935 87.929,327.844 88.009,327.844 88.078 C 327.844 88.184,328.953 90.665,329.050 90.775 C 329.076 90.806,329.527 90.607,329.646 90.512 C 329.709 90.462,328.413 87.822,328.331 87.835 C 328.284 87.842,328.155 87.872,328.045 87.900 M350.902 89.106 C 350.348 90.308,350.346 90.566,350.886 90.566 C 351.154 90.566,352.088 88.238,351.884 88.079 C 351.549 87.818,351.445 87.927,350.902 89.106 M194.411 89.394 L 193.717 90.623 193.971 90.817 C 194.283 91.055,194.234 91.108,195.058 89.652 C 195.662 88.584,195.716 88.437,195.553 88.312 C 195.216 88.056,195.110 88.156,194.411 89.394 M167.152 88.439 C 166.984 88.566,167.991 90.670,168.481 91.216 C 168.491 91.227,168.622 91.144,168.772 91.031 L 169.045 90.825 168.313 89.554 C 167.559 88.245,167.492 88.180,167.152 88.439 M353.125 89.949 C 352.337 91.323,352.304 91.595,352.927 91.595 C 353.003 91.595,354.410 89.076,354.359 89.032 C 353.913 88.649,353.839 88.704,353.125 89.949 M325.900 89.057 L 325.631 89.275 326.355 90.521 C 326.752 91.206,327.092 91.784,327.108 91.805 C 327.175 91.888,327.616 91.578,327.614 91.448 C 327.614 91.372,327.288 90.754,326.890 90.075 L 326.168 88.840 325.900 89.057 M196.427 90.559 C 196.002 91.181,195.655 91.734,195.655 91.787 C 195.655 91.888,196.112 92.210,196.165 92.146 C 196.371 91.901,197.713 89.883,197.713 89.820 C 197.713 89.732,197.360 89.431,197.256 89.428 C 197.224 89.428,196.851 89.936,196.427 90.559 M165.209 89.810 C 164.931 90.022,164.923 90.001,165.759 91.200 C 166.632 92.453,166.679 92.493,166.955 92.209 C 167.158 92.002,167.140 91.961,166.343 90.825 C 165.450 89.551,165.496 89.592,165.209 89.810 M355.060 91.213 C 354.154 92.548,354.194 92.441,354.524 92.657 C 354.909 92.909,356.608 90.552,356.241 90.274 C 355.901 90.017,355.837 90.067,355.060 91.213 M323.801 90.506 C 323.599 90.659,323.623 90.716,324.251 91.617 C 325.367 93.216,325.262 93.116,325.565 92.870 L 325.826 92.658 325.034 91.535 C 324.173 90.314,324.117 90.267,323.801 90.506 M163.145 91.227 C 162.973 91.417,163.017 91.498,163.822 92.456 C 165.035 93.900,164.926 93.814,165.230 93.568 L 165.489 93.358 164.498 92.191 C 163.427 90.930,163.419 90.924,163.145 91.227 M198.171 92.068 L 197.325 93.112 197.587 93.324 L 197.848 93.536 198.695 92.512 C 199.161 91.949,199.543 91.437,199.543 91.374 C 199.543 91.278,199.191 91.023,199.058 91.023 C 199.035 91.023,198.636 91.493,198.171 92.068 M321.843 91.822 C 321.608 92.082,321.526 91.938,322.739 93.396 C 323.542 94.362,323.708 94.467,323.957 94.168 C 324.121 93.970,324.184 94.069,322.950 92.596 C 321.989 91.450,322.106 91.531,321.843 91.822 M356.852 92.675 C 356.030 93.685,355.995 93.751,356.189 93.926 C 356.479 94.189,356.446 94.212,357.396 93.091 C 358.387 91.923,358.344 92.018,357.991 91.787 C 357.725 91.612,357.707 91.627,356.852 92.675 M26.252 92.384 C 27.328 92.872,27.364 94.419,26.311 94.963 C 24.870 95.708,23.436 93.758,24.613 92.652 C 25.146 92.152,25.583 92.080,26.252 92.384 M27.902 94.039 L 27.902 95.912 31.018 95.994 L 34.134 96.076 36.584 97.095 L 39.035 98.113 57.639 98.113 L 76.243 98.113 79.005 96.970 L 81.768 95.826 84.680 95.826 L 87.593 95.826 87.593 95.250 L 87.593 94.673 88.059 95.163 L 88.526 95.654 88.288 96.143 C 88.094 96.544,88.050 96.851,88.050 97.830 L 88.050 99.028 57.633 99.028 L 27.216 99.028 27.216 97.825 C 27.216 96.728,27.190 96.581,26.919 96.153 L 26.623 95.683 27.051 95.269 C 27.834 94.510,27.992 93.639,27.517 92.701 L 27.247 92.167 27.574 92.167 L 27.902 92.167 27.902 94.039 M90.427 92.485 C 91.021 92.874,91.194 93.773,90.799 94.420 C 90.124 95.527,88.521 95.290,88.173 94.031 C 87.818 92.746,89.287 91.738,90.427 92.485 M200.693 92.824 C 200.548 92.997,200.115 93.461,199.732 93.854 C 199.035 94.568,199.035 94.569,199.263 94.797 C 199.491 95.025,199.492 95.024,200.492 94.019 L 201.493 93.013 201.225 92.761 L 200.957 92.509 200.693 92.824 M161.313 92.830 C 160.999 93.177,163.289 95.397,163.636 95.083 L 163.874 94.868 162.757 93.746 C 161.525 92.509,161.575 92.541,161.313 92.830 M320.012 93.424 C 319.797 93.661,319.802 93.669,320.930 94.801 L 322.064 95.940 322.294 95.710 L 322.523 95.481 321.376 94.333 L 320.228 93.185 320.012 93.424 M358.687 94.192 C 357.700 95.194,357.698 95.198,357.923 95.424 C 358.149 95.650,358.153 95.648,359.147 94.653 L 360.145 93.656 359.910 93.422 L 359.676 93.187 358.687 94.192 M201.651 95.200 C 200.483 96.182,200.489 96.174,200.792 96.448 C 201.012 96.647,201.045 96.629,202.053 95.767 C 203.169 94.813,203.153 94.836,202.928 94.540 C 202.724 94.271,202.802 94.231,201.651 95.200 M159.689 94.800 C 159.563 94.938,159.522 95.070,159.585 95.128 C 159.644 95.182,160.077 95.549,160.549 95.945 C 161.021 96.341,161.498 96.743,161.611 96.839 C 161.795 96.996,161.838 96.989,162.062 96.766 C 162.198 96.630,162.286 96.502,162.258 96.481 C 162.230 96.461,161.710 96.022,161.104 95.506 C 159.848 94.439,159.963 94.497,159.689 94.800 M360.312 95.836 C 359.782 96.282,359.312 96.681,359.269 96.722 C 359.225 96.764,359.284 96.923,359.399 97.076 L 359.609 97.354 360.713 96.404 C 361.770 95.495,361.808 95.446,361.622 95.240 C 361.355 94.945,361.391 94.929,360.312 95.836 M318.310 95.468 C 318.126 95.671,318.162 95.718,319.121 96.516 C 319.674 96.976,320.217 97.429,320.328 97.523 C 320.509 97.677,320.547 97.672,320.696 97.475 C 320.942 97.149,320.954 97.166,319.775 96.174 C 318.566 95.158,318.583 95.166,318.310 95.468 M398.732 95.590 L 399.085 95.842 399.085 100.522 L 399.085 105.203 392.648 105.203 C 386.975 105.203,383.692 105.127,380.492 104.921 L 379.567 104.861 379.422 105.347 C 379.118 106.363,378.431 107.323,377.548 107.962 C 376.332 108.844,374.970 107.945,373.755 105.460 L 373.349 104.631 371.666 104.631 C 370.740 104.630,369.569 104.598,369.062 104.558 L 368.142 104.487 367.879 103.730 C 367.463 102.532,366.747 100.882,366.199 99.858 C 365.922 99.340,365.695 98.890,365.695 98.858 C 365.695 98.748,374.794 98.797,374.906 98.906 C 374.965 98.965,376.961 99.068,379.341 99.135 C 384.903 99.291,384.448 99.299,384.448 99.046 C 384.448 98.859,384.508 98.845,384.991 98.925 C 388.703 99.536,394.138 98.091,396.455 95.878 C 397.170 95.195,398.025 95.087,398.732 95.590 M26.233 96.333 C 26.496 96.782,26.529 96.962,26.529 97.933 L 26.529 99.028 25.615 99.028 L 24.700 99.028 24.700 97.925 C 24.700 96.035,25.544 95.157,26.233 96.333 M90.086 96.344 C 90.291 96.766,90.337 97.062,90.337 97.945 L 90.337 99.028 89.537 99.028 L 88.736 99.028 88.736 97.880 C 88.736 95.936,89.478 95.092,90.086 96.344 M203.221 97.098 C 202.061 97.914,201.906 98.128,202.295 98.374 C 202.447 98.469,204.010 97.496,204.711 96.869 C 204.755 96.830,204.701 96.680,204.592 96.536 L 204.394 96.274 203.221 97.098 M158.167 96.752 C 157.988 97.040,157.900 96.951,159.385 97.993 C 160.497 98.773,160.574 98.809,160.725 98.610 C 160.985 98.267,160.936 98.206,159.717 97.370 C 158.347 96.430,158.363 96.436,158.167 96.752 M361.807 97.781 C 360.587 98.673,360.577 98.685,360.869 98.950 C 361.069 99.131,361.137 99.101,362.158 98.386 C 363.513 97.437,363.454 97.499,363.275 97.212 C 363.065 96.875,363.026 96.890,361.807 97.781 M316.839 97.374 L 316.639 97.640 317.802 98.460 C 318.441 98.910,319.023 99.302,319.095 99.329 C 319.220 99.377,319.697 98.950,319.601 98.876 C 319.479 98.783,317.253 97.237,317.153 97.177 C 317.090 97.139,316.949 97.227,316.839 97.374 M204.517 99.030 C 203.888 99.404,203.323 99.728,203.261 99.749 C 203.200 99.771,203.239 99.925,203.348 100.092 L 203.547 100.395 204.546 99.812 C 206.179 98.860,206.073 98.951,205.925 98.627 C 205.760 98.264,205.851 98.237,204.517 99.030 M145.912 99.492 L 145.912 100.414 146.398 100.349 C 146.665 100.314,148.634 100.131,150.772 99.943 C 152.910 99.755,154.822 99.587,155.019 99.568 L 155.379 99.534 155.089 100.167 C 154.568 101.309,153.717 103.530,153.511 104.288 C 153.252 105.241,153.201 105.299,152.579 105.340 C 152.063 105.374,152.059 105.378,151.827 106.003 C 150.554 109.439,148.189 109.753,146.656 106.690 C 146.269 105.915,146.338 105.978,145.983 106.067 C 145.724 106.132,145.683 106.203,145.683 106.588 L 145.683 107.033 143.739 107.033 L 141.795 107.033 141.795 102.802 L 141.795 98.571 143.854 98.571 L 145.912 98.571 145.912 99.492 M157.004 98.799 C 156.809 99.163,156.856 99.212,158.087 99.930 C 159.446 100.723,159.412 100.713,159.616 100.387 C 159.801 100.091,159.849 100.133,158.348 99.281 C 157.208 98.634,157.111 98.600,157.004 98.799 M180.217 98.764 C 168.467 100.023,163.323 114.161,171.554 122.576 C 178.855 130.040,191.518 127.138,194.866 117.233 C 198.096 107.675,190.182 97.697,180.217 98.764 M363.093 99.718 C 361.930 100.400,361.766 100.586,362.089 100.854 C 362.225 100.968,362.443 100.887,363.261 100.417 C 364.701 99.592,364.721 99.574,364.562 99.276 C 364.385 98.947,364.432 98.932,363.093 99.718 M315.611 99.481 C 315.434 99.813,315.464 99.841,316.836 100.628 C 317.967 101.277,318.071 101.315,318.206 101.129 C 318.457 100.786,318.382 100.706,317.143 100.000 C 315.671 99.161,315.766 99.193,315.611 99.481 M184.115 99.643 C 194.623 101.675,198.534 114.723,190.901 122.283 C 182.796 130.310,168.802 124.868,168.244 113.471 C 167.817 104.744,175.570 97.990,184.115 99.643 M337.809 99.547 C 327.198 101.411,322.566 114.083,329.454 122.402 C 336.397 130.787,350.055 128.218,353.512 117.877 C 356.871 107.827,348.212 97.720,337.809 99.547 M103.545 103.945 L 103.545 108.119 57.519 108.119 L 11.492 108.119 11.462 104.060 C 11.446 101.828,11.457 99.937,11.487 99.858 C 11.531 99.742,20.701 99.720,57.544 99.743 L 103.545 99.771 103.545 103.945 M342.400 100.228 C 352.795 102.040,357.148 114.394,350.172 122.285 C 343.150 130.229,329.910 127.006,327.277 116.712 C 324.899 107.413,332.996 98.588,342.400 100.228 M205.517 101.047 C 204.170 101.685,204.137 101.714,204.386 102.054 C 204.533 102.256,204.597 102.239,205.729 101.717 C 207.164 101.054,207.148 101.067,206.957 100.718 L 206.804 100.438 205.517 101.047 M155.721 100.923 C 155.556 101.286,155.548 101.280,157.110 101.998 C 158.347 102.567,158.425 102.588,158.570 102.391 C 158.809 102.063,158.734 102.002,157.250 101.300 L 155.851 100.640 155.721 100.923 M364.116 101.717 C 362.774 102.358,362.729 102.410,363.122 102.891 C 363.194 102.980,365.695 101.718,365.695 101.593 C 365.695 100.974,365.667 100.976,364.116 101.717 M314.335 101.590 C 314.261 101.754,314.221 101.903,314.247 101.922 C 314.273 101.941,314.932 102.252,315.712 102.614 C 317.158 103.285,317.318 103.302,317.322 102.790 C 317.324 102.640,315.753 101.805,314.611 101.349 C 314.534 101.318,314.410 101.427,314.335 101.590 M206.432 103.181 C 205.149 103.649,205.002 103.770,205.247 104.156 C 205.424 104.435,208.031 103.411,207.937 103.100 C 207.815 102.694,207.759 102.697,206.432 103.181 M154.765 103.197 C 154.669 103.580,154.549 103.504,156.200 104.111 C 157.633 104.638,157.723 104.644,157.847 104.231 C 157.908 104.028,157.762 103.947,156.517 103.499 C 155.747 103.221,155.055 102.972,154.979 102.945 C 154.903 102.917,154.807 103.030,154.765 103.197 M364.977 103.859 C 363.863 104.276,363.752 104.343,363.818 104.561 C 363.941 104.969,363.998 104.966,365.294 104.491 C 366.775 103.949,366.655 104.027,366.564 103.665 C 366.473 103.301,366.469 103.301,364.977 103.859 M179.836 103.670 C 172.749 104.951,169.864 113.806,174.823 119.062 C 180.563 125.147,190.741 121.155,190.770 112.807 C 190.791 106.944,185.622 102.625,179.836 103.670 M313.419 103.774 C 313.410 103.868,313.397 104.006,313.391 104.080 C 313.384 104.154,314.048 104.458,314.866 104.755 L 316.352 105.296 316.451 105.011 C 316.580 104.638,316.574 104.634,315.024 104.078 C 313.547 103.548,313.444 103.529,313.419 103.774 M183.705 104.453 C 193.290 106.966,191.489 121.271,181.589 121.264 C 171.028 121.256,169.946 105.920,180.389 104.248 C 181.017 104.147,183.010 104.270,183.705 104.453 M338.308 104.343 C 332.332 105.661,329.265 112.045,331.974 117.526 C 335.338 124.333,345.110 124.315,348.479 117.496 C 351.875 110.621,345.751 102.702,338.308 104.343 M180.686 105.040 C 180.168 105.475,180.015 106.093,180.288 106.642 C 180.984 108.043,182.960 107.673,182.961 106.141 C 182.963 104.965,181.573 104.293,180.686 105.040 M342.222 105.087 C 348.826 106.671,350.999 114.962,346.037 119.643 C 341.722 123.713,334.595 122.179,332.309 116.690 C 329.633 110.260,335.442 103.462,342.222 105.087 M206.947 105.414 C 205.949 105.684,205.832 105.743,205.832 105.978 C 205.832 106.376,206.050 106.387,207.277 106.056 C 208.561 105.710,208.593 105.691,208.502 105.344 C 208.421 105.033,208.347 105.036,206.947 105.414 M371.370 105.317 L 372.895 105.317 373.198 105.918 C 374.237 107.974,375.367 108.977,376.649 108.977 C 377.495 108.977,377.514 109.001,377.178 109.633 C 376.833 110.281,376.814 111.045,377.128 111.660 C 377.253 111.905,377.326 112.135,377.291 112.171 C 377.197 112.265,369.593 113.523,369.525 113.455 C 369.494 113.424,369.468 112.929,369.468 112.356 C 369.468 111.016,369.197 108.834,368.821 107.155 C 368.658 106.427,368.499 105.682,368.466 105.500 L 368.408 105.167 369.126 105.242 C 369.522 105.284,370.531 105.317,371.370 105.317 M154.316 105.481 C 154.141 106.036,153.939 105.931,156.467 106.596 C 156.935 106.719,157.032 106.715,157.124 106.572 C 157.355 106.213,157.173 106.080,156.032 105.774 C 155.403 105.604,154.772 105.429,154.631 105.384 C 154.446 105.325,154.357 105.352,154.316 105.481 M339.670 105.480 C 338.629 105.933,338.510 107.328,339.459 107.954 C 339.911 108.251,340.528 108.236,341.007 107.915 C 342.399 106.981,341.208 104.810,339.670 105.480 M182.066 105.621 C 182.538 106.048,182.187 106.804,181.517 106.804 C 181.047 106.804,180.740 106.411,180.854 105.957 C 180.984 105.439,181.659 105.252,182.066 105.621 M365.716 106.040 C 364.424 106.385,364.186 106.592,364.604 107.009 C 364.719 107.125,367.128 106.358,367.160 106.196 C 367.257 105.702,367.063 105.681,365.716 106.040 M152.954 106.375 C 152.554 108.322,152.403 109.601,152.347 111.521 C 152.304 112.978,152.243 113.665,152.157 113.664 C 152.087 113.664,150.820 113.510,149.342 113.322 C 147.864 113.134,146.591 112.980,146.512 112.980 C 146.428 112.979,146.368 112.827,146.367 112.607 C 146.364 112.198,146.016 111.341,145.797 111.206 C 145.705 111.149,145.990 110.789,146.662 110.113 L 147.665 109.106 148.123 109.339 C 149.513 110.048,151.410 108.817,152.335 106.604 C 152.638 105.879,153.090 105.712,152.954 106.375 M312.910 106.295 C 312.819 106.659,312.691 106.591,314.268 107.020 C 315.692 107.407,315.838 107.404,315.838 106.983 C 315.838 106.742,315.719 106.688,314.486 106.361 C 312.865 105.932,313.000 105.938,312.910 106.295 M340.629 106.204 C 340.988 106.514,341.031 106.841,340.760 107.186 C 340.335 107.726,339.508 107.476,339.508 106.808 C 339.508 106.149,340.159 105.797,340.629 106.204 M207.377 107.706 C 206.337 107.899,206.156 108.026,206.394 108.396 C 206.608 108.729,209.082 108.194,209.127 107.804 C 209.171 107.422,208.964 107.410,207.377 107.706 M153.736 107.999 C 153.635 108.402,153.580 108.377,155.159 108.654 C 156.680 108.921,156.612 108.927,156.715 108.516 C 156.786 108.231,156.778 108.227,155.552 108.023 C 154.873 107.909,154.203 107.790,154.064 107.757 C 153.864 107.709,153.797 107.758,153.736 107.999 M180.503 108.109 C 175.437 109.366,175.678 116.529,180.819 117.454 C 183.330 117.905,185.916 116.016,186.251 113.486 C 186.697 110.107,183.710 107.313,180.503 108.109 M367.067 108.176 C 366.847 108.226,366.294 108.329,365.838 108.404 C 365.030 108.536,365.009 108.548,365.009 108.873 C 365.009 109.267,364.955 109.264,366.543 108.975 C 367.991 108.712,367.863 108.773,367.787 108.376 C 367.723 108.042,367.691 108.034,367.067 108.176 M312.380 108.688 C 312.310 109.054,312.242 109.026,313.885 109.317 C 315.501 109.603,315.380 109.611,315.380 109.217 C 315.380 108.891,315.366 108.883,314.380 108.705 C 312.361 108.341,312.446 108.342,312.380 108.688 M182.565 108.811 C 185.961 109.695,186.722 114.281,183.787 116.165 C 181.691 117.510,178.902 116.696,177.860 114.435 C 176.441 111.359,179.287 107.957,182.565 108.811 M338.776 108.854 C 334.700 110.201,334.280 115.745,338.111 117.637 C 340.986 119.057,344.358 117.318,344.904 114.136 C 345.492 110.710,342.074 107.764,338.776 108.854 M32.018 110.692 L 32.018 112.521 30.074 112.521 L 28.130 112.521 28.130 110.692 L 28.130 108.862 30.074 108.862 L 32.018 108.862 32.018 110.692 M82.561 109.446 L 82.561 110.030 82.240 109.686 C 81.663 109.069,82.629 109.092,57.862 109.094 C 35.274 109.096,34.694 109.101,34.222 109.315 C 33.573 109.610,33.325 110.054,33.238 111.078 C 33.157 112.038,33.095 112.250,32.867 112.337 C 32.731 112.390,32.704 112.114,32.704 110.631 L 32.704 108.862 57.633 108.862 L 82.561 108.862 82.561 109.446 M87.136 110.692 L 87.136 112.521 85.192 112.521 L 83.248 112.521 83.248 110.692 L 83.248 108.862 85.192 108.862 L 87.136 108.862 87.136 110.692 M88.050 109.091 C 88.050 109.217,87.999 109.320,87.936 109.320 C 87.873 109.320,87.822 109.217,87.822 109.091 C 87.822 108.965,87.873 108.862,87.936 108.862 C 87.999 108.862,88.050 108.965,88.050 109.091 M90.337 109.091 C 90.337 109.298,90.261 109.320,89.537 109.320 C 88.813 109.320,88.736 109.298,88.736 109.091 C 88.736 108.884,88.813 108.862,89.537 108.862 C 90.261 108.862,90.337 108.884,90.337 109.091 M98.342 109.091 C 98.342 109.315,98.266 109.320,94.683 109.320 C 91.100 109.320,91.023 109.315,91.023 109.091 C 91.023 108.867,91.100 108.862,94.683 108.862 C 98.266 108.862,98.342 108.867,98.342 109.091 M174.701 109.270 C 174.322 109.475,174.042 109.983,174.042 110.463 C 174.042 112.040,176.291 112.365,176.788 110.860 C 177.176 109.685,175.828 108.659,174.701 109.270 M186.937 109.270 C 186.108 109.720,186.072 111.095,186.874 111.657 C 187.287 111.946,188.140 111.889,188.548 111.546 C 189.874 110.430,188.465 108.441,186.937 109.270 M379.771 109.382 C 380.752 109.890,380.799 111.370,379.853 111.947 C 378.778 112.602,377.476 111.756,377.618 110.494 C 377.736 109.450,378.820 108.891,379.771 109.382 M341.397 109.486 C 343.195 110.027,344.446 111.886,344.272 113.755 C 343.832 118.459,337.044 118.707,336.200 114.051 C 335.675 111.154,338.549 108.629,341.397 109.486 M27.216 109.891 L 27.216 110.234 21.955 110.234 L 16.695 110.234 16.695 109.891 L 16.695 109.548 21.955 109.548 L 27.216 109.548 27.216 109.891 M180.557 109.717 C 178.266 110.454,177.654 113.525,179.478 115.131 C 181.542 116.948,184.724 115.504,184.724 112.750 C 184.724 110.580,182.625 109.052,180.557 109.717 M213.542 109.778 C 214.921 109.904,216.060 110.020,216.073 110.035 C 216.086 110.050,216.315 110.500,216.582 111.035 C 217.104 112.082,217.949 113.453,218.323 113.859 L 218.554 114.111 218.282 114.169 C 218.133 114.200,216.569 114.383,214.808 114.575 C 213.047 114.767,211.424 114.953,211.200 114.987 L 210.794 115.050 210.836 113.357 C 210.860 112.426,210.835 111.188,210.781 110.606 C 210.695 109.687,210.705 109.548,210.859 109.549 C 210.956 109.549,212.163 109.652,213.542 109.778 M333.455 109.872 C 332.479 110.395,332.424 111.722,333.355 112.290 C 334.352 112.897,335.589 112.165,335.480 111.033 C 335.375 109.941,334.384 109.373,333.455 109.872 M345.720 109.830 C 344.297 110.449,344.916 112.641,346.469 112.483 C 347.885 112.339,348.193 110.374,346.885 109.827 C 346.402 109.626,346.188 109.626,345.720 109.830 M81.657 110.079 C 81.845 110.267,81.923 110.537,81.994 111.243 C 82.175 113.041,82.331 113.140,85.029 113.186 L 87.136 113.222 87.136 113.558 L 87.136 113.894 84.575 113.894 C 81.467 113.894,81.563 113.933,81.413 112.593 C 81.289 111.495,81.049 111.054,80.391 110.720 L 79.883 110.463 57.976 110.463 L 36.069 110.463 35.566 110.720 C 34.756 111.134,34.523 111.672,34.425 113.350 C 34.396 113.841,34.067 113.894,31.046 113.894 L 28.130 113.894 28.130 113.557 L 28.130 113.220 30.524 113.185 C 33.603 113.140,33.759 113.052,33.918 111.253 C 33.994 110.386,34.152 110.065,34.591 109.885 C 34.717 109.833,45.303 109.800,58.116 109.812 L 81.412 109.834 81.657 110.079 M176.097 110.149 C 176.254 110.431,176.254 110.495,176.097 110.778 C 175.752 111.397,174.728 111.176,174.728 110.483 C 174.728 109.754,175.740 109.507,176.097 110.149 M188.162 109.932 C 188.410 110.114,188.447 110.707,188.227 110.972 C 187.870 111.402,186.964 111.051,186.964 110.483 C 186.964 109.885,187.660 109.565,188.162 109.932 M208.005 109.965 C 206.636 110.108,206.632 110.109,206.632 110.480 C 206.632 110.815,206.646 110.824,207.061 110.763 C 207.297 110.728,207.943 110.666,208.497 110.624 C 209.500 110.550,209.504 110.548,209.469 110.249 C 209.432 109.929,209.051 109.855,208.005 109.965 M98.113 110.349 L 98.113 110.692 92.967 110.692 L 87.822 110.692 87.822 110.349 L 87.822 110.006 92.967 110.006 L 98.113 110.006 98.113 110.349 M2.973 111.492 L 2.973 112.750 1.944 112.750 L 0.915 112.750 0.915 111.492 L 0.915 110.234 1.944 110.234 L 2.973 110.234 2.973 111.492 M114.351 111.492 L 114.351 112.750 113.208 112.750 L 112.064 112.750 112.064 111.492 L 112.064 110.234 113.208 110.234 L 114.351 110.234 114.351 111.492 M153.521 110.448 C 153.397 110.839,153.509 110.887,154.743 110.971 C 155.389 111.015,156.033 111.079,156.175 111.113 C 156.398 111.166,156.432 111.129,156.432 110.831 C 156.432 110.418,156.365 110.396,154.758 110.286 C 153.643 110.210,153.595 110.216,153.521 110.448 M182.426 110.417 C 182.781 110.537,183.112 110.770,183.408 111.107 C 185.233 113.179,182.900 116.199,180.439 114.951 C 177.665 113.545,179.477 109.412,182.426 110.417 M339.136 110.398 C 336.975 111.169,336.334 114.026,337.961 115.631 C 340.050 117.690,343.579 116.120,343.371 113.223 C 343.217 111.089,341.120 109.690,339.136 110.398 M334.591 110.577 C 335.041 111.027,334.716 111.835,334.085 111.835 C 333.797 111.835,333.333 111.364,333.333 111.071 C 333.333 110.527,334.200 110.186,334.591 110.577 M346.634 110.480 C 347.321 110.842,347.085 111.835,346.312 111.835 C 345.646 111.835,345.368 111.111,345.850 110.629 C 346.165 110.314,346.277 110.292,346.634 110.480 M366.609 110.623 C 365.688 110.711,365.298 110.792,365.306 110.892 C 365.350 111.438,365.278 111.412,366.524 111.329 C 368.040 111.228,368.096 111.209,368.096 110.798 C 368.096 110.614,368.057 110.471,368.010 110.480 C 367.963 110.489,367.333 110.554,366.609 110.623 M312.178 111.129 C 312.178 111.521,312.245 111.540,314.025 111.673 C 314.962 111.742,315.018 111.733,315.090 111.506 C 315.212 111.122,315.099 111.067,314.038 110.988 C 313.487 110.947,312.843 110.884,312.607 110.849 C 312.193 110.788,312.178 110.798,312.178 111.129 M24.014 112.618 L 24.014 114.316 22.647 114.385 C 20.370 114.499,20.023 114.899,20.712 116.608 C 20.905 117.088,20.781 117.213,19.990 117.336 C 18.871 117.510,18.795 117.686,18.704 120.312 C 18.549 124.796,18.095 127.292,17.301 128.027 C 16.666 128.616,16.695 129.027,16.695 119.611 L 16.695 110.921 20.354 110.921 L 24.014 110.921 24.014 112.618 M26.529 111.721 L 26.529 112.521 25.843 112.521 L 25.157 112.521 25.157 113.436 C 25.157 114.275,25.138 114.351,24.929 114.351 C 24.710 114.351,24.700 114.275,24.700 112.636 L 24.700 110.921 25.615 110.921 L 26.529 110.921 26.529 111.721 M27.444 111.721 C 27.444 112.178,27.395 112.521,27.330 112.521 C 27.265 112.521,27.216 112.178,27.216 111.721 C 27.216 111.264,27.265 110.921,27.330 110.921 C 27.395 110.921,27.444 111.264,27.444 111.721 M341.285 111.135 C 342.925 111.880,343.198 114.096,341.798 115.294 C 340.564 116.351,338.721 115.970,337.981 114.506 C 336.925 112.415,339.137 110.160,341.285 111.135 M37.281 114.380 L 37.284 117.610 37.661 118.216 C 39.196 120.681,41.417 121.646,45.273 121.523 C 48.751 121.413,50.966 120.380,52.419 118.191 L 52.830 117.571 52.830 114.360 L 52.830 111.149 55.003 111.149 L 57.176 111.149 57.176 113.665 L 57.176 116.181 56.482 116.181 C 55.369 116.181,54.612 116.762,53.112 118.769 C 51.080 121.488,49.515 122.407,46.913 122.411 L 45.740 122.413 45.740 122.712 C 45.740 124.414,40.745 123.981,40.514 122.259 C 40.456 121.825,40.422 121.791,39.866 121.611 C 38.660 121.219,37.914 120.507,36.543 118.440 C 35.543 116.932,34.515 115.831,33.427 115.101 L 32.689 114.606 33.494 114.561 C 34.698 114.493,35.220 113.841,35.220 112.407 C 35.220 111.585,35.732 111.162,36.735 111.154 L 37.278 111.149 37.281 114.380 M52.144 114.281 L 52.144 117.413 51.630 118.112 C 50.291 119.930,48.442 120.731,45.340 120.835 C 41.780 120.954,39.734 120.141,38.402 118.079 L 37.965 117.403 37.965 114.276 L 37.965 111.149 45.054 111.149 L 52.144 111.149 52.144 114.281 M80.340 111.506 C 80.584 111.750,80.657 111.965,80.736 112.671 C 80.885 113.998,81.351 114.580,82.264 114.580 C 82.428 114.580,82.561 114.631,82.561 114.694 C 82.561 114.757,82.446 114.810,82.304 114.812 C 82.163 114.814,76.878 114.988,70.561 115.200 L 59.075 115.585 58.468 115.287 L 57.862 114.990 57.862 113.068 L 57.862 111.146 68.951 111.176 L 80.041 111.206 80.340 111.506 M145.239 111.708 C 145.978 112.447,145.786 113.602,144.850 114.046 C 143.583 114.647,142.242 113.302,142.879 112.068 C 143.367 111.126,144.487 110.955,145.239 111.708 M88.050 111.950 C 88.050 112.264,87.999 112.521,87.936 112.521 C 87.873 112.521,87.822 112.264,87.822 111.950 C 87.822 111.635,87.873 111.378,87.936 111.378 C 87.999 111.378,88.050 111.635,88.050 111.950 M90.337 111.950 L 90.337 112.521 89.537 112.521 L 88.736 112.521 88.736 111.950 L 88.736 111.378 89.537 111.378 L 90.337 111.378 90.337 111.950 M98.342 119.897 C 98.342 129.288,98.381 128.816,97.658 128.093 C 96.875 127.310,96.294 123.731,96.286 119.647 C 96.283 118.009,95.941 117.440,94.962 117.439 C 94.241 117.438,94.131 117.217,94.429 116.378 C 94.935 114.957,93.769 114.233,91.395 114.493 L 91.023 114.534 91.023 112.956 L 91.023 111.378 94.683 111.378 L 98.342 111.378 98.342 119.897 M206.747 112.636 L 206.747 112.979 208.233 112.979 L 209.720 112.979 209.720 112.636 L 209.720 112.293 208.233 112.293 L 206.747 112.293 206.747 112.636 M153.230 112.864 L 153.230 113.208 154.774 113.208 L 156.318 113.208 156.318 112.864 L 156.318 112.521 154.774 112.521 L 153.230 112.521 153.230 112.864 M365.352 113.322 L 365.352 113.665 366.895 113.665 L 368.439 113.665 368.439 113.322 L 368.439 112.979 366.895 112.979 L 365.352 112.979 365.352 113.322 M27.444 113.551 L 27.444 113.894 26.644 113.894 L 25.843 113.894 25.843 113.551 L 25.843 113.208 26.644 113.208 L 27.444 113.208 27.444 113.551 M89.880 113.551 L 89.880 113.894 88.851 113.894 L 87.822 113.894 87.822 113.551 L 87.822 113.208 88.851 113.208 L 89.880 113.208 89.880 113.551 M310.921 113.991 C 310.921 114.422,310.952 115.078,310.991 115.449 L 311.062 116.123 309.247 116.095 C 305.948 116.044,305.051 115.962,305.225 115.728 C 305.307 115.618,305.566 115.276,305.801 114.968 C 306.035 114.660,306.369 114.138,306.544 113.808 L 306.861 113.208 308.891 113.208 L 310.921 113.208 310.921 113.991 M311.950 113.551 L 311.950 113.894 313.493 113.894 L 315.037 113.894 315.037 113.551 L 315.037 113.208 313.493 113.208 L 311.950 113.208 311.950 113.551 M375.469 113.433 C 375.314 113.587,374.954 113.700,374.328 113.791 C 373.473 113.916,373.376 113.960,372.842 114.457 C 372.288 114.974,372.232 114.997,371.069 115.193 C 370.409 115.305,369.778 115.421,369.668 115.453 C 369.495 115.502,369.468 115.425,369.468 114.873 C 369.468 114.523,369.481 114.233,369.497 114.229 C 369.601 114.200,375.391 113.232,375.526 113.221 C 375.651 113.211,375.637 113.265,375.469 113.433 M149.400 114.021 C 152.780 114.448,152.280 114.226,152.377 115.343 L 152.458 116.277 151.958 116.215 C 151.559 116.166,151.343 116.042,150.886 115.602 C 150.346 115.082,150.258 115.041,149.285 114.863 C 148.422 114.705,148.195 114.616,147.880 114.313 C 147.595 114.039,147.330 113.919,146.793 113.822 C 145.445 113.577,146.551 113.662,149.400 114.021 M206.697 114.553 C 206.232 115.019,206.693 115.225,208.443 115.333 L 209.738 115.414 209.700 115.083 C 209.663 114.751,209.662 114.751,208.634 114.671 C 208.067 114.627,207.415 114.568,207.183 114.540 C 206.951 114.512,206.732 114.518,206.697 114.553 M87.126 114.621 C 87.011 114.722,83.248 114.785,83.248 114.686 C 83.248 114.625,84.074 114.580,85.211 114.580 C 86.290 114.580,87.152 114.598,87.126 114.621 M155.117 114.875 C 154.991 114.895,154.541 114.943,154.117 114.983 C 153.349 115.055,153.345 115.057,153.345 115.402 L 153.345 115.750 153.945 115.682 C 154.275 115.645,154.931 115.583,155.403 115.546 C 156.515 115.457,156.528 115.451,156.462 115.103 C 156.405 114.806,156.004 114.737,155.117 114.875 M26.043 115.150 L 26.529 115.152 26.529 117.790 C 26.529 120.886,26.381 121.444,25.586 121.351 C 24.803 121.260,24.700 120.836,24.700 117.715 L 24.700 115.007 25.129 115.078 C 25.364 115.117,25.776 115.150,26.043 115.150 M27.444 118.296 C 27.444 121.365,27.439 121.441,27.216 121.441 C 27.090 121.441,26.987 121.492,26.987 121.555 C 26.987 121.618,26.910 121.670,26.815 121.670 C 26.587 121.670,26.596 121.627,26.930 121.098 C 27.214 120.647,27.216 120.631,27.216 117.898 C 27.216 116.143,27.257 115.152,27.330 115.152 C 27.403 115.152,27.444 116.276,27.444 118.296 M30.560 115.227 L 32.018 115.301 32.018 118.371 L 32.018 121.441 30.074 121.441 L 28.130 121.441 28.130 118.296 L 28.130 115.152 28.616 115.152 C 28.884 115.152,29.758 115.186,30.560 115.227 M215.677 115.426 C 215.461 115.656,215.233 115.722,214.256 115.838 C 213.246 115.959,213.048 116.019,212.750 116.295 C 212.439 116.583,211.439 116.867,210.737 116.867 C 210.561 116.867,210.568 115.991,210.745 115.802 C 210.819 115.723,214.808 115.206,215.657 115.165 L 215.935 115.152 215.677 115.426 M365.352 115.465 C 365.352 115.845,365.228 115.813,367.496 116.020 L 368.325 116.096 368.325 115.753 C 368.325 115.410,368.324 115.410,367.496 115.334 C 367.040 115.293,366.371 115.228,366.009 115.190 L 365.352 115.122 365.352 115.465 M88.050 117.958 C 88.050 120.454,88.067 120.683,88.287 121.113 C 88.422 121.378,88.490 121.658,88.445 121.766 C 88.391 121.898,88.351 121.912,88.313 121.812 C 88.284 121.734,88.161 121.670,88.041 121.670 C 87.830 121.670,87.822 121.547,87.822 118.468 C 87.822 116.409,87.862 115.266,87.936 115.266 C 88.009 115.266,88.050 116.239,88.050 117.958 M90.337 117.843 C 90.337 120.815,90.220 121.326,89.537 121.326 C 88.854 121.326,88.736 120.815,88.736 117.843 L 88.736 115.266 89.537 115.266 L 90.337 115.266 90.337 117.843 M87.136 118.525 L 87.136 121.670 85.192 121.670 L 83.248 121.670 83.248 118.588 L 83.248 115.507 83.791 115.464 C 84.089 115.441,84.964 115.412,85.735 115.401 L 87.136 115.380 87.136 118.525 M313.436 115.555 C 312.650 115.633,311.994 115.703,311.978 115.710 C 311.927 115.734,311.948 116.255,312.002 116.310 C 312.041 116.348,314.875 116.136,315.131 116.075 C 315.222 116.053,315.081 115.453,314.980 115.434 C 314.917 115.422,314.222 115.477,313.436 115.555 M176.874 116.817 C 176.495 117.023,176.215 117.530,176.215 118.010 C 176.215 119.587,178.464 119.912,178.961 118.407 C 179.348 117.233,178.001 116.206,176.874 116.817 M184.659 116.896 C 184.089 117.378,183.945 118.055,184.276 118.695 C 185.024 120.141,187.273 119.195,186.837 117.617 C 186.588 116.715,185.356 116.307,184.659 116.896 M206.404 116.966 C 206.404 117.362,206.311 117.323,207.934 117.613 C 209.080 117.818,209.262 117.789,209.262 117.402 C 209.262 117.144,209.196 117.118,208.082 116.935 C 207.432 116.829,206.789 116.712,206.652 116.676 C 206.437 116.620,206.404 116.658,206.404 116.966 M310.663 116.822 C 311.068 116.871,311.149 116.922,311.151 117.131 C 311.152 117.269,311.182 117.491,311.218 117.625 C 311.282 117.866,311.272 117.867,309.701 117.807 L 308.119 117.747 307.604 117.314 C 307.091 116.882,307.087 116.881,305.660 116.775 C 304.459 116.686,304.705 116.676,307.204 116.716 C 308.839 116.742,310.396 116.790,310.663 116.822 M155.003 117.106 C 153.558 117.379,153.591 117.364,153.658 117.715 C 153.726 118.070,153.552 118.065,155.323 117.762 C 156.771 117.513,156.786 117.507,156.752 117.217 C 156.708 116.840,156.487 116.826,155.003 117.106 M335.654 117.396 C 334.250 118.088,334.858 120.188,336.417 120.029 C 337.760 119.892,338.139 118.237,337.003 117.471 C 336.551 117.166,336.164 117.145,335.654 117.396 M343.548 117.377 C 342.821 117.693,342.510 118.682,342.928 119.348 C 343.658 120.512,345.393 120.144,345.530 118.796 C 345.643 117.689,344.580 116.928,343.548 117.377 M178.270 117.696 C 178.427 117.978,178.427 118.042,178.270 118.325 C 177.925 118.944,176.901 118.723,176.901 118.030 C 176.901 117.301,177.912 117.054,178.270 117.696 M185.989 117.480 C 186.122 117.576,186.202 117.776,186.202 118.010 C 186.202 118.632,185.472 118.934,185.000 118.507 C 184.344 117.913,185.268 116.952,185.989 117.480 M365.082 117.495 C 364.918 117.922,365.004 117.974,366.181 118.175 C 366.825 118.285,367.462 118.400,367.596 118.430 C 367.795 118.475,367.848 118.423,367.889 118.141 L 367.940 117.798 366.903 117.613 C 366.333 117.511,365.706 117.400,365.511 117.366 C 365.246 117.320,365.136 117.353,365.082 117.495 M313.779 117.731 C 312.993 117.879,312.337 118.002,312.321 118.005 C 312.250 118.019,312.302 118.574,312.379 118.621 C 312.438 118.657,315.333 118.194,315.446 118.130 C 315.496 118.102,315.336 117.442,315.281 117.451 C 315.241 117.457,314.565 117.584,313.779 117.731 M336.764 118.125 C 337.214 118.574,336.888 119.383,336.258 119.383 C 335.969 119.383,335.506 118.912,335.506 118.619 C 335.506 118.074,336.373 117.733,336.764 118.125 M344.581 118.133 C 345.115 118.552,344.821 119.383,344.140 119.383 C 343.474 119.383,343.196 118.658,343.677 118.177 C 344.019 117.834,344.191 117.826,344.581 118.133 M205.937 119.120 C 205.794 119.498,205.719 119.454,207.162 119.845 C 208.656 120.250,208.673 120.250,208.795 119.926 C 208.918 119.598,208.913 119.596,207.341 119.174 L 206.049 118.827 205.937 119.120 M155.432 119.410 C 154.132 119.764,153.987 119.870,154.243 120.275 C 154.319 120.394,154.614 120.351,155.700 120.063 C 157.347 119.625,157.346 119.625,157.222 119.297 C 157.101 118.974,157.005 118.980,155.432 119.410 M364.624 119.669 C 364.464 120.086,364.565 120.151,365.935 120.515 C 366.697 120.718,367.336 120.867,367.355 120.847 C 367.843 120.360,367.615 120.236,364.939 119.541 C 364.778 119.499,364.673 119.542,364.624 119.669 M314.255 120.011 C 312.627 120.454,312.711 120.407,312.856 120.788 L 312.967 121.083 314.202 120.745 C 314.882 120.560,315.553 120.378,315.695 120.340 C 315.836 120.303,315.951 120.240,315.950 120.199 C 315.946 120.005,315.803 119.612,315.739 119.620 C 315.699 119.624,315.031 119.800,314.255 120.011 M205.279 121.273 C 205.130 121.601,204.989 121.518,206.850 122.196 C 207.442 122.411,207.939 122.574,207.956 122.557 C 208.357 122.155,208.129 121.933,206.828 121.459 C 205.282 120.897,205.442 120.916,205.279 121.273 M156.325 121.597 C 154.947 122.110,154.851 122.182,155.095 122.516 C 155.271 122.757,157.919 121.904,157.919 121.606 C 157.919 121.006,157.915 121.006,156.325 121.597 M363.920 121.907 C 363.818 122.228,363.812 122.225,365.294 122.763 L 366.599 123.236 366.710 122.919 C 366.799 122.662,366.784 122.587,366.629 122.526 C 364.527 121.692,364.024 121.577,363.920 121.907 M314.894 122.263 C 313.666 122.724,313.514 122.856,313.762 123.246 C 313.834 123.360,314.148 123.286,315.161 122.918 C 316.661 122.373,316.653 122.379,316.564 122.039 C 316.476 121.702,316.340 121.720,314.894 122.263 M26.121 122.307 C 26.356 122.542,26.351 123.140,26.111 123.404 C 25.739 123.816,24.886 123.578,24.811 123.042 C 24.729 122.454,24.997 122.127,25.557 122.127 C 25.769 122.127,26.022 122.208,26.121 122.307 M32.247 122.813 L 32.247 123.499 29.960 123.499 L 27.673 123.499 27.673 122.813 L 27.673 122.127 29.960 122.127 L 32.247 122.127 32.247 122.813 M90.043 122.307 C 90.325 122.588,90.316 123.087,90.023 123.413 C 89.662 123.817,88.807 123.571,88.733 123.042 C 88.651 122.454,88.919 122.127,89.480 122.127 C 89.691 122.127,89.944 122.208,90.043 122.307 M87.593 123.042 L 87.593 123.728 85.306 123.728 L 83.019 123.728 83.019 123.042 L 83.019 122.356 85.306 122.356 L 87.593 122.356 87.593 123.042 M157.020 123.792 C 156.007 124.275,155.736 124.452,155.791 124.594 C 155.829 124.694,155.860 124.823,155.860 124.881 C 155.860 125.065,156.068 124.998,157.379 124.393 C 158.909 123.686,158.889 123.701,158.726 123.397 C 158.552 123.072,158.508 123.082,157.020 123.792 M204.366 123.442 C 204.247 123.704,204.266 123.740,204.605 123.887 C 204.808 123.975,205.431 124.261,205.989 124.522 C 206.546 124.783,207.015 124.981,207.031 124.962 C 207.427 124.482,207.382 124.430,206.000 123.781 C 204.458 123.056,204.535 123.072,204.366 123.442 M315.838 124.364 C 315.114 124.704,314.480 124.997,314.428 125.016 C 314.375 125.034,314.397 125.190,314.476 125.363 C 314.555 125.536,314.655 125.664,314.699 125.646 C 315.566 125.302,317.439 124.345,317.439 124.247 C 317.439 123.712,317.184 123.730,315.838 124.364 M363.057 124.034 C 362.918 124.401,362.778 124.293,364.343 125.028 L 365.668 125.650 365.800 125.360 C 365.872 125.201,365.917 125.058,365.899 125.042 C 365.828 124.981,364.830 124.493,364.022 124.125 L 363.170 123.737 363.057 124.034 M158.069 125.860 C 156.840 126.579,156.795 126.619,156.915 126.883 C 156.984 127.035,157.081 127.158,157.130 127.158 C 157.205 127.158,159.729 125.721,159.842 125.614 C 159.912 125.548,159.578 125.100,159.464 125.106 C 159.400 125.109,158.773 125.448,158.069 125.860 M203.457 125.240 C 203.190 125.562,203.306 125.690,204.517 126.402 C 205.779 127.143,206.189 127.193,206.173 126.603 C 206.172 126.547,204.030 125.291,203.653 125.125 C 203.612 125.107,203.524 125.159,203.457 125.240 M316.839 126.443 C 315.468 127.231,315.388 127.312,315.638 127.652 C 315.789 127.858,318.466 126.466,318.467 126.180 C 318.469 125.614,318.206 125.656,316.839 126.443 M362.052 125.967 C 361.980 126.125,361.921 126.273,361.921 126.296 C 361.921 126.318,362.494 126.659,363.195 127.053 C 364.480 127.775,364.780 127.815,364.780 127.261 C 364.780 127.201,363.074 126.158,362.252 125.716 C 362.214 125.696,362.124 125.808,362.052 125.967 M159.434 127.856 L 158.147 128.767 158.330 129.046 L 158.513 129.325 159.812 128.442 C 161.257 127.459,161.189 127.537,160.918 127.194 L 160.720 126.944 159.434 127.856 M202.248 127.139 C 201.975 127.440,201.953 127.414,203.220 128.292 C 204.283 129.029,204.394 129.080,204.531 128.899 C 204.776 128.577,204.725 128.499,203.866 127.902 C 202.348 126.846,202.464 126.900,202.248 127.139 M318.096 128.486 C 316.859 129.351,316.720 129.524,317.042 129.792 C 317.190 129.915,317.398 129.814,318.364 129.153 C 319.744 128.206,319.784 128.164,319.590 127.853 C 319.398 127.545,319.507 127.499,318.096 128.486 M360.915 127.753 C 360.653 128.015,360.783 128.174,361.876 128.936 L 362.974 129.702 363.213 129.462 C 363.344 129.331,363.429 129.202,363.401 129.177 C 363.227 129.018,361.180 127.616,361.122 127.616 C 361.084 127.616,360.990 127.678,360.915 127.753 M200.860 128.943 C 200.754 129.104,200.685 129.248,200.706 129.262 C 200.726 129.276,201.215 129.683,201.792 130.167 C 202.957 131.144,202.968 131.149,203.189 130.796 C 203.330 130.570,203.317 130.522,203.056 130.310 C 202.896 130.180,202.381 129.754,201.909 129.362 L 201.053 128.649 200.860 128.943 M160.806 129.741 C 159.648 130.716,159.642 130.723,159.823 131.000 C 160.034 131.322,159.898 131.397,161.378 130.147 C 162.388 129.294,162.491 129.146,162.241 128.897 C 162.040 128.695,162.067 128.679,160.806 129.741 M319.521 130.327 C 318.336 131.322,318.222 131.481,318.520 131.728 C 318.727 131.900,318.749 131.886,320.039 130.786 C 320.943 130.015,321.079 129.853,320.982 129.671 C 320.781 129.297,320.709 129.329,319.521 130.327 M359.505 129.595 C 359.323 129.846,359.340 129.868,360.450 130.802 L 361.581 131.754 361.803 131.486 C 361.976 131.276,361.993 131.193,361.881 131.103 C 361.802 131.041,361.297 130.616,360.758 130.160 C 359.638 129.213,359.747 129.262,359.505 129.595 M162.402 131.422 L 161.345 132.485 161.591 132.750 L 161.838 133.015 162.931 131.921 C 164.011 130.842,164.022 130.825,163.813 130.594 C 163.522 130.273,163.583 130.237,162.402 131.422 M199.366 130.594 C 199.157 130.825,199.167 130.841,200.205 131.879 L 201.255 132.929 201.511 132.673 L 201.767 132.418 200.743 131.389 C 199.599 130.240,199.657 130.273,199.366 130.594 M321.039 132.077 C 320.004 133.117,319.873 133.428,320.424 133.536 C 320.809 133.612,322.645 131.532,322.417 131.279 C 322.127 130.959,322.184 130.926,321.039 132.077 M357.997 131.252 C 357.822 131.445,357.874 131.520,358.872 132.514 L 359.933 133.571 360.149 133.333 C 360.362 133.097,360.356 133.088,359.344 132.071 C 358.216 130.938,358.258 130.964,357.997 131.252 M164.255 132.787 C 162.898 134.401,162.996 134.230,163.270 134.504 L 163.507 134.741 163.829 134.356 C 164.006 134.144,164.474 133.588,164.870 133.122 C 165.554 132.314,165.579 132.263,165.395 132.060 C 165.119 131.756,165.124 131.752,164.255 132.787 M197.667 132.133 C 197.418 132.322,197.340 132.188,198.552 133.646 C 199.334 134.585,199.553 134.693,199.817 134.266 C 199.878 134.167,198.097 131.958,197.961 131.965 C 197.919 131.967,197.787 132.042,197.667 132.133 M322.650 133.740 C 321.577 135.018,321.594 134.967,322.140 135.292 C 322.223 135.342,324.185 133.017,324.185 132.869 C 324.185 132.784,323.825 132.533,323.702 132.533 C 323.680 132.533,323.206 133.076,322.650 133.740 M356.345 132.755 L 356.086 132.972 357.014 134.068 C 357.959 135.182,358.124 135.295,358.376 134.992 C 358.494 134.850,358.410 134.691,357.882 134.049 C 356.557 132.437,356.640 132.507,356.345 132.755 M165.828 134.505 L 164.916 135.792 165.162 135.989 C 165.492 136.254,165.473 136.263,165.884 135.647 C 166.082 135.349,166.488 134.757,166.786 134.330 C 167.306 133.587,167.320 133.548,167.112 133.390 C 166.787 133.144,166.807 133.127,165.828 134.505 M195.862 133.478 C 195.691 133.594,195.750 133.725,196.422 134.700 C 197.422 136.152,197.374 136.107,197.686 135.870 L 197.946 135.674 197.127 134.503 C 196.296 133.317,196.206 133.244,195.862 133.478 M324.467 135.176 L 323.574 136.447 323.844 136.651 C 324.160 136.889,324.041 137.007,325.240 135.270 C 325.949 134.245,325.982 134.169,325.778 134.041 C 325.428 133.822,325.401 133.846,324.467 135.176 M354.564 134.113 C 354.393 134.302,355.766 136.650,356.046 136.650 C 356.698 136.650,356.631 136.351,355.675 134.992 C 354.843 133.810,354.840 133.808,354.564 134.113 M168.062 135.535 C 167.092 137.191,167.119 137.122,167.362 137.300 C 167.680 137.532,167.731 137.480,168.532 136.084 C 169.238 134.857,169.266 134.779,169.065 134.632 C 168.738 134.393,168.721 134.408,168.062 135.535 M194.085 134.626 C 193.685 134.849,195.083 137.268,195.502 137.078 C 195.649 137.011,195.769 136.911,195.769 136.857 C 195.769 136.719,194.477 134.476,194.401 134.481 C 194.367 134.483,194.225 134.549,194.085 134.626 M352.775 135.253 L 352.516 135.463 353.183 136.628 C 353.867 137.821,353.946 137.894,354.283 137.637 C 354.449 137.512,353.507 135.533,353.065 135.074 C 353.048 135.057,352.917 135.137,352.775 135.253 M326.546 136.449 L 325.800 137.736 326.040 137.941 C 326.339 138.196,326.325 138.211,327.209 136.697 C 327.857 135.587,327.918 135.433,327.755 135.306 C 327.417 135.042,327.295 135.158,326.546 136.449 M169.979 136.835 C 169.265 138.354,169.274 138.314,169.595 138.486 C 169.907 138.653,169.910 138.649,170.616 137.118 C 171.187 135.880,171.207 135.806,171.007 135.660 C 170.664 135.409,170.630 135.448,169.979 136.835 M192.066 135.653 C 191.844 135.816,192.901 138.365,193.191 138.365 C 193.724 138.365,193.706 138.109,193.080 136.792 C 192.447 135.459,192.401 135.408,192.066 135.653 M329.059 136.564 C 328.970 136.768,328.684 137.392,328.423 137.950 C 328.162 138.507,327.963 138.979,327.982 138.998 C 328.001 139.017,328.148 139.065,328.310 139.106 C 328.708 139.206,330.018 136.589,329.696 136.335 C 329.406 136.105,329.230 136.167,329.059 136.564 M350.694 136.310 C 350.412 136.477,351.596 139.014,351.928 138.956 C 352.349 138.881,352.330 138.720,351.758 137.491 C 351.177 136.243,351.048 136.100,350.694 136.310 M172.570 136.559 C 171.946 138.235,171.620 139.182,171.655 139.218 C 172.065 139.627,172.267 139.409,172.769 138.020 C 173.043 137.259,173.249 136.621,173.226 136.602 C 172.908 136.329,172.662 136.313,172.570 136.559 M189.963 136.517 C 189.850 136.588,189.926 136.916,190.295 137.952 C 190.772 139.292,190.990 139.523,191.397 139.116 C 191.413 139.099,191.214 138.486,190.953 137.753 C 190.479 136.420,190.356 136.267,189.963 136.517 M174.624 137.264 C 174.436 137.786,173.882 140.072,173.932 140.121 C 174.351 140.526,175.280 138.582,175.298 137.263 C 175.302 137.002,174.718 137.003,174.624 137.264 M188.022 137.080 C 187.880 137.104,187.764 137.196,187.764 137.284 C 187.764 137.457,188.438 139.991,188.501 140.054 C 188.626 140.179,189.137 139.917,189.090 139.752 C 189.061 139.650,188.897 139.025,188.726 138.365 C 188.378 137.021,188.379 137.022,188.022 137.080 M331.185 137.303 C 331.122 137.478,330.889 138.119,330.666 138.728 L 330.262 139.835 330.585 139.947 L 330.908 140.060 331.420 138.669 C 331.949 137.231,331.953 137.182,331.545 137.059 C 331.349 137.000,331.277 137.049,331.185 137.303 M348.691 137.108 L 348.439 137.210 348.789 138.159 C 348.982 138.681,349.203 139.288,349.281 139.508 C 349.359 139.728,349.482 139.903,349.554 139.897 C 350.156 139.845,350.156 139.908,349.560 138.279 C 349.301 137.571,349.056 136.996,349.016 137.000 C 348.975 137.004,348.829 137.053,348.691 137.108 M176.731 137.936 C 176.695 138.140,176.571 138.836,176.455 139.481 L 176.245 140.655 176.521 140.724 C 176.673 140.762,176.829 140.762,176.869 140.722 C 176.928 140.663,177.466 137.919,177.471 137.650 C 177.477 137.329,176.792 137.594,176.731 137.936 M185.639 138.050 C 185.998 140.343,186.059 140.537,186.407 140.537 C 186.587 140.537,186.735 140.502,186.735 140.458 C 186.735 140.415,186.625 139.746,186.489 138.972 L 186.243 137.564 185.903 137.564 C 185.567 137.564,185.563 137.570,185.639 138.050 M333.291 137.869 C 332.532 140.372,332.484 140.874,333.002 140.879 C 333.152 140.880,334.095 137.946,333.981 137.831 C 333.818 137.667,333.345 137.693,333.291 137.869 M346.569 137.757 C 346.459 137.786,346.369 137.831,346.369 137.857 C 346.369 137.913,347.042 140.425,347.107 140.609 C 347.162 140.768,347.742 140.672,347.742 140.504 C 347.742 140.133,347.006 137.681,346.898 137.692 C 346.827 137.699,346.680 137.729,346.569 137.757 M178.912 138.679 C 178.871 139.167,178.807 139.836,178.771 140.166 L 178.704 140.766 179.047 140.766 C 179.427 140.766,179.414 140.814,179.599 138.753 C 179.674 137.918,179.611 137.807,179.059 137.795 C 179.019 137.794,178.953 138.192,178.912 138.679 M183.607 137.874 C 183.381 137.932,183.381 137.853,183.608 140.087 C 183.672 140.717,183.676 140.722,184.015 140.673 C 184.354 140.623,184.356 140.618,184.291 140.037 C 184.254 139.715,184.191 139.078,184.150 138.622 C 184.076 137.793,184.052 137.760,183.607 137.874 M181.132 139.394 L 181.132 140.881 181.475 140.881 L 181.818 140.881 181.818 139.394 L 181.818 137.907 181.475 137.907 L 181.132 137.907 181.132 139.394 M335.453 138.271 C 335.360 138.541,334.911 141.238,334.952 141.279 C 334.974 141.301,335.124 141.352,335.286 141.393 L 335.579 141.467 335.844 139.912 C 335.990 139.057,336.089 138.340,336.065 138.318 C 335.900 138.171,335.498 138.140,335.453 138.271 M344.449 138.217 C 344.270 138.252,344.203 138.328,344.240 138.459 C 344.269 138.564,344.381 139.191,344.490 139.851 C 344.713 141.207,344.741 141.264,345.132 141.165 L 345.413 141.095 345.150 139.644 C 345.005 138.846,344.885 138.180,344.884 138.165 C 344.884 138.149,344.844 138.143,344.797 138.152 C 344.750 138.160,344.593 138.190,344.449 138.217 M337.641 138.565 C 337.593 138.645,337.416 141.031,337.439 141.281 C 337.445 141.344,337.591 141.395,337.764 141.395 L 338.079 141.395 338.194 139.985 C 338.257 139.210,338.287 138.554,338.260 138.527 C 338.178 138.445,337.695 138.474,337.641 138.565 M342.108 138.565 C 342.084 138.612,342.115 139.255,342.177 139.994 L 342.288 141.338 342.627 141.338 L 342.966 141.338 342.888 140.109 C 342.845 139.433,342.784 138.789,342.752 138.679 C 342.695 138.481,342.196 138.392,342.108 138.565 M339.851 140.080 L 339.851 141.567 340.194 141.567 L 340.537 141.567 340.537 140.080 L 340.537 138.593 340.194 138.593 L 339.851 138.593 339.851 140.080 " stroke="none" fill="#000000" fill-rule="evenodd"></path></g></svg>