<svg id="svg" xmlns="http://www.w3.org/2000/svg" xmlns:xlink="http://www.w3.org/1999/xlink" width="400" height="144.38138479001134" viewBox="0, 0, 400,144.38138479001134"><g id="svgg"><path id="path0" d="M384.535 24.773 L 384.506 49.319 382.653 35.641 C 380.554 20.156,380.770 21.417,380.021 20.270 C 378.070 17.281,375.128 15.341,372.087 15.038 C 348.750 12.717,320.583 12.719,297.224 15.043 C 294.771 15.287,292.980 16.430,291.486 18.706 C 290.456 20.275,290.574 19.693,287.853 36.663 C 286.477 45.247,285.323 52.411,285.288 52.582 L 285.226 52.894 283.424 52.894 L 281.622 52.894 281.563 52.526 C 281.531 52.323,281.374 50.554,281.215 48.595 C 280.893 44.653,280.989 45.010,279.955 43.904 L 279.446 43.360 275.834 43.360 L 272.222 43.360 271.412 44.337 L 270.602 45.314 270.602 51.250 L 270.602 57.186 271.595 58.102 L 272.588 59.018 276.431 59.021 L 280.275 59.024 280.896 58.456 C 281.570 57.840,282.940 57.550,282.637 58.087 C 282.575 58.197,282.318 60.074,282.066 62.259 C 281.509 67.077,281.568 66.814,280.711 68.262 C 279.149 70.902,278.471 75.911,279.013 80.818 C 279.112 81.714,279.101 82.031,278.951 82.681 C 278.710 83.716,278.467 85.394,278.371 86.679 L 278.293 87.716 277.285 88.720 L 276.277 89.723 276.277 96.039 C 276.277 101.516,276.300 102.375,276.447 102.497 C 276.541 102.575,276.617 102.705,276.617 102.787 C 276.617 102.869,276.718 102.968,276.841 103.007 C 276.964 103.046,277.960 104.007,279.054 105.143 L 281.042 107.208 281.043 124.550 L 281.044 141.892 281.318 142.432 C 281.468 142.729,281.825 143.187,282.110 143.450 L 282.628 143.927 287.718 143.927 L 292.808 143.927 293.283 143.521 C 293.545 143.297,293.899 142.875,294.070 142.584 L 294.381 142.054 294.438 126.206 L 294.495 110.357 297.560 113.379 L 300.624 116.402 300.593 118.133 L 300.562 119.864 300.111 119.864 L 299.659 119.864 299.659 123.269 L 299.659 126.674 300.114 126.674 L 300.568 126.674 300.568 127.469 L 300.568 128.263 303.405 128.263 L 306.243 128.263 306.243 127.469 L 306.243 126.674 306.810 126.674 L 307.378 126.674 307.378 123.269 L 307.378 119.864 306.810 119.864 L 306.243 119.864 306.243 118.266 L 306.243 116.667 313.138 116.715 C 322.592 116.780,323.343 116.935,328.061 119.792 C 333.902 123.329,337.666 123.319,343.472 119.751 C 348.104 116.905,349.231 116.690,359.563 116.687 L 365.040 116.686 365.040 118.275 L 365.040 119.864 364.472 119.864 L 363.905 119.864 363.905 123.269 L 363.905 126.674 364.472 126.674 L 365.040 126.674 365.040 127.469 L 365.040 128.263 367.877 128.263 L 370.715 128.263 370.715 127.469 L 370.715 126.674 371.283 126.674 L 371.850 126.674 371.850 123.269 L 371.850 119.864 371.283 119.864 L 370.715 119.864 370.719 118.190 L 370.723 116.515 373.415 113.319 L 376.107 110.123 376.163 126.089 L 376.220 142.054 376.579 142.572 C 376.777 142.856,377.148 143.278,377.403 143.508 L 377.867 143.927 382.977 143.927 L 388.087 143.927 388.589 143.465 C 388.865 143.210,389.247 142.759,389.438 142.462 L 389.784 141.921 389.784 124.162 L 389.784 106.404 391.515 104.692 C 392.467 103.751,393.323 102.958,393.417 102.928 C 393.565 102.882,393.591 102.046,393.618 96.463 L 393.649 90.050 392.965 88.843 L 392.281 87.636 392.279 86.639 C 392.277 85.420,392.130 84.342,391.804 83.144 C 391.584 82.335,391.560 82.001,391.588 80.079 C 391.634 76.894,391.328 72.368,390.871 69.485 C 390.737 68.639,390.674 68.489,390.279 68.066 C 389.106 66.811,389.263 67.333,388.820 63.217 C 388.602 61.192,388.397 59.381,388.365 59.194 C 388.320 58.928,388.153 58.755,387.601 58.400 L 386.896 57.946 387.849 57.912 L 388.802 57.879 389.382 58.451 L 389.962 59.024 393.842 59.024 L 397.723 59.024 398.748 58.101 L 399.773 57.177 399.773 51.238 L 399.773 45.298 398.950 44.336 L 398.127 43.374 394.480 43.367 L 390.832 43.360 390.104 44.191 L 389.377 45.022 389.067 48.816 C 388.896 50.903,388.758 52.675,388.759 52.753 C 388.762 52.860,388.337 52.894,387.003 52.894 L 385.244 52.894 385.244 26.561 L 385.244 0.227 384.904 0.227 L 384.564 0.227 384.535 24.773 M344.665 14.074 C 353.853 14.328,363.407 14.895,371.379 15.659 L 373.608 15.873 374.748 16.450 C 376.681 17.427,378.341 18.930,379.551 20.797 L 380.044 21.558 382.473 39.411 C 383.809 49.231,384.904 57.290,384.906 57.321 C 384.908 57.352,385.545 57.812,386.322 58.343 C 388.149 59.590,388.174 59.309,385.965 62.266 L 384.188 64.642 383.102 64.642 L 382.016 64.642 380.983 60.897 C 380.195 58.043,379.834 56.925,379.468 56.203 C 378.881 55.046,378.751 55.139,380.757 55.282 C 381.680 55.347,382.455 55.380,382.480 55.356 C 382.505 55.331,381.991 52.277,381.337 48.569 C 380.684 44.861,379.301 37.001,378.264 31.101 C 377.228 25.201,376.356 20.293,376.326 20.193 C 376.285 20.053,376.057 19.995,375.338 19.942 C 350.236 18.089,332.704 17.808,310.670 18.904 C 305.889 19.142,294.023 19.941,293.898 20.033 C 293.882 20.045,293.414 22.910,292.858 26.401 C 289.577 46.999,288.281 55.288,288.334 55.341 C 288.367 55.374,289.149 55.347,290.072 55.282 C 292.076 55.139,291.945 55.050,291.378 56.177 C 291.043 56.844,290.647 58.063,289.947 60.587 C 289.415 62.505,288.953 64.164,288.920 64.274 C 288.868 64.449,288.697 64.472,287.474 64.472 L 286.086 64.472 284.587 62.264 C 283.011 59.943,282.992 59.899,283.161 58.880 C 283.223 58.505,283.354 58.360,284.241 57.688 C 284.797 57.268,285.276 56.822,285.306 56.697 C 285.355 56.492,290.256 26.096,290.815 22.531 C 291.473 18.329,293.870 16.037,298.009 15.651 C 312.974 14.256,330.205 13.673,344.665 14.074 M175.312 17.207 C 165.849 17.422,155.717 17.932,152.854 18.338 C 150.457 18.678,148.977 19.352,147.745 20.661 C 146.469 22.019,145.577 24.518,146.368 24.518 L 146.652 24.518 146.650 50.085 C 146.649 75.263,146.645 75.669,146.420 76.731 C 146.295 77.324,146.160 78.435,146.121 79.200 L 146.049 80.590 145.238 80.590 C 144.616 80.590,144.294 80.653,143.865 80.860 C 143.556 81.008,142.951 81.290,142.521 81.486 C 140.572 82.373,138.951 84.033,138.193 85.916 C 137.970 86.468,137.921 86.901,137.807 89.274 C 137.736 90.772,137.655 92.138,137.627 92.310 L 137.577 92.622 147.168 92.622 L 156.760 92.622 156.571 92.987 C 155.814 94.451,157.717 96.142,158.909 95.064 L 159.137 94.857 159.137 99.982 L 159.137 105.108 156.307 105.108 L 153.477 105.108 153.441 101.050 L 153.405 96.992 153.106 96.354 C 152.685 95.457,152.085 94.841,151.210 94.411 L 150.459 94.041 146.879 94.041 L 143.298 94.041 142.547 94.411 C 141.672 94.841,141.072 95.457,140.651 96.354 L 140.352 96.992 140.352 119.072 L 140.352 141.151 140.722 141.903 C 141.152 142.777,141.768 143.378,142.665 143.799 L 143.303 144.098 146.879 144.098 L 150.454 144.098 151.092 143.799 C 151.989 143.378,152.605 142.777,153.035 141.903 L 153.405 141.151 153.437 131.302 L 153.469 121.453 155.509 121.453 L 157.548 121.453 157.548 122.361 L 157.548 123.269 163.451 123.269 L 169.353 123.269 169.353 125.303 L 169.353 127.338 169.012 127.678 C 168.557 128.133,168.554 128.617,169.004 129.067 L 169.336 129.398 171.737 129.398 L 174.138 129.398 174.470 129.067 C 174.919 128.617,174.916 128.133,174.461 127.678 C 174.274 127.491,174.120 127.319,174.120 127.297 C 174.120 127.274,174.648 127.508,175.294 127.816 C 179.449 129.801,182.325 129.274,188.146 125.460 C 191.646 123.168,193.129 122.496,195.270 122.232 C 196.298 122.106,212.067 122.478,213.252 122.656 L 213.621 122.712 213.621 125.025 L 213.621 127.338 213.280 127.678 C 212.804 128.155,212.801 128.823,213.272 129.294 L 213.603 129.625 216.005 129.625 L 218.406 129.625 218.737 129.294 C 219.209 128.823,219.205 128.155,218.729 127.678 L 218.388 127.338 218.388 125.076 C 218.388 123.047,218.407 122.815,218.576 122.815 C 219.054 122.815,229.013 123.154,229.992 123.203 L 231.096 123.259 232.050 122.356 L 233.005 121.453 234.206 121.453 L 235.407 121.453 235.439 131.356 L 235.471 141.260 235.772 141.901 C 236.154 142.717,236.851 143.414,237.668 143.797 L 238.309 144.098 241.998 144.098 L 245.687 144.098 246.328 143.797 C 247.144 143.414,247.841 142.717,248.224 141.901 L 248.524 141.260 248.524 119.069 L 248.524 96.879 248.224 96.237 C 247.841 95.421,247.144 94.724,246.328 94.341 L 245.687 94.041 241.998 94.041 L 238.309 94.041 237.668 94.341 C 236.851 94.724,236.154 95.421,235.772 96.237 L 235.471 96.879 235.435 100.823 L 235.399 104.767 233.437 104.767 C 232.358 104.767,231.085 104.800,230.607 104.841 L 229.739 104.914 229.739 100.023 L 229.739 95.133 230.051 95.295 C 231.495 96.049,233.073 94.298,232.137 92.982 L 231.880 92.622 241.479 92.622 L 251.078 92.622 251.076 92.310 C 251.033 86.825,250.569 85.095,248.624 83.162 C 247.994 82.536,246.306 81.385,246.018 81.385 C 245.945 81.385,245.815 81.300,245.729 81.197 C 245.454 80.864,244.694 80.595,244.023 80.593 L 243.380 80.590 243.305 79.597 C 243.263 79.051,243.156 78.132,243.067 77.555 C 242.895 76.437,242.831 70.598,242.991 70.605 C 243.038 70.607,243.175 70.684,243.296 70.775 C 243.670 71.058,244.535 70.989,244.944 70.645 C 245.573 70.116,245.630 69.885,245.630 67.883 L 245.630 66.061 245.054 66.061 L 244.479 66.061 244.545 65.465 C 244.581 65.138,244.819 61.856,245.073 58.173 C 245.328 54.489,245.550 51.461,245.567 51.444 C 245.585 51.426,246.053 51.361,246.608 51.298 C 249.237 51.001,249.547 50.395,249.542 45.573 C 249.536 40.260,248.998 39.670,244.353 39.874 L 242.906 39.938 242.906 32.228 L 242.906 24.518 243.206 24.518 C 244.224 24.518,242.786 21.005,241.240 19.719 C 238.931 17.797,237.559 17.629,223.439 17.536 C 217.821 17.499,210.848 17.421,207.946 17.364 C 202.603 17.258,178.238 17.141,175.312 17.207 M208.400 18.050 C 211.989 18.117,219.600 18.217,225.312 18.271 C 237.438 18.386,237.899 18.431,240.026 19.705 C 241.458 20.563,242.792 22.511,242.792 23.744 C 242.792 23.795,221.206 23.837,194.823 23.837 L 146.853 23.837 146.932 23.411 C 147.268 21.602,149.161 19.892,151.494 19.290 C 153.678 18.726,163.332 18.158,175.312 17.889 C 178.532 17.816,202.076 17.931,208.400 18.050 M345.006 19.068 C 354.902 19.291,363.638 19.722,372.751 20.437 C 374.339 20.561,375.664 20.689,375.695 20.720 C 375.776 20.801,381.709 54.530,381.653 54.590 C 381.627 54.618,380.573 54.578,379.311 54.503 C 371.802 54.054,361.760 53.577,359.743 53.574 C 359.191 53.573,358.681 53.534,358.609 53.488 C 358.537 53.442,360.912 52.826,363.887 52.120 L 369.296 50.834 371.396 50.960 C 372.551 51.030,374.327 51.161,375.342 51.253 C 377.784 51.472,377.639 51.482,377.639 51.094 C 377.639 50.773,377.629 50.768,376.816 50.695 C 367.886 49.889,360.604 49.889,351.674 50.695 C 351.023 50.754,350.852 50.807,350.853 50.952 C 350.858 51.437,350.937 51.448,353.077 51.261 C 357.089 50.911,366.470 50.570,366.277 50.781 C 366.239 50.822,363.788 51.432,360.829 52.136 L 355.448 53.417 352.497 53.336 C 341.982 53.048,324.413 53.109,313.749 53.469 C 311.853 53.534,310.285 53.569,310.265 53.549 C 310.245 53.529,312.613 52.901,315.528 52.153 L 320.829 50.795 324.915 50.808 C 329.032 50.822,331.617 50.934,335.339 51.260 C 336.452 51.358,337.380 51.420,337.401 51.400 C 337.422 51.379,337.472 51.229,337.513 51.067 L 337.587 50.772 336.075 50.638 C 327.607 49.889,320.356 49.906,311.606 50.695 C 310.784 50.769,310.783 50.769,310.783 51.110 L 310.783 51.451 311.549 51.381 C 313.799 51.172,316.834 50.954,317.041 50.986 C 317.171 51.005,314.893 51.626,311.979 52.364 L 306.681 53.706 303.312 53.865 C 299.817 54.029,292.295 54.441,290.267 54.579 C 289.430 54.636,289.103 54.622,289.103 54.530 C 289.103 54.325,294.437 20.735,294.476 20.696 C 294.521 20.651,300.244 20.212,303.802 19.981 C 317.311 19.102,332.026 18.776,345.006 19.068 M242.225 32.284 L 242.225 40.049 241.806 40.257 C 240.883 40.717,240.655 41.576,240.561 44.949 C 240.452 48.839,240.825 50.618,241.823 50.979 C 242.678 51.288,242.321 51.441,240.942 51.356 L 239.660 51.277 236.516 53.573 L 233.371 55.869 233.371 56.992 L 233.371 58.116 194.892 58.116 L 156.413 58.116 156.413 56.982 L 156.413 55.848 153.180 53.690 C 150.376 51.819,149.888 51.532,149.508 51.532 C 149.267 51.532,148.679 51.499,148.201 51.459 L 147.333 51.386 147.333 37.952 L 147.333 24.518 194.779 24.518 L 242.225 24.518 242.225 32.284 M177.639 24.978 C 176.737 25.175,175.937 25.189,165.267 25.194 L 153.859 25.199 152.781 25.487 C 150.766 26.025,150.009 27.060,149.374 30.147 C 149.012 31.905,149.031 44.272,149.398 46.158 L 149.648 47.440 150.571 48.358 C 151.479 49.261,151.517 49.285,152.865 49.771 L 154.235 50.266 160.233 50.339 C 163.532 50.379,181.386 50.536,199.907 50.687 L 233.583 50.963 234.981 50.631 L 236.379 50.299 237.104 49.525 C 237.650 48.941,237.961 48.468,238.369 47.597 L 238.910 46.442 238.689 37.778 L 238.469 29.115 238.074 28.088 C 237.531 26.677,236.680 25.998,234.847 25.515 L 233.655 25.200 224.830 25.200 C 217.222 25.199,216.005 25.176,216.005 25.035 C 216.005 24.749,215.825 24.740,214.698 24.972 C 212.965 25.328,179.001 25.328,179.001 24.972 C 179.001 24.699,178.918 24.699,177.639 24.978 M169.750 26.618 L 166.345 27.338 161.493 27.421 L 156.640 27.505 156.640 27.841 L 156.640 28.177 162.684 28.106 C 166.009 28.067,171.372 28.004,174.603 27.965 L 180.477 27.895 180.477 27.552 L 180.477 27.209 175.170 27.292 C 172.252 27.338,169.889 27.351,169.921 27.322 C 169.952 27.292,171.486 26.956,173.330 26.574 L 176.682 25.879 193.364 25.908 L 210.045 25.936 206.583 26.645 L 203.121 27.353 198.383 27.429 L 193.644 27.505 193.644 27.841 L 193.644 28.177 199.518 28.107 C 202.748 28.069,208.112 28.005,211.436 27.966 L 217.480 27.895 217.480 27.552 L 217.480 27.208 212.117 27.277 L 206.754 27.346 210.159 26.617 L 213.564 25.888 223.534 25.884 C 233.168 25.880,233.535 25.887,234.431 26.109 C 236.225 26.554,236.939 27.086,237.444 28.354 L 237.792 29.228 238.009 37.797 L 238.226 46.367 237.674 47.445 C 236.749 49.252,236.311 49.630,234.733 49.988 L 233.428 50.284 193.927 49.948 L 154.427 49.612 153.225 49.182 C 152.121 48.787,151.951 48.684,151.149 47.935 L 150.276 47.120 150.053 45.949 C 149.746 44.339,149.711 32.048,150.009 30.429 C 150.389 28.360,150.686 27.651,151.447 26.986 C 152.742 25.855,152.185 25.905,163.451 25.902 L 173.156 25.899 169.750 26.618 M14.047 46.501 L 14.018 66.441 10.125 67.382 C 5.685 68.456,5.254 68.629,4.086 69.803 C 2.459 71.439,2.274 72.235,2.272 77.611 L 2.270 81.725 1.249 81.725 L 0.227 81.725 0.227 83.882 C 0.227 85.244,0.269 86.039,0.341 86.039 C 0.416 86.039,0.454 95.602,0.454 114.501 C 0.454 146.342,0.378 143.521,1.249 143.956 C 1.853 144.258,10.406 144.258,11.010 143.956 C 11.844 143.539,11.804 144.046,11.805 133.784 L 11.805 124.606 13.990 124.674 C 15.192 124.712,17.535 124.774,19.197 124.813 L 22.219 124.883 22.294 123.764 C 22.335 123.148,22.396 122.459,22.429 122.233 L 22.490 121.822 23.475 121.753 C 24.017 121.716,25.661 121.672,27.128 121.656 L 29.796 121.627 29.753 124.264 L 29.711 126.901 30.179 126.901 L 30.647 126.901 30.647 127.469 L 30.647 128.036 32.577 128.036 L 34.506 128.036 34.506 127.469 C 34.506 126.914,34.514 126.901,34.847 126.901 L 35.187 126.901 35.187 124.320 L 35.187 121.739 35.716 122.532 C 38.553 126.789,42.788 129.374,46.311 128.999 C 49.224 128.689,51.076 127.594,54.523 124.141 C 57.965 120.694,58.261 120.596,64.245 120.928 C 66.024 121.026,69.012 121.161,70.885 121.226 C 72.758 121.292,74.859 121.374,75.554 121.410 L 76.817 121.474 76.757 124.187 L 76.698 126.901 77.282 126.901 L 77.866 126.901 77.866 127.469 L 77.866 128.036 79.682 128.036 L 81.498 128.036 81.498 127.469 C 81.498 126.914,81.506 126.901,81.839 126.901 L 82.179 126.901 82.179 124.234 L 82.179 121.566 84.818 121.562 L 87.457 121.558 88.876 123.023 L 90.295 124.488 93.927 124.395 C 95.925 124.344,98.236 124.286,99.064 124.265 L 100.568 124.227 100.568 133.595 C 100.568 142.286,100.582 142.991,100.766 143.360 C 101.159 144.145,101.218 144.154,106.243 144.154 C 111.268 144.154,111.327 144.145,111.719 143.360 C 111.907 142.985,111.918 141.370,111.918 114.501 C 111.918 95.602,111.956 86.039,112.032 86.039 C 112.103 86.039,112.145 85.244,112.145 83.882 L 112.145 81.725 111.124 81.725 L 110.102 81.725 110.102 77.606 C 110.102 72.242,109.936 71.568,108.177 69.796 C 106.965 68.575,106.570 68.417,102.072 67.352 L 98.299 66.459 98.298 46.510 L 98.297 26.561 56.186 26.561 L 14.076 26.561 14.047 46.501 M97.616 46.096 L 97.616 64.951 97.126 64.286 C 96.114 62.912,94.506 61.836,92.892 61.452 C 92.125 61.270,22.585 61.399,20.488 61.587 C 18.319 61.781,16.134 63.035,15.078 64.693 L 14.756 65.198 14.756 46.220 L 14.756 27.242 56.186 27.242 L 97.616 27.242 97.616 46.096 M15.437 40.976 L 15.437 54.257 56.073 54.257 L 96.708 54.257 96.708 40.976 L 96.708 27.696 56.073 27.696 L 15.437 27.696 15.437 40.976 M96.027 40.976 L 96.027 53.575 56.073 53.575 L 16.118 53.575 16.118 40.976 L 16.118 28.377 56.073 28.377 L 96.027 28.377 96.027 40.976 M17.026 40.976 L 17.026 53.121 36.209 53.121 L 55.392 53.121 55.392 40.976 L 55.392 28.831 36.209 28.831 L 17.026 28.831 17.026 40.976 M56.981 40.976 L 56.981 53.121 76.163 53.121 L 95.346 53.121 95.346 40.976 L 95.346 28.831 76.163 28.831 L 56.981 28.831 56.981 40.976 M54.711 40.976 C 54.711 53.669,54.763 52.930,53.949 51.727 C 48.559 43.768,35.961 43.737,30.647 51.671 L 30.136 52.433 23.922 52.437 L 17.707 52.440 17.707 40.976 L 17.707 29.512 36.209 29.512 L 54.711 29.512 54.711 40.976 M94.665 40.976 L 94.665 52.440 76.163 52.440 L 57.662 52.440 57.662 40.976 L 57.662 29.512 76.163 29.512 L 94.665 29.512 94.665 40.976 M247.154 40.681 C 248.636 40.924,248.868 41.601,248.862 45.687 C 248.857 49.962,248.673 50.362,246.597 50.613 C 245.474 50.749,245.570 50.958,245.727 48.724 C 245.800 47.678,245.859 46.145,245.859 45.318 L 245.857 43.814 245.516 43.814 L 245.176 43.814 245.167 45.602 C 245.161 46.585,245.098 48.130,245.025 49.035 L 244.892 50.681 244.154 50.653 C 243.014 50.609,242.037 50.402,241.815 50.156 C 241.008 49.265,241.012 41.910,241.820 41.103 C 242.341 40.582,245.177 40.358,247.154 40.681 M244.694 41.498 L 244.268 41.681 244.268 44.223 L 244.268 46.765 244.608 46.765 L 244.949 46.765 244.949 44.440 L 244.949 42.116 245.233 42.044 C 245.389 42.005,245.644 42.005,245.800 42.044 L 246.084 42.116 246.084 44.440 L 246.084 46.765 246.425 46.765 L 246.765 46.765 246.765 44.229 L 246.765 41.694 246.458 41.554 C 245.949 41.322,245.162 41.297,244.694 41.498 M279.725 44.666 L 280.265 45.292 280.595 49.178 C 280.777 51.316,280.927 53.180,280.928 53.320 L 280.931 53.575 283.040 53.575 L 285.149 53.575 285.084 53.888 C 285.009 54.251,284.678 56.321,284.677 56.432 C 284.674 56.862,283.690 57.208,282.465 57.208 L 281.206 57.208 280.647 57.775 L 280.088 58.343 276.451 58.339 L 272.815 58.335 272.049 57.602 L 271.283 56.869 271.283 51.217 L 271.283 45.566 271.916 44.803 L 272.548 44.041 275.867 44.041 L 279.185 44.041 279.725 44.666 M398.441 44.801 L 399.092 45.562 399.084 51.243 L 399.076 56.924 398.261 57.632 L 397.446 58.341 393.879 58.342 L 390.313 58.343 389.660 57.775 L 389.008 57.208 387.438 57.206 C 386.575 57.205,385.798 57.160,385.711 57.105 C 385.572 57.016,385.148 54.609,385.135 53.831 L 385.131 53.575 387.225 53.575 L 389.320 53.575 389.379 53.207 C 389.440 52.833,390.013 45.846,390.012 45.497 C 390.012 45.393,390.272 45.023,390.590 44.674 L 391.169 44.041 394.479 44.041 L 397.790 44.041 398.441 44.801 M43.757 46.429 C 46.738 46.766,49.473 48.045,51.632 50.111 C 52.479 50.922,53.575 52.199,53.575 52.375 C 53.575 52.411,48.490 52.440,42.275 52.440 L 30.975 52.440 31.180 52.088 C 33.266 48.498,39.050 45.896,43.757 46.429 M244.815 51.477 C 244.855 51.514,243.973 64.488,243.864 65.465 L 243.798 66.061 243.352 66.061 L 242.906 66.061 242.906 58.649 L 242.906 51.237 243.842 51.340 C 244.357 51.397,244.795 51.459,244.815 51.477 M158.237 51.958 C 157.467 52.351,157.382 52.593,157.342 54.520 C 157.301 56.472,157.418 56.827,158.232 57.236 C 158.845 57.544,219.588 57.544,220.202 57.236 C 221.543 56.562,221.539 52.643,220.196 51.958 C 219.592 51.650,158.842 51.650,158.237 51.958 M222.483 51.958 C 221.695 52.360,221.623 52.580,221.623 54.597 C 221.623 57.525,221.454 57.434,226.901 57.434 C 232.359 57.434,232.277 57.479,232.215 54.520 C 232.156 51.677,232.315 51.760,226.901 51.760 C 223.289 51.760,222.831 51.780,222.483 51.958 M241.356 52.060 L 242.225 52.133 242.225 55.124 L 242.225 58.116 238.138 58.116 L 234.052 58.116 234.052 57.166 L 234.052 56.216 236.918 54.109 C 240.042 51.813,239.793 51.928,241.356 52.060 M152.750 54.235 L 155.732 56.223 155.732 57.169 L 155.732 58.116 151.532 58.116 L 147.333 58.116 147.333 55.100 L 147.333 52.085 148.551 52.166 L 149.769 52.248 152.750 54.235 M220.153 52.719 C 220.422 52.988,220.431 53.050,220.431 54.597 C 220.431 56.144,220.422 56.206,220.153 56.475 L 219.874 56.754 189.217 56.754 L 158.559 56.754 158.281 56.475 C 158.011 56.206,158.002 56.144,158.002 54.597 C 158.002 53.050,158.011 52.988,158.281 52.719 L 158.559 52.440 189.217 52.440 L 219.874 52.440 220.153 52.719 M231.276 52.719 C 231.546 52.988,231.555 53.050,231.555 54.597 C 231.555 56.144,231.546 56.206,231.276 56.475 L 230.998 56.754 226.901 56.754 L 222.805 56.754 222.526 56.475 C 222.257 56.206,222.247 56.144,222.247 54.597 C 222.247 53.050,222.257 52.988,222.526 52.719 L 222.805 52.440 226.901 52.440 L 230.998 52.440 231.276 52.719 M353.292 54.026 C 355.976 54.093,358.390 54.176,358.655 54.209 L 359.137 54.270 359.137 56.988 L 359.137 59.705 356.472 59.705 L 353.807 59.705 351.094 58.910 L 348.381 58.116 335.579 58.116 L 322.777 58.116 320.120 59.024 L 317.462 59.932 314.577 59.932 L 311.691 59.932 311.691 57.104 L 311.691 54.276 312.117 54.213 C 312.476 54.160,316.162 54.067,325.766 53.869 C 329.205 53.799,348.621 53.909,353.292 54.026 M311.010 57.435 L 311.010 60.613 314.291 60.613 L 317.571 60.613 320.240 59.705 L 322.909 58.797 335.581 58.797 L 348.254 58.797 350.989 59.591 L 353.724 60.386 356.771 60.386 L 359.818 60.386 359.818 57.307 L 359.818 54.229 361.833 54.307 C 366.840 54.499,377.576 55.040,377.960 55.119 C 378.533 55.237,381.271 63.090,381.271 64.616 C 381.271 64.662,378.279 64.699,374.621 64.699 L 367.971 64.699 367.260 64.016 L 366.549 63.334 364.688 63.057 C 361.518 62.586,357.894 62.229,353.632 61.968 C 347.606 61.600,319.506 61.648,314.669 62.034 C 308.748 62.507,305.372 63.080,303.897 63.862 L 302.744 64.474 296.164 64.445 L 289.584 64.415 290.575 60.897 C 291.669 57.010,292.380 55.221,292.872 55.116 C 293.257 55.033,302.294 54.572,302.670 54.616 C 302.869 54.640,302.167 54.864,300.812 55.211 C 298.554 55.788,298.409 55.869,298.849 56.316 C 298.889 56.357,300.607 55.956,302.667 55.426 C 306.582 54.418,307.180 54.324,309.960 54.275 L 311.010 54.257 311.010 57.435 M155.732 59.412 L 155.732 60.027 152.708 61.581 L 149.683 63.135 148.508 63.055 L 147.333 62.975 147.333 60.886 L 147.333 58.797 151.532 58.797 L 155.732 58.797 155.732 59.412 M233.374 59.620 L 233.377 60.443 236.524 62.128 L 239.671 63.813 240.948 63.737 L 242.225 63.661 242.220 68.806 L 242.215 73.950 241.836 73.025 C 239.078 66.291,233.021 61.437,225.866 60.225 C 224.353 59.969,218.087 59.680,207.037 59.359 C 195.196 59.014,166.985 59.136,164.359 59.544 C 157.056 60.677,150.671 65.582,147.822 72.247 L 147.337 73.383 147.335 68.525 L 147.333 63.668 148.610 63.739 L 149.886 63.810 153.148 62.126 L 156.409 60.443 156.411 59.620 L 156.413 58.797 194.892 58.797 L 233.371 58.797 233.374 59.620 M242.225 60.886 L 242.225 62.975 241.046 63.055 L 239.867 63.135 236.960 61.579 L 234.052 60.023 234.052 59.410 L 234.052 58.797 238.138 58.797 L 242.225 58.797 242.225 60.886 M201.532 59.932 C 209.205 60.089,218.204 60.375,221.468 60.565 L 222.675 60.636 219.255 64.026 L 215.834 67.416 194.268 67.418 L 172.701 67.419 169.140 63.784 C 167.182 61.785,165.600 60.128,165.626 60.102 C 165.852 59.876,192.615 59.749,201.532 59.932 M168.262 63.850 L 171.872 67.541 171.105 68.759 C 170.684 69.429,170.279 70.043,170.206 70.123 C 170.084 70.259,164.359 60.612,164.359 60.269 C 164.359 59.926,164.989 60.504,168.262 63.850 M166.634 65.664 C 168.298 68.536,169.629 70.915,169.592 70.950 C 169.554 70.986,166.561 71.568,162.940 72.245 C 159.319 72.921,156.313 73.512,156.261 73.558 C 156.100 73.699,156.303 75.142,156.483 75.142 C 156.613 75.142,156.640 75.640,156.640 77.985 L 156.640 80.829 154.909 80.765 C 153.957 80.730,151.735 80.674,149.972 80.641 L 146.765 80.580 146.765 79.777 C 146.765 78.801,147.081 76.575,147.227 76.523 C 147.285 76.502,147.333 76.288,147.333 76.047 C 147.333 73.548,150.700 67.882,153.777 65.206 C 156.429 62.898,161.904 60.187,163.444 60.419 C 163.534 60.432,164.970 62.793,166.634 65.664 M223.965 60.783 C 223.969 60.933,218.931 70.149,218.849 70.143 C 218.814 70.140,218.581 69.874,218.331 69.552 C 218.082 69.229,217.626 68.640,217.319 68.243 L 216.760 67.521 220.213 64.065 C 223.311 60.964,223.955 60.401,223.965 60.783 M227.554 61.285 C 235.959 63.449,241.962 70.741,242.624 79.592 L 242.698 80.581 239.312 80.641 C 237.449 80.675,235.096 80.730,234.082 80.765 L 232.239 80.828 232.209 77.229 L 232.179 73.630 225.823 72.216 C 222.327 71.439,219.446 70.784,219.421 70.761 C 219.380 70.723,224.549 61.165,224.763 60.884 C 224.878 60.735,226.097 60.909,227.554 61.285 M388.210 63.933 C 388.386 65.509,388.531 66.885,388.533 66.990 C 388.535 67.112,388.124 67.429,387.395 67.870 L 386.255 68.558 384.160 68.558 L 382.066 68.558 382.066 66.969 L 382.066 65.380 383.286 65.376 L 384.506 65.372 386.147 63.167 C 387.049 61.954,387.811 60.985,387.839 61.014 C 387.868 61.042,388.035 62.356,388.210 63.933 M284.339 63.110 L 285.726 65.153 287.245 65.153 L 288.763 65.153 288.763 66.856 L 288.763 68.558 286.280 68.558 L 283.797 68.558 282.992 67.592 C 282.550 67.061,282.208 66.563,282.233 66.486 C 282.257 66.408,282.416 65.157,282.586 63.706 C 282.756 62.255,282.907 61.067,282.923 61.067 C 282.939 61.067,283.576 61.986,284.339 63.110 M92.849 62.143 C 94.452 62.567,96.080 63.781,96.901 65.165 C 97.687 66.489,97.494 66.509,96.225 65.235 C 95.207 64.213,94.317 63.691,93.190 63.455 C 92.724 63.358,83.260 63.334,56.016 63.359 L 19.467 63.394 18.785 63.666 C 17.796 64.062,16.990 64.610,16.174 65.442 C 15.478 66.152,14.985 66.408,15.147 65.976 C 15.682 64.547,17.169 63.223,18.987 62.559 L 19.807 62.259 26.163 62.225 C 78.394 61.944,92.035 61.927,92.849 62.143 M159.915 62.755 C 155.631 64.904,152.356 67.940,149.855 72.084 L 149.611 72.488 150.672 73.248 C 151.953 74.165,151.727 74.188,152.414 73.063 C 154.654 69.398,157.753 66.572,161.664 64.629 C 162.397 64.264,162.985 63.931,162.969 63.888 C 162.953 63.846,162.501 63.452,161.965 63.014 L 160.990 62.216 159.915 62.755 M192.963 64.472 L 192.963 66.742 193.303 66.742 L 193.644 66.742 193.644 64.813 L 193.644 62.883 194.325 62.883 L 195.006 62.883 195.006 64.756 L 195.006 66.629 195.346 66.629 L 195.687 66.629 195.687 64.415 L 195.687 62.202 194.325 62.202 L 192.963 62.202 192.963 64.472 M350.015 62.548 C 355.620 62.704,359.489 63.013,364.377 63.696 L 366.155 63.944 366.931 64.657 L 367.707 65.370 374.546 65.375 L 381.385 65.380 381.385 66.969 L 381.385 68.558 374.317 68.558 L 367.250 68.558 365.300 67.423 L 363.351 66.288 335.203 66.288 L 307.055 66.288 305.102 67.423 L 303.149 68.558 296.297 68.558 L 289.444 68.558 289.444 66.856 L 289.444 65.153 296.209 65.153 L 302.974 65.153 304.069 64.540 C 305.850 63.543,312.296 62.671,319.580 62.441 C 323.000 62.333,345.106 62.411,350.015 62.548 M226.862 63.309 C 225.910 64.137,225.872 64.187,226.124 64.286 C 230.663 66.080,234.736 69.421,237.114 73.301 C 237.361 73.704,237.524 73.869,237.611 73.802 C 239.067 72.691,239.614 72.260,239.614 72.224 C 239.614 72.200,239.362 71.806,239.053 71.349 C 236.711 67.878,233.304 64.936,229.569 63.158 C 227.806 62.319,228.015 62.307,226.862 63.309 M161.617 63.822 C 161.533 63.871,160.869 64.247,160.142 64.657 C 156.976 66.442,154.191 69.056,152.218 72.094 L 151.580 73.075 151.048 72.680 L 150.515 72.286 150.926 71.642 C 153.037 68.336,156.170 65.482,159.743 63.612 L 160.879 63.017 161.324 63.375 C 161.653 63.639,161.729 63.756,161.617 63.822 M229.200 63.728 C 232.189 65.166,234.923 67.276,236.959 69.718 C 238.016 70.985,238.762 72.084,238.627 72.176 C 238.570 72.215,238.332 72.395,238.100 72.575 C 237.868 72.756,237.662 72.884,237.642 72.859 C 237.622 72.835,237.391 72.494,237.127 72.101 C 235.115 69.101,231.957 66.359,228.524 64.632 L 227.140 63.935 227.560 63.585 C 228.088 63.145,227.966 63.135,229.200 63.728 M93.984 64.428 C 94.751 64.795,96.027 65.740,95.840 65.802 C 95.781 65.822,94.331 65.495,92.617 65.076 C 89.850 64.400,89.380 64.316,88.422 64.321 C 85.925 64.336,83.507 65.836,82.401 68.056 C 82.185 68.488,81.992 68.867,81.972 68.898 C 81.952 68.929,81.880 68.855,81.812 68.734 C 81.522 68.215,80.757 67.533,80.048 67.162 C 78.435 66.317,79.030 66.360,68.246 66.318 C 62.146 66.294,58.570 66.239,58.570 66.171 C 58.570 66.110,58.621 66.061,58.683 66.061 C 58.748 66.061,58.797 65.721,58.797 65.267 L 58.797 64.472 56.073 64.472 L 53.348 64.472 53.348 65.267 C 53.348 65.986,53.370 66.061,53.575 66.061 C 53.700 66.061,53.802 66.110,53.802 66.170 C 53.802 66.239,50.437 66.293,44.750 66.315 C 35.799 66.350,35.688 66.353,34.804 66.602 C 33.036 67.100,31.275 68.221,30.766 69.172 C 30.544 69.587,30.487 69.549,30.262 68.835 C 29.792 67.343,28.326 65.746,26.731 64.988 C 24.814 64.077,23.769 64.084,19.878 65.030 C 18.295 65.416,16.976 65.709,16.949 65.682 C 16.878 65.610,17.810 64.876,18.275 64.637 C 19.558 63.978,16.352 64.027,56.583 64.052 L 93.246 64.075 93.984 64.428 M25.709 65.287 C 28.885 66.343,29.966 68.348,29.966 73.179 L 29.966 76.050 28.108 76.050 L 26.250 76.050 26.404 75.397 C 27.343 71.404,23.740 67.665,19.750 68.493 C 16.526 69.162,14.513 72.252,15.254 75.397 L 15.407 76.050 15.071 76.050 L 14.735 76.050 14.782 72.787 C 14.835 69.103,15.173 67.479,16.035 66.764 C 16.162 66.659,21.699 65.267,23.042 65.002 C 23.557 64.901,25.017 65.057,25.709 65.287 M92.620 65.786 C 94.338 66.195,95.935 66.580,96.169 66.640 C 97.211 66.911,97.530 68.243,97.587 72.560 L 97.634 76.050 97.271 76.050 C 96.947 76.050,96.917 76.023,96.991 75.795 C 97.807 73.258,96.405 70.123,93.927 68.943 C 89.478 66.825,84.737 70.880,85.983 75.738 L 86.063 76.050 84.121 76.050 L 82.179 76.050 82.186 75.341 C 82.247 68.358,83.218 66.247,86.838 65.225 C 88.278 64.819,88.756 64.865,92.620 65.786 M58.116 65.267 C 58.116 65.329,58.065 65.380,58.002 65.380 C 57.940 65.380,57.889 65.585,57.889 65.834 L 57.889 66.288 56.186 66.288 L 54.484 66.288 54.484 65.834 C 54.484 65.456,54.446 65.380,54.257 65.380 C 54.132 65.380,54.030 65.329,54.030 65.267 C 54.030 65.195,54.786 65.153,56.073 65.153 C 57.359 65.153,58.116 65.195,58.116 65.267 M244.949 68.223 C 244.949 69.931,244.795 70.261,243.998 70.261 C 243.194 70.261,243.008 69.613,243.207 67.509 L 243.279 66.742 244.114 66.742 L 244.949 66.742 244.949 68.223 M14.940 67.271 L 14.765 67.594 14.761 67.291 C 14.758 67.124,14.820 66.965,14.898 66.938 C 15.119 66.858,15.128 66.924,14.940 67.271 M77.956 67.147 C 79.888 67.541,81.246 68.555,81.542 69.828 C 81.581 69.996,81.510 77.453,81.386 86.400 C 81.261 95.347,81.159 102.757,81.158 102.866 C 81.158 103.055,79.879 103.065,55.901 103.065 L 30.644 103.065 30.674 86.918 L 30.704 70.772 31.011 70.117 C 31.713 68.618,33.662 67.414,35.922 67.081 C 37.202 66.893,77.014 66.956,77.956 67.147 M364.983 68.034 L 366.799 69.096 366.828 76.693 L 366.857 84.291 366.317 84.484 C 365.500 84.777,304.770 84.783,304.004 84.491 L 303.517 84.305 303.546 76.705 L 303.575 69.105 305.392 68.039 L 307.208 66.974 335.187 66.973 L 363.167 66.971 364.983 68.034 M14.075 71.623 L 14.075 76.050 13.493 76.050 L 12.911 76.050 12.983 75.504 C 13.131 74.388,12.687 73.103,11.859 72.251 C 9.200 69.515,4.475 71.799,4.999 75.568 L 5.066 76.050 4.009 76.050 L 2.951 76.050 2.951 74.768 C 2.951 72.139,4.095 70.070,6.038 69.185 C 6.567 68.945,13.356 67.230,13.876 67.206 C 14.062 67.197,14.075 67.479,14.075 71.623 M102.056 68.047 C 106.119 69.017,106.679 69.233,107.661 70.204 C 108.909 71.438,109.421 72.784,109.421 74.825 L 109.421 76.050 108.371 76.050 L 107.321 76.050 107.321 75.054 C 107.320 70.808,101.627 69.486,99.713 73.288 C 99.416 73.877,99.379 74.066,99.377 75.000 L 99.376 76.050 98.837 76.050 L 98.297 76.050 98.297 71.623 C 98.297 69.188,98.342 67.196,98.396 67.196 C 98.450 67.196,100.097 67.579,102.056 68.047 M282.584 68.164 C 282.879 68.509,283.100 68.809,283.075 68.832 C 282.759 69.119,280.589 69.988,280.648 69.804 C 280.750 69.482,281.882 67.547,281.972 67.541 C 282.014 67.539,282.289 67.819,282.584 68.164 M389.579 68.303 L 390.104 68.842 390.289 70.227 C 390.695 73.256,390.830 75.272,390.863 78.782 C 390.893 81.969,390.922 82.459,391.127 83.209 C 391.435 84.334,391.600 85.499,391.600 86.543 L 391.600 87.401 335.301 87.401 C 281.757 87.401,279.001 87.391,279.003 87.202 C 279.009 86.635,279.257 84.695,279.467 83.573 L 279.706 82.299 281.024 83.374 L 282.342 84.449 292.590 84.449 C 301.087 84.449,302.838 84.476,302.838 84.602 C 302.838 84.686,303.184 84.890,303.607 85.056 L 304.376 85.358 335.190 85.354 L 366.005 85.350 366.856 85.014 L 367.707 84.677 377.811 84.677 L 387.915 84.677 389.180 83.650 L 390.445 82.623 390.528 81.522 C 390.637 80.069,390.496 73.508,390.320 71.850 L 390.182 70.545 388.548 69.745 L 386.915 68.946 387.867 68.364 C 389.039 67.649,388.947 67.653,389.579 68.303 M217.615 69.735 L 218.899 71.367 225.227 72.772 C 229.461 73.712,231.554 74.224,231.555 74.319 C 231.555 74.577,211.930 74.521,211.848 74.262 C 211.177 72.139,209.822 71.424,205.675 71.007 C 196.311 70.063,189.000 70.081,182.577 71.063 C 179.081 71.597,177.801 72.215,176.971 73.772 L 176.604 74.462 166.764 74.433 C 158.227 74.408,156.924 74.382,156.924 74.238 C 156.924 74.109,158.383 73.797,163.521 72.826 L 170.118 71.580 170.839 70.438 C 171.235 69.810,171.728 69.028,171.935 68.700 L 172.311 68.104 194.321 68.104 L 216.332 68.104 217.615 69.735 M21.623 69.124 C 24.628 69.613,26.510 72.649,25.651 75.624 L 25.528 76.050 20.834 76.050 L 16.140 76.050 16.007 75.681 C 14.773 72.264,17.971 68.531,21.623 69.124 M92.346 69.136 C 95.315 69.678,97.354 73.105,96.274 75.738 L 96.146 76.050 91.487 76.050 L 86.828 76.050 86.719 75.765 C 85.389 72.267,88.625 68.456,92.346 69.136 M307.321 70.021 L 305.619 71.008 305.589 77.275 L 305.560 83.541 335.187 83.541 L 364.815 83.541 364.785 77.276 L 364.756 71.010 363.053 70.016 L 361.351 69.022 335.187 69.028 L 309.024 69.033 307.321 70.021 M302.838 76.504 L 302.838 83.768 292.720 83.768 L 282.603 83.768 281.556 82.927 C 280.558 82.124,280.507 82.061,280.437 81.549 C 280.290 80.482,279.862 80.590,284.222 80.590 L 288.082 80.590 288.082 76.050 L 288.082 71.510 284.393 71.510 L 280.704 71.510 280.704 71.139 C 280.704 70.777,280.740 70.750,282.208 70.010 L 283.712 69.253 293.275 69.246 L 302.838 69.240 302.838 76.504 M387.810 70.119 C 389.524 70.982,389.556 71.006,389.557 71.368 L 389.557 71.737 385.812 71.737 L 382.066 71.737 382.066 76.277 L 382.066 80.817 385.982 80.817 C 390.407 80.817,389.971 80.708,389.824 81.776 C 389.754 82.288,389.704 82.351,388.705 83.154 L 387.659 83.995 377.598 83.995 L 367.537 83.995 367.537 76.617 L 367.537 69.240 376.800 69.240 L 386.063 69.240 387.810 70.119 M293.782 69.631 C 289.194 70.742,286.967 76.377,289.556 80.323 C 293.416 86.205,302.536 83.524,302.543 76.504 C 302.549 71.897,298.273 68.544,293.782 69.631 M362.620 70.559 L 364.132 71.424 364.108 74.333 C 364.095 75.933,364.067 76.718,364.047 76.078 L 364.010 74.915 351.943 74.915 C 340.020 74.915,339.874 74.912,339.671 74.688 C 339.466 74.461,339.473 74.461,351.685 74.461 L 363.905 74.461 363.905 74.120 L 363.905 73.780 351.075 73.780 L 338.245 73.780 337.539 73.529 C 336.934 73.313,336.597 73.278,335.187 73.278 C 333.777 73.278,333.440 73.313,332.836 73.529 L 332.130 73.780 319.186 73.780 L 306.243 73.780 306.243 72.609 L 306.243 71.438 307.747 70.568 L 309.251 69.698 335.180 69.696 L 361.109 69.694 362.620 70.559 M372.985 69.872 C 367.569 71.295,365.874 78.097,369.978 81.936 C 373.670 85.390,379.861 83.777,381.464 78.944 C 383.197 73.719,378.298 68.477,372.985 69.872 M297.477 70.430 C 302.481 72.011,303.483 78.706,299.169 81.735 C 296.081 83.904,291.561 82.829,289.876 79.525 C 287.249 74.377,291.996 68.699,297.477 70.430 M53.652 70.442 C 50.178 71.070,50.391 73.099,53.973 73.492 C 54.347 73.533,54.795 73.594,54.969 73.626 L 55.283 73.685 54.912 73.932 C 54.707 74.068,54.425 74.406,54.285 74.684 L 54.030 75.190 54.030 87.628 L 54.030 100.065 54.285 100.571 C 55.037 102.060,57.108 102.060,57.860 100.571 L 58.116 100.065 58.116 87.628 L 58.116 75.190 57.860 74.684 C 57.720 74.406,57.437 74.067,57.231 73.930 L 56.857 73.682 57.401 73.615 C 60.449 73.242,61.795 72.356,60.848 71.348 C 59.985 70.429,56.294 69.964,53.652 70.442 M376.706 70.657 C 381.701 72.235,382.714 78.931,378.413 81.951 C 374.728 84.539,369.677 82.636,368.551 78.234 C 367.327 73.447,371.947 69.154,376.706 70.657 M58.413 71.117 C 60.777 71.527,60.978 72.224,58.870 72.703 C 55.521 73.465,50.031 72.389,52.485 71.452 C 53.785 70.955,56.573 70.798,58.413 71.117 M196.708 71.056 C 207.189 71.477,210.563 72.172,211.043 74.008 C 211.102 74.233,211.013 74.234,194.314 74.234 C 182.738 74.234,177.526 74.197,177.526 74.115 C 177.526 73.859,178.575 72.895,179.174 72.602 C 181.459 71.483,189.559 70.769,196.708 71.056 M10.567 72.103 C 11.707 72.776,12.299 73.783,12.303 75.056 C 12.306 76.115,12.508 76.058,8.903 76.023 L 5.732 75.993 5.674 75.539 C 5.328 72.833,8.285 70.756,10.567 72.103 M104.711 72.007 C 106.077 72.651,106.864 74.085,106.647 75.534 L 106.570 76.050 103.344 76.050 L 100.118 76.050 100.044 75.756 C 99.405 73.211,102.312 70.875,104.711 72.007 M287.401 76.050 L 287.401 79.909 283.865 79.909 L 280.330 79.909 280.404 76.419 C 280.444 74.499,280.509 72.762,280.547 72.560 L 280.616 72.191 284.008 72.191 L 287.401 72.191 287.401 76.050 M389.714 72.787 C 389.752 72.990,389.817 74.726,389.857 76.646 L 389.931 80.136 386.339 80.136 L 382.747 80.136 382.747 76.277 L 382.747 72.418 386.196 72.418 L 389.645 72.418 389.714 72.787 M34.790 73.766 C 34.250 74.014,34.008 74.267,33.773 74.830 C 33.619 75.198,33.598 76.747,33.598 87.657 L 33.598 100.065 33.854 100.571 C 34.606 102.060,36.677 102.060,37.429 100.571 L 37.684 100.065 37.682 87.632 C 37.680 75.810,37.669 75.176,37.471 74.745 C 36.993 73.704,35.841 73.284,34.790 73.766 M39.784 73.766 C 39.244 74.014,39.002 74.267,38.767 74.830 C 38.614 75.198,38.593 76.747,38.593 87.657 L 38.593 100.065 38.848 100.571 C 39.600 102.060,41.671 102.060,42.423 100.571 L 42.679 100.065 42.676 87.632 C 42.674 75.810,42.664 75.176,42.465 74.745 C 41.987 73.704,40.835 73.284,39.784 73.766 M45.006 73.766 C 44.466 74.014,44.224 74.267,43.988 74.830 C 43.835 75.198,43.814 76.747,43.814 87.657 L 43.814 100.065 44.069 100.571 C 44.822 102.060,46.892 102.060,47.645 100.571 L 47.900 100.065 47.898 87.632 C 47.895 75.810,47.885 75.176,47.687 74.745 C 47.209 73.704,46.057 73.284,45.006 73.766 M50.000 73.766 C 49.460 74.014,49.218 74.267,48.983 74.830 C 48.829 75.198,48.808 76.747,48.808 87.657 L 48.808 100.065 49.064 100.571 C 49.816 102.060,51.887 102.060,52.639 100.571 L 52.894 100.065 52.892 87.632 C 52.890 75.810,52.879 75.176,52.681 74.745 C 52.203 73.704,51.051 73.284,50.000 73.766 M60.329 73.767 C 59.780 74.021,59.434 74.380,59.200 74.941 C 58.904 75.647,58.941 99.753,59.238 100.397 C 59.868 101.761,61.546 102.108,62.641 101.101 C 63.373 100.429,63.332 101.223,63.332 87.628 C 63.332 75.894,63.322 75.291,63.123 74.858 C 62.609 73.746,61.400 73.273,60.329 73.767 M65.437 73.766 C 64.897 74.014,64.655 74.267,64.420 74.830 C 64.266 75.198,64.245 76.747,64.245 87.657 L 64.245 100.065 64.501 100.571 C 64.641 100.849,64.928 101.191,65.138 101.330 C 66.181 102.023,67.517 101.678,68.076 100.571 L 68.331 100.065 68.329 87.632 C 68.327 75.810,68.316 75.176,68.118 74.745 C 67.640 73.704,66.488 73.284,65.437 73.766 M70.545 73.767 C 69.995 74.021,69.650 74.380,69.415 74.941 C 69.120 75.647,69.157 99.753,69.454 100.397 C 70.084 101.761,71.761 102.108,72.857 101.101 C 73.589 100.429,73.548 101.223,73.548 87.628 C 73.548 75.894,73.538 75.291,73.338 74.858 C 72.825 73.746,71.615 73.273,70.545 73.767 M75.653 73.766 C 75.113 74.014,74.871 74.267,74.635 74.830 C 74.482 75.198,74.461 76.747,74.461 87.657 L 74.461 100.065 74.716 100.571 C 74.857 100.849,75.143 101.191,75.353 101.330 C 76.396 102.023,77.732 101.678,78.292 100.571 L 78.547 100.065 78.545 87.632 C 78.542 75.810,78.532 75.176,78.334 74.745 C 77.856 73.704,76.704 73.284,75.653 73.766 M336.833 74.059 C 342.076 75.310,340.751 80.473,335.187 80.473 C 330.400 80.473,328.405 76.459,332.228 74.521 C 333.420 73.918,335.405 73.719,336.833 74.059 M36.596 74.682 L 36.947 75.033 36.947 87.628 L 36.947 100.223 36.576 100.594 C 36.256 100.913,36.126 100.965,35.641 100.965 C 35.157 100.965,35.026 100.913,34.707 100.594 L 34.336 100.223 34.336 87.635 L 34.336 75.047 34.620 74.741 C 35.201 74.116,36.005 74.091,36.596 74.682 M41.590 74.682 L 41.941 75.033 41.941 87.628 L 41.941 100.223 41.570 100.594 C 41.251 100.913,41.120 100.965,40.636 100.965 C 40.151 100.965,40.021 100.913,39.701 100.594 L 39.330 100.223 39.330 87.635 L 39.330 75.047 39.614 74.741 C 40.196 74.116,41.000 74.091,41.590 74.682 M46.811 74.682 L 47.162 75.033 47.162 87.628 L 47.162 100.223 46.791 100.594 C 46.472 100.913,46.342 100.965,45.857 100.965 C 45.372 100.965,45.242 100.913,44.923 100.594 L 44.552 100.223 44.552 87.635 L 44.552 75.047 44.835 74.741 C 45.417 74.116,46.221 74.091,46.811 74.682 M51.806 74.682 L 52.157 75.033 52.157 87.628 L 52.157 100.223 51.786 100.594 C 51.466 100.913,51.336 100.965,50.851 100.965 C 50.367 100.965,50.236 100.913,49.917 100.594 L 49.546 100.223 49.546 87.635 L 49.546 75.047 49.830 74.741 C 50.411 74.116,51.215 74.091,51.806 74.682 M57.027 74.682 L 57.378 75.033 57.378 87.628 L 57.378 100.223 57.007 100.594 C 56.688 100.913,56.557 100.965,56.073 100.965 C 55.588 100.965,55.458 100.913,55.138 100.594 L 54.767 100.223 54.767 87.635 L 54.767 75.047 55.051 74.741 C 55.633 74.116,56.437 74.091,57.027 74.682 M62.046 74.516 C 62.684 74.934,62.662 74.426,62.629 87.790 C 62.599 100.074,62.599 100.098,62.362 100.417 C 61.810 101.163,60.551 101.163,59.999 100.417 C 59.655 99.953,59.564 75.705,59.903 75.028 C 60.277 74.282,61.311 74.035,62.046 74.516 M67.243 74.682 L 67.594 75.033 67.594 87.628 L 67.594 100.223 67.223 100.594 C 66.903 100.913,66.773 100.965,66.288 100.965 C 65.804 100.965,65.673 100.913,65.354 100.594 L 64.983 100.223 64.983 87.635 L 64.983 75.047 65.267 74.741 C 65.848 74.116,66.652 74.091,67.243 74.682 M72.261 74.516 C 72.900 74.934,72.877 74.426,72.845 87.790 C 72.815 100.074,72.815 100.098,72.578 100.417 C 72.025 101.163,70.767 101.163,70.215 100.417 C 69.871 99.953,69.779 75.705,70.119 75.028 C 70.493 74.282,71.527 74.035,72.261 74.516 M77.458 74.682 L 77.809 75.033 77.809 87.628 L 77.809 100.223 77.438 100.594 C 77.119 100.913,76.989 100.965,76.504 100.965 C 76.019 100.965,75.889 100.913,75.570 100.594 L 75.199 100.223 75.199 87.635 L 75.199 75.047 75.482 74.741 C 76.064 74.116,76.868 74.091,77.458 74.682 M330.704 74.688 C 330.501 74.912,330.354 74.915,318.371 74.915 C 306.319 74.915,306.243 74.913,306.243 74.688 C 306.243 74.462,306.319 74.461,318.576 74.461 C 330.902 74.461,330.909 74.461,330.704 74.688 M211.294 75.028 C 211.340 75.102,214.474 75.142,220.326 75.142 L 229.287 75.142 229.215 81.073 C 229.176 84.335,229.112 88.368,229.072 90.035 L 229.001 93.067 223.950 96.968 L 218.899 100.869 218.867 102.066 L 218.835 103.264 208.367 103.333 C 202.610 103.371,191.630 103.434,183.967 103.472 L 170.034 103.541 170.032 102.196 L 170.029 100.851 164.927 97.162 C 161.586 94.747,159.823 93.405,159.821 93.275 C 159.820 93.165,159.767 93.076,159.705 93.076 C 159.630 93.076,159.591 90.011,159.591 84.109 L 159.591 75.142 168.388 75.142 C 174.177 75.142,177.185 75.103,177.185 75.028 C 177.185 74.953,182.934 74.915,194.204 74.915 C 205.428 74.915,211.248 74.954,211.294 75.028 M279.666 77.611 C 279.651 79.987,279.638 80.172,279.552 79.171 C 279.465 78.148,279.530 74.915,279.638 74.915 C 279.662 74.915,279.675 76.128,279.666 77.611 M158.906 81.243 L 158.903 87.344 158.116 86.493 L 157.329 85.641 157.325 80.392 L 157.321 75.142 158.116 75.142 L 158.910 75.142 158.906 81.243 M231.555 80.365 L 231.555 85.589 230.707 86.467 L 229.859 87.344 229.856 84.393 C 229.854 82.770,229.887 80.024,229.928 78.292 L 230.002 75.142 230.779 75.142 L 231.555 75.142 231.555 80.365 M329.677 76.064 C 329.463 76.670,329.466 77.763,329.682 78.281 C 329.776 78.505,329.852 78.708,329.852 78.731 C 329.852 78.755,324.642 78.774,318.275 78.774 L 306.697 78.774 306.697 78.395 C 306.697 78.186,306.730 77.471,306.771 76.805 L 306.845 75.596 318.344 75.596 L 329.842 75.596 329.677 76.064 M363.337 75.976 C 363.337 76.184,363.370 76.899,363.411 77.565 L 363.485 78.774 352.004 78.774 C 345.689 78.774,340.522 78.755,340.522 78.731 C 340.522 78.708,340.599 78.505,340.692 78.281 C 340.786 78.057,340.863 77.564,340.863 77.185 C 340.863 76.806,340.786 76.313,340.692 76.089 C 340.599 75.865,340.522 75.662,340.522 75.639 C 340.522 75.615,345.656 75.596,351.930 75.596 L 363.337 75.596 363.337 75.976 M5.647 77.300 C 6.066 77.940,6.889 78.596,7.520 78.791 L 7.946 78.924 7.946 80.324 L 7.946 81.725 5.448 81.725 L 2.951 81.725 2.951 79.228 L 2.951 76.731 4.115 76.733 L 5.278 76.735 5.647 77.300 M11.805 76.831 C 11.805 77.422,10.110 78.357,9.024 78.365 C 7.925 78.374,6.129 77.416,6.129 76.821 C 6.129 76.771,7.406 76.731,8.967 76.731 C 10.531 76.731,11.805 76.776,11.805 76.831 M14.075 79.228 L 14.075 81.725 12.145 81.725 L 10.216 81.725 10.216 80.312 L 10.216 78.898 10.718 78.676 C 11.330 78.405,12.143 77.675,12.435 77.132 C 12.647 76.739,12.664 76.731,13.363 76.731 L 14.075 76.731 14.075 79.228 M16.033 77.226 C 16.482 77.936,17.470 78.829,18.207 79.191 L 18.842 79.502 18.842 80.614 L 18.842 81.725 16.799 81.725 L 14.756 81.725 14.756 79.228 L 14.756 76.731 15.238 76.731 C 15.684 76.731,15.744 76.769,16.033 77.226 M25.085 76.795 C 25.085 77.699,22.487 79.115,20.829 79.115 C 19.163 79.115,16.572 77.709,16.572 76.804 C 16.572 76.764,18.488 76.731,20.829 76.731 C 23.170 76.731,25.085 76.760,25.085 76.795 M29.966 79.228 L 29.966 81.725 26.334 81.725 L 22.701 81.725 22.703 80.619 L 22.705 79.512 23.344 79.235 C 24.078 78.918,25.152 77.972,25.618 77.236 L 25.936 76.731 27.951 76.731 L 29.966 76.731 29.966 79.228 M86.815 77.413 C 87.350 78.172,88.228 78.923,88.961 79.250 L 89.444 79.466 89.444 80.596 L 89.444 81.725 85.812 81.725 L 82.179 81.725 82.179 79.228 L 82.179 76.731 84.257 76.731 L 86.334 76.731 86.815 77.413 M95.588 77.050 C 93.645 79.779,89.329 79.779,87.385 77.050 L 87.158 76.731 91.487 76.731 L 95.816 76.731 95.588 77.050 M97.616 79.228 L 97.616 81.725 95.573 81.725 L 93.530 81.725 93.530 80.600 L 93.530 79.475 94.048 79.225 C 94.841 78.841,95.628 78.166,96.158 77.413 C 96.619 76.759,96.660 76.731,97.128 76.731 L 97.616 76.731 97.616 79.228 M99.942 77.203 C 100.369 77.849,100.952 78.362,101.607 78.669 L 102.157 78.926 102.157 80.326 L 102.157 81.725 100.227 81.725 L 98.297 81.725 98.297 79.228 L 98.297 76.731 98.963 76.731 C 99.619 76.731,99.634 76.738,99.942 77.203 M105.992 77.100 C 104.844 78.615,102.563 78.814,101.097 77.526 C 100.161 76.705,100.088 76.731,103.359 76.731 L 106.272 76.731 105.992 77.100 M109.421 79.228 L 109.421 81.725 106.924 81.725 L 104.427 81.725 104.427 80.335 L 104.428 78.944 104.966 78.724 C 105.591 78.468,106.612 77.552,106.813 77.066 L 106.951 76.731 108.186 76.731 L 109.421 76.731 109.421 79.228 M177.152 77.951 C 176.397 79.553,176.545 80.673,177.874 83.430 C 179.172 86.124,179.241 86.888,178.369 88.960 C 177.305 91.488,177.161 91.885,177.053 92.580 C 176.914 93.471,177.058 94.459,177.438 95.225 L 177.696 95.743 194.369 95.772 C 210.143 95.799,211.050 95.790,211.202 95.602 C 212.298 94.246,212.378 92.538,211.447 90.416 C 209.874 86.829,209.823 86.335,210.793 83.968 C 212.207 80.518,212.304 79.628,211.457 77.894 L 211.109 77.185 194.312 77.185 L 177.514 77.185 177.152 77.951 M166.763 77.512 C 160.676 79.061,158.570 86.537,162.983 90.928 C 167.774 95.694,175.781 92.941,176.613 86.241 C 177.293 80.775,172.082 76.158,166.763 77.512 M218.672 77.696 C 209.918 79.343,209.870 91.716,218.611 93.480 C 223.048 94.376,227.520 91.070,228.017 86.529 C 228.603 81.168,223.891 76.714,218.672 77.696 M210.832 78.121 C 211.144 78.600,211.365 79.696,211.287 80.392 L 211.215 81.044 194.383 81.044 L 177.552 81.044 177.484 80.789 C 177.336 80.236,177.416 79.114,177.647 78.495 L 177.882 77.866 194.273 77.866 L 210.664 77.866 210.832 78.121 M170.419 78.203 C 175.958 79.620,177.862 86.508,173.820 90.512 C 169.064 95.225,160.899 91.552,161.328 84.892 C 161.625 80.274,165.982 77.069,170.419 78.203 M221.396 78.376 C 223.562 78.761,225.611 80.281,226.550 82.200 C 230.266 89.789,220.807 96.670,214.868 90.699 C 209.823 85.628,214.330 77.120,221.396 78.376 M167.230 78.938 C 162.736 79.963,160.690 85.210,163.297 89.025 C 166.887 94.279,175.132 91.671,175.141 85.278 C 175.146 81.148,171.245 78.022,167.230 78.938 M9.535 80.363 L 9.535 81.725 9.081 81.725 L 8.627 81.725 8.627 80.427 L 8.627 79.128 9.052 79.084 C 9.286 79.059,9.491 79.031,9.506 79.020 C 9.522 79.010,9.535 79.614,9.535 80.363 M219.296 79.128 C 214.087 79.673,211.686 86.070,215.231 89.958 C 219.257 94.372,226.561 91.553,226.561 85.585 C 226.561 81.663,223.243 78.714,219.296 79.128 M103.746 80.420 L 103.746 81.725 103.292 81.725 L 102.838 81.725 102.838 80.420 L 102.838 79.115 103.292 79.115 L 103.746 79.115 103.746 80.420 M169.982 79.628 C 174.428 80.763,175.992 86.158,172.815 89.399 C 169.485 92.796,163.683 90.956,162.878 86.248 C 162.189 82.217,166.045 78.623,169.982 79.628 M330.704 79.682 C 330.909 79.909,330.902 79.909,318.576 79.909 C 306.319 79.909,306.243 79.908,306.243 79.682 C 306.243 79.457,306.319 79.455,318.371 79.455 C 330.354 79.455,330.501 79.458,330.704 79.682 M364.132 81.158 L 364.132 82.860 335.187 82.860 L 306.243 82.860 306.243 81.725 L 306.243 80.590 319.186 80.590 L 332.130 80.590 332.836 80.843 C 333.443 81.061,333.772 81.096,335.187 81.096 C 336.603 81.096,336.932 81.061,337.539 80.843 L 338.245 80.590 351.075 80.590 L 363.905 80.590 363.905 80.250 L 363.905 79.909 351.685 79.909 C 339.473 79.909,339.466 79.909,339.671 79.682 C 339.874 79.458,340.020 79.455,352.004 79.455 L 364.132 79.455 364.132 81.158 M22.020 80.732 L 22.020 81.725 20.772 81.725 L 19.523 81.725 19.523 80.732 L 19.523 79.739 20.772 79.739 L 22.020 79.739 22.020 80.732 M92.849 80.732 L 92.849 81.725 91.487 81.725 L 90.125 81.725 90.125 80.732 L 90.125 79.739 91.487 79.739 L 92.849 79.739 92.849 80.732 M221.798 80.028 C 224.203 80.722,225.874 83.000,225.878 85.589 C 225.888 91.754,217.510 93.677,214.810 88.130 C 212.571 83.532,216.831 78.594,221.798 80.028 M153.488 81.699 L 153.859 82.070 153.859 83.768 L 153.859 85.467 153.488 85.838 L 153.117 86.209 148.695 86.209 L 144.272 86.209 143.901 85.838 L 143.530 85.467 143.530 83.775 C 143.530 81.142,143.245 81.275,148.834 81.305 L 153.117 81.328 153.488 81.699 M245.202 81.699 L 245.573 82.070 245.573 83.768 L 245.573 85.467 245.202 85.838 L 244.831 86.209 240.409 86.209 L 235.986 86.209 235.615 85.838 L 235.244 85.467 235.244 83.775 C 235.244 81.142,234.959 81.275,240.548 81.305 L 244.831 81.328 245.202 81.699 M156.644 83.683 L 156.648 85.868 157.779 87.151 L 158.910 88.434 158.910 90.188 L 158.910 91.941 148.638 91.941 L 138.365 91.941 138.365 91.629 C 138.364 91.457,138.418 90.270,138.485 88.990 L 138.606 86.663 139.070 85.698 C 139.709 84.371,142.076 82.069,142.806 82.066 C 142.830 82.066,142.833 82.742,142.813 83.570 C 142.745 86.348,143.244 86.939,145.658 86.944 L 146.879 86.947 146.879 88.309 L 146.879 89.671 148.922 89.671 L 150.965 89.671 150.965 88.309 L 150.965 86.947 151.933 86.947 C 153.346 86.947,153.977 86.640,154.384 85.755 C 154.657 85.160,154.690 82.509,154.433 81.892 L 154.268 81.498 155.454 81.498 L 156.640 81.498 156.644 83.683 M234.671 81.892 C 234.413 82.509,234.446 85.160,234.720 85.755 C 235.146 86.683,235.738 86.947,237.397 86.947 L 238.593 86.947 238.593 88.309 L 238.593 89.671 240.636 89.671 L 242.679 89.671 242.679 88.309 L 242.679 86.947 243.672 86.944 C 245.788 86.939,246.311 86.308,246.311 83.765 L 246.311 82.278 246.793 82.541 C 247.655 83.010,249.043 84.511,249.586 85.561 L 250.073 86.501 250.173 88.341 C 250.229 89.354,250.303 90.577,250.338 91.061 L 250.403 91.941 240.071 91.941 L 229.739 91.941 229.739 90.234 L 229.739 88.527 230.988 87.179 L 232.236 85.830 232.236 83.664 L 232.236 81.498 233.536 81.498 L 234.835 81.498 234.671 81.892 M210.897 81.828 C 210.897 81.884,210.670 82.461,210.393 83.109 C 209.943 84.163,209.673 85.005,209.480 85.953 L 209.417 86.266 194.519 86.266 L 179.621 86.266 179.491 85.581 C 179.413 85.174,179.058 84.285,178.613 83.386 C 178.202 82.555,177.866 81.842,177.866 81.800 C 177.866 81.759,185.298 81.725,194.381 81.725 C 204.118 81.725,210.897 81.767,210.897 81.828 M29.966 83.882 L 29.966 85.358 15.437 85.358 L 0.908 85.358 0.908 83.882 L 0.908 82.406 15.437 82.406 L 29.966 82.406 29.966 83.882 M111.464 83.882 L 111.464 85.358 96.765 85.358 L 82.066 85.358 82.066 83.882 L 82.066 82.406 96.765 82.406 L 111.464 82.406 111.464 83.882 M18.681 90.841 C 23.608 93.482,28.162 95.921,28.802 96.261 L 29.965 96.879 29.965 102.582 L 29.966 108.286 26.901 108.286 L 23.837 108.286 23.837 107.280 L 23.837 106.274 24.354 106.076 C 28.540 104.477,27.216 98.016,22.701 98.016 C 18.217 98.016,16.852 104.103,20.913 105.996 L 21.564 106.300 21.565 107.293 L 21.566 108.286 16.686 108.286 L 11.805 108.286 11.805 102.185 C 11.804 95.359,11.820 95.495,11.010 95.091 C 10.552 94.862,2.003 94.784,1.426 95.003 L 1.135 95.114 1.135 90.576 L 1.135 86.039 5.429 86.039 L 9.723 86.039 18.681 90.841 M29.966 91.080 L 29.966 96.121 28.746 95.464 C 28.075 95.102,24.308 93.083,20.375 90.976 C 16.442 88.869,12.764 86.897,12.202 86.594 L 11.180 86.042 20.573 86.040 L 29.966 86.039 29.966 91.080 M100.648 86.109 C 100.155 86.602,82.003 96.100,81.968 95.884 C 81.946 95.744,81.964 93.472,82.010 90.834 L 82.093 86.039 91.406 86.039 C 96.528 86.039,100.687 86.070,100.648 86.109 M111.237 90.576 L 111.237 95.114 110.946 95.003 C 110.369 94.784,101.820 94.862,101.362 95.091 C 100.553 95.495,100.568 95.359,100.568 102.185 L 100.568 108.286 96.027 108.286 L 91.487 108.286 91.487 107.278 L 91.487 106.270 92.087 105.976 C 96.081 104.022,94.688 98.014,90.240 98.014 C 85.697 98.014,84.404 104.587,88.652 106.095 L 89.217 106.296 89.217 107.291 L 89.217 108.286 85.698 108.286 L 82.179 108.286 82.179 105.846 C 82.179 103.752,82.155 103.405,82.009 103.405 C 81.824 103.405,81.790 100.931,81.939 98.200 L 82.009 96.911 92.111 91.482 L 102.213 86.053 106.725 86.046 L 111.237 86.039 111.237 90.576 M150.284 87.968 L 150.284 88.990 148.922 88.990 L 147.560 88.990 147.560 87.968 L 147.560 86.947 148.922 86.947 L 150.284 86.947 150.284 87.968 M209.535 87.213 C 209.535 87.582,209.855 88.478,210.541 90.022 C 210.861 90.745,211.124 91.370,211.124 91.412 C 211.124 91.453,203.692 91.487,194.608 91.487 C 184.758 91.487,178.093 91.445,178.093 91.384 C 178.093 91.327,178.352 90.707,178.668 90.007 C 178.983 89.307,179.323 88.396,179.422 87.982 C 179.521 87.569,179.619 87.167,179.639 87.089 C 179.668 86.976,182.756 86.947,194.605 86.947 L 209.535 86.947 209.535 87.213 M241.998 87.968 L 241.998 88.990 240.636 88.990 L 239.274 88.990 239.274 87.968 L 239.274 86.947 240.636 86.947 L 241.998 86.947 241.998 87.968 M304.654 96.952 L 304.654 105.823 301.901 105.746 C 298.191 105.642,290.290 105.358,287.283 105.222 C 285.122 105.123,284.701 105.072,283.651 104.775 C 281.142 104.067,277.998 102.881,277.286 102.375 L 276.958 102.141 276.958 96.122 L 276.958 90.104 277.882 89.093 L 278.806 88.082 291.730 88.082 L 304.654 88.082 304.654 96.952 M365.494 96.976 L 365.494 105.870 364.160 105.942 C 356.773 106.338,306.798 106.252,305.477 105.840 C 305.365 105.805,305.335 103.925,305.335 96.939 L 305.335 88.082 335.414 88.082 L 365.494 88.082 365.494 96.976 M392.367 89.152 L 392.963 90.217 392.963 96.224 L 392.963 102.231 392.697 102.480 C 392.349 102.807,389.958 103.835,388.309 104.366 C 385.579 105.246,385.152 105.301,379.569 105.498 C 373.632 105.708,367.477 105.901,366.714 105.902 L 366.175 105.902 366.175 96.992 L 366.175 88.082 378.973 88.084 L 391.771 88.087 392.367 89.152 M283.337 92.235 C 281.939 92.931,281.725 93.577,281.725 97.106 C 281.725 101.992,281.559 101.852,288.501 102.830 C 295.287 103.787,296.202 103.759,297.249 102.568 C 298.002 101.709,298.007 101.677,298.011 97.787 C 298.014 93.777,297.982 93.596,297.133 92.763 C 296.282 91.929,296.389 91.941,289.792 91.941 L 283.927 91.941 283.337 92.235 M307.660 92.048 C 304.764 93.223,307.816 99.518,312.326 101.671 L 313.224 102.100 335.276 102.129 C 359.898 102.162,358.159 102.217,359.932 101.347 C 363.493 99.601,365.598 93.768,363.235 92.197 L 362.850 91.941 335.369 91.948 C 320.255 91.952,307.786 91.997,307.660 92.048 M375.191 92.211 C 373.726 92.893,373.496 93.635,373.496 97.673 C 373.496 103.973,373.793 104.135,382.974 102.845 C 390.070 101.848,389.778 102.089,389.782 97.232 C 389.785 93.787,389.749 93.601,388.937 92.788 C 388.071 91.923,388.230 91.941,381.599 91.942 L 375.766 91.943 375.191 92.211 M211.416 92.571 C 211.521 93.133,211.394 93.824,211.055 94.523 L 210.767 95.119 194.448 95.119 L 178.130 95.119 177.996 94.827 C 177.743 94.271,177.625 93.471,177.700 92.821 L 177.775 92.168 194.558 92.168 L 211.340 92.168 211.416 92.571 M286.059 92.865 C 282.896 94.430,282.438 99.316,285.261 101.362 C 285.793 101.747,285.742 101.762,284.516 101.585 C 282.678 101.319,282.474 100.909,282.427 97.372 C 282.371 93.159,282.688 92.636,285.301 92.627 L 286.549 92.622 286.059 92.865 M295.998 92.797 C 297.259 93.323,297.333 93.595,297.333 97.730 C 297.333 103.053,296.960 103.365,291.561 102.574 L 289.877 102.327 290.555 102.016 C 294.289 100.303,294.535 94.995,290.976 92.950 L 290.409 92.624 292.995 92.623 C 295.067 92.622,295.664 92.657,295.998 92.797 M362.935 92.800 C 363.451 93.137,363.634 94.792,363.299 96.084 L 363.152 96.652 335.621 96.680 L 308.090 96.709 307.798 96.056 C 307.085 94.460,307.026 93.524,307.602 92.948 L 307.928 92.622 335.296 92.622 C 359.945 92.622,362.691 92.640,362.935 92.800 M379.399 92.927 C 375.490 94.960,376.041 100.845,380.275 102.279 L 380.814 102.461 379.482 102.650 C 374.684 103.328,374.177 102.853,374.177 97.673 C 374.177 92.835,374.330 92.630,377.923 92.632 L 379.966 92.633 379.399 92.927 M387.826 92.797 C 389.013 93.293,389.103 93.597,389.103 97.106 C 389.103 101.189,389.040 101.292,386.285 101.693 C 384.220 101.993,384.214 101.993,384.748 101.606 C 387.793 99.401,387.572 94.838,384.329 92.978 L 383.712 92.624 385.560 92.623 C 386.968 92.622,387.507 92.664,387.826 92.797 M158.632 93.128 C 159.208 93.704,158.795 94.665,157.970 94.665 C 157.175 94.665,156.781 93.708,157.334 93.119 C 157.679 92.752,158.259 92.755,158.632 93.128 M231.488 93.312 C 231.826 93.713,231.846 93.871,231.616 94.317 C 231.238 95.048,230.087 94.905,229.911 94.104 C 229.700 93.145,230.858 92.563,231.488 93.312 M289.810 93.196 C 291.751 93.834,292.956 95.621,292.825 97.668 C 292.580 101.481,287.880 103.183,285.264 100.406 C 282.133 97.082,285.480 91.774,289.810 93.196 M382.656 93.090 C 386.152 93.832,387.430 98.052,384.920 100.562 C 382.604 102.878,378.589 101.859,377.621 98.709 C 376.652 95.555,379.466 92.413,382.656 93.090 M229.058 99.415 L 229.058 104.845 225.624 104.919 C 212.574 105.199,160.128 105.342,159.883 105.097 C 159.846 105.060,159.829 102.624,159.846 99.684 L 159.875 94.339 164.610 97.765 L 169.346 101.192 169.349 102.708 L 169.353 104.224 183.400 104.154 C 191.125 104.116,202.412 104.053,208.481 104.015 L 219.517 103.945 219.548 102.573 L 219.580 101.201 224.234 97.599 C 226.793 95.618,228.926 93.994,228.973 93.990 C 229.020 93.987,229.058 96.428,229.058 99.415 M150.851 94.959 C 151.612 95.313,152.052 95.737,152.406 96.458 L 152.724 97.106 152.759 101.050 C 152.786 104.099,152.763 104.994,152.656 104.994 C 152.579 104.994,152.124 105.225,151.643 105.507 L 150.768 106.020 150.698 107.749 C 150.659 108.700,150.594 110.385,150.554 111.493 L 150.481 113.507 151.633 113.507 L 152.786 113.507 152.755 127.270 C 152.724 140.963,152.723 141.035,152.487 141.544 C 152.133 142.305,151.709 142.744,150.988 143.099 L 150.341 143.417 146.879 143.417 L 143.417 143.417 142.769 143.099 C 142.048 142.744,141.624 142.305,141.270 141.544 L 141.033 141.033 141.003 119.410 C 140.982 104.399,141.009 97.608,141.094 97.201 C 141.328 96.070,142.211 95.132,143.336 94.820 C 144.307 94.550,150.207 94.660,150.851 94.959 M246.001 94.927 C 246.625 95.214,247.272 95.843,247.577 96.456 L 247.843 96.992 247.843 119.069 L 247.843 141.146 247.577 141.682 C 246.788 143.269,246.313 143.417,241.998 143.417 C 237.682 143.417,237.207 143.269,236.418 141.682 L 236.152 141.146 236.121 127.420 C 236.097 116.423,236.120 113.676,236.235 113.602 C 236.314 113.552,236.718 113.510,237.133 113.509 L 237.886 113.507 237.962 111.152 C 238.004 109.857,238.048 107.980,238.060 106.981 L 238.082 105.166 237.081 104.944 L 236.080 104.722 236.116 100.857 C 236.158 96.481,236.177 96.379,237.134 95.515 C 238.012 94.721,238.291 94.677,242.225 94.705 C 245.133 94.726,245.629 94.755,246.001 94.927 M10.861 95.820 L 11.124 96.067 11.124 102.176 L 11.124 108.286 9.591 108.286 L 8.059 108.286 8.059 109.289 C 8.059 109.841,8.025 111.680,7.984 113.375 L 7.909 116.459 9.516 116.459 L 11.124 116.459 11.124 129.703 L 11.124 142.948 10.877 143.211 L 10.630 143.473 6.182 143.473 C 1.853 143.473,1.725 143.467,1.434 143.238 L 1.135 143.003 1.135 119.551 L 1.135 96.099 1.382 95.836 L 1.629 95.573 6.113 95.573 C 10.562 95.573,10.600 95.575,10.861 95.820 M111.002 95.872 L 111.237 96.171 111.237 119.560 L 111.237 142.948 110.990 143.211 L 110.744 143.473 106.259 143.473 C 101.810 143.473,101.772 143.471,101.511 143.227 L 101.249 142.980 101.249 129.719 L 101.249 116.459 103.178 116.459 L 105.108 116.459 105.108 112.372 L 105.108 108.286 103.178 108.286 L 101.249 108.286 101.249 102.229 C 101.249 96.273,101.253 96.166,101.484 95.872 L 101.719 95.573 106.243 95.573 L 110.767 95.573 111.002 95.872 M215.905 95.798 C 214.769 96.074,214.033 97.101,214.098 98.321 C 214.263 101.419,218.878 101.287,218.878 98.184 C 218.878 96.614,217.408 95.434,215.905 95.798 M171.609 96.344 C 170.511 96.918,169.990 98.237,170.419 99.358 C 171.369 101.846,175.012 101.344,175.232 98.695 C 175.394 96.744,173.365 95.427,171.609 96.344 M217.423 96.713 C 218.475 97.352,218.470 98.926,217.414 99.650 C 216.885 100.013,215.816 99.954,215.371 99.539 C 213.769 98.042,215.557 95.579,217.423 96.713 M181.555 96.612 C 178.995 96.664,176.835 96.732,176.754 96.763 C 176.229 96.963,175.973 98.767,176.328 99.763 C 176.639 100.634,176.086 100.568,183.031 100.568 L 189.302 100.568 189.565 99.972 C 189.763 99.522,189.828 99.167,189.828 98.524 C 189.828 97.882,189.763 97.527,189.565 97.077 L 189.302 96.481 187.756 96.499 C 186.905 96.509,184.115 96.560,181.555 96.612 M205.846 96.601 C 203.910 96.643,201.782 96.685,201.117 96.693 L 199.907 96.708 199.642 97.247 C 199.275 97.992,199.279 99.138,199.649 99.972 L 199.914 100.568 206.205 100.568 L 212.496 100.568 212.774 99.972 C 212.990 99.506,213.051 99.189,213.051 98.524 C 213.051 97.860,212.990 97.542,212.774 97.077 L 212.496 96.481 210.930 96.503 C 210.069 96.514,207.781 96.559,205.846 96.601 M173.477 96.863 C 174.643 97.350,174.927 98.879,174.020 99.786 C 173.288 100.518,172.283 100.522,171.519 99.795 C 170.073 98.419,171.628 96.091,173.477 96.863 M189.088 97.872 C 189.219 98.423,189.219 98.626,189.088 99.177 L 188.933 99.830 183.011 99.859 L 177.090 99.889 176.956 99.482 C 176.791 98.983,176.792 97.926,176.958 97.617 C 177.065 97.416,177.203 97.388,178.125 97.374 C 178.701 97.366,180.755 97.324,182.690 97.280 C 184.625 97.237,186.822 97.206,187.571 97.210 L 188.933 97.219 189.088 97.872 M212.248 97.520 C 212.408 97.980,212.408 99.069,212.247 99.530 L 212.122 99.889 206.203 99.859 L 200.284 99.830 200.118 99.177 C 199.970 98.591,200.054 97.639,200.272 97.420 C 200.303 97.389,207.700 97.220,210.744 97.180 L 212.123 97.162 212.248 97.520 M362.577 97.978 C 362.125 98.813,360.812 100.112,359.920 100.607 C 358.228 101.545,360.187 101.476,335.514 101.476 L 313.629 101.476 312.990 101.236 C 311.594 100.714,309.409 98.929,308.705 97.737 L 308.500 97.389 335.698 97.389 L 362.896 97.389 362.577 97.978 M24.246 99.011 C 27.555 100.696,26.411 105.695,22.716 105.695 C 18.737 105.695,17.814 100.174,21.566 98.819 C 22.317 98.548,23.504 98.633,24.246 99.011 M91.756 98.972 C 94.450 100.276,94.420 104.168,91.707 105.386 C 89.373 106.433,86.720 104.750,86.720 102.222 C 86.720 99.636,89.467 97.863,91.756 98.972 M34.279 106.016 L 34.279 108.286 32.463 108.286 L 30.647 108.286 30.647 106.016 L 30.647 103.746 32.463 103.746 L 34.279 103.746 34.279 106.016 M52.440 106.016 L 52.440 108.286 43.700 108.286 L 34.960 108.286 34.960 106.016 L 34.960 103.746 43.700 103.746 L 52.440 103.746 52.440 106.016 M59.024 106.016 L 59.024 108.286 56.073 108.286 L 53.121 108.286 53.121 106.016 L 53.121 103.746 56.073 103.746 L 59.024 103.746 59.024 106.016 M76.958 106.016 L 76.958 108.286 68.331 108.286 L 59.705 108.286 59.705 106.016 L 59.705 103.746 68.331 103.746 L 76.958 103.746 76.958 106.016 M81.498 106.016 L 81.498 108.286 79.569 108.286 L 77.639 108.286 77.639 106.016 L 77.639 103.746 79.569 103.746 L 81.498 103.746 81.498 106.016 M280.760 104.566 C 283.710 105.606,284.533 105.774,287.287 105.901 C 290.240 106.037,298.119 106.321,301.901 106.427 L 304.654 106.504 304.654 107.906 L 304.654 109.309 303.888 109.248 C 303.466 109.214,301.334 109.059,299.149 108.903 C 295.008 108.608,288.097 108.001,284.394 107.608 L 282.238 107.379 280.478 105.604 C 279.510 104.628,278.820 103.869,278.944 103.917 C 279.069 103.966,279.886 104.257,280.760 104.566 M390.598 104.625 C 390.347 104.922,389.637 105.664,389.020 106.275 L 387.899 107.386 384.046 107.773 C 378.147 108.366,368.024 109.193,366.657 109.194 L 366.175 109.194 366.175 107.902 L 366.175 106.610 368.530 106.537 C 386.729 105.978,386.612 105.990,390.579 104.268 C 390.797 104.173,390.994 104.093,391.015 104.091 C 391.037 104.088,390.849 104.329,390.598 104.625 M55.277 104.569 C 54.656 104.991,54.439 105.373,54.449 106.028 C 54.475 107.765,56.711 108.324,57.594 106.814 C 58.224 105.738,57.390 104.313,56.129 104.313 C 55.821 104.313,55.519 104.404,55.277 104.569 M56.657 105.117 C 57.285 105.453,57.270 106.542,56.634 106.871 C 55.740 107.332,54.832 106.533,55.213 105.621 C 55.458 105.036,56.092 104.815,56.657 105.117 M236.889 105.583 L 237.474 105.718 237.407 107.655 C 237.370 108.720,237.310 110.315,237.274 111.200 L 237.208 112.808 236.283 112.873 C 235.042 112.961,230.487 113.133,224.007 113.337 C 202.557 114.010,176.405 113.879,155.789 112.994 C 153.666 112.903,151.758 112.828,151.548 112.827 L 151.167 112.826 151.234 111.379 C 151.271 110.583,151.333 109.136,151.371 108.164 L 151.441 106.397 152.083 106.060 L 152.724 105.724 158.343 105.800 C 173.941 106.010,211.294 105.886,226.788 105.571 C 233.692 105.431,236.244 105.434,236.889 105.583 M23.156 107.337 L 23.156 108.286 22.701 108.286 L 22.247 108.286 22.247 107.337 L 22.247 106.387 22.701 106.387 L 23.156 106.387 23.156 107.337 M90.806 107.327 L 90.806 108.286 90.352 108.286 L 89.898 108.286 89.898 107.345 L 89.898 106.405 90.352 106.387 L 90.806 106.368 90.806 107.327 M309.904 106.651 L 313.053 106.723 313.053 108.247 L 313.053 109.771 312.230 109.710 C 311.778 109.676,310.309 109.597,308.967 109.534 C 307.625 109.471,306.259 109.391,305.931 109.356 L 305.335 109.291 305.335 107.904 L 305.335 106.516 306.044 106.548 C 306.434 106.566,308.171 106.612,309.904 106.651 M365.494 107.946 C 365.494 109.282,365.489 109.308,365.238 109.310 C 365.098 109.311,363.706 109.387,362.145 109.478 C 360.585 109.570,359.116 109.645,358.882 109.646 L 358.456 109.648 358.456 108.175 L 358.456 106.701 361.209 106.668 C 362.723 106.651,364.306 106.624,364.728 106.610 L 365.494 106.583 365.494 107.946 M316.930 106.810 L 317.367 106.810 317.367 108.567 L 317.367 110.323 316.260 110.265 C 315.651 110.233,314.834 110.179,314.444 110.145 L 313.734 110.084 313.734 108.373 L 313.734 106.662 315.114 106.736 C 315.873 106.777,316.691 106.810,316.930 106.810 M329.530 106.924 L 332.804 106.924 332.804 108.588 L 332.804 110.252 328.008 110.176 C 325.370 110.134,322.050 110.067,320.630 110.026 L 318.048 109.953 318.048 108.363 L 318.048 106.774 322.153 106.849 C 324.410 106.890,327.730 106.924,329.530 106.924 M353.235 108.332 L 353.235 109.854 352.185 109.923 C 350.835 110.012,342.177 110.215,339.699 110.215 L 337.798 110.216 337.798 108.571 L 337.798 106.926 344.183 106.896 C 347.694 106.879,351.168 106.853,351.901 106.838 L 353.235 106.810 353.235 108.332 M357.775 108.447 L 357.775 110.083 356.952 110.145 C 356.500 110.179,355.631 110.236,355.023 110.271 L 353.916 110.334 353.916 108.572 L 353.916 106.810 355.846 106.810 L 357.775 106.810 357.775 108.447 M337.117 108.967 L 337.117 111.010 335.301 111.010 L 333.485 111.010 333.485 108.967 L 333.485 106.924 335.301 106.924 L 337.117 106.924 337.117 108.967 M388.698 142.301 C 388.005 143.307,388.374 143.246,382.967 143.246 C 377.526 143.246,377.880 143.308,377.197 142.244 L 376.844 141.693 376.872 125.415 L 376.901 109.137 378.490 108.993 C 379.364 108.914,381.893 108.669,384.109 108.448 L 388.138 108.047 388.593 107.597 L 389.047 107.148 389.075 124.429 L 389.104 141.711 388.698 142.301 M285.925 108.449 C 288.079 108.665,290.628 108.906,291.590 108.985 C 293.072 109.107,293.371 109.163,293.548 109.353 C 293.749 109.569,293.757 110.195,293.757 125.621 C 293.757 143.324,293.812 142.057,293.015 142.830 L 292.587 143.246 287.763 143.246 L 282.939 143.246 282.571 142.966 C 282.368 142.811,282.095 142.463,281.964 142.192 L 281.725 141.699 281.725 124.826 C 281.725 111.375,281.754 107.963,281.867 108.004 C 281.945 108.033,283.771 108.233,285.925 108.449 M104.427 112.372 L 104.427 115.778 56.509 115.778 L 8.590 115.778 8.665 113.205 C 8.706 111.791,8.740 110.258,8.740 109.800 L 8.740 108.967 56.583 108.967 L 104.427 108.967 104.427 112.372 M297.446 109.477 C 302.270 109.827,304.675 109.981,308.002 110.155 C 312.654 110.398,313.053 110.433,313.053 110.607 C 313.053 110.754,313.266 110.775,316.714 110.967 C 317.949 111.036,318.048 111.026,318.048 110.837 C 318.048 110.645,318.194 110.638,320.630 110.707 C 322.050 110.748,325.370 110.815,328.008 110.857 L 332.804 110.933 332.804 111.312 L 332.804 111.691 335.301 111.691 L 337.798 111.691 337.798 111.294 L 337.798 110.897 339.642 110.896 C 342.071 110.896,350.719 110.695,352.128 110.607 C 353.216 110.539,353.235 110.542,353.235 110.790 C 353.235 111.039,353.246 111.040,354.540 110.969 C 355.258 110.929,356.433 110.864,357.151 110.825 C 358.284 110.762,358.456 110.727,358.456 110.556 C 358.456 110.384,358.637 110.350,359.904 110.284 C 365.353 109.996,374.104 109.407,375.416 109.239 L 375.975 109.168 375.757 109.459 C 375.637 109.620,374.364 111.155,372.928 112.871 L 370.318 115.990 335.754 115.997 L 301.190 116.005 297.786 112.597 C 294.958 109.767,294.439 109.200,294.722 109.247 C 294.909 109.279,296.135 109.382,297.446 109.477 M158.627 113.787 C 160.874 113.877,164.092 113.982,165.778 114.019 C 169.410 114.101,169.353 114.093,169.352 114.503 C 169.351 114.756,169.268 114.847,168.902 115.001 C 168.078 115.347,167.992 115.636,167.992 118.048 C 167.992 120.460,168.078 120.748,168.902 121.094 C 169.350 121.283,169.351 121.283,169.352 121.935 L 169.353 122.588 163.791 122.588 L 158.229 122.588 158.229 121.680 L 158.229 120.772 155.846 120.772 L 153.462 120.772 153.462 117.196 L 153.462 113.621 154.001 113.622 C 154.298 113.622,156.379 113.696,158.627 113.787 M235.414 117.196 L 235.414 120.772 234.096 120.772 L 232.777 120.772 231.797 121.660 L 230.817 122.549 225.085 122.348 C 221.932 122.238,219.136 122.145,218.871 122.141 C 218.174 122.131,218.154 121.609,218.839 121.321 C 219.671 120.972,219.749 120.699,219.749 118.161 C 219.749 115.623,219.671 115.350,218.839 115.001 C 218.478 114.850,218.390 114.754,218.389 114.514 L 218.388 114.214 220.289 114.144 C 221.335 114.105,224.617 113.995,227.582 113.900 C 230.548 113.805,233.153 113.712,233.371 113.693 C 233.590 113.674,234.139 113.650,234.591 113.640 L 235.414 113.621 235.414 117.196 M173.439 114.529 L 173.439 114.869 171.737 114.869 L 170.034 114.869 170.034 114.529 L 170.034 114.188 171.737 114.188 L 173.439 114.188 173.439 114.529 M217.707 114.529 L 217.707 114.869 216.005 114.869 L 214.302 114.869 214.302 114.591 C 214.302 114.285,214.420 114.266,216.771 114.211 L 217.707 114.188 217.707 114.529 M195.516 114.437 C 201.447 114.435,207.947 114.397,209.960 114.352 L 213.621 114.271 213.620 114.542 C 213.619 114.749,213.514 114.857,213.170 115.001 C 212.338 115.350,212.260 115.623,212.260 118.161 C 212.260 120.699,212.338 120.972,213.170 121.321 C 213.977 121.660,213.806 122.000,212.855 121.947 C 210.144 121.797,196.902 121.439,195.970 121.491 C 193.386 121.636,191.518 122.414,187.628 124.966 C 181.929 128.703,179.161 129.146,175.081 126.973 L 174.177 126.492 174.148 123.887 L 174.119 121.283 174.569 121.094 C 175.395 120.749,175.482 120.461,175.482 118.048 C 175.482 115.636,175.395 115.347,174.571 115.001 C 174.227 114.857,174.122 114.749,174.121 114.542 L 174.120 114.271 179.427 114.356 C 182.345 114.402,189.586 114.439,195.516 114.437 M174.574 115.778 C 174.785 115.988,174.801 116.156,174.801 118.048 C 174.801 120.779,175.089 120.545,171.737 120.545 C 168.384 120.545,168.672 120.779,168.672 118.048 C 168.672 115.316,168.384 115.551,171.737 115.551 C 174.196 115.551,174.360 115.564,174.574 115.778 M218.842 115.778 C 219.053 115.989,219.069 116.156,219.069 118.161 C 219.069 121.025,219.367 120.772,216.005 120.772 C 212.642 120.772,212.940 121.025,212.940 118.161 C 212.940 115.297,212.642 115.551,216.005 115.551 C 218.464 115.551,218.628 115.564,218.842 115.778 M29.907 118.644 C 29.862 119.845,29.804 120.852,29.778 120.880 C 29.752 120.908,28.111 120.968,26.131 121.013 C 24.151 121.058,22.370 121.099,22.173 121.104 L 21.815 121.112 21.742 122.219 C 21.702 122.828,21.641 123.521,21.607 123.759 L 21.544 124.193 18.859 124.126 C 17.383 124.089,15.192 124.029,13.990 123.992 L 11.805 123.925 11.805 120.192 L 11.805 116.459 20.897 116.459 L 29.989 116.459 29.907 118.644 M34.279 117.480 L 34.279 118.502 32.463 118.502 L 30.647 118.502 30.647 117.480 L 30.647 116.459 32.463 116.459 L 34.279 116.459 34.279 117.480 M76.900 118.587 C 76.855 119.757,76.809 120.726,76.797 120.740 C 76.753 120.792,70.177 120.540,66.629 120.351 C 57.844 119.882,57.908 119.865,53.973 123.725 C 50.286 127.342,48.541 128.300,45.630 128.306 C 42.449 128.312,38.713 125.869,36.362 122.245 C 35.978 121.653,35.557 121.052,35.426 120.910 C 35.219 120.684,35.187 120.509,35.187 119.576 C 35.187 118.935,35.141 118.502,35.074 118.502 C 35.007 118.502,34.960 118.086,34.960 117.480 L 34.960 116.459 55.971 116.459 L 76.983 116.459 76.900 118.587 M81.498 117.480 L 81.498 118.502 79.569 118.502 L 77.639 118.502 77.639 117.480 L 77.639 116.459 79.569 116.459 L 81.498 116.459 81.498 117.480 M100.568 119.977 C 100.568 121.913,100.555 123.503,100.539 123.511 C 100.524 123.520,98.265 123.584,95.521 123.653 L 90.531 123.780 89.724 122.928 C 89.280 122.460,88.671 121.809,88.370 121.481 L 87.824 120.885 85.001 120.885 L 82.179 120.885 82.179 118.672 L 82.179 116.459 91.373 116.459 L 100.568 116.459 100.568 119.977 M305.562 118.275 L 305.562 119.864 303.405 119.864 L 301.249 119.864 301.249 118.275 L 301.249 116.686 303.405 116.686 L 305.562 116.686 305.562 118.275 M347.049 117.126 C 345.599 117.679,345.399 117.783,342.929 119.279 C 339.719 121.223,338.515 121.612,335.698 121.617 C 332.932 121.621,331.650 121.197,328.414 119.207 C 326.581 118.079,325.810 117.684,324.347 117.126 L 323.212 116.693 335.698 116.693 L 348.184 116.693 347.049 117.126 M370.034 118.275 L 370.034 119.864 367.877 119.864 L 365.721 119.864 365.721 118.275 L 365.721 116.686 367.877 116.686 L 370.034 116.686 370.034 118.275 M34.506 122.629 L 34.506 126.076 33.980 126.148 C 33.690 126.188,32.762 126.220,31.918 126.220 L 30.384 126.220 30.458 123.581 C 30.499 122.130,30.533 120.546,30.533 120.062 L 30.533 119.183 32.520 119.183 L 34.506 119.183 34.506 122.629 M81.498 122.629 L 81.498 126.076 80.972 126.148 C 80.682 126.188,79.754 126.220,78.910 126.220 L 77.376 126.220 77.450 123.581 C 77.491 122.130,77.525 120.546,77.525 120.062 L 77.526 119.183 79.512 119.183 L 81.498 119.183 81.498 122.629 M306.697 123.269 L 306.697 125.993 303.519 125.993 L 300.341 125.993 300.341 123.269 L 300.341 120.545 303.519 120.545 L 306.697 120.545 306.697 123.269 M371.169 123.269 L 371.169 125.993 367.877 125.993 L 364.586 125.993 364.586 123.269 L 364.586 120.545 367.877 120.545 L 371.169 120.545 371.169 123.269 M173.383 124.291 L 173.383 127.299 171.737 127.299 L 170.091 127.299 170.060 124.406 C 170.023 120.823,169.812 121.213,171.763 121.251 L 173.383 121.283 173.383 124.291 M217.650 124.404 L 217.650 127.299 216.005 127.299 L 214.359 127.299 214.328 124.520 C 214.290 121.067,214.082 121.440,216.031 121.478 L 217.650 121.510 217.650 124.404 M305.562 127.128 L 305.562 127.582 303.405 127.582 L 301.249 127.582 301.249 127.128 L 301.249 126.674 303.405 126.674 L 305.562 126.674 305.562 127.128 M370.034 127.128 L 370.034 127.582 367.877 127.582 L 365.721 127.582 365.721 127.128 L 365.721 126.674 367.877 126.674 L 370.034 126.674 370.034 127.128 M33.825 127.128 C 33.825 127.342,33.750 127.355,32.577 127.355 C 31.404 127.355,31.328 127.342,31.328 127.128 C 31.328 126.915,31.404 126.901,32.577 126.901 C 33.750 126.901,33.825 126.915,33.825 127.128 M80.817 127.128 C 80.817 127.340,80.742 127.355,79.682 127.355 C 78.623 127.355,78.547 127.340,78.547 127.128 C 78.547 126.916,78.623 126.901,79.682 126.901 C 80.742 126.901,80.817 126.916,80.817 127.128 M174.064 128.377 L 174.064 128.661 171.762 128.691 C 169.337 128.724,169.206 128.697,169.395 128.204 C 169.452 128.056,169.789 128.036,171.762 128.062 L 174.064 128.093 174.064 128.377 M218.331 128.490 L 218.331 128.888 216.005 128.888 L 213.678 128.888 213.640 128.624 C 213.556 128.028,213.552 128.029,216.030 128.062 L 218.331 128.093 218.331 128.490 " stroke="none" fill="#000000" fill-rule="evenodd"></path></g></svg>